/* XPM */
static char *black[] = {
/* columns rows colors chars-per-pixel */
"127 27 163 2",
"   c black",
".  c #010000",
"X  c #000002",
"o  c #020000",
"O  c #040100",
"+  c #060100",
"@  c #010209",
"#  c #04070D",
"$  c #0A0201",
"%  c #0B0201",
"&  c #0D0301",
"*  c #020413",
"=  c #020515",
"-  c #020516",
";  c #020618",
":  c #03061B",
">  c #03071F",
",  c #100401",
"<  c #120402",
"1  c #1D0703",
"2  c #1F0703",
"3  c gray11",
"4  c #030720",
"5  c #050B2F",
"6  c #060E33",
"7  c #060D39",
"8  c #1C1E20",
"9  c #1E1F21",
"0  c #1D252D",
"q  c #10273D",
"w  c #210803",
"e  c #330C05",
"r  c #202225",
"t  c #252E3E",
"y  c #2C343D",
"u  c #09144D",
"i  c #0F275E",
"p  c #182D47",
"a  c #0F2565",
"s  c #183B60",
"d  c #273143",
"f  c #2B3E6F",
"g  c #35465B",
"h  c #4B1208",
"j  c #583716",
"k  c #413027",
"l  c #453328",
"z  c #63180B",
"x  c #751F0E",
"c  c #66200E",
"v  c #67250F",
"b  c #7F3916",
"n  c #4B4238",
"m  c #7B431B",
"M  c #654523",
"N  c #684823",
"B  c #6F4D26",
"V  c #65513D",
"C  c #7F4630",
"Z  c #797066",
"A  c #102580",
"S  c #153487",
"D  c #1A4298",
"F  c #225390",
"G  c #235891",
"H  c #307BC9",
"J  c #317ECB",
"K  c #4F7CBF",
"L  c #507CBC",
"P  c #3387C2",
"I  c #3387D0",
"U  c #68829B",
"Y  c #6C879E",
"T  c #768899",
"R  c #4685C2",
"E  c #5D84C2",
"W  c #6FC8E8",
"Q  c #833214",
"!  c #8B4A1D",
"~  c #9E491D",
"^  c #915220",
"/  c #945236",
"(  c #926C3D",
")  c #B75120",
"_  c #BE7C35",
"`  c #9D7B54",
"'  c #BB8045",
"]  c #D99F48",
"[  c #D6A368",
"{  c #E4BE65",
"}  c #EDD67B",
"|  c #8D8D8D",
" . c #A1988F",
".. c #B19B80",
"X. c #85AFDD",
"o. c #9FBBD0",
"O. c #8AD6ED",
"+. c #9FD7EE",
"@. c #9BE1F1",
"#. c #AFC1D0",
"$. c #A2D2ED",
"%. c #A5D5EE",
"&. c #A5DAEF",
"*. c #B3D7EF",
"=. c #A1E8F4",
"-. c #A3E9F4",
";. c #BFEDF7",
":. c #C6B8A5",
">. c #CBBDAA",
",. c #E0BCA2",
"<. c #CEC0AE",
"1. c #CBC3BA",
"2. c #D4C7B6",
"3. c #E7C48C",
"4. c #E5C29A",
"5. c #EBCD9D",
"6. c #EBD081",
"7. c #EFD7A6",
"8. c #F2E392",
"9. c #F2E19D",
"0. c #F6EDB8",
"q. c #C0C0C0",
"w. c #C4D3E3",
"e. c #CBD9E4",
"r. c #CFDCE7",
"t. c #C6EFF8",
"y. c #C7F1F8",
"u. c #D3F4FA",
"i. c #EFE5D7",
"p. c #EDE6DD",
"a. c #F8F0C3",
"s. c #F9F3CF",
"d. c #F9F4D1",
"f. c #FAF4D2",
"g. c #FBF6DB",
"h. c #EEF4F7",
"j. c #EBFAFC",
"k. c #ECFAFC",
"l. c #EDFAFD",
"z. c #F2EEE6",
"x. c #F6F2EB",
"c. c #F5F1EC",
"v. c #F6F3EC",
"b. c #FBF6E7",
"n. c #FCF9E8",
"m. c #FDFAED",
"M. c #FDFBEF",
"N. c #F4F8FB",
"B. c #F4F9FB",
"V. c #F7FBFC",
"C. c #F7FCFD",
"Z. c #F7FDFE",
"A. c #FDFCF3",
"S. c #FCFBF9",
"D. c #FDFBFA",
"F. c #FEFDFA",
"G. c #FEFDFB",
"H. c #FEFEFA",
"J. c #FEFEFB",
"K. c #FDFEFE",
"L. c #FEFEFC",
"P. c #FEFEFD",
"I. c gray100",
/* pixels */
"| | | | | | | | | | | | | | | | | | | | | | | | | | | | | | | | | | | | | | | | | | | | | | | | | | | | | | | | | | | | | | | | | | | | | | | | | | | | | | | | | | | | | | | | | | | | | | | | | | | | | | | | | | | | | | | | | | | | | | | | | | | | | | q.",
"|                                                                                                                                                                                                                                                           q.",
"|                                                                                                                                                                                                                                                           q.",
"|                                                                                                                                                                                                                                                           q.",
"|                                                                                                                                                                                                                                                           q.",
"|                                                                                                                                                                                                                                                           q.",
"|       I.I.I.I.I.F.c.2.B         I.I.I.                                              I.I.I.                                                                                                                                                                q.",
"|       I.I.I.I.I.I.I.I.F.b       I.I.I.                                              I.I.I.                                                                                                                                                                q.",
"|       I.I.I.3 3 r E I.I.8.      I.I.I.                                              I.I.I.                                                                                                                                                                q.",
"|       I.I.I.      4 I.I.A.      I.I.I.                                              I.I.I.                                                                                                                                                                q.",
"|       I.I.I.      > I.I.f.      I.I.I.      s #.h.S.p...w       - U e.N.v.<.N       I.I.I.    R I.I.'                                                                                                                                                     q.",
"|       I.I.I.    # K I.I.]       I.I.I.    u l.I.I.I.I.I.{     * $.I.I.I.I.I.F.!     I.I.I.  F I.I.[                                                                                                                                                       q.",
"|       I.I.I.I.I.I.I.I.4.1       I.I.I.    P Z.I./ f I.I.g.    H I.I.5.k d &.I.a.O   I.I.I.i j.I.3.%                                                                                                                                                       q.",
"|       I.I.I.I.I.I.I.I.b.`       I.I.I.      @ 0 O p I.I.F.    =.I.I.z     a Z n %   I.I.I.t.I.s.1                                                                                                                                                         q.",
"|       I.I.I.3 3 9 y X.I.I._     I.I.I.      q T w.I.I.I.I.    l.I.I.%               I.I.I.I.I.I.z                                                                                                                                                         q.",
"|       I.I.I.        5 I.I.f.    I.I.I.    G Z.I.,.V I.I.I.    l.I.I.,               I.I.I.n.;.I.6.                                                                                                                                                        q.",
"|       I.I.I.        7 I.I.M.    I.I.I.    y.I.I.1 : I.I.I.    -.I.I.x     A 1. .e   I.I.I.m D I.I.Q                                                                                                                                                       q.",
"|       I.I.I.3 3 9 g *.I.I.}     I.I.I.    l.I.I.C K I.I.I.,   J I.I.7.l t +.I.s.&   I.I.I.    @.I.9.                                                                                                                                                      q.",
"|       I.I.I.I.I.I.I.I.I.M.v     I.I.I.    W I.I.I.I.u.I.I.h   - %.I.I.I.I.I.F.^     I.I.I.    S I.I.~                                                                                                                                                     q.",
"|       I.I.I.I.I.I.S.z.:.j       I.I.I.    6 o.N.i.( I I.I.)     - Y r.Z.x.>.M       I.I.I.      O.I.0.%                                                                                                                                                   q.",
"|                                                                                                                                                                                                                                                           q.",
"|                                                                                                                                                                                                                                                           q.",
"|                                                                                                                                                                                                                                                           q.",
"|                                                                                                                                                                                                                                                           q.",
"|                                                                                                                                                                                                                                                           q.",
"|                                                                                                                                                                                                                                                           q.",
"| q.q.q.q.q.q.q.q.q.q.q.q.q.q.q.q.q.q.q.q.q.q.q.q.q.q.q.q.q.q.q.q.q.q.q.q.q.q.q.q.q.q.q.q.q.q.q.q.q.q.q.q.q.q.q.q.q.q.q.q.q.q.q.q.q.q.q.q.q.q.q.q.q.q.q.q.q.q.q.q.q.q.q.q.q.q.q.q.q.q.q.q.q.q.q.q.q.q.q.q.q.q.q.q.q.q.q.q.q.q.q.q.q.q.q.q.q.q.q.q.q.q.q.q.q.q."
};
