/* XPM */
static char *blue[] = {
/* columns rows colors chars-per-pixel */
"127 27 105 2",
"   c navy",
".  c #000081",
"X  c #010080",
"o  c #030080",
"O  c #010386",
"+  c #020487",
"@  c #050180",
"#  c #040786",
"$  c #02058A",
"%  c #02058B",
"&  c #03078E",
"*  c #03078F",
"=  c #090480",
"-  c #030790",
";  c #040B92",
":  c #050B97",
">  c #060D9C",
",  c #100480",
"<  c #1D0781",
"1  c #1C1C8E",
"2  c #1C1E90",
"3  c #1E1F90",
"4  c #070FA0",
"5  c #1E219A",
"6  c #210881",
"7  c #341283",
"8  c #3F1C85",
"9  c #27218D",
"0  c #202292",
"q  c #2A2494",
"w  c #2D2491",
"e  c #2C349E",
"r  c #36228F",
"t  c #3546AD",
"y  c #2F7AE4",
"u  c #431284",
"i  c #58378B",
"p  c #672587",
"a  c #7F398B",
"s  c #6F4D93",
"d  c #4F7CDF",
"f  c #3588E7",
"g  c #5680E1",
"h  c #5D84E1",
"j  c #45A0EC",
"k  c #7592D4",
"l  c #7894D3",
"z  c #7D9BD9",
"x  c #638DE3",
"c  c #669BEB",
"v  c #9D7BAA",
"b  c #A5478E",
"n  c #A15796",
"m  c #BE7C9A",
"M  c #8D8D8D",
"N  c #9A81B1",
"B  c #85AFEE",
"V  c #BDAACA",
"C  c #BEA8C8",
"Z  c #9EE7FA",
"A  c #A8D8F7",
"S  c #B3D7F7",
"D  c #ABEAFA",
"F  c #B1E0F9",
"G  c #C990B3",
"H  c #D99FA4",
"J  c #D099B7",
"K  c #D1A5A5",
"L  c #C6B8D2",
"P  c #E5BEC3",
"I  c #ECD4B4",
"U  c #EDD6BD",
"Y  c #C0C0C0",
"T  c #D4C7DB",
"R  c #C0EFFC",
"E  c #D5E2F4",
"W  c #D8E5F6",
"Q  c #E5C2CD",
"!  c #E6DDE7",
"~  c #F2E3C9",
"^  c #F3E5D8",
"/  c #E6EEFA",
"(  c #EAFAFE",
")  c #F2EEF3",
"_  c #F4EDF2",
"`  c #F8F1E3",
"'  c #F9F4E8",
"]  c #FAF4E9",
"[  c #FAF5EC",
"{  c #F5F1F6",
"}  c #F1FBFE",
"|  c #F3FCFE",
" . c #F8F1F5",
".. c #FBF6F3",
"X. c #FDFAF6",
"o. c #FDFBF7",
"O. c #FAFAFB",
"+. c #F8FBFE",
"@. c #FDFBF8",
"#. c #FCFBFC",
"$. c #FDFCF9",
"%. c #FCFDFF",
"&. c #FEFDFD",
"*. c #FEFEFD",
"=. c gray100",
/* pixels */
"M M M M M M M M M M M M M M M M M M M M M M M M M M M M M M M M M M M M M M M M M M M M M M M M M M M M M M M M M M M M M M M M M M M M M M M M M M M M M M M M M M M M M M M M M M M M M M M M M M M M M M M M M M M M M M M M M M M M M M M M M M M M M M Y ",
"M                                                                                                                                                                                                                                                           Y ",
"M                                                                                                                                                                                                                                                           Y ",
"M                                                                                                                                                                                                                                                           Y ",
"M                                                                                                                                                                                                                                                           Y ",
"M                                                                                                                                                                                                                                                           Y ",
"M       =.=.=.=.=.=.) T s         =.=.=.                                                                                                                                                                                                                    Y ",
"M       =.=.=.=.=.=.=.=.=.a       =.=.=.                                                                                                                                                                                                                    Y ",
"M       =.=.=.1 1 5 h =.=.~       =.=.=.                                                                                                                                                                                                                    Y ",
"M       =.=.=.  X X & =.=.@.      =.=.=.                                                                                                                                                                                                                    Y ",
"M       =.=.=.  X X $ =.=.]       =.=.=.    =.=.=.      =.=.=.      & k W O.! N ,                                                                                                                                                                           Y ",
"M       =.=.=.  X # d =.=.H       =.=.=.    =.=.=.      =.=.=.    $ A =.=.=.=.=.P                                                                                                                                                                           Y ",
"M       =.=.=.=.=.=.=.=.Q <       =.=.=.    =.=.=.      =.=.=.    y =.=.G q x =.=.b                                                                                                                                                                         Y ",
"M       =.=.=.=.=.=.=.=...v       =.=.=.    =.=.=.      =.=.=.    Z =.=.r 1 5 =.=.I                                                                                                                                                                         Y ",
"M       =.=.=.1 1 1 e B =.=.m     =.=.=.    =.=.=.      =.=.=.    ( =.=.=.=.=.=.=.`                                                                                                                                                                         Y ",
"M       =.=.=.        : =.=.]     =.=.=.    =.=.=.@   O =.=.=.    } =.=.=.=.=.=.=.@.                                                                                                                                                                        Y ",
"M       =.=.=.        > =.=.X.    =.=.=.    | =.=.<   4 =.=.=.    D =.=.6   O 9 =                                                                                                                                                                           Y ",
"M       =.=.=.1 1 1 t S =.=.U     =.=.=.    R =.=.n + c =.=.=.    f =.=.J w g =.=.K                                                                                                                                                                         Y ",
"M       =.=.=.=.=.=.=.=.=.o.p     =.=.=.    j =.=.=.=.^ =.=.=.    & F =.=.=.=.=.] u                                                                                                                                                                         Y ",
"M       =.=.=.=.=.=.#.) L i       =.=.=.    $ z / ) C 7 =.=.=.      ; l E +._ V 8                                                                                                                                                                           Y ",
"M                                                                                                                                                                                                                                                           Y ",
"M                                                                                                                                                                                                                                                           Y ",
"M                                                                                                                                                                                                                                                           Y ",
"M                                                                                                                                                                                                                                                           Y ",
"M                                                                                                                                                                                                                                                           Y ",
"M                                                                                                                                                                                                                                                           Y ",
"M Y Y Y Y Y Y Y Y Y Y Y Y Y Y Y Y Y Y Y Y Y Y Y Y Y Y Y Y Y Y Y Y Y Y Y Y Y Y Y Y Y Y Y Y Y Y Y Y Y Y Y Y Y Y Y Y Y Y Y Y Y Y Y Y Y Y Y Y Y Y Y Y Y Y Y Y Y Y Y Y Y Y Y Y Y Y Y Y Y Y Y Y Y Y Y Y Y Y Y Y Y Y Y Y Y Y Y Y Y Y Y Y Y Y Y Y Y Y Y Y Y Y Y Y Y Y "
};
