/* XPM */
static char *bold_color_lightcyan[] = {
/* columns rows colors chars-per-pixel */
"127 27 249 2",
"   c black",
".  c #000101",
"X  c #000102",
"o  c #000103",
"O  c #000201",
"+  c #000302",
"@  c #000104",
"#  c #000105",
"$  c #000205",
"%  c #000305",
"&  c #000402",
"*  c #000502",
"=  c #000503",
"-  c #000703",
";  c #000405",
":  c #000506",
">  c #000604",
",  c #000707",
"<  c #000208",
"1  c #00030D",
"2  c #000509",
"3  c #00060A",
"4  c #00040E",
"5  c #000804",
"6  c #000805",
"7  c #000905",
"8  c #000A05",
"9  c #000B05",
"0  c #000A06",
"q  c #000B06",
"w  c #000B07",
"e  c #000C06",
"r  c #000D06",
"t  c #000E07",
"y  c #000B08",
"u  c #00071B",
"i  c #000F15",
"p  c #001008",
"a  c #00100A",
"s  c #001208",
"d  c #001209",
"f  c #001309",
"g  c #00110C",
"h  c #00160A",
"j  c #00180B",
"k  c #001C0C",
"l  c #000924",
"z  c #000F20",
"x  c #000C31",
"c  c #000D33",
"v  c #000D35",
"b  c #000F3C",
"n  c #001521",
"m  c #001922",
"M  c #001826",
"N  c #001A28",
"B  c #001D28",
"V  c #001236",
"C  c #002215",
"Z  c #002710",
"A  c #002C13",
"S  c #002C1C",
"D  c #003215",
"F  c #003216",
"G  c #003415",
"H  c #003617",
"J  c #003717",
"K  c #003C18",
"L  c #002432",
"P  c #002534",
"I  c #002833",
"U  c #003126",
"Y  c #003225",
"T  c #003825",
"R  c #003C29",
"E  c #003D2E",
"W  c #003E2F",
"Q  c #001042",
"!  c #001348",
"~  c #00124B",
"^  c #00134F",
"/  c #001558",
"(  c #001A66",
")  c #001A6C",
"_  c #002A41",
"`  c #002D44",
"'  c #002362",
"]  c #002072",
"[  c #00317B",
"{  c #00327C",
"}  c #004019",
"|  c #00461D",
" . c #00442F",
".. c #004E20",
"X. c #004631",
"o. c #004E34",
"O. c #005824",
"+. c #005E26",
"@. c #006929",
"#. c #00722D",
"$. c #00782F",
"%. c #007A30",
"&. c #007F31",
"*. c #00783A",
"=. c #00783D",
"-. c #004354",
";. c #00435D",
":. c #004275",
">. c #004578",
",. c #005477",
"<. c #005679",
"1. c #005D72",
"2. c #007856",
"3. c #006578",
"4. c #00647F",
"5. c #007766",
"6. c #002D92",
"7. c #00468D",
"8. c #004A81",
"9. c #004B83",
"0. c #00419A",
"q. c #006E8D",
"w. c #00768C",
"e. c #007494",
"r. c #0060B6",
"t. c #0069C5",
"y. c #006EC8",
"u. c #0071C3",
"i. c #0076CB",
"p. c #00803F",
"a. c #008343",
"s. c #008C4C",
"d. c #009342",
"f. c #009355",
"g. c #008869",
"h. c #008973",
"j. c #008D74",
"k. c #00987F",
"l. c #00B658",
"z. c #00A76E",
"x. c #00C05A",
"c. c #00C568",
"v. c #00CF67",
"b. c #00D372",
"n. c #00A9AE",
"m. c #00A8B6",
"M. c #00B7B7",
"N. c #0084D0",
"B. c #008AD2",
"V. c #0093C2",
"C. c #0098C2",
"Z. c #0090D4",
"A. c #0091D4",
"S. c #00AEC2",
"D. c #00ADC9",
"F. c #00AADD",
"G. c #00AEDF",
"H. c #00B9CF",
"J. c #00B9DC",
"K. c #00BDE4",
"L. c #00C18E",
"P. c #00C190",
"I. c #00C49F",
"U. c #00C7A9",
"Y. c #00CDB2",
"T. c #00CFB5",
"R. c #00D2AA",
"E. c #00D4AE",
"W. c #00D2B8",
"Q. c #00E28B",
"!. c #00E18D",
"~. c #00E591",
"^. c #00E79B",
"/. c #00E89F",
"(. c #00ECAF",
"). c #00E4BF",
"_. c #00EBB2",
"`. c #00EFBF",
"'. c #00C2C7",
"]. c #00CBD4",
"[. c #00CDD6",
"{. c #00D1C3",
"}. c #00D4CA",
"|. c #00D6CC",
" X c #00D7CD",
".X c #00D7CE",
"XX c #00D8C2",
"oX c #00DAD2",
"OX c #00D8DC",
"+X c #00C3E7",
"@X c #00CDEA",
"#X c #00CEEB",
"$X c #00D0EB",
"%X c #00D1EC",
"&X c #00D4EE",
"*X c #00D5EF",
"=X c #00D6EF",
"-X c #00DCE1",
";X c #00D7F0",
":X c #00E9C5",
">X c #00E0DF",
",X c #00F1C5",
"<X c #00F0CC",
"1X c #00F1CC",
"2X c #00F4CF",
"3X c #00F5D8",
"4X c #00F6D9",
"5X c #00F7DE",
"6X c #00E3E3",
"7X c #00EBED",
"8X c #00E0F3",
"9X c #00E2F2",
"0X c #00E4F3",
"qX c #00E9F5",
"wX c #00E8F6",
"eX c #00EAF6",
"rX c #00EBF7",
"tX c #00ECF7",
"yX c #00EDF7",
"uX c #00EFF8",
"iX c #00F9E4",
"pX c #00FAE9",
"aX c #00FAEB",
"sX c #00FBEC",
"dX c #00FBEE",
"fX c #00FBEF",
"gX c #00F1F9",
"hX c #00F2F9",
"jX c #00F3FA",
"kX c #00F4FA",
"lX c #00F6FB",
"zX c #00F7FC",
"xX c #00FCF2",
"cX c #00FDF6",
"vX c #00FDF7",
"bX c #00F8FC",
"nX c #00F9FD",
"mX c #00FBFE",
"MX c #00FEF8",
"NX c #00FEFB",
"BX c #00FCFE",
"VX c #00FDFE",
"CX c #00FFFC",
"ZX c #00FFFD",
"AX c #00FEFF",
"SX c #00FFFE",
"DX c cyan",
"FX c #8D8D8D",
"GX c #C0C0C0",
/* pixels */
"FXFXFXFXFXFXFXFXFXFXFXFXFXFXFXFXFXFXFXFXFXFXFXFXFXFXFXFXFXFXFXFXFXFXFXFXFXFXFXFXFXFXFXFXFXFXFXFXFXFXFXFXFXFXFXFXFXFXFXFXFXFXFXFXFXFXFXFXFXFXFXFXFXFXFXFXFXFXFXFXFXFXFXFXFXFXFXFXFXFXFXFXFXFXFXFXFXFXFXFXFXFXFXFXFXFXFXFXFXFXFXFXFXFXFXFXFXFXFXFXFXFXFXFXFXFXGX",
"FXDXDXDXDXDXDXDXDXDXDXDXDXDXDXDXDXDXDXDXDXDXDXDXDXDXDXDXDXDXDXDXDXDXDXDXDXDXDXDXDXDXDXDXDXDXDXDXDXDXDXDXDXDXDXDXDXDXDXDXDXDXDXDXDXDXDXDXDXDXDXDXDXDXDXDXDXDXDXDXDXDXDXDXDXDXDXDXDXDXDXDXDXDXDXDXDXDXDXDXDXDXDXDXDXDXDXDXDXDXDXDXDXDXDXDXDXDXDXDXDXDXDXDXDXDXGX",
"FXDXDXDXDXDXDXDXDXDXDXDXDXDXDXDXDXDXDXDXDXDXDXDXDXDXDXDXDXDXDXDXDXDXDXDXDXDXDXDXDXDXDXDXDXDXDXDXDXDXDXDXDXDXDXDXDXDXDXDXDXDXDXDXDXDXDXDXDXDXDXDXDXDXDXDXDXDXDXDXDXDXDXDXDXDXDXDXDXDXDXDXDXDXDXDXDXDXDXDXDXDXDXDXDXDXDXDXDXDXDXDXDXDXDXDXDXDXDXDXDXDXDXDXDXDXGX",
"FXDXDXDXDXDXDXDXDXDXDXDXDXDXDXDXDXDXDXDXDXDXDXDXDXDXDXDXDXDXDXDXDXDXDXDXDXDXDXDXDXDXDXDXDXDXDXDXDXDXDXDXDXDXDXDXDXDXDXDXDXDXDXDXDXDXDXDXDXDXDXDXDXDXDXDXDXDXDXDXDXDXDXDXDXDXDXDXDXDXDXDXDXDXDXDXDXDXDXDXDXDXDXDXDXDXDXDXDXDXDXDXDXDXDXDXDXDXDXDXDXDXDXDXDXDXGX",
"FXDXDXDXDXDXDXDXDXDXDXDXDXDXDXDXDXDXDXDXDXDXDXDXDXDXDXDXDXDXDXDXDXDXDXDXDXDXDXDXDXDXDXDXDXDXDXDXDXDXDXDXDXDXDXDXDXDXDXDXDXDXDXDXDXDXDXDXDXDXDXDXDXDXDXDXDXDXDXDXDXDXDXDXDXDXDXDXDXDXDXDXDXDXDXDXDXDXDXDXDXDXDXDXDXDXDXDXDXDXDXDXDXDXDXDXDXDXDXDXDXDXDXDXDXDXGX",
"FXDXDXDXDXDXDXDXDXDXDXDXDXDXDXDXDXDXDXDXDXDXDXDXDXDXDXDXDXDXDXDXDXDXDXDXDXDXDXDXDXDXDXDXDXDXDXDXDXDXDXDXDXDXDXDXDXDXDXDXDXDXDXDXDXDXDXDXDXDXDXDXDXDXDXDXDXDXDXDXDXDXDXDXDXDXDXDXDXDXDXDXDXDXDXDXDXDXDXDXDXDXDXDXDXDXDXDXDXDXDXDXDXDXDXDXDXDXDXDXDXDXDXDXDXDXGX",
"FXDXDXDX      DXDXDXDXDXDXDXDX      DXDXDXDXDXDXDXDXDXDXDXDXDX      DXDXDXDXDXDXDXDXDXDXY.DXDXDXDXDXDXDXDXDXcXk.E d 2 B 1.*XDXDXDXDXDXDXDXDXDXDXDXDXDXDXDXDXDXDXDXDXDXDXDXDXDXDXDXDXDXDXDXDXDXDXDXDXDXDXDXDXDXDXDXDXDXDXDXDXDXDXDXDXDXDXDXDXDXDXDXDXDXDXDXDXGX",
"FXDXDXDX      DXDXDXDXDXDXDXDX      DXDXDXDXDXDXDXDXDXDXDXDXDX      DXDXDXDXDXDXDXDXT.o.  DXDXDXDXDXDXDXDX3XG             4 F.DXDXDXDXDXDXDXDXDXDXDXDXDXDXDXDXDXDXDXDXDXDXDXDXDXDXDXDXDXDXDXDXDXDXDXDXDXDXDXDXDXDXDXDXDXDXDXDXDXDXDXDXDXDXDXDXDXDXDXDXDXDXDXGX",
"FXDXDXDX      DXDXDXDXDXDXDXDX6X6X6XDXDXDXDXDXDXDXDXDXDXDXDXDX      DXDXDXDXDXDXDXDX      DXDXDXDXDXDXDXDXD     ,.].|.g.    u nXDXDXDXDXDXDXDXDXDXDXDXDXDXDXDXDXDXDXDXDXDXDXDXDXDXDXDXDXDXDXDXDXDXDXDXDXDXDXDXDXDXDXDXDXDXDXDXDXDXDXDXDXDXDXDXDXDXDXDXDXDXDXGX",
"FXDXDXDX      DXDXDXDXDXDXDXDXDXDXDXDXDXDXDXDXDXDXDXDXDXDXDXDX      DXDXDXDXDXDXDXDX      DXDXDXDXDXDXDXc.    { DXDXDXDXd.  @ K.DXDXDXDXDXDXDXDXDXDXDXDXDXDXDXDXDXDXDXDXDXDXDXDXDXDXDXDXDXDXDXDXDXDXDXDXDXDXDXDXDXDXDXDXDXDXDXDXDXDXDXDXDXDXDXDXDXDXDXDXDXDXGX",
"FXDXDXDX      DXDXDXDXDXDXDXDX      DXDXDXE.R : _ *X      DXDX      ). .: M e.DXDX          DXDXDXDXDXDXG     #XDXDXDXDX5Xm.rXDXD   v DXDXDXdX&   t.DXDXI.E y : m 4.zXDXDX      :XX.7 n q.nXDXDXDXDXDXDXDXDXDXDXDXDXDXDXDXDXDXDXDXDXDXDXDXDXDXDXDXDXDXDXDXDXGX",
"FXDXDXDX      DXDXDXDXDXDXDXDX      DXDX`.7       !       DXDX      d         u.DX          DXDXDXDXDXDXd     gXDXDXDXDXDXDXDXDXx.    0XDXDXv.    0XDX_.&           0.DXDX      k         r.DXDXDXDXDXDXDXDXDXDXDXDXDXDXDXDXDXDXDXDXDXDXDXDXDXDXDXDXDXDXDXDXGX",
"FXDXDXDX      DXDXDXDXDXDXDXDX      DXDXO.    9. X}       DXDX      :.OXs.    Q DX6X      6XDXDXDXDXDXDX&     DXDXDXDXDXDXDXDXDXaX&   y.DXDX|   ! DXDX=.&   D.P.    l DXDX      :.OXa.    x DXDXDXDXDXDXDXDXDXDXDXDXDXDXDXDXDXDXDXDXDXDXDXDXDXDXDXDXDXDXDXDXGX",
"FXDXDXDX      DXDXDXDXDXDXDXDX      DXDXd     eXDX/.      DXDX      eXDXiX    1 DXDX      DXDXDXDXDXDXDX      DXDXDXDXDXDXDXDXDXDX|   ^ DXDXp   i.DXDXDXcXoXDXW.    @ DXDX      eXDX3X    < DXDXDXDXDXDXDXDXDXDXDXDXDXDXDXDXDXDXDXDXDXDXDXDXDXDXDXDXDXDXDXDXGX",
"FXDXDXDX      DXDXDXDXDXDXDXDX      DXDX&     DXDXxX      DXDX      DXDXDX      DXDX      DXDXDXDXDXDXDXr     gXDXDXDXDXDXDXDXDXDXb.    eXQ.    eXDXDXDXXX5.S         DXDX      DXDXvX      DXDXDXDXDXDXDXDXDXDXDXDXDXDXDXDXDXDXDXDXDXDXDXDXDXDXDXDXDXDXDXDXGX",
"FXDXDXDX      DXDXDXDXDXDXDXDX      DXDX      DXDXxX      DXDX      DXDXDX      DXDX      DXDXDXDXDXDXDXA     @XDXDXDXDX(.z 3.;XDXvX7   B.#.  / DXDXDXz.    ;.S.      DXDX      DXDXDX      DXDXDXDXDXDXDXDXDXDXDXDXDXDXDXDXDXDXDXDXDXDXDXDXDXDXDXDXDXDXDXDXGX",
"FXDXDXDX      DXDXDXDXDXDXDXDX      DXDXd     eXDX^.      DXDX      DXDXDX      DXDX      DXDXDXDXDXDXDXl.    [ DXDXDXDX@.    %XDXDX+.  ) h   N.DXDXDXr     nXiX      DXDX      DXDXDX      DXDXDXDXDXDXDXDXDXDXDXDXDXDXDXDXDXDXDXDXDXDXDXDXDXDXDXDXDXDXDXDXGX",
"FXDXDXDX      M.M.M.M.M.M.8XDX      DXDX+.    9.|.K       DXDX      DXDXDX      DXDX&     {.DXDXDXDXDXDXvXZ     ,.[.|.2.    ' DXDXDX!.        rXDXDXDX&     H.a.      nXDX      DXDXDX      DXDXDXDXDXDXDXDXDXDXDXDXDXDXDXDXDXDXDXDXDXDXDXDXDXDXDXDXDXDXDXDXGX",
"FXDXDXDX                  Z.DX      DXDX,X7       b       DXDX      DXDXDX      DXDXj       jXDXDXDXDXDXDX<XZ             V eXDXDXDXDXd     ( DXDXDXDXG         7     yXDX      DXDXDX      DXDXDXDXDXDXDXDXDXDXDXDXDXDXDXDXDXDXDXDXDXDXDXDXDXDXDXDXDXDXDXDXGX",
"FXDXDXDX                  Z.DX      DXDXDXR.T : ` *X    4 DXDX      DXDXDX      DXDXL.C @ L gXDXDXDXDXDXDXDXdXh.U r 2 I w.jXDXDXDXDXDX$.    Z.DXDXDXDX<X .: N V.$.    G.DX      DXDXDX      DXDXDXDXDXDXDXDXDXDXDXDXDXDXDXDXDXDXDXDXDXDXDXDXDXDXDXDXDXDXDXDXGX",
"FXDXDXDXDXDXDXDXDXDXDXDXDXDXDXDXDXDXDXDXn.'.-XnXDXdX    x DXDXDXDXDXDXDXDXDXDXDXDXDXDXDXDXDXDXDXDXDXDXDXDXDXDXDXDXDXDXDXDXDXDXDXDXDXDX&.    rXDXDXDXDXDXDXDXDXDXDXDXDXDXDXDXDXDXDXDXDXDXDXDXDXDXDXDXDXDXDXDXDXDXDXDXDXDXDXDXDXDXDXDXDXDXDXDXDXDXDXDXDXDXDXDXGX",
"FXDXDXDXDXDXDXDXDXDXDXDXDXDXDXDXDXDXDXDX7     7.6Xf.    6.DXDXDXDXDXDXDXDXDXDXDXDXDXDXDXDXDXDXDXDXDXDXDXDXDXDXDXDXDXDXDXDXDXDXDXaX7XU.7   ] DXDXDXDXDXDXDXDXDXDXDXDXDXDXDXDXDXDXDXDXDXDXDXDXDXDXDXDXDXDXDXDXDXDXDXDXDXDXDXDXDXDXDXDXDXDXDXDXDXDXDXDXDXDXDXDXGX",
"FXDXDXDXDXDXDXDXDXDXDXDXDXDXDXDXDXDXDXDX*.            @ @XDXDXDXDXDXDXDXDXDXDXDXDXDXDXDXDXDXDXDXDXDXDXDXDXDXDXDXDXDXDXDXDXDXDXDX~.        +XDXDXDXDXDXDXDXDXDXDXDXDXDXDXDXDXDXDXDXDXDXDXDXDXDXDXDXDXDXDXDXDXDXDXDXDXDXDXDXDXDXDXDXDXDXDXDXDXDXDXDXDXDXDXDXDXGX",
"FXDXDXDXDXDXDXDXDXDXDXDXDXDXDXDXDXDXDXDXDXj.U 7   i -.J.DXDXDXDXDXDXDXDXDXDXDXDXDXDXDXDXDXDXDXDXDXDXDXDXDXDXDXDXDXDXDXDXDXDXDXDX2Xd @ P C.DXDXDXDXDXDXDXDXDXDXDXDXDXDXDXDXDXDXDXDXDXDXDXDXDXDXDXDXDXDXDXDXDXDXDXDXDXDXDXDXDXDXDXDXDXDXDXDXDXDXDXDXDXDXDXDXDXGX",
"FXDXDXDXDXDXDXDXDXDXDXDXDXDXDXDXDXDXDXDXDXDXDXDXDXDXDXDXDXDXDXDXDXDXDXDXDXDXDXDXDXDXDXDXDXDXDXDXDXDXDXDXDXDXDXDXDXDXDXDXDXDXDXDXDXDXDXDXDXDXDXDXDXDXDXDXDXDXDXDXDXDXDXDXDXDXDXDXDXDXDXDXDXDXDXDXDXDXDXDXDXDXDXDXDXDXDXDXDXDXDXDXDXDXDXDXDXDXDXDXDXDXDXDXDXDXGX",
"FXDXDXDXDXDXDXDXDXDXDXDXDXDXDXDXDXDXDXDXDXDXDXDXDXDXDXDXDXDXDXDXDXDXDXDXDXDXDXDXDXDXDXDXDXDXDXDXDXDXDXDXDXDXDXDXDXDXDXDXDXDXDXDXDXDXDXDXDXDXDXDXDXDXDXDXDXDXDXDXDXDXDXDXDXDXDXDXDXDXDXDXDXDXDXDXDXDXDXDXDXDXDXDXDXDXDXDXDXDXDXDXDXDXDXDXDXDXDXDXDXDXDXDXDXDXGX",
"FXGXGXGXGXGXGXGXGXGXGXGXGXGXGXGXGXGXGXGXGXGXGXGXGXGXGXGXGXGXGXGXGXGXGXGXGXGXGXGXGXGXGXGXGXGXGXGXGXGXGXGXGXGXGXGXGXGXGXGXGXGXGXGXGXGXGXGXGXGXGXGXGXGXGXGXGXGXGXGXGXGXGXGXGXGXGXGXGXGXGXGXGXGXGXGXGXGXGXGXGXGXGXGXGXGXGXGXGXGXGXGXGXGXGXGXGXGXGXGXGXGXGXGXGXGXGX"
};
