/* XPM */
static char *bold_color_brown[] = {
/* columns rows colors chars-per-pixel */
"127 27 176 2",
"   c #808000",
".  c #818000",
"X  c #808004",
"o  c #808006",
"O  c #848100",
"+  c #868101",
"@  c #878101",
"#  c #808109",
"$  c #82830D",
"%  c #888201",
"&  c #898201",
"*  c #898202",
"=  c #8B8202",
"-  c #8E8303",
";  c #8F8303",
":  c #808210",
">  c #808212",
",  c #818212",
"<  c #818214",
"1  c #81831F",
"2  c #8E8E1C",
"3  c #908403",
"4  c #918403",
"5  c #958504",
"6  c #818320",
"7  c #828426",
"8  c #82852F",
"9  c #8E8F20",
"0  c #8F8F21",
"q  c #838639",
"w  c #83873E",
"e  c #848B3A",
"r  c #909125",
"t  c #999323",
"y  c #9B9424",
"u  c #969A3D",
"i  c #A78908",
"p  c #A88908",
"a  c #AC8A09",
"s  c #AC9B16",
"d  c #B3920F",
"f  c #BF900F",
"g  c #BF9310",
"h  c #BF9C16",
"j  c #A79E2E",
"k  c #A89E2F",
"l  c #B7A626",
"z  c #979D4D",
"x  c #979E4F",
"c  c #858B61",
"v  c #88937E",
"b  c #88937F",
"n  c #9AA35B",
"m  c #9DA667",
"M  c #BDAF40",
"N  c #BDAF42",
"B  c #A4B27B",
"V  c #A5B37C",
"C  c #C0910F",
"Z  c #C09411",
"A  c #CB9412",
"S  c #CB9513",
"D  c #D39B17",
"F  c #D19D18",
"G  c #D49F19",
"H  c #D2A820",
"J  c #D5AC22",
"K  c #DFAC23",
"L  c #DFBE35",
"P  c #E2B328",
"I  c #CEBD54",
"U  c #E2CC3E",
"Y  c #E9C83A",
"T  c #EACA38",
"R  c #EBCC3A",
"E  c #ECCE3B",
"W  c #EDD23E",
"Q  c #D5C872",
"!  c #ECCF48",
"~  c #ECCF49",
"^  c #F0DB4A",
"/  c #E6D06B",
"(  c #E7D16F",
")  c #F2E055",
"_  c #F4E761",
"`  c #F6EB7B",
"'  c #F7EE7D",
"]  c #8D8D8D",
"[  c #879083",
"{  c #889189",
"}  c #889390",
"|  c #899796",
" . c #90A986",
".. c #8FA5B7",
"X. c #91ABAB",
"o. c #91AABB",
"O. c #94B4BA",
"+. c #A7BEBF",
"@. c #96BACA",
"#. c #98BFCE",
"$. c #AABFC0",
"%. c #9AC6D2",
"&. c #9CC2D0",
"*. c #9FD1DA",
"=. c #AEC2C2",
"-. c #A2D5DD",
";. c #BDD8DB",
":. c #ACE2E6",
">. c #B5E9EB",
",. c #BDEFF0",
"<. c #F2DE8A",
"1. c #E3DCA5",
"2. c #F4E492",
"3. c #F2E19A",
"4. c #F9F18D",
"5. c #F9F192",
"6. c #F9F293",
"7. c #F9F397",
"8. c #FAF39C",
"9. c #EAE3B6",
"0. c #EAE3B8",
"q. c #EBE3B8",
"w. c #FBF5AF",
"e. c #F9F1B9",
"r. c #FAF2BD",
"t. c #C0C0C0",
"y. c #C2D7DD",
"u. c #D0DCCE",
"i. c #C4DDE0",
"p. c #D9E2D3",
"a. c #DAE3D4",
"s. c #C3F1F1",
"d. c #C4F1F1",
"f. c #C8F2F2",
"g. c #CAF2F3",
"h. c #D9EBEF",
"j. c #D4F1F3",
"k. c #D6F5F5",
"l. c #DCF1F3",
"z. c #DDF2F4",
"x. c #FCF8C1",
"c. c #FCF9CC",
"v. c #F8F5DE",
"b. c #FCFAD1",
"n. c #FDFAD2",
"m. c #FDFAD6",
"M. c #FDFBDB",
"N. c #FDFBDF",
"B. c #E1F8F8",
"V. c #EEF5F3",
"C. c #EBFAFA",
"Z. c #F9F7E6",
"A. c #FDFBE7",
"S. c #FAF8EC",
"D. c #FCFAEF",
"F. c #FEFDED",
"G. c #FEFDEF",
"H. c #F5F8F7",
"J. c #F2FCFC",
"K. c #F7FBFA",
"L. c #F5FDFC",
"P. c #F6FDFC",
"I. c #F7FDFD",
"U. c #FDFBF1",
"Y. c #FDFBF2",
"T. c #FEFEF3",
"R. c #FFFEF6",
"E. c #FFFEF7",
"W. c #F8FDFD",
"Q. c #F9FEFD",
"!. c #FEFDF9",
"~. c #FFFEF9",
"^. c #FFFEFA",
"/. c #FFFEFB",
"(. c #FFFFFE",
"). c gray100",
/* pixels */
"] ] ] ] ] ] ] ] ] ] ] ] ] ] ] ] ] ] ] ] ] ] ] ] ] ] ] ] ] ] ] ] ] ] ] ] ] ] ] ] ] ] ] ] ] ] ] ] ] ] ] ] ] ] ] ] ] ] ] ] ] ] ] ] ] ] ] ] ] ] ] ] ] ] ] ] ] ] ] ] ] ] ] ] ] ] ] ] ] ] ] ] ] ] ] ] ] ] ] ] ] ] ] ] ] ] ] ] ] ] ] ] ] ] ] ] ] ] ] ] ] ] ] ] ] ] t.",
"]                                                                                                                                                                                                                                                           t.",
"]                                                                                                                                                                                                                                                           t.",
"]                                                                                                                                                                                                                                                           t.",
"]                                                                                                                                                                                                                                                           t.",
"]                                                                                                                                                                                                                                                           t.",
"]       ).).).).).^.S.9.l                                                                                                                                                                                                                                   t.",
"]       ).).).).).).).).^.h                                                                                                                                                                                                                                 t.",
"]       ).).).2 2 r =.).).5.                                                                                                                                                                                                                                t.",
"]       ).).).      6 ).).T.                                              .                                                                                                                                                                                 t.",
"]       ).).).      1 ).).n.      ).).). .V.U.U     X B a.H.D.9.N       s.).^     } ).).D     *.).w.  ).).).e u.H.v.Q %                                                                                                                                     t.",
"]       ).).).    $ +.).).!       ).).).J.).).F   X ;.).).).).).).( .   @.).x..   %.).).W     k.).R   ).).).j.).).).).!                                                                                                                                     t.",
"]       ).).).).).).).).3.-       ).).).2.y m %   X.).).r.k x l.).).J   c ).).i   s.).).8.  w ).).f   ).).).<.t +.).).c.                                                                                                                                    t.",
"]       ).).).).).).).).A.I       ).).).C         f.).).g . . [ ).).6.    B.).K < W.E.L.^.3 ..).M.+   ).).).a   7 ).).^.                                                                                                                                    t.",
"]       ).).).2 2 0 u y.).).L     ).).).5 .       W.).).% . . > ).).F.    -.)._ { ).4.,.).A :.).)     ).).).+     ).).).                                                                                                                                    t.",
"]       ).).).        8 ).).n.  . ).).).+ .       L.).).%     > ).).F.    | ).N.&.).T #.).T C.).G     ).).).      ).).).                                                                                                                                    t.",
"]       ).).).        q ).).F.    ).).)..         g.).).f   . v ).).4.    < L.).C.).A [ ).m.).!.3     ).).).      ).).).                                                                                                                                    t.",
"]       ).).).2 2 0 n h.).).`     ).).).          O.).).e.j z l.).).H     . >.).).^.- : K.).).`       ).).).      ).).).                                                                                                                                    t.",
"]       ).).).).).).).).).D.d     ).).).          # i.).).).).).)./         o.).).6.    ,.).).P       ).).).      ).).).                                                                                                                                    t.",
"]       ).).).).).).!.Z.1.s .     ).).).          . o B p.H.U.0.N           w ).).E   . #.).).i       ).).).      ).).).                                                                                                                                    t.",
"]                                                                               .                                                                                                                                                                           t.",
"]                                                                                                                                                                                                                                                           t.",
"]                                                                                                                                                                                           . .                                                             t.",
"]                           . .                             . .                                                                                                                         . . . .                                                             t.",
"]       . . . . .       O . . .         O . . . .       O . . .     O . . . . . . . . . . . .   . . . O . . O O     O . .                           . . . . . .     . . . . . . O . . . . . O .                                                             t.",
"]       O @ . .         O @ . .         O @ . . .       O @ . .     O @ . .     . = . . . . . . . . . = . . . @     O @ . .                       . . . . . . =     O @ . . . . O @ . .     O @                                                             t.",
"] t.=.t.t.t.t.t.t.t.$.t.t.t.t.t.t.t.$.t.t.t.t.t.t.t.$.t.t.t.t.t.$.t.t.t.t.t.$.t.t.t.t.t.t.t.t.t.$.t.t.t.$.t.t.t.=.t.t.t.t.t.$.t.t.t.t.t.t.t.t.t.t.t.t.t.t.t.t.t.$.t.t.t.t.t.$.t.t.t.t.t.$.t.t.t.t.t.t.t.t.t.t.t.t.t.t.t.t.t.t.t.t.t.t.t.t.t.t.t.t.t.t.t.t.t.t."
};
