/* XPM */
static char *bold_color_lightmagenta[] = {
/* columns rows colors chars-per-pixel */
"127 27 235 2",
"   c black",
".  c #010001",
"X  c #010002",
"o  c #020001",
"O  c #010004",
"+  c #010005",
"@  c #010007",
"#  c #020005",
"$  c #030005",
"%  c #050001",
"&  c #070003",
"*  c #010008",
"=  c #02000D",
"-  c #02000E",
";  c #02000F",
":  c #050008",
">  c #080001",
",  c #080002",
"<  c #0B0004",
"1  c #0A0006",
"2  c #0D0002",
"3  c #0E0002",
"4  c #0F0002",
"5  c #0C0007",
"6  c #0E0005",
"7  c #0F0006",
"8  c #0C000C",
"9  c #03001B",
"0  c #0A0015",
"q  c #0B001B",
"w  c #100002",
"e  c #120002",
"r  c #130003",
"t  c #100005",
"y  c #150003",
"u  c #110008",
"i  c #040024",
"p  c #050027",
"a  c #05002B",
"s  c #0E0021",
"d  c #060031",
"f  c #060033",
"g  c #070038",
"h  c #07003B",
"j  c #07003C",
"k  c #120022",
"l  c #110026",
"z  c #100028",
"x  c #190031",
"c  c #190032",
"v  c #210004",
"b  c #250005",
"n  c #290005",
"m  c #2C0005",
"M  c #2D0005",
"N  c #270012",
"B  c #2A0016",
"V  c #380007",
"C  c #3A0007",
"Z  c #330015",
"A  c #3B001C",
"S  c #3E0026",
"D  c #080042",
"F  c #090048",
"G  c #0B005C",
"H  c #1C0041",
"J  c #1D0044",
"K  c #1F005D",
"L  c #0B0061",
"P  c #1A0075",
"I  c #1A0078",
"U  c #1B0078",
"Y  c #340054",
"T  c #400009",
"R  c #4B0009",
"E  c #4D0009",
"W  c #4E000D",
"Q  c #54000A",
"!  c #56000C",
"~  c #5C000B",
"^  c #570010",
"/  c #4E0025",
"(  c #520029",
")  c #50002F",
"_  c #5C002F",
"`  c #5E0031",
"'  c #61000B",
"]  c #63000B",
"[  c #67000C",
"{  c #7E000E",
"}  c #720018",
"|  c #780019",
" . c #60002F",
".. c #690034",
"X. c #42006B",
"o. c #4E007F",
"O. c #5F006A",
"+. c #0F0086",
"@. c #1D0081",
"#. c #1E0083",
"$. c #1C008D",
"%. c #130096",
"&. c #140092",
"*. c #14009C",
"=. c #1B009A",
"-. c #1600A5",
";. c #2F0091",
":. c #360099",
">. c #2700B6",
",. c #2000BB",
"<. c #2E00B5",
"1. c #3000C3",
"2. c #3600D3",
"3. c #3700D4",
"4. c #3900D6",
"5. c #55008D",
"6. c #5B0094",
"7. c #65009D",
"8. c #4800DF",
"9. c #4700E1",
"0. c #4B00E3",
"q. c #5A00E2",
"w. c #6D00C2",
"e. c #6B00C9",
"r. c #7D00F1",
"t. c #900017",
"y. c #9E0014",
"u. c #9C0039",
"i. c #A30016",
"p. c #B8001E",
"a. c #A9003D",
"s. c #AB003F",
"d. c #B90024",
"f. c #BF0023",
"g. c #BE0026",
"h. c #870058",
"j. c #8A0056",
"k. c #890066",
"l. c #AF0043",
"z. c #B2004C",
"x. c #B40055",
"c. c #AC0074",
"v. c #CC002F",
"b. c #C3003A",
"n. c #CA0030",
"m. c #CC003D",
"M. c #D00036",
"N. c #D40037",
"B. c #D50038",
"V. c #DF0044",
"C. c #DC006E",
"Z. c #E5004F",
"A. c #F0007A",
"S. c #A400AE",
"D. c #B700B7",
"F. c #8000CF",
"G. c #9A00C2",
"H. c #9900DC",
"J. c #8700EB",
"K. c #BD00C3",
"L. c #BD00C7",
"P. c #A500EF",
"I. c #A800EF",
"U. c #A300F5",
"Y. c #A700F6",
"T. c #A800F6",
"R. c #B100F7",
"E. c #B400F7",
"W. c #BC00F7",
"Q. c #D40090",
"!. c #E7008E",
"~. c #E7009F",
"^. c #F4009B",
"/. c #F5009F",
"(. c #EE00AA",
"). c #EE00AE",
"_. c #E600B2",
"`. c #E700B8",
"'. c #E800B5",
"]. c #F600B2",
"[. c #F700B6",
"{. c #F400BF",
"}. c #F800BF",
"|. c #CF00CD",
" X c #CC00DC",
".X c #CD00DC",
"XX c #D100CC",
"oX c #D500D6",
"OX c #D200DC",
"+X c #DB00DF",
"@X c #C900E1",
"#X c #C000F4",
"$X c #C700F3",
"%X c #C300F9",
"&X c #D700E1",
"*X c #D800E5",
"=X c #DD00E5",
"-X c #D100FA",
";X c #DE00FC",
":X c #E100CB",
">X c #EF00C2",
",X c #E200D2",
"<X c #F600C5",
"1X c #F900C5",
"2X c #F900CC",
"3X c #FB00D9",
"4X c #FB00DB",
"5X c #E300E3",
"6X c #E200FC",
"7X c #E800FD",
"8X c #EF00FE",
"9X c #FC00E1",
"0X c #FC00E2",
"qX c #FC00E4",
"wX c #FD00E5",
"eX c #FD00EB",
"rX c #FE00EF",
"tX c #F100FD",
"yX c #F000FE",
"uX c #F200FE",
"iX c #F400FE",
"pX c #F600FE",
"aX c #FE00F2",
"sX c #FE00F6",
"dX c #FF00F7",
"fX c #FA00FF",
"gX c #FB00FF",
"hX c #FF00FB",
"jX c #FC00FF",
"kX c #FF00FC",
"lX c #FF00FD",
"zX c #FE00FF",
"xX c magenta",
"cX c #8D8D8D",
"vX c #C0C0C0",
/* pixels */
"cXcXcXcXcXcXcXcXcXcXcXcXcXcXcXcXcXcXcXcXcXcXcXcXcXcXcXcXcXcXcXcXcXcXcXcXcXcXcXcXcXcXcXcXcXcXcXcXcXcXcXcXcXcXcXcXcXcXcXcXcXcXcXcXcXcXcXcXcXcXcXcXcXcXcXcXcXcXcXcXcXcXcXcXcXcXcXcXcXcXcXcXcXcXcXcXcXcXcXcXcXcXcXcXcXcXcXcXcXcXcXcXcXcXcXcXcXcXcXcXcXcXcXcXcXcXvX",
"cXxXxXxXxXxXxXxXxXxXxXxXxXxXxXxXxXxXxXxXxXxXxXxXxXxXxXxXxXxXxXxXxXxXxXxXxXxXxXxXxXxXxXxXxXxXxXxXxXxXxXxXxXxXxXxXxXxXxXxXxXxXxXxXxXxXxXxXxXxXxXxXxXxXxXxXxXxXxXxXxXxXxXxXxXxXxXxXxXxXxXxXxXxXxXxXxXxXxXxXxXxXxXxXxXxXxXxXxXxXxXxXxXxXxXxXxXxXxXxXxXxXxXxXxXxXvX",
"cXxXxXxXxXxXxXxXxXxXxXxXxXxXxXxXxXxXxXxXxXxXxXxXxXxXxXxXxXxXxXxXxXxXxXxXxXxXxXxXxXxXxXxXxXxXxXxXxXxXxXxXxXxXxXxXxXxXxXxXxXxXxXxXxXxXxXxXxXxXxXxXxXxXxXxXxXxXxXxXxXxXxXxXxXxXxXxXxXxXxXxXxXxXxXxXxXxXxXxXxXxXxXxXxXxXxXxXxXxXxXxXxXxXxXxXxXxXxXxXxXxXxXxXxXxXvX",
"cXxXxXxXxXxXxXxXxXxXxXxXxXxXxXxXxXxXxXxXxXxXxXxXxXxXxXxXxXxXxXxXxXxXxXxXxXxXxXxXxXxXxXxXxXxXxXxXxXxXxXxXxXxXxXxXxXxXxXxXxXxXxXxXxXxXxXxXxXxXxXxXxXxXxXxXxXxXxXxXxXxXxXxXxXxXxXxXxXxXxXxXxXxXxXxXxXxXxXxXxXxXxXxXxXxXxXxXxXxXxXxXxXxXxXxXxXxXxXxXxXxXxXxXxXxXvX",
"cXxXxXxXxXxXxXxXxXxXxXxXxXxXxXxXxXxXxXxXxXxXxXxXxXxXxXxXxXxXxXxXxXxXxXxXxXxXxXxXxXxXxXxXxXxXxXxXxXxXxXxXxXxXxXxXxXxXxXxXxXxXxXxXxXxXxXxXxXxXxXxXxXxXxXxXxXxXxXxXxXxXxXxXxXxXxXxXxXxXxXxXxXxXxXxXxXxXxXxXxXxXxXxXxXxXxXxXxXxXxXxXxXxXxXxXxXxXxXxXxXxXxXxXxXxXvX",
"cXxXxXxXxXxXxXxXxXxXxXxXxXxXxXxXxXxXxXxXxXxXxXxXxXxXxXxXxXxXxXxXxXxXxXxXxXxXxXxXxXxXxXxXxXxXxXxXxXxXxXxXxXxXxXxXxXxXxXxXxXxXxXxXxXxXxXxXxXxXxXxXxXxXxXxXxXxXxXxXxXxXxXxXxXxXxXxXxXxXxXxXxXxXxXxXxXxXxXxXxXxXxXxXxXxXxXxXxXxXxXxXxXxXxXxXxXxXxXxXxXxXxXxXxXxXvX",
"cXxXxXxX      xXxXxXxXxXxXxXxX      xXxXxXxXxXxXxXxXxXxXxXxXxX      xXxXxXxXxXxXxXxXxXxX_.xXxXxXxXxXxXxX        2.xXxXxXN.        xXxXxXxXxXxXxXxXxXxXxXxXxXxXxXxXxXxXxXxXxXxXxXxXxXxXxXxXxXxXxXxXxXxXxXxXxXxXxXxXxXxXxXxXxXxXxX_.xXxXxXxXxXxXxXxXxXxXxXxXxXvX",
"cXxXxXxX      xXxXxXxXxXxXxXxX      xXxXxXxXxXxXxXxXxXxXxXxXxX      xXxXxXxXxXxXxXxX'...  xXxXxXxXxXxXxX        *.xXxXxXy.        xXxXxXxXxXxXxXxXxXxXxXxXxXxXxXxXxXxXxXxXxXxXxXxXxXxXxXxXxXxXxXxXxXxXxXxXxXxXxXxXxXxXxXxXxX'...  xXxXxXxXxXxXxXxXxXxXxXxXxXvX",
"cXxXxXxX      xXxXxXxXxXxXxXxX5X5X5XxXxXxXxXxXxXxXxXxXxXxXxXxX      xXxXxXxXxXxXxXxX      xXxXxXxXxXxXxX        a xXxXxXM         xXxXxXxXxXxXxXxXxXxXxXxXxXxXxXxXxXxXxXxXxXxXxXxXxXxXxXxXxXxXxXxXxXxXxXxXxXxXxXxXxXxXxXxXxX      xXxXxXxXxXxXxXxXxXxXxXxXxXvX",
"cXxXxXxX      xXxXxXxXxXxXxXxXxXxXxXxXxXxXxXxXxXxXxXxXxXxXxXxX      xXxXxXxXxXxXxXxX      xXxXxXxXxXxXxX      C   R.xX[.  h       xXxXxXxXxXxXxXxXxXxXxXxXxXxXxXxXxXxXxXxXxXxXxXxXxXxXxXxXxXxXxXxXxXxXxXxXxXxXxXxXxXxXxXxXxX      xXxXxXxXxXxXxXxXxXxXxXxXxXvX",
"cXxXxXxX      xXxXxXxXxXxXxXxX      xXxXxX).( 7 H P.      xXxX      {._ 7 l 6.tXxX          xXxXxXxXxXxX      i.  0.xXZ.  -.      xXxXxX~.) u $ k o.;XxXxXxX).( 7 H P.      xXxXxX9Xj.N : c 7.tXxXxXxX      <X` 7 s 5.tXxX          xXxX~.) u $ k o.;XxXxXxXvX",
"cXxXxXxX      xXxXxXxXxXxXxXxX      xXxX}.v       F       xXxX      T         1.xX          xXxXxXxXxXxX      B.  ,.xXf.  4.      xXxX].4           =.xXxX}.v       F       xXxXeX^           I xXxXxX      !         >.xX          xX].4           =.xXxXxXvX",
"cXxXxXxX      xXxXxXxXxXxXxXxX      xXxXd.    #.|.|       xXxX      I .Xz.    D xX5X      5XxXxXxXxXxXxX      A.  G xX[   r.      xXxXm.>   e.Q.    p xXxXd.    #.|.|       xXxXM.    :.oXu.    q.xXxX      P .Xl.    d xX5X      5XxXm.>   e.Q.    p xXxXxXvX",
"cXxXxXxX      xXxXxXxXxXxXxXxX      xXxXE     T.xX/.      xXxX      U.xXqX    - xXxX      xXxXxXxXxXxXxX      qX% + =X> + 7X      xXxXxXaX,XfX`.      xXxXE     Y.xX/.      xXxX'     @X5X:X    %.xXxX      Y.xX3X    * xXxX      xXxXxXaX,XfX`.      xXxXxXvX",
"cXxXxXxX      xXxXxXxXxXxXxXxX      xXxX4     iXxXaX      xXxX      tXxXxX      xXxX      xXxXxXxXxXxXxX      xX~   O.  L xX      xXxXxX>Xk.A         xXxX4     iXxXrX      xXxXy               h xXxX      tXxXhX      xXxX      xXxXxX>Xk.A         xXxXxXvX",
"cXxXxXxX      xXxXxXxXxXxXxXxX      xXxX2     iXxXrX      xXxX      xXxXxX      xXxX      xXxXxXxXxXxXxX      xXp.  8   ,.xX      xXxXC.>   K G.      xXxX2     iXxXrX      xXxX2               - xXxX      xXxXxX      xXxX      xXxXC.>   K G.      xXxXxXvX",
"cXxXxXxX      xXxXxXxXxXxXxXxX      xXxXR     Y.xX^.      xXxX      xXxXxX      xXxX      xXxXxXxXxXxXxX      xXV.      9.xX      xXxXC     ;XqX      xXxXR     Y.xX^.      xXxXQ     ;XxXrX*XiXxXxXxX      xXxXxX      xXxX      xXxXC     ;XqX      xXxXxXvX",
"cXxXxXxX      D.D.D.D.D.D.$XxX      xXxXg.    #.XX}       xXxX      xXxXxX      xXxX4     K.xXxXxXxXxXxX      xX^.      U.xX      xXxX4     F.l.      tXxXg.    #.XX}       xXxXn.    ;.OXa.  + <.xXxX      xXxXxX      xXxX4     L.xX4     F.l.      8XxXxXvX",
"cXxXxXxX                  3.xX      xXxX1Xb       j       xXxX      xXxXxX      xXxX]       -XxXxXxXxXxX      xXaXy   9 fXxX      xXxXt.        M     E.xX1Xb       j       xXxXqXW           p W.xXxX      xXxXxX      xXxX'       -Xt.        M     E.xXxXvX",
"cXxXxXxX                  3.xX      xXxXxX(./ 1 J I.    - xXxX      xXxXxX      xXxX!.Z + c %XxXxXxXxXxX      xXxX{   +.xXxX      xXxX2X .1 l w.v.    0.xXxX(./ 1 J I.    - xXxXxX4Xh.B % q X.#XxXxXxX      xXxXxX      xXxX!.Z + c %X2X .7 z w.v.    8.xXxXvX",
"cXxXxXxXxXxXxXxXxXxXxXxXxXxXxXxXxXxXxXxXS.L.&XtXxXrX    a xXxXxXxXxXxXxXxXxXxXxXxXxXxXxXxXxXxXxXxXxXxXxXxXxXxXxXxXxXxXxXxXxXxXxXxXxXxXxXxXxXxXxXxXxXxXxXxXS.L.&XtXxXrX    d xXxXxXxXxXxXxXxXxXxXxXxXxXxXxXxXxXxXxXxXxXxXxXxXxXxXxXxXxXxXxXxXxXxXxXxXxXxXxXxXvX",
"cXxXxXxXxXxXxXxXxXxXxXxXxXxXxXxXxXxXxXxXn     $.+Xx.    &.xXxXxXxXxXxXxXxXxXxXxXxXxXxXxXxXxXxXxXxXxXxXxXxXxXxXxXxXxXxXxXxXxXxXxXxXxXxXxXxXxXxXxXxXxXxXxXxXn     $.+Xx.    &.xXxXxXxXxXxXxXxXxXxXxXxXxXxXxXxXxXxXxXxXxXxXxXxXxXxXxXxXxXxXxXxXxXxXxXxXxXxXxXxXvX",
"cXxXxXxXxXxXxXxXxXxXxXxXxXxXxXxXxXxXxXxXb.            + J.xXxXxXxXxXxXxXxXxXxXxXxXxXxXxXxXxXxXxXxXxXxXxXxXxXxXxXxXxXxXxXxXxXxXxXxXxXxXxXxXxXxXxXxXxXxXxXxXb.            + J.xXxXxXxXxXxXxXxXxXxXxXxXxXxXxXxXxXxXxXxXxXxXxXxXxXxXxXxXxXxXxXxXxXxXxXxXxXxXxXxXvX",
"cXxXxXxXxXxXxXxXxXxXxXxXxXxXxXxXxXxXxXxXxXc.S 7   0 Y H.xXxXxXxXxXxXxXxXxXxXxXxXxXxXxXxXxXxXxXxXxXxXxXxXxXxXxXxXxXxXxXxXxXxXxXxXxXxXxXxXxXxXxXxXxXxXxXxXxXxXc.S 7   0 Y H.xXxXxXxXxXxXxXxXxXxXxXxXxXxXxXxXxXxXxXxXxXxXxXxXxXxXxXxXxXxXxXxXxXxXxXxXxXxXxXxXxXvX",
"cXxXxXxXxXxXxXxXxXxXxXxXxXxXxXxXxXxXxXxXxXxXxXxXxXxXxXxXxXxXxXxXxXxXxXxXxXxXxXxXxXxXxXxXxXxXxXxXxXxXxXxXxXxXxXxXxXxXxXxXxXxXxXxXxXxXxXxXxXxXxXxXxXxXxXxXxXxXxXxXxXxXxXxXxXxXxXxXxXxXxXxXxXxXxXxXxXxXxXxXxXxXxXxXxXxXxXxXxXxXxXxXxXxXxXxXxXxXxXxXxXxXxXxXxXxXvX",
"cXxXxXxXxXxXxXxXxXxXxXxXxXxXxXxXxXxXxXxXxXxXxXxXxXxXxXxXxXxXxXxXxXxXxXxXxXxXxXxXxXxXxXxXxXxXxXxXxXxXxXxXxXxXxXxXxXxXxXxXxXxXxXxXxXxXxXxXxXxXxXxXxXxXxXxXxXxXxXxXxXxXxXxXxXxXxXxXxXxXxXxXxXxXxXxXxXxXxXxXxXxXxXxXxXxXxXxXxXxXxXxXxXxXxXxXxXxXxXxXxXxXxXxXxXxXvX",
"cXvXvXvXvXvXvXvXvXvXvXvXvXvXvXvXvXvXvXvXvXvXvXvXvXvXvXvXvXvXvXvXvXvXvXvXvXvXvXvXvXvXvXvXvXvXvXvXvXvXvXvXvXvXvXvXvXvXvXvXvXvXvXvXvXvXvXvXvXvXvXvXvXvXvXvXvXvXvXvXvXvXvXvXvXvXvXvXvXvXvXvXvXvXvXvXvXvXvXvXvXvXvXvXvXvXvXvXvXvXvXvXvXvXvXvXvXvXvXvXvXvXvXvXvXvXvX"
};
