/* XPM */
static char *color_magenta[] = {
/* columns rows colors chars-per-pixel */
"101 25 201 2",
"   c #800080",
".  c #800081",
"X  c #810080",
"o  c #820180",
"O  c #830180",
"+  c #800284",
"@  c #800387",
"#  c #840280",
"$  c #850280",
"%  c #870380",
"&  c #800488",
"*  c #810489",
"=  c #81078F",
"-  c #890481",
";  c #8D0681",
":  c #820B97",
">  c #8C188C",
",  c #8C188D",
"<  c #8D1A8D",
"1  c #8C1A8F",
"2  c #8E1A8E",
"3  c #8E1B8F",
"4  c #8F1C8F",
"5  c #8E1D91",
"6  c #920881",
"7  c #950A82",
"8  c #990C82",
"9  c #9A0C82",
"0  c #9B0D82",
"q  c #9C0D83",
"w  c #911787",
"e  c #931F8D",
"r  c #8311A3",
"t  c #861FB2",
"y  c #8E2093",
"u  c #8E2094",
"i  c #922492",
"p  c #912A9A",
"a  c #982792",
"s  c #9D2D92",
"d  c #882CA2",
"f  c #882BAB",
"g  c #9638A4",
"h  c #A11083",
"j  c #A21183",
"k  c #AC1584",
"l  c #AA2787",
"z  c #AB2C88",
"x  c #A9338B",
"c  c #A33796",
"v  c #A43694",
"b  c #A53895",
"n  c #AC3492",
"m  c #BF2A89",
"M  c #8828C1",
"N  c #8829C2",
"B  c #892BC3",
"V  c #892CC4",
"C  c #8A30C4",
"Z  c #8B3AC2",
"A  c #8C3CC2",
"S  c #8B39C9",
"D  c #8C3ACE",
"F  c #904AB8",
"G  c #9D4CB3",
"H  c #9757BD",
"J  c #9656BF",
"K  c #9758BD",
"L  c #9C51B1",
"P  c #9F53B7",
"I  c #995CBF",
"U  c #9D61B8",
"Y  c #A7479F",
"T  c #AF459A",
"R  c #B14A9C",
"E  c #B34C9D",
"W  c #BE5996",
"Q  c #A45AB8",
"!  c #A460BF",
"~  c #B86AB2",
"^  c #8D45C6",
"/  c #9053CE",
"(  c #9D64C2",
")  c #9570E3",
"_  c #9571E3",
"`  c #9777E4",
"'  c #A35FC1",
"]  c #AC7CCD",
"[  c #C22488",
"{  c #C52D89",
"}  c #C42F8A",
"|  c #C12F9F",
" . c #C4318A",
".. c #C9328A",
"X. c #CB368B",
"o. c #C1629F",
"O. c #D86994",
"+. c #C76FA4",
"@. c #D376AB",
"#. c #E37196",
"$. c #E47596",
"%. c #E67E98",
"&. c #8D8D8D",
"*. c #9C83D2",
"=. c #9B86E5",
"-. c #9E98EB",
";. c #AB91DA",
":. c #B283CE",
">. c #B68CDF",
",. c #A696E6",
"<. c #B38EE3",
"1. c #AEBFF2",
"2. c #AFBFF2",
"3. c #B0C3F3",
"4. c #B1C3F3",
"5. c #CF81AE",
"6. c #D188B3",
"7. c #E3839C",
"8. c #E78499",
"9. c #E68D9D",
"0. c #C28AC8",
"q. c #CB8CC2",
"w. c #D49FC0",
"e. c #D0A5D5",
"r. c #E3B4CF",
"t. c #F0B0C2",
"y. c #F3C6B3",
"u. c #F4C9B4",
"i. c #F5CFB9",
"p. c #C0C0C0",
"a. c #CEC8F4",
"s. c #C0DCF7",
"d. c #C4DFF8",
"f. c #DEC3E5",
"g. c #D9C7EB",
"h. c #C6E2F9",
"j. c #CDE6F9",
"k. c #D1E8FA",
"l. c #D8ECFB",
"z. c #DAECFB",
"x. c #DAEDFB",
"c. c #DDEEFB",
"v. c #EFC9CF",
"b. c #E9C3D7",
"n. c #EDC9DA",
"m. c #F4C7CF",
"M. c #F5CCCD",
"N. c #E1D5F1",
"B. c #E2D5F1",
"V. c #E2D7F2",
"C. c #E4D9F3",
"Z. c #E7DCF3",
"A. c #F4DBE5",
"S. c #F5DFE8",
"D. c #F9DEE2",
"F. c #F9E2CA",
"G. c #FAEAD5",
"H. c #FBEDDB",
"J. c #FBEEDC",
"K. c #E3E8F7",
"L. c #E5EEFC",
"P. c #EAE1F6",
"I. c #EAF2FB",
"U. c #F8E6EC",
"Y. c #F8E6ED",
"T. c #FBEAE1",
"R. c #FAECE3",
"E. c #FBEFE6",
"W. c #F1EBFA",
"Q. c #FAE0F8",
"!. c #FCF0E2",
"~. c #FCF1E2",
"^. c #F6F5FD",
"/. c #F5FAFE",
"(. c #F6FAFE",
"). c #F7FBFE",
"_. c #FBF2F5",
"`. c #FAF4FA",
"'. c #FAF7FE",
"]. c #FDF7F8",
"[. c #F8FBFE",
"{. c #FBFBFC",
"}. c #FAFAFE",
"|. c #F9FCFE",
" X c #FAFCFE",
".X c #FBFDFF",
"XX c #FCFAFB",
"oX c #FEF9FA",
"OX c #FEFBF8",
"+X c #FCFBFC",
"@X c #FCFBFE",
"#X c #FEFCF9",
"$X c #FFFDFB",
"%X c #FDFDFD",
"&X c #FDFDFE",
"*X c #FFFDFD",
"=X c #FFFEFD",
"-X c #FEFEFE",
";X c #FFFEFE",
":X c #FFFEFF",
">X c gray100",
/* pixels */
"&.&.&.&.&.&.&.&.&.&.&.&.&.&.&.&.&.&.&.&.&.&.&.&.&.&.&.&.&.&.&.&.&.&.&.&.&.&.&.&.&.&.&.&.&.&.&.&.&.&.&.&.&.&.&.&.&.&.&.&.&.&.&.&.&.&.&.&.&.&.&.&.&.&.&.&.&.&.&.&.&.&.&.&.&.&.&.&.&.&.&.&.&.&.&.&.&.&.&.&.p.",
"&.                                                                                                                                                                                                      p.",
"&.                                                                                                                                                                                                      p.",
"&.                                                                                                                                                                                                      p.",
"&.                                                                                                                                                                                                      p.",
"&.                                                                                                                                                                                                      p.",
"&.                                                                                                                                                                                                      p.",
"&.      >X>Xh             l.>X                                                                        J                                                                                                 p.",
"&.      >X{.8.          M >X>X                                          .                             >X                                                                                                p.",
"&.      >X2.~.          2.i.>X                                          . .                           >X              .                                                                                 p.",
"&.      >XM >X..      : {.X.>X    @ :.Z.}.].b.z     H N.}.A.W >X      K V.>XS.+.      >XF N.OXn.l   >X>X>X>X    :.Z.>X].b.z                                                                             p.",
"&.  . . >X. l.u.      ) ~.  >X    =.M.v < p >.G.  Z E.R 2 Q I.>X    ^ m.b 5 Q /.O.    >Xv.c u <.F.  > >X> 2   =.M.c , p >.G.                                                                            p.",
"&.      >X  ) >X0     l.%.  >X    U j       @ }.  4.X.%     S >X    h.0 . .   -.H.    >Xk     = #X    >X      U j       @ >X                                                                            p.",
"&.      >X  : {.$.  M >Xq   >X      L 0.e.f.W.>X  /.- +     & >X    /._.`.`.`.).>X    >X        >X    >X        L 0.e.f.W.>X                                                                            p.",
"&.      >X    4.J.  3.y.    >X    ,.D.q.~ Y > }.o /.- o     @ >X    >Xa i i i i i + # >X        >X    >X      ,.D.q.~ Y w >X                                                                            p.",
"&.      >X    V >X| {.{     >X    ).7       f >Xo h. .o   . C >X    j.m       *.6.& # >X        >X    >X      /.7       t >X                                                                            p.",
"&.      >X    . c.Q.J.      >X    l.@.e y Q K.>X; A R.R 2 G L.>X. . / J.T 2 ' {.7.    >X        >X    /.n , . l.@.e u Q K.>X; .                                                                         p.",
"&.      >X      ` >X#.      >X    f g.}._.r.x j.[   I C.>XA.o.OX. . . ( C.>XU.5.      >X        >X    ;.^.OX0 f g.)._.r.x k.[ .                                                                         p.",
"&.                                                d 6       r J.        . .                                                                                                                             p.",
"&.                                                D t.s > g a.9.                                                                                                                                        p.",
"&.                                                  ] P.>XY.6.$                                                                                                                                         p.",
"&.                                                                                                                                                                                                      p.",
"&.                                                                                                                                                                                                      p.",
"&.                                                                                                                                                                                                      p.",
"&.p.p.p.p.p.p.p.p.p.p.p.p.p.p.p.p.p.p.p.p.p.p.p.p.p.p.p.p.p.p.p.p.p.p.p.p.p.p.p.p.p.p.p.p.p.p.p.p.p.p.p.p.p.p.p.p.p.p.p.p.p.p.p.p.p.p.p.p.p.p.p.p.p.p.p.p.p.p.p.p.p.p.p.p.p.p.p.p.p.p.p.p.p.p.p.p.p.p.p.p."
};
