/* XPM */
static char *color_blue[] = {
/* columns rows colors chars-per-pixel */
"101 25 90 1",
"  c navy",
". c #000183",
"X c #020080",
"o c #040180",
"O c #03078F",
"+ c #090280",
"@ c #0D0380",
"# c #060D9C",
"$ c #0B1592",
"% c #1F0781",
"& c #18188C",
"* c #1A1C8F",
"= c #1C1B8F",
"- c #1C1D91",
"; c #0914AB",
": c #1E2295",
"> c #1331AF",
", c #261D8D",
"< c #360D82",
"1 c #242492",
"2 c #272896",
"3 c #302792",
"4 c #2C39A5",
"5 c #303AA4",
"6 c #2E58BD",
"7 c #1B45C6",
"8 c #2053CE",
"9 c #3B64C2",
"0 c #581D86",
"q c #4A3895",
"w c #7F2A89",
"e c #5E459A",
"r c #404BAD",
"t c #4960BF",
"y c #68418D",
"u c #465FC1",
"i c #3983D2",
"p c #3C98EB",
"a c #628AE3",
"s c #729DE9",
"d c #8E6FA4",
"f c #B16994",
"g c #8D8D8D",
"h c #9E81AE",
"j c #A086B3",
"k c #A38BB6",
"l c #A99FC0",
"z c #9FC9EC",
"x c #95C0F3",
"c c #8DE2F9",
"v c #9AE6F9",
"b c #A3CAF5",
"n c #BBCEEF",
"m c #A6E9FA",
"M c #C6839C",
"N c #CE8E9F",
"B c #C88FB3",
"V c #D498A3",
"C c #D9A0A6",
"Z c #EDD5BE",
"A c #C0C0C0",
"S c #C5D5F1",
"D c #C9D9F3",
"F c #E8C7CF",
"G c #E4D4E0",
"H c #EADFE8",
"J c #F6EDDB",
"K c #E9E0EA",
"L c #EAE1EA",
"P c #EAFAFE",
"I c #EEFBFE",
"U c #F0E6EC",
"Y c #F6EAE1",
"T c #FAF5EB",
"R c #FBF7EF",
"E c #F4F4FA",
"W c #F5F6FD",
"Q c #F5F7FE",
"! c #F3FCFE",
"~ c #F7FBFC",
"^ c #F6FCFF",
"/ c #FBF8F1",
"( c #FDFAF6",
") c #F8FBFC",
"_ c #FAFDFE",
"` c #FEFCFC",
"' c #FEFCFD",
"] c #FEFDFC",
"[ c #FEFEFE",
"{ c gray100",
/* pixels */
"ggggggggggggggggggggggggggggggggggggggggggggggggggggggggggggggggggggggggggggggggggggggggggggggggggggA",
"g                                                                                                   A",
"g                                                                                                   A",
"g                                                                                                   A",
"g                                                                                                   A",
"g                                                                                                   A",
"g                                                                                                   A",
"g   {{{{{Lj+  {                                                                                     A",
"gXXX{&&&*4xN  {                                                                                     A",
"gXXX{XXXXX#T  {                                                                                     A",
"gXXX{XXXXXO/  {  {    {   6S~Hd                                                                     A",
"gXXX{XXXX$sV  {  {    {  7Fq-tPf                                                                    A",
"gXXX{EEEE({0  {  {    {  c<   pJ                                                                    A",
"gXXX{11136bZ  {  {    {  IEEEEQ{+                                                                   A",
"gXXX{XXXXX#(  {  {    {  !311111                                                                    A",
"gXXX{XXXXXOR  {  !%  ;{  vw   il                                                                    A",
"gXXX{&&&&:aVXX{XXmB,4z{XX8Je-u!M                                                                    A",
"gXXX{{{{`Kk@XX{XX>n~Gy{XXX9D{LhX                                                                    A",
"gXXXXXXXXXXXXXXXXXXXXXXXXXXX                                                                        A",
"gXXXXXXXXXXXXXXXXXXXXXXXXXXX                                                                        A",
"gXXXXXXXXXXXXXXXXXXXXXXXXXXXXXXX                                                                    A",
"gXXXXXXXXXXXXXXXXXXXXXXXXXXXXXXX                                                                    A",
"gXXXXXXXXXXXXXXXXXXXXXXXXXXXXXXX                                                                    A",
"gXXXXXXXXXXXXXXXXXXXXXXXXXXXXXXX                                                                    A",
"gAAAAAAAAAAAAAAAAAAAAAAAAAAAAAAAAAAAAAAAAAAAAAAAAAAAAAAAAAAAAAAAAAAAAAAAAAAAAAAAAAAAAAAAAAAAAAAAAAAAA"
};
