/* XPM */
static const char *color_brown[] = {
/* columns rows colors chars-per-pixel */
"101 25 156 2",
"   c #808000",
".  c #808001",
"X  c #838000",
"o  c #808006",
"O  c #848101",
"+  c #868101",
"@  c #888201",
"#  c #8A8202",
"$  c #8D8302",
"%  c #808211",
"&  c #808212",
"*  c #818214",
"=  c #81831E",
"-  c #81831F",
";  c #8C8C18",
":  c #8D8E1F",
">  c #8E8D1C",
",  c #8F8E1E",
"<  c #908403",
"1  c #998605",
"2  c #9B8606",
"3  c #858A24",
"4  c #838638",
"5  c #838639",
"6  c #8E9028",
"7  c #8F912A",
"8  c #929224",
"9  c #959020",
"0  c #93942C",
"q  c #99A02D",
"w  c #A38807",
"e  c #A88909",
"r  c #AC8A09",
"t  c #AD8A09",
"y  c #AC8E0C",
"u  c #AA930F",
"i  c #B08D17",
"p  c #A49B29",
"a  c #B2A539",
"s  c #B3A63A",
"d  c #848A5A",
"f  c #858B5B",
"g  c #858B5E",
"h  c #989D48",
"j  c #858C65",
"k  c #87907F",
"l  c #9DA667",
"z  c #9DA668",
"x  c #90A571",
"c  c #A0A55A",
"v  c #C49814",
"b  c #CB9513",
"n  c #D8A21C",
"m  c #CEA920",
"M  c #C1B139",
"N  c #C1B23D",
"B  c #D1AC22",
"V  c #DDAA21",
"C  c #E2B328",
"Z  c #E2B428",
"A  c #E7C132",
"S  c #E7C73F",
"D  c #EBCD3A",
"F  c #D0C366",
"G  c #D1C56D",
"H  c #EACC47",
"J  c #ECD04D",
"K  c #EFD948",
"L  c #F2DF51",
"P  c #EED67B",
"I  c #F6EB73",
"U  c #F6EC74",
"Y  c #F6EA7C",
"T  c #8D8D8D",
"R  c #88938E",
"E  c #8A998A",
"W  c #8B9A8E",
"Q  c #899693",
"!  c #90A99D",
"~  c #9DB083",
"^  c #9EB387",
"/  c #90AAA0",
"(  c #93B1C3",
")  c #93B2C4",
"_  c #97BCCB",
"`  c #97BECC",
"'  c #A6C3B1",
"]  c #9DCDD7",
"[  c #A6CBD7",
"{  c #A2D5DD",
"}  c #B1C5C7",
"|  c #B3C7C7",
" . c #B9CED2",
".. c #A6DBE1",
"X. c #B5EAEC",
"o. c #B8EBED",
"O. c #E9C09F",
"+. c #EFE49F",
"@. c #F8F084",
"#. c #F8F087",
"$. c #F9F194",
"%. c #F9F39B",
"&. c #FAF39C",
"*. c #FAF39D",
"=. c #EDE4B4",
"-. c #FAF4A0",
";. c #C0C0C0",
":. c #CAE0E6",
">. c #C9F2F3",
",. c #CAF2F3",
"<. c #CCF3F3",
"1. c #D1E5EA",
"2. c #DCF7F7",
"3. c #F1EBC4",
"4. c #F3EDCB",
"5. c #FBF7CA",
"6. c #FCF7CB",
"7. c #FCF8C3",
"8. c #FCF9CD",
"9. c #F4F0D4",
"0. c #F5F0D5",
"q. c #F8F3D2",
"w. c #FDFAD7",
"e. c #FDFBDE",
"r. c #E2EBE5",
"t. c #E4ECE6",
"y. c #E6EEE8",
"u. c #E2F8F8",
"i. c #E4F9F9",
"p. c #E6F8F8",
"a. c #E7F8F8",
"s. c #EBFAFA",
"d. c #FDFCE3",
"f. c #FEFDED",
"g. c #FEFDEF",
"h. c #F7FCFA",
"j. c #F4FCFC",
"k. c #F6FDFD",
"l. c #F7FDFD",
"z. c #FAFAF4",
"x. c #FEFEF3",
"c. c #FCFDF7",
"v. c #FEFEF4",
"b. c #FEFEF5",
"n. c #FAFBFA",
"m. c #F8FDFD",
"M. c #FCFEF9",
"N. c #FFFEF8",
"B. c #FFFEF9",
"V. c #FFFEFA",
"C. c #FFFFFB",
"Z. c #FFFFFC",
"A. c #FEFFFE",
"S. c #FFFEFE",
"D. c #FFFFFE",
"F. c gray100",
/* pixels */
"T T T T T T T T T T T T T T T T T T T T T T T T T T T T T T T T T T T T T T T T T T T T T T T T T T T T T T T T T T T T T T T T T T T T T T T T T T T T T T T T T T T T T T T T T T T T T T T T T T T T ;.",
"T                                                                                                                                                                                                       ;.",
"T                                                                                                                                                                                                       ;.",
"T                                                                                                                                                                                                       ;.",
"T                                                                                                                                                                                                       ;.",
"T                                                                                                                                                                                                       ;.",
"T                                                                                                                                                                                                       ;.",
"T       F.F.F.F.V.0.F O                                                                                                                                                                                 ;.",
"T       F.; ; ; : h :.S                                                                                                                                                                                 ;.",
"T       F.          5 w.                                                                                                                                                                                ;.",
"T       F.          - d.    F.' F.q.@   ~ t.V.4.M     ,.K     d F.A     Q c.$ F.x r.c.=.u                                                                                                               ;.",
"T       F.        3  .J     F.P 9 0   ! 8.s : l a.m   _ 7.    ) F.@.    { I   F.+.p 7 | $.                                                                                                              ;.",
"T       F.z.z.z.n.F.V.y     F.e       <.v       E %.  g F.t   o.O.c.$   i.V   F.t     - x.                                                                                                              ;.",
"T       F.8 8 8 0 c 1.Y     F.        l.@       & x.    2.C & k.i h.b j F.1   F.        F.                                                                                                              ;.",
"T       F.          4 f.    F.        l.@       * f.    ] U R 8.  X.D _ #.    F.        F.                                                                                                              ;.",
"T       F.          - e.    F.        <.v       W &.    k f.[ L   ( *.>.Z     F.        F.                                                                                                              ;.",
"T       F.; ; ; ; 7 } H     F.        / 5.a : l a.B     o s.l.n   d F.F.w     F.        F.                                                                                                              ;.",
"T       F.F.F.F.V.0.G O     F.          ^ y.c.3.N         ..F.2     a.&.      F.        F.                                                                                                              ;.",
"T                                                                                                                                                                                                       ;.",
"T                                                                                                                                                                                                       ;.",
"T                                                                                                                                                                                                       ;.",
"T                                                                                                                                                                                                       ;.",
"T                                                                                                                                                                                             X         ;.",
"T                                                                                                                                                                                             X         ;.",
"T ;.;.;.;.;.;.;.;.;.;.;.;.;.;.;.;.;.;.;.;.;.;.;.;.;.;.;.;.;.;.;.| ;.;.;.;.;.;.;.;.;.;.;.;.;.;.;.;.;.;.;.;.;.;.;.;.;.;.;.;.;.;.;.;.;.;.;.;.;.;.;.;.;.;.;.;.;.;.;.;.;.;.;.;.;.;.;.;.;.;.;.;.;.;.;.;.;.;.;.;."
};
