/* XPM */
static char *color_lightred[] = {
/* columns rows colors chars-per-pixel */
"101 25 125 2",
"   c black",
".  c #010000",
"X  c #020000",
"o  c #030000",
"O  c #040000",
"+  c #050000",
"@  c #060000",
"#  c #080000",
"$  c #090000",
"%  c #0A0000",
"&  c #0B0000",
"*  c #0C0000",
"=  c #0F0000",
"-  c #100000",
";  c #110000",
":  c #120000",
">  c #130000",
",  c #150000",
"<  c #160000",
"1  c #170000",
"2  c #190000",
"3  c #1E0000",
"4  c #1F0000",
"5  c #220000",
"6  c #240000",
"7  c #290000",
"8  c #2A0000",
"9  c #2B0000",
"0  c #2D0000",
"q  c #2F0000",
"w  c #320000",
"e  c #330000",
"r  c #340000",
"t  c #360000",
"y  c #370000",
"u  c #380000",
"i  c #390000",
"p  c #3A0000",
"a  c #3C0000",
"s  c #400000",
"d  c #460000",
"f  c #4E0000",
"g  c #550000",
"h  c #560000",
"j  c #5A0000",
"k  c #5C0000",
"l  c #610000",
"z  c #630000",
"x  c #650000",
"c  c #700000",
"v  c #710000",
"b  c #720000",
"n  c #730000",
"m  c #760000",
"M  c #770000",
"N  c #790000",
"B  c #7A0000",
"V  c #7C0000",
"C  c #7E0000",
"Z  c #800000",
"A  c #820000",
"S  c #860000",
"D  c #8C0000",
"F  c #930000",
"G  c #980000",
"H  c #9C0000",
"J  c #9D0000",
"K  c #A10000",
"L  c #A60000",
"P  c #A70000",
"I  c #A80000",
"U  c #A90000",
"Y  c #B00000",
"T  c #B20000",
"R  c #B40000",
"E  c #B50000",
"W  c #B60000",
"Q  c #B70000",
"!  c #B90000",
"~  c #C00000",
"^  c #C10000",
"/  c #C30000",
"(  c #C40000",
")  c #C50000",
"_  c #C60000",
"`  c #C70000",
"'  c #C90000",
"]  c #CA0000",
"[  c #CB0000",
"{  c #CC0000",
"}  c #CD0000",
"|  c #CF0000",
" . c #D10000",
".. c #D20000",
"X. c #D30000",
"o. c #D80000",
"O. c #DA0000",
"+. c #DB0000",
"@. c #DF0000",
"#. c #E10000",
"$. c #E20000",
"%. c #E30000",
"&. c #E40000",
"*. c #E60000",
"=. c #E70000",
"-. c #E80000",
";. c #EA0000",
":. c #EB0000",
">. c #ED0000",
",. c #EE0000",
"<. c #EF0000",
"1. c #F00000",
"2. c #F40000",
"3. c #F50000",
"4. c #F60000",
"5. c #F80000",
"6. c #F90000",
"7. c #FA0000",
"8. c #FB0000",
"9. c #FC0000",
"0. c #FD0000",
"q. c #FE0000",
"w. c red",
"e. c #8D8D8D",
"r. c #C0C0C0",
/* pixels */
"e.e.e.e.e.e.e.e.e.e.e.e.e.e.e.e.e.e.e.e.e.e.e.e.e.e.e.e.e.e.e.e.e.e.e.e.e.e.e.e.e.e.e.e.e.e.e.e.e.e.e.e.e.e.e.e.e.e.e.e.e.e.e.e.e.e.e.e.e.e.e.e.e.e.e.e.e.e.e.e.e.e.e.e.e.e.e.e.e.e.e.e.e.e.e.e.e.e.e.e.r.",
"e.w.w.w.w.w.w.w.w.w.w.w.w.w.w.w.w.w.w.w.w.w.w.w.w.w.w.w.w.w.w.w.w.w.w.w.w.w.w.w.w.w.w.w.w.w.w.w.w.w.w.w.w.w.w.w.w.w.w.w.w.w.w.w.w.w.w.w.w.w.w.w.w.w.w.w.w.w.w.w.w.w.w.w.w.w.w.w.w.w.w.w.w.w.w.w.w.w.w.w.r.",
"e.w.w.w.w.w.w.w.w.w.w.w.w.w.w.w.w.w.w.w.w.w.w.w.w.w.w.w.w.w.w.w.w.w.w.w.w.w.w.w.w.w.w.w.w.w.w.w.w.w.w.w.w.w.w.w.w.w.w.w.w.w.w.w.w.w.w.w.w.w.w.w.w.w.w.w.w.w.w.w.w.w.w.w.w.w.w.w.w.w.w.w.w.w.w.w.w.w.w.w.r.",
"e.w.w.w.w.w.w.w.w.w.w.w.w.w.w.w.w.w.w.w.w.w.w.w.w.w.w.w.w.w.w.w.w.w.w.w.w.w.w.w.w.w.w.w.w.w.w.w.w.w.w.w.w.w.w.w.w.w.w.w.w.w.w.w.w.w.w.w.w.w.w.w.w.w.w.w.w.w.w.w.w.w.w.w.w.w.w.w.w.w.w.w.w.w.w.w.w.w.w.w.r.",
"e.w.w.w.w.w.w.w.w.w.w.w.w.w.w.w.w.w.w.w.w.w.w.w.w.w.w.w.w.w.w.w.w.w.w.w.w.w.w.w.w.w.w.w.w.w.w.w.w.w.w.w.w.w.w.w.w.w.w.w.w.w.w.w.w.w.w.w.w.w.w.w.w.w.w.w.w.w.w.w.w.w.w.w.w.w.w.w.w.w.w.w.w.w.w.w.w.w.w.w.r.",
"e.w.w.w.w.w.w.w.w.w.w.w.w.w.w.w.w.w.w.w.w.w.w.w.w.w.w.w.w.w.w.w.w.w.w.w.w.w.w.w.w.w.w.w.w.w.w.w.w.w.w.w.w.w.w.w.w.w.w.w.w.w.w.w.w.w.w.w.w.w.w.w.w.w.w.w.w.w.w.w.w.w.w.w.w.w.w.w.w.w.w.w.w.w.w.w.w.w.w.w.r.",
"e.w.w.w.w.w.w.w.w.w.w.w.w.w.w.w.w.w.w.w.w.w.w.w.w.w.w.w.w.w.w.w.w.w.w.w.w.w.w.w.w.w.w.w.w.w.w.w.w.w.w.w.w.w.w.w.w.w.w.w.w.w.w.w.w.w.w.w.w.w.w.w.w.w.w.w.w.w.w.w.w.w.w.w.w.w.w.w.w.w.w.w.w.w.w.w.w.w.w.w.r.",
"e.w.w.w.  w.w.w.w.w.w.w.  w.w.w.w.w.w.w.w.w.w.  w.w.w.w.w.w.w. .w.w.w.w.w.w.w.            , g 1.w.w.w.w.w.w.w.w.w.w.w.w.w.w.w.w.w.  w.w.w.w.w.w.w.w.w.w.w.w.w.w.w.w.w.w.w.w.w.w.w.w.w.w.w.w.w.w.w.w.w.w.r.",
"e.w.w.w.  w.w.w.w.w.w.w.=.w.w.w.w.w.w.w.w.w.w.  w.w.w.w.w.w.w.  w.w.w.w.w.w.w.  =.=.=.=.=.' j q w.w.w.w.w.w.w.w.w.w.w.w.w.w.w.w.w.  w.w.w.w.w.w.w.w.w.w.w.w.w.w.w.w.w.w.w.w.w.w.w.w.w.w.w.w.w.w.w.w.w.w.r.",
"e.w.w.w.  w.w.w.w.w.w.w.w.w.w.w.w.w.w.w.w.w.w.  w.w.w.w.w.w.w.  w.w.w.w.w.w.w.  w.w.w.w.w.w.5.  w.w.w.w.w.w.w.w.w.w.w.w.w.w.w.w.w.  w.w.w.w.w.w.w.w.w.w.w.w.w.w.w.w.w.w.w.w.w.w.w.w.w.w.w.w.w.w.w.w.w.w.r.",
"e.w.w.w.  w.w.w.w.w.w.w.  w.w. .p O , A   w.w.  ' e O 6 Y w.        w.w.w.w.w.  w.w.w.w.w.w.5.O w.w.w.} p O , c w.w.w.w.' p   2 D   w.w.w.w.w.w.w.w.w.w.w.w.w.w.w.w.w.w.w.w.w.w.w.w.w.w.w.w.w.w.w.w.w.w.r.",
"e.w.w.w.  w.w.w.w.w.w.w.  w.-.$ G %.^ 8   w.w.  , Y %.G = w.-.  =.=.w.w.w.w.w.  w.w.w.w.w.-.m - w.w.=., Q =.Q , f w.w.=.$ J %.^ q   w.w.w.w.w.w.w.w.w.w.w.w.w.w.w.w.w.w.w.w.w.w.w.w.w.w.w.w.w.w.w.w.w.w.r.",
"e.w.w.w.  w.w.w.w.w.w.w.  w.C m w.w.w.=.  w.w.  U w.w.w.  w.w.  w.w.w.w.w.w.w.  $ = $ $ $   y ! w.w.c ' w.w.w.) $ w.w.B B w.w.w.=.  w.w.w.w.w.w.w.w.w.w.w.w.w.w.w.w.w.w.w.w.w.w.w.w.w.w.w.w.w.w.w.w.w.w.r.",
"e.w.w.w.  w.w.w.w.w.w.w.  w., 1.w.w.w.w.  w.w.  5.w.w.w.  w.w.  w.w.w.w.w.w.w.  +.+.+.Q q 4 ' w.w.w.- = = $ $ $   2.w.- 1.w.w.w.w.  w.w.w.w.w.w.w.w.w.w.w.w.w.w.w.w.w.w.w.w.w.w.w.w.w.w.w.w.w.w.w.w.w.w.r.",
"e.w.w.w.  w.w.w.w.w.w.w.  w.- >.w.w.w.w.  w.w.  w.w.w.w.  w.w.  w.w.w.w.w.w.w.  w.w.w.w.2.8 - 5.w.w.$  .+.+.+.+.+.w.w.- >.w.w.w.w.  w.w.w.w.w.w.w.w.w.w.w.w.w.w.w.w.w.w.w.w.w.w.w.w.w.w.w.w.w.w.w.w.w.w.r.",
"e.w.w.w.  w.w.w.w.w.w.w.  w.m m w.w.w.-.  w.w.  w.w.w.w.  w.w.  w.w.w.w.w.w.w.  w.w.w.w.w.-.O d w.w.z A w.w.w.) g w.w.B c w.w.w.>.  w.w.w.w.w.w.w.w.w.w.w.w.w.w.w.w.w.w.w.w.w.w.w.w.w.w.w.w.w.w.w.w.w.w.r.",
"e.w.w.w.  Q Q Q Q Q ) w.  w.=.$ J %.) e   w.w.  w.w.w.w.  w.w.- P =.w.w.w.w.w.  w.w.w.w.w.w.Q O } w.%.O K %.! $ p w.w.-.$ F %.' p   w.w.w.w.w.w.w.w.w.w.w.w.w.w.w.w.w.w.w.w.w.w.w.w.w.w.w.w.w.w.w.w.w.w.r.",
"e.w.w.w.            q w.  w.w.} y O , C   w.w.  w.w.w.w.  w.w.U -   } w.w.w.w.  w.w.w.w.w.w.w.p 5 w.w.) y O = z 5.w.w.w.+.a O , S   w.w.w.w.w.w.w.w.w.w.w.w.w.w.w.w.w.w.w.w.w.w.w.w.w.w.w.w.w.w.w.w.w.w.r.",
"e.w.w.w.w.w.w.w.w.w.w.w.w.w.>.+.w.w.w.5.$ w.w.w.w.w.w.w.w.w.w.w.w.w.w.w.w.w.w.w.w.w.w.w.w.w.w.w.w.w.w.w.w.w.w.w.w.w.w.w.w.w.w.w.w.w.w.w.w.w.w.w.w.w.w.w.w.w.w.w.w.w.w.w.w.w.w.w.w.w.w.w.w.w.w.w.w.w.w.w.r.",
"e.w.w.w.w.w.w.w.w.w.w.w.w.w.-.4 ) =. .z e w.w.w.w.w.w.w.w.w.w.w.w.w.w.w.w.w.w.w.w.w.w.w.w.w.w.w.w.w.w.w.w.w.w.w.w.w.w.w.w.w.w.w.w.w.w.w.w.w.w.w.w.w.w.w.w.w.w.w.w.w.w.w.w.w.w.w.w.w.w.w.w.w.w.w.w.w.w.w.r.",
"e.w.w.w.w.w.w.w.w.w.w.w.w.w.w.P q   = j 2.w.w.w.w.w.w.w.w.w.w.w.w.w.w.w.w.w.w.w.w.w.w.w.w.w.w.w.w.w.w.w.w.w.w.w.w.w.w.w.w.w.w.w.w.w.w.w.w.w.w.w.w.w.w.w.w.w.w.w.w.w.w.w.w.w.w.w.w.w.w.w.w.w.w.w.w.w.w.w.r.",
"e.w.w.w.w.w.w.w.w.w.w.w.w.w.w.w.w.w.w.w.w.w.w.w.w.w.w.w.w.w.w.w.w.w.w.w.w.w.w.w.w.w.w.w.w.w.w.w.w.w.w.w.w.w.w.w.w.w.w.w.w.w.w.w.w.w.w.w.w.w.w.w.w.w.w.w.w.w.w.w.w.w.w.w.w.w.w.w.w.w.w.w.w.w.w.w.w.w.w.w.r.",
"e.w.w.w.w.w.w.w.w.w.w.w.w.w.w.w.w.w.w.w.w.w.w.w.w.w.w.w.w.w.w.w.w.w.w.w.w.w.w.w.w.w.w.w.w.w.w.w.w.w.w.w.w.w.w.w.w.w.w.w.w.w.w.w.w.w.w.w.w.w.w.w.w.w.w.w.w.w.w.w.w.w.w.w.w.w.w.w.w.w.w.w.w.w.w.w.w.w.w.w.r.",
"e.w.w.w.w.w.w.w.w.w.w.w.w.w.w.w.w.w.w.w.w.w.w.w.w.w.w.w.w.w.w.w.w.w.w.w.w.w.w.w.w.w.w.w.w.w.w.w.w.w.w.w.w.w.w.w.w.w.w.w.w.w.w.w.w.w.w.w.w.w.w.w.w.w.w.w.w.w.w.w.w.w.w.w.w.w.w.w.w.w.w.w.w.w.w.w.w.w.w.w.r.",
"e.r.r.r.r.r.r.r.r.r.r.r.r.r.r.r.r.r.r.r.r.r.r.r.r.r.r.r.r.r.r.r.r.r.r.r.r.r.r.r.r.r.r.r.r.r.r.r.r.r.r.r.r.r.r.r.r.r.r.r.r.r.r.r.r.r.r.r.r.r.r.r.r.r.r.r.r.r.r.r.r.r.r.r.r.r.r.r.r.r.r.r.r.r.r.r.r.r.r.r.r."
};
