/* XPM */
static const char *color_yellow[] = {
/* columns rows colors chars-per-pixel */
"101 25 164 2",
"   c black",
".  c #010100",
"X  c #010300",
"o  c #030100",
"O  c #020300",
"+  c #020400",
"@  c #020500",
"#  c #030600",
"$  c #030700",
"%  c #050200",
"&  c #060300",
"*  c #060400",
"=  c #050B00",
"-  c #060C00",
";  c #070F00",
":  c #0A0300",
">  c #080400",
",  c #0C0300",
"<  c #0E0400",
"1  c #0A0800",
"2  c #0B0B00",
"3  c #071100",
"4  c #081100",
"5  c #091200",
"6  c #091500",
"7  c #0B1700",
"8  c #0B1800",
"9  c #0C1800",
"0  c #0F1900",
"q  c #0E1E00",
"w  c #0E1F00",
"e  c #100400",
"r  c #110400",
"t  c #120500",
"y  c #150500",
"u  c #170600",
"i  c #102400",
"p  c #122700",
"a  c #152000",
"s  c #122900",
"d  c #192500",
"f  c #1C2800",
"g  c #173800",
"h  c #183900",
"j  c #193D00",
"k  c #290A00",
"l  c #300C00",
"z  c #310F00",
"x  c #320F00",
"c  c #360D00",
"v  c #3B0F00",
"b  c #3C1000",
"n  c #332300",
"m  c #362600",
"M  c #3A2A00",
"N  c #1B4000",
"B  c #204D00",
"V  c #296200",
"C  c #286400",
"Z  c #2D7E00",
"A  c #307D00",
"S  c #397C00",
"D  c #471100",
"F  c #471400",
"G  c #651900",
"H  c #661900",
"J  c #6B1A00",
"K  c #6C1A00",
"L  c #721D00",
"P  c #566000",
"I  c #617E00",
"U  c #3A9700",
"Y  c #3A9900",
"T  c #489200",
"R  c #4E9600",
"E  c #519700",
"W  c #45AB00",
"Q  c #4EBB00",
"!  c #5DA700",
"~  c #719000",
"^  c #7D9B00",
"/  c #7C9D00",
"(  c #62AC00",
")  c #78BD00",
"_  c #69D400",
"`  c #76CE00",
"'  c #77CF00",
"]  c #79C400",
"[  c #8F2800",
"{  c #942B00",
"}  c #A15900",
"|  c #B24800",
" . c #BB5400",
".. c #AF6600",
"X. c #B06700",
"o. c #B26800",
"O. c #BA6E00",
"+. c #C36700",
"@. c #C46500",
"#. c #C67C00",
"$. c #99B300",
"%. c #9AB400",
"&. c #B69F00",
"*. c #A1BA00",
"=. c #B9A000",
"-. c #80D500",
";. c #9FE500",
":. c #B5C700",
">. c #A5EA00",
",. c #ADE400",
"<. c #B8EE00",
"1. c #BCED00",
"2. c #C29900",
"3. c #C49B00",
"4. c #C49E00",
"5. c #D08300",
"6. c #D18600",
"7. c #D89B00",
"8. c #D99D00",
"9. c #C4B200",
"0. c #C5B300",
"q. c #D1A700",
"w. c #DEAA00",
"e. c #DFAC00",
"r. c #E4BA00",
"t. c #E5BD00",
"y. c #CFD800",
"u. c #DBDB00",
"i. c #C8F200",
"p. c #C9F200",
"a. c #CCF300",
"s. c #CEF400",
"d. c #DEF700",
"f. c #E9CA00",
"g. c #EACA00",
"h. c #EACC00",
"j. c #ECCF00",
"k. c #ECD300",
"l. c #EED800",
"z. c #F0DE00",
"x. c #E1E300",
"c. c #E3E200",
"v. c #E3E400",
"b. c #E3E500",
"n. c #E5F900",
"m. c #EAFA00",
"M. c #EEFB00",
"N. c #F4E700",
"B. c #F5E900",
"V. c #F6EA00",
"C. c #F6FD00",
"Z. c #FBF500",
"A. c #F9FE00",
"S. c #FBFE00",
"D. c #FCF800",
"F. c #FDFA00",
"G. c #FDFB00",
"H. c #FEFB00",
"J. c #FDFF00",
"K. c #FEFF00",
"L. c #FFFE00",
"P. c yellow",
"I. c #8D8D8D",
"U. c #C0C0C0",
/* pixels */
"I.I.I.I.I.I.I.I.I.I.I.I.I.I.I.I.I.I.I.I.I.I.I.I.I.I.I.I.I.I.I.I.I.I.I.I.I.I.I.I.I.I.I.I.I.I.I.I.I.I.I.I.I.I.I.I.I.I.I.I.I.I.I.I.I.I.I.I.I.I.I.I.I.I.I.I.I.I.I.I.I.I.I.I.I.I.I.I.I.I.I.I.I.I.I.I.I.I.I.I.U.",
"I.P.P.P.P.P.P.P.P.P.P.P.P.P.P.P.P.P.P.P.P.P.P.P.P.P.P.P.P.P.P.P.P.P.P.P.P.P.P.P.P.P.P.P.P.P.P.P.P.P.P.P.P.P.P.P.P.P.P.P.P.P.P.P.P.P.P.P.P.P.P.P.P.P.P.P.P.P.P.P.P.P.P.P.P.P.P.P.P.P.P.P.P.P.P.P.P.P.P.P.U.",
"I.P.P.P.P.P.P.P.P.P.P.P.P.P.P.P.P.P.P.P.P.P.P.P.P.P.P.P.P.P.P.P.P.P.P.P.P.P.P.P.P.P.P.P.P.P.P.P.P.P.P.P.P.P.P.P.P.P.P.P.P.P.P.P.P.P.P.P.P.P.P.P.P.P.P.P.P.P.P.P.P.P.P.P.P.P.P.P.P.P.P.P.P.P.P.P.P.P.P.P.U.",
"I.P.P.P.P.P.P.P.P.P.P.P.P.P.P.P.P.P.P.P.P.P.P.P.P.P.P.P.P.P.P.P.P.P.P.P.P.P.P.P.P.P.P.P.P.P.P.P.P.P.P.P.P.P.P.P.P.P.P.P.P.P.P.P.P.P.P.P.P.P.P.P.P.P.P.P.P.P.P.P.P.P.P.P.P.P.P.P.P.P.P.P.P.P.P.P.P.P.P.P.U.",
"I.P.P.P.P.P.P.P.P.P.P.P.P.P.P.P.P.P.P.P.P.P.P.P.P.P.P.P.P.P.P.P.P.P.P.P.P.P.P.P.P.P.P.P.P.P.P.P.P.P.P.P.P.P.P.P.P.P.P.P.P.P.P.P.P.P.P.P.P.P.P.P.P.P.P.P.P.P.P.P.P.P.P.P.P.P.P.P.P.P.P.P.P.P.P.P.P.P.P.P.U.",
"I.P.P.P.P.P.P.P.P.P.P.P.P.P.P.P.P.P.P.P.P.P.P.P.P.P.P.P.P.P.P.P.P.P.P.P.P.P.P.P.P.P.P.P.P.P.P.P.P.P.P.P.P.P.P.P.P.P.P.P.P.P.P.P.P.P.P.P.P.P.P.P.P.P.P.P.P.P.P.P.P.P.P.P.P.P.P.P.P.P.P.P.P.P.P.P.P.P.P.P.U.",
"I.P.P.P.P.P.P.P.P.P.P.P.P.P.P.P.P.P.P.P.P.P.P.P.P.P.P.P.P.P.P.P.P.P.P.P.P.P.P.P.P.P.P.P.P.P.P.P.P.P.P.P.P.P.P.P.P.P.P.P.P.P.P.P.P.P.P.P.P.P.P.P.P.P.P.P.P.P.P.P.P.P.P.P.P.P.P.P.P.P.P.P.P.P.P.P.P.P.P.P.U.",
"I.P.Z.l i A.P.P.P.P...@ ,.P.P.P.P.P.P.P.P.P.P.o P.P.o P.P.P.P.P.P.P.P.P.P.P.P.P.P.P.P.P.P.P.P.P.P.P.P.P.P.P.P.P.P.P.P.P.P.P.P.P.P.P.P.P.P.P.P.P.P.P.P.P.P.P.P.P.P.P.P.P.P.P.P.P.P.P.P.P.P.P.P.P.P.P.P.P.U.",
"I.P.P.t.o T P.P.P.j.o E P.P.P.P.P.P.P.P.P.P.P.o P.P.o P.P.P.P.P.P.P.P.P.P.P.P.P.P.P.P.P.P.P.P.P.P.P.P.P.P.P.P.P.P.P.P.P.P.P.P.P.P.P.P.P.P.P.P.P.P.P.P.P.P.P.P.P.P.P.P.P.P.P.P.P.P.P.P.P.P.P.P.P.P.P.P.P.U.",
"I.P.P.P.} @ 1.P.F.F j P.P.P.P.P.P.P.P.P.P.P.P.o P.P.o P.P.P.P.P.P.P.P.P.P.P.P.P.P.P.P.P.P.P.P.P.P.P.P.P.P.P.P.P.P.P.P.P.P.P.P.P.P.P.P.P.P.P.P.P.P.P.P.P.P.P.P.P.P.P.P.P.P.P.P.P.P.P.P.P.P.P.P.P.P.P.P.P.U.",
"I.P.P.P.D.b g P.O.= s.P.P.P.P.q.M & a ~ P.P.P.o P.P.o P.P.P.4.m * d / P.P.J N P.P.B.o Z P.P.k.o d.P.P.P.P.P.P.P.P.P.P.P.P.P.P.P.P.P.P.P.P.P.P.P.P.P.P.P.P.P.P.P.P.P.P.P.P.P.P.P.P.P.P.P.P.P.P.P.P.P.P.P.U.",
"I.P.P.P.P.f.o ] : ) P.P.P.P.r.g :.c.&.y R P.P.o P.P.o P.P.e.3 $.x.0.z ! P.6.6 P.P.7.o q P.P. .s P.P.P.P.P.P.P.P.P.P.P.P.P.P.P.P.P.P.P.P.P.P.P.P.P.P.P.P.P.P.P.P.P.P.P.P.P.P.P.P.P.P.P.P.P.P.P.P.P.P.P.P.U.",
"I.P.P.P.P.P...@ V P.P.P.P.P.L i.P.P.P.+.3 P.P.o P.P.o P.P.G ' P.P.P.f.8 P.B.o >.P.[ Z o n.P.v W P.P.P.P.P.P.P.P.P.P.P.P.P.P.P.P.P.P.P.P.P.P.P.P.P.P.P.P.P.P.P.P.P.P.P.P.P.P.P.P.P.P.P.P.P.P.P.P.P.P.P.P.U.",
"I.P.P.P.P.P.F.o m.P.P.P.P.P.r 2 2 2 2 2 o C.P.o P.P.o P.P., M.P.P.P.P.o P.P.D Y P.r ;.u _ B.o a.P.P.P.P.P.P.P.P.P.P.P.P.P.P.P.P.P.P.P.P.P.P.P.P.P.P.P.P.P.P.P.P.P.P.P.P.P.P.P.P.P.P.P.P.P.P.P.P.P.P.P.P.U.",
"I.P.P.P.P.P.P.o P.P.P.P.P.P., y.u.u.u.u.u.A.P.o P.P.o P.P., M.P.P.P.F.@ P.P.+.s l.- P.{ C 5.q P.P.P.P.P.P.P.P.P.P.P.P.P.P.P.P.P.P.P.P.P.P.P.P.P.P.P.P.P.P.P.P.P.P.P.P.P.P.P.P.P.P.P.P.P.P.P.P.P.P.P.P.P.U.",
"I.P.P.P.P.P.P.o P.P.P.P.P.P.G -.P.P.P.#.P P.P.o P.P.o P.P.G ` P.P.P.f.8 P.P.l.@ X.j P.8.6 K Y P.P.P.P.P.P.P.P.P.P.P.P.P.P.P.P.P.P.P.P.P.P.P.P.P.P.P.P.P.P.P.P.P.P.P.P.P.P.P.P.P.P.P.P.P.P.P.P.P.P.P.P.P.U.",
"I.P.P.P.P.P.P.o P.P.P.P.P.P.e.6 %.b.=., S P.P.o P.P.o P.P.w.2 %.x.0.l ! P.P.P.k r Q P.B.o o <.P.P.P.P.P.P.P.P.P.P.P.P.P.P.P.P.P.P.P.P.P.P.P.P.P.P.P.P.P.P.P.P.P.P.P.P.P.P.P.P.P.P.P.P.P.P.P.P.P.P.P.P.P.U.",
"I.P.P.P.P.P.P.o P.P.P.P.P.P.P.2.m * 0 I A.P.P.o P.P.o P.P.P.&.n * f / P.P.P.P.| o i.P.P.l 8 P.P.P.P.P.P.P.P.P.P.P.P.P.P.P.P.P.P.P.P.P.P.P.P.P.P.P.P.P.P.P.P.P.P.P.P.P.P.P.P.P.P.P.P.P.P.P.P.P.P.P.P.P.P.U.",
"I.P.P.P.P.P.P.P.P.P.P.P.P.P.P.P.P.P.P.P.P.P.P.P.P.P.P.P.P.P.P.P.P.P.P.P.P.P.P.P.P.P.P.P.P.P.P.P.P.P.P.P.P.P.P.P.P.P.P.P.P.P.P.P.P.P.P.P.P.P.P.P.P.P.P.P.P.P.P.P.P.P.P.P.P.P.P.P.P.P.P.P.P.P.P.P.P.P.P.P.U.",
"I.P.P.P.P.P.P.P.P.P.P.P.P.P.P.P.P.P.P.P.P.P.P.P.P.P.P.P.P.P.P.P.P.P.P.P.P.P.P.P.P.P.P.P.P.P.P.P.P.P.P.P.P.P.P.P.P.P.P.P.P.P.P.P.P.P.P.P.P.P.P.P.P.P.P.P.P.P.P.P.P.P.P.P.P.P.P.P.P.P.P.P.P.P.P.P.P.P.P.P.U.",
"I.P.P.P.P.P.P.P.P.P.P.P.P.P.P.P.P.P.P.P.P.P.P.P.P.P.P.P.P.P.P.P.P.P.P.P.P.P.P.P.P.P.P.P.P.P.P.P.P.P.P.P.P.P.P.P.P.P.P.P.P.P.P.P.P.P.P.P.P.P.P.P.P.P.P.P.P.P.P.P.P.P.P.P.P.P.P.P.P.P.P.P.P.P.P.P.P.P.P.P.U.",
"I.P.P.P.P.P.P.P.P.P.P.P.P.P.P.P.P.P.P.P.P.P.P.P.P.P.P.P.P.P.P.P.P.P.P.P.P.P.P.P.P.P.P.P.P.P.P.P.P.P.P.P.P.P.P.P.P.P.P.P.P.P.P.P.P.P.P.P.P.P.P.P.P.P.P.P.P.P.P.P.P.P.P.P.P.P.P.P.P.P.P.P.P.P.P.P.P.P.P.P.U.",
"I.P.P.P.P.P.P.P.P.P.P.P.P.P.P.P.P.P.P.P.P.P.P.P.P.P.P.P.P.P.P.P.P.P.P.P.P.P.P.P.P.P.P.P.P.P.P.P.P.P.P.P.P.P.P.P.P.P.P.P.P.P.P.P.P.P.P.P.P.P.P.P.P.P.P.P.P.P.P.P.P.P.P.P.P.P.P.P.P.P.P.P.P.P.P.P.P.P.P.P.U.",
"I.P.P.P.P.P.P.P.P.P.P.P.P.P.P.P.P.P.P.P.P.P.P.P.P.P.P.P.P.P.P.P.P.P.P.P.P.P.P.P.P.P.P.P.P.P.P.P.P.P.P.P.P.P.P.P.P.P.P.P.P.P.P.P.P.P.P.P.P.P.P.P.P.P.P.P.P.P.P.P.P.P.P.P.P.P.P.P.P.P.P.P.P.P.P.P.P.P.P.P.U.",
"I.U.U.U.U.U.U.U.U.U.U.U.U.U.U.U.U.U.U.U.U.U.U.U.U.U.U.U.U.U.U.U.U.U.U.U.U.U.U.U.U.U.U.U.U.U.U.U.U.U.U.U.U.U.U.U.U.U.U.U.U.U.U.U.U.U.U.U.U.U.U.U.U.U.U.U.U.U.U.U.U.U.U.U.U.U.U.U.U.U.U.U.U.U.U.U.U.U.U.U.U."
};
