/* XPM */
static const char *color_cyan[] = {
/* columns rows colors chars-per-pixel */
"101 25 168 2",
"   c #008080",
".  c #008083",
"X  c #008184",
"o  c #018184",
"O  c #018187",
"+  c #048080",
"@  c #058080",
"#  c #068080",
"$  c #02828A",
"%  c #02838C",
"&  c #03838F",
"*  c #088180",
"=  c #0B8180",
"-  c #0E8180",
";  c #038390",
":  c #048492",
">  c #07899E",
",  c #138281",
"<  c #198381",
"1  c #1B8381",
"2  c #1B8D8D",
"3  c #1C9093",
"4  c #1C9094",
"5  c #098AAA",
"6  c #0B8CB1",
"7  c #0B8DB3",
"8  c #0D8FB2",
"9  c #0F91BD",
"0  c #1195AB",
"q  c #248482",
"w  c #268482",
"e  c #278482",
"r  c #228B87",
"t  c #208E8D",
"y  c #228E8D",
"u  c #268F8D",
"i  c #2A8582",
"p  c #2B8582",
"a  c #23959A",
"s  c #24979D",
"d  c #3F9993",
"f  c #299AA1",
"g  c #20A5B8",
"h  c #38A8B1",
"j  c #3CADB8",
"k  c #3BB0B8",
"l  c #189DCA",
"z  c #1BA1CC",
"x  c #1DA4D6",
"c  c #1EA6D7",
"v  c #37C3E5",
"b  c #3DCBEB",
"n  c #438883",
"m  c #448883",
"M  c #469B96",
"N  c #499B94",
"B  c #598A84",
"V  c #598C85",
"C  c #5C8B85",
"Z  c #559387",
"A  c #579688",
"S  c #52998B",
"D  c #4FA39F",
"F  c #57A29C",
"G  c #5DA49D",
"H  c #49ADB8",
"J  c #51A5A5",
"K  c #6C9D8B",
"L  c #6CA694",
"P  c #6FA796",
"I  c #70B5B2",
"U  c #57BAC7",
"Y  c #4DCBE6",
"T  c #45D1ED",
"R  c #50D9F0",
"E  c #64C1CE",
"W  c #6CC6DF",
"Q  c #67C7E3",
"!  c #67CFE7",
"~  c #6DDBF1",
"^  c #6CDEF2",
"/  c #70C8E1",
"(  c #78CCE0",
")  c #73D7EE",
"_  c #66E7F5",
"`  c #76EBF6",
"'  c #76ECF7",
"]  c #8D8D8D",
"[  c #849288",
"{  c #92988A",
"}  c #97998A",
"|  c #98998A",
" . c #9EB194",
".. c #A29F8D",
"X. c #A0B194",
"o. c #B1A890",
"O. c #BCAE92",
"+. c #A7BBAB",
"@. c #84C5C8",
"#. c #96C6C2",
"$. c #84D2E6",
"%. c #87EEF7",
"&. c #96F2F9",
"*. c #A0D2D5",
"=. c #AEE1E8",
"-. c #A2F4FA",
";. c #B2E3EB",
":. c #BCE1E5",
">. c #B4F6FB",
",. c #CFC299",
"<. c #D7CD9F",
"1. c #E6E2B0",
"2. c #ECEABB",
"3. c #C0C0C0",
"4. c #C6DACF",
"5. c #C5DCD5",
"6. c #DEE4CF",
"7. c #D3E1D7",
"8. c #D3E2D9",
"9. c #D4E3DA",
"0. c #DBE4DA",
"q. c #C5E9EF",
"w. c #C5EBF2",
"e. c #CFEEF3",
"r. c #C6F4F7",
"t. c #C8F8FC",
"y. c #D2FAFD",
"u. c #DDFBFD",
"i. c #DEFBFD",
"p. c #EAE6CD",
"a. c #EEEBC9",
"s. c #EEEBCA",
"d. c #E4E1D1",
"f. c #E5E1D0",
"g. c #F0EFC2",
"h. c #F1F0C8",
"j. c #F2F1CA",
"k. c #F5F5D5",
"l. c #E2F5FA",
"z. c #E6FCFE",
"x. c #E9F7FB",
"c. c #EBFAFD",
"v. c #EBFDFE",
"b. c #F2EFE2",
"n. c #F2F3EA",
"m. c #F9F9E5",
"M. c #F9F9E6",
"N. c #FAFAEB",
"B. c #F6F9F5",
"V. c #F3FEFE",
"C. c #F5FCFE",
"Z. c #F5FDFE",
"A. c #F7FEFF",
"S. c #FBFBF0",
"D. c #FCFCF2",
"F. c #FAFBF8",
"G. c #FAFBF9",
"H. c #F8FDFB",
"J. c #F8FDFE",
"K. c #F9FEFF",
"L. c #FDFDF8",
"P. c #FDFEF9",
"I. c #FEFEFC",
"U. c #FEFEFD",
"Y. c #FEFFFD",
"T. c #FEFFFE",
"R. c #FEFFFF",
"E. c gray100",
/* pixels */
"] ] ] ] ] ] ] ] ] ] ] ] ] ] ] ] ] ] ] ] ] ] ] ] ] ] ] ] ] ] ] ] ] ] ] ] ] ] ] ] ] ] ] ] ] ] ] ] ] ] ] ] ] ] ] ] ] ] ] ] ] ] ] ] ] ] ] ] ] ] ] ] ] ] ] ] ] ] ] ] ] ] ] ] ] ] ] ] ] ] ] ] ] ] ] ] ] ] ] ] 3.",
"]                                                                                                                                                                                                       3.",
"]                                                                                                                                                                                                       3.",
"]                                                                                                                                                                                                       3.",
"]                                                                                                                                                                                                       3.",
"]                                                                                                                                                                                                       3.",
"]                                                                                                                                                                                                       3.",
"]           j =.x.F.9.P                                                                                                                                                                                 3.",
"]         ! f.F t s ( T.X.                                                                                                                                                                              3.",
"]       z s.=         ^ S.<                                                                                                                                                                             3.",
"]       ' }           > d @ b M.=       >.,.    E e.K.F.7.A     T.g w.K.0.Z                                                                                                                             3.",
"]       i.q                 5 T.{     9 T.n   v p.M 2 a W k.    T.6.N 3 Q j.                                                                                                                            3.",
"]       K.@                   %.1.    R 2.    k m       $ T.    T.C     & P.                                                                                                                            3.",
"]       y.i                   x L.i $ z...      h @.*.:.l.T.    T.@       T.                                                                                                                            3.",
"]       _ |           7 5.V   $ i.O.x N.-     Y b.#.I D r T.    T.        T.                                                                                                                            3.",
"]       l s.=         ~ D.q     T g.' <.      c.i       8 T.@   T.        T.                                                                                                                            3.",
"]         ) f.G t f $.T. .      6 T.C.C       >.+.u 3 H r.C.1   T.        T.                                                                                                                            3.",
"]           U w.C.F.9.P           &.h.        0 ;.C.B.4.S -.[   T.        T.                                                                                                                            3.",
"]                                 t.o.                                                                                                                                                                  3.",
"]                           & J / M.,                                                                                                                                                                   3.",
"]                           : c.n.K                                                                                                                                                                     3.",
"]                                                                                                                                                                                                       3.",
"]                                                                                                                                                                                                       3.",
"]                                                                                                                                                                                                       3.",
"] 3.3.3.3.3.3.3.3.3.3.3.3.3.3.3.3.3.3.3.3.3.3.3.3.3.3.3.3.3.3.3.3.3.3.3.3.3.3.3.3.3.3.3.3.3.3.3.3.3.3.3.3.3.3.3.3.3.3.3.3.3.3.3.3.3.3.3.3.3.3.3.3.3.3.3.3.3.3.3.3.3.3.3.3.3.3.3.3.3.3.3.3.3.3.3.3.3.3.3.3."
};
