/* XPM */
static char *color_black[] = {
/* columns rows colors chars-per-pixel */
"101 25 147 2",
"   c black",
".  c #000001",
"X  c #040100",
"o  c #010209",
"O  c #01030E",
"+  c #090201",
"@  c #0D0301",
"#  c #03071E",
"$  c #03071F",
"%  c #110401",
"&  c #120401",
"*  c #1B0603",
"=  c #181818",
"-  c #1B1A1A",
";  c #1A1C1F",
":  c #040927",
">  c #060D38",
",  c #060D39",
"<  c #0B1524",
"1  c #1B1E25",
"2  c #1D1D24",
"3  c #1C2026",
"4  c #1E222A",
"5  c #260904",
"6  c #2B0A04",
"7  c #22170F",
"8  c #261F1B",
"9  c #310C05",
"0  c gray14",
"q  c #27282C",
"w  c #232A34",
"e  c #0D1F65",
"r  c #112B56",
"t  c #303A48",
"y  c #194072",
"u  c #1A4173",
"i  c #1B4375",
"p  c #385163",
"a  c #3B6170",
"s  c #441107",
"d  c #581D0C",
"f  c #572C11",
"g  c #523316",
"h  c #46372C",
"j  c #4F3A2B",
"k  c #631C0C",
"l  c #651E0D",
"z  c #613414",
"x  c #7B240F",
"c  c #7F2711",
"v  c #4F473E",
"b  c #574031",
"n  c #785227",
"m  c #7D582C",
"M  c #404B5A",
"N  c #495A70",
"B  c #706A64",
"V  c #1C4892",
"C  c #2155A1",
"Z  c #245CA7",
"A  c #416785",
"S  c #446C8C",
"D  c #5D7FB1",
"F  c #3786CA",
"G  c #5E81B4",
"H  c #64839C",
"J  c #7E8D8A",
"K  c #6C8CBE",
"L  c #4D96CC",
"P  c #628AC7",
"I  c #729DD2",
"U  c #63AEDF",
"Y  c #6EB7E2",
"T  c #842410",
"R  c #864019",
"E  c #944C1D",
"W  c #8C5B2C",
"Q  c #A06E3C",
"!  c #AC7A47",
"~  c #A77657",
"^  c #BE8833",
"/  c #B78553",
"(  c #A08666",
")  c #A38B6D",
"_  c #CE8E3F",
"`  c #D49847",
"'  c #D9A04D",
"]  c #E0B169",
"[  c #EDD57C",
"{  c #8D8D8D",
"}  c #848A91",
"|  c #968C84",
" . c #A0A5AA",
".. c #95C0E6",
"X. c #9EDFE5",
"o. c #95E5F3",
"O. c #9EE7F4",
"+. c #BCC3CA",
"@. c #B2C7D7",
"#. c #A3CAEA",
"$. c #A2E8F4",
"%. c #B4ECF6",
"&. c #C6B49E",
"*. c #D3C3AF",
"=. c #EACC9B",
"-. c #F5EAAB",
";. c #F2E0B3",
":. c #F4E6BB",
">. c #C0C0C0",
",. c #C6D9E3",
"<. c #CFDCE6",
"1. c #CFDDE9",
"2. c #C6E8EF",
"3. c #D0F3F9",
"4. c #E5D7C5",
"5. c #E6DAC8",
"6. c #F2DEC4",
"7. c #E9E0D4",
"8. c #EAE1D5",
"9. c #F9F2CC",
"0. c #FAF5D6",
"q. c #FAF5D7",
"w. c #FBF7DE",
"e. c #E2EBF4",
"r. c #EBFAFC",
"t. c #EEFAF9",
"y. c #EEFAFB",
"u. c #ECFAFC",
"i. c #EDFAFD",
"p. c #EFFBFD",
"a. c #F6F2EA",
"s. c #FBF8E3",
"d. c #FDFAED",
"f. c #F4F4F4",
"g. c #F5F6FA",
"h. c #F3FCFD",
"j. c #F7FBF9",
"k. c #F5FAFC",
"l. c #F7FDFE",
"z. c #FAF7F1",
"x. c #F8FBFD",
"c. c #FAFCFA",
"v. c #FEFCF9",
"b. c #FEFDF8",
"n. c #FEFCFA",
"m. c #FEFDFA",
"M. c gray100",
/* pixels */
"{ { { { { { { { { { { { { { { { { { { { { { { { { { { { { { { { { { { { { { { { { { { { { { { { { { { { { { { { { { { { { { { { { { { { { { { { { { { { { { { { { { { { { { { { { { { { { { { { { { { { >.",
"{                                                                                                                                                                                                       >.",
"{                                                                                                                                                                                                       >.",
"{                                                                                                                                                                                                       >.",
"{                                                                                                                                                                                                       >.",
"{                                                                                                                                                                                                       >.",
"{                                                                                                                                                                                                       >.",
"{       M.M.M.M.n.8.( +     M.                                      M.                                                                                                                                  >.",
"{       M.= = = ; t .._     M.                                      M.                                                                                                                                  >.",
"{       M.          , q.    M.                                      M.                                                                                                                                  >.",
"{       M.          $ s.    M.    o H <.x.z.*.f       A ,.j.5.m     M.    y u./                                                                                                                         >.",
"{       M.        < I '     M.    F =.h = w K -.    C :.b 2 G n.k   M.  i u.!                                                                                                                           >.",
"{       M.f.f.f.g.M.n.d     M.    a s       O n.    o.c       J z   M.i t.Q                                                                                                                             >.",
"{       M.0 0 0 q M #.[     M.      p }  .+.e.M.    p.%             M.t.M.R                                                                                                                             >.",
"{       M.          > d.    M.    L 6.| B v 7 M.    h.%             M.W U 9.5                                                                                                                           >.",
"{       M.          $ w.    M.    r.6       e M.X   O.x       X.^   M.  : 3.]                                                                                                                           >.",
"{       M.= = = = 4 P `     M.    %.~ 8 3 N 2.l.*   Z ;.j 1 D n.l   M.    V M.E                                                                                                                         >.",
"{       M.M.M.M.n.8.) @     M.    r @.k.a.&.g $.T     S 1.c.4.n     M.      Y q.9                                                                                                                       >.",
"{                                                                                                                                                                                                       >.",
"{                                                                                                                                                                                                       >.",
"{                                                                                                                                                                                                       >.",
"{                                                                                                                                                                                                       >.",
"{                                                                                                                                                                                                       >.",
"{                                                                                                                                                                                                       >.",
"{ >.>.>.>.>.>.>.>.>.>.>.>.>.>.>.>.>.>.>.>.>.>.>.>.>.>.>.>.>.>.>.>.>.>.>.>.>.>.>.>.>.>.>.>.>.>.>.>.>.>.>.>.>.>.>.>.>.>.>.>.>.>.>.>.>.>.>.>.>.>.>.>.>.>.>.>.>.>.>.>.>.>.>.>.>.>.>.>.>.>.>.>.>.>.>.>.>.>.>.>."
};
