/* XPM */
static char *color_grey[] = {
/* columns rows colors chars-per-pixel */
"101 25 151 2",
"   c #808080",
".  c #818080",
"X  c #828080",
"o  c #838080",
"O  c #808184",
"+  c #808187",
"@  c #848180",
"#  c #878180",
"$  c #81828A",
"%  c #81828B",
"&  c #81838C",
"*  c #898281",
"=  c #8A8281",
"-  c #8D8D8D",
";  c #8E8D8F",
":  c #8F8E8F",
">  c #818390",
",  c #828492",
"<  c #848B9C",
"1  c #8E8E91",
"2  c #938482",
"3  c #968582",
"4  c #978783",
"5  c #938A84",
"6  c #9A8682",
"7  c #9B8682",
"8  c #9C8984",
"9  c #929292",
"0  c #959090",
"q  c #989392",
"w  c #9B9693",
"e  c #9C9895",
"r  c #848AAA",
"t  c #858CB1",
"y  c #8F9EAA",
"u  c #8791BD",
"i  c #8894BA",
"p  c #8996BC",
"a  c #959AA0",
"s  c #979BA2",
"d  c #99A096",
"f  c #94A4B1",
"g  c #97ACBD",
"h  c #A18883",
"j  c #A88984",
"k  c #AE8B85",
"l  c #A59588",
"z  c #A59C95",
"x  c #B09187",
"c  c #B69D8B",
"v  c #BF9589",
"b  c #AFA29A",
"n  c #B3A79B",
"m  c #A8A5A5",
"M  c #A4B0BF",
"N  c #8892CB",
"B  c #8DA2C6",
"V  c #8EA4D6",
"C  c #8FA6D7",
"Z  c #90A9CE",
"A  c #9DB2C2",
"S  c #95B3DB",
"D  c #A3AFC1",
"F  c #A2BED6",
"G  c #9CC1D2",
"H  c #9ECBEB",
"J  c #9ECCEB",
"K  c #A4C1DA",
"L  c #A6C3D8",
"P  c #BAC3CF",
"I  c #B7C3D1",
"U  c #A2D1ED",
"Y  c #A8D9F0",
"T  c #B8C8E1",
"R  c #AEE2F3",
"E  c #B2E5F4",
"W  c #BBEBF6",
"Q  c #C9988A",
"!  c #D19F8D",
"~  c #D4A28E",
"^  c #D8A890",
"/  c #D9A990",
"(  c #DEAE92",
")  c #D8B494",
"_  c #C7B7A4",
"`  c #C4B7AF",
"'  c #C4BBB2",
"]  c #CFC0AE",
"[  c #E3C19C",
"{  c #E7C299",
"}  c #EBCD9F",
"|  c #EED6BD",
" . c #F3E2B0",
".. c #F5E8B8",
"X. c #F6EABB",
"o. c #C0C0C0",
"O. c #C9D2DC",
"+. c #D4CFC0",
"@. c #DAD3C9",
"#. c #DFD8D1",
"$. c #D1DAE2",
"%. c #C3EEF7",
"&. c #C6F1F9",
"*. c #CBF2F9",
"=. c #CDF3F9",
"-. c #DAF6FB",
";. c #EFDFCE",
":. c #F4E3CF",
">. c #F8EFC2",
",. c #F8F0C8",
"<. c #FBF6DB",
"1. c #FBF6DF",
"2. c #E2EAF1",
"3. c #E4ECF3",
"4. c #E4F8FC",
"5. c #E7F9FC",
"6. c #EEF1F4",
"7. c #EAFAFD",
"8. c #EFFBFD",
"9. c #F5EFE8",
"0. c #F6F3EE",
"q. c #FBF5E1",
"w. c #F8F3E9",
"e. c #F9F3EA",
"r. c #F8F3EC",
"t. c #FBF6E8",
"y. c #FCF9E5",
"u. c #FCF9E6",
"i. c #FCF8EA",
"p. c #FDFAEB",
"a. c #F7F4F0",
"s. c #F2F6F9",
"d. c #F2FCFD",
"f. c #F3FCFE",
"g. c #F5FAFD",
"h. c #F5FDFE",
"j. c #F7FCFD",
"k. c #F7FDFE",
"l. c #F9FCF5",
"z. c gray98",
"x. c #FAFBFE",
"c. c #F9FEFE",
"v. c #FBFDFC",
"b. c #FEFDF8",
"n. c #FDFDFC",
"m. c #FCFEFF",
"M. c #FDFEFE",
"N. c #FFFEFC",
"B. c #FFFFFD",
"V. c #FFFFFE",
"C. c gray100",
/* pixels */
"- - - - - - - - - - - - - - - - - - - - - - - - - - - - - - - - - - - - - - - - - - - - - - - - - - - - - - - - - - - - - - - - - - - - - - - - - - - - - - - - - - - - - - - - - - - - - - - - - - - - o.",
"-                                                                                                                                                                                                       o.",
"-                                                                                                                                                                                                       o.",
"-                                                                                                                                                                                                       o.",
"-                                                                                                                                                                                                       o.",
"-                                                                                                                                                                                                       o.",
"-                                                                                                                                                                                                       o.",
"-           f $.s.n.0.@.l                                                                                                                                                                               o.",
"-       . K p.` w - a I l.x                                             .                                                                                                                               o.",
"-       i u.8           S ..                                            . .                                                                                                                             o.",
"-       R /             $ 5     n.L c.r.=   g 3.n.9._     J u.@       -.{ .                                                                                                                             o.",
"-       7.6                     n.| 9 d   B :.z 1 D k.)   r n.Q     u n.8                                                                                                                               o.",
"-       n.        N z.n.z.z.    n.j     . &.6       J <.    %. .    Y X.                                                                                                                                o.",
"-       7.3       & 9 9 9 n.    n.@       k.z.z.z.z.c.n.    C b.4 & k.!                                                                                                                                 o.",
"-       E ~               n.    n.        c.9 9 9 9 9 9     $ d.( C p.@                                                                                                                                 o.",
"-       p 1.4           < n.    n.    . . *.Q       G +.      U >.W }                                                                                                                                   o.",
"-         F t.' e : s P d.;.    n.        Z y.b 1 D c.{       t n.c.k                                                                                                                                   o.",
"-           y O.6.v.0.#.n .     n.          A 3.n.r.' #         *.,.                                                                                                                                    o.",
"-                       .                                     O 4.^                                                                                                                                     o.",
"-                                                         > m T u.*                                                                                                                                     o.",
"-                           . .                           , g.r.c                                                                                                                                       o.",
"-                             .                             .   . .                                                                                                                                     o.",
"-                           O O                             .                                                                                                                                           o.",
"-                           * &                             . .                                                                                                                                         o.",
"- D ] o.o.o.o.o.o.o.o.o.o.o.o.o.] P D +.] P D +.o.o.o.o.o.o.o.o.o.o.o.o.o.o.o.o.o.o.o.o.o.o.o.o.o.o.o.o.o.o.o.o.o.o.o.o.o.o.o.o.o.o.o.o.o.o.o.o.o.o.o.o.o.o.o.o.o.o.o.o.o.o.o.o.o.o.o.o.o.o.o.o.o.o.o.o.o."
};
