/* XPM */
static char *color_lightblue[] = {
/* columns rows colors chars-per-pixel */
"101 25 161 2",
"   c blue",
".  c #0001FF",
"X  c #0200FF",
"o  c #0104FF",
"O  c #0204FF",
"+  c #0307FF",
"@  c #0401FF",
"#  c #060DFF",
"$  c #0902FF",
"%  c #0A02FF",
"&  c #0D03FF",
"*  c #0F03FF",
"=  c #0711FF",
"-  c #0914FF",
";  c #0B15FF",
":  c #1204FF",
">  c #1F07FF",
",  c #1818FF",
"<  c #1918FF",
"1  c #191AFF",
"2  c #1A1CFF",
"3  c #1C1AFF",
"4  c #1C1BFF",
"5  c #1C1DFF",
"6  c #1E1CFF",
"7  c #112CFF",
"8  c #1D20FF",
"9  c #1E22FF",
"0  c #1331FF",
"q  c #1430FF",
"w  c #1739FF",
"e  c #173AFF",
"r  c #183AFF",
"t  c #183CFF",
"y  c #2408FF",
"u  c #261DFF",
"i  c #330CFF",
"p  c #360DFF",
"a  c #2424FF",
"s  c #2728FF",
"d  c #2C39FF",
"f  c #2D38FF",
"g  c #3027FF",
"h  c #3A26FF",
"j  c #3A2DFF",
"k  c #303AFF",
"l  c #1B45FF",
"z  c #2053FF",
"x  c #2C56FF",
"c  c #2E57FF",
"v  c #2E58FF",
"b  c #3A4CFF",
"n  c #325CFF",
"m  c #3F53FF",
"M  c #3660FF",
"N  c #3B64FF",
"B  c #5715FF",
"V  c #581DFF",
"C  c #4F21FF",
"Z  c #4A38FF",
"A  c #4D39FF",
"S  c #5934FF",
"D  c #7F2AFF",
"F  c #404BFF",
"G  c #4848FF",
"H  c #465FFF",
"J  c #5E45FF",
"K  c #4960FF",
"L  c #587CFF",
"P  c #634AFF",
"I  c #674CFF",
"U  c #6841FF",
"Y  c #7D59FF",
"T  c #3983FF",
"R  c #3C98FF",
"E  c #5691FF",
"W  c #628AFF",
"Q  c #678FFF",
"!  c #729DFF",
"~  c #882FFF",
"^  c #8931FF",
"/  c #8362FF",
"(  c #8E6FFF",
")  c #B169FF",
"_  c #8D8D8D",
"`  c #9E81FF",
"'  c #A086FF",
"]  c #A388FF",
"[  c #A38BFF",
"{  c #A99FFF",
"}  c #81DCFF",
"|  c #88DFFF",
" . c #95C0FF",
".. c #9CC8FF",
"X. c #9FC9FF",
"o. c #8DE2FF",
"O. c #9AE6FF",
"+. c #A3CAFF",
"@. c #BBCEFF",
"#. c #A6E9FF",
"$. c #C683FF",
"%. c #C88FFF",
"&. c #CD8DFF",
"*. c #CE8EFF",
"=. c #D087FF",
"-. c #D498FF",
";. c #D9A0FF",
":. c #E0B0FF",
">. c #C0C0C0",
",. c #C3D5FF",
"<. c #C5D5FF",
"1. c #C8D9FF",
"2. c #C9D9FF",
"3. c #CCDCFF",
"4. c #DBCAFF",
"5. c #CBEEFF",
"6. c #D4E1FF",
"7. c #D4F2FF",
"8. c #E8C7FF",
"9. c #E4D4FF",
"0. c #ECD0FF",
"q. c #EDD5FF",
"w. c #E8DBFF",
"e. c #E9DBFF",
"r. c #EADFFF",
"t. c #F0DEFF",
"y. c #E9E0FF",
"u. c #EAE1FF",
"i. c #EDF5FF",
"p. c #EAFAFF",
"a. c #ECFAFF",
"s. c #EEFBFF",
"d. c #EFFBFF",
"f. c #F0E6FF",
"g. c #F6EAFF",
"h. c #F5ECFF",
"j. c #F6EDFF",
"k. c #F6EFFF",
"l. c #F7EEFF",
"z. c #F4F4FF",
"x. c #F5F6FF",
"c. c #F5F7FF",
"v. c #F3FCFF",
"b. c #F7FBFF",
"n. c #F6FCFF",
"m. c #FAF5FF",
"M. c #FBF7FF",
"N. c #F8FBFF",
"B. c #F9FBFF",
"V. c #FBF8FF",
"C. c #FAFBFF",
"Z. c #FAFDFF",
"A. c #FBFDFF",
"S. c #FCF9FF",
"D. c #FDFAFF",
"F. c #FDFBFF",
"G. c #FCFEFF",
"H. c #FEFCFF",
"J. c #FEFDFF",
"K. c #FEFEFF",
"L. c gray100",
/* pixels */
"_ _ _ _ _ _ _ _ _ _ _ _ _ _ _ _ _ _ _ _ _ _ _ _ _ _ _ _ _ _ _ _ _ _ _ _ _ _ _ _ _ _ _ _ _ _ _ _ _ _ _ _ _ _ _ _ _ _ _ _ _ _ _ _ _ _ _ _ _ _ _ _ _ _ _ _ _ _ _ _ _ _ _ _ _ _ _ _ _ _ _ _ _ _ _ _ _ _ _ _ >.",
"_                                                                                                                                                                                                       >.",
"_                                                                                                                                                                                                       >.",
"_                                                                                                                                                                                                       >.",
"_                                                                                                                                                                                                       >.",
"_                                                                                                                                                                                                       >.",
"_                                                                                                                                                                                                       >.",
"_       L.              L.                    L.              c               L.L.L.L.L.u.' %     L.                                                                                                    >.",
"_       L.              ,                     L.              L.              L., , , 2 k  .*.    L.                                                                                                    >.",
"_       L.                                    L.              L.              L.          # M.    L.                                                                                                    >.",
"_       L.              L.    c ,.C.e.Y L.    L.M 3.C.4.C   L.L.L.L.          L.          # F.    L.    L.        L.      v <.b.u.(                                                                     >.",
"_       L.              L.  e k.I 3 m 7.L.    L.0.A 8 Q t.  , L., ,           L.        ; ! -.    L.    L.        L.    l 8.Z 5 K p.)                                                                   >.",
"_       L.              L.  } ^       w L.    L.B     + F.    L.              L.z.z.z.z.L.L.V     L.    L.        L.    o.p       R l.                                                                  >.",
"_       L.              L.  p.*       + L.    L.@       L.    L.              L.a a a s b +.q.    L.    L.        L.    d.z.z.z.z.z.L.%                                                                 >.",
"_       L.              L.  d.:       + L.    L.        L.    L.              L.          # F.    L.    L.        L.    v.g a a a a a                                                                   >.",
"_       L.              L.  | ~       q L.    L.        L.    L.              L.          + M.    L.    n.>     - L.    O.D       T {                                                                   >.",
"_       L.G G G G G h   L.  t k.P , b 5.L.    L.        L.    d.S ,           L., , , , 9 W -.    L.    #.%.u d X.L.    z g.J 3 H v.$.                                                                  >.",
"_       L.L.L.L.L.L.=.  L.    n <.L.e./ F.    L.        L.    E i.F.i         L.L.L.L.L.u.[ *     L.    0 @.C.9.U L.      N <.Z.f.` @                                                                   >.",
"_                           7 y       = k.                                                                                                                                                              >.",
"_                           r :.j , f X.&.                                                                                                                                                              >.",
"_                             L 6.L.f.] %                                                                                                                                                               >.",
"_                                                                                                                                                                                                       >.",
"_                                                                                                                                                                                                       >.",
"_                                                                                                                                                                                                       >.",
"_ >.>.>.>.>.>.>.>.>.>.>.>.>.>.>.>.>.>.>.>.>.>.>.>.>.>.>.>.>.>.>.>.>.>.>.>.>.>.>.>.>.>.>.>.>.>.>.>.>.>.>.>.>.>.>.>.>.>.>.>.>.>.>.>.>.>.>.>.>.>.>.>.>.>.>.>.>.>.>.>.>.>.>.>.>.>.>.>.>.>.>.>.>.>.>.>.>.>.>.>."
};
