/* XPM */
static char *color_white[] = {
/* columns rows colors chars-per-pixel */
"101 25 153 2",
"   c black",
".  c #010101",
"X  c #010102",
"o  c #010206",
"O  c #050201",
"+  c #040202",
"@  c #040306",
"#  c #060305",
"$  c #020209",
"%  c #02030C",
"&  c #020509",
"*  c #080202",
"=  c #090202",
"-  c #080602",
";  c #0D0302",
":  c #0E0402",
">  c #0F0402",
",  c #0E0804",
"<  c #090909",
"1  c #020512",
"2  c #020514",
"3  c #030517",
"4  c #030618",
"5  c #0C141E",
"6  c #100402",
"7  c #130502",
"8  c #170503",
"9  c #040923",
"0  c #050925",
"q  c #070E39",
"w  c #07102F",
"e  c #101925",
"r  c #17280E",
"t  c #1C2A3C",
"y  c #2C0B05",
"u  c #281B11",
"i  c #2A1E14",
"p  c #350D06",
"a  c #370D06",
"s  c #380E06",
"d  c #2D2116",
"f  c #081044",
"g  c #091147",
"h  c #09144F",
"j  c #091452",
"k  c #0A165B",
"l  c #0C1A59",
"z  c #0C1962",
"x  c #0F2547",
"c  c #122C4C",
"v  c #0F2078",
"b  c #11277C",
"n  c #12297E",
"m  c #4F1409",
"M  c #59170A",
"N  c #5C170A",
"B  c #651B0D",
"V  c #6A1B0D",
"C  c #6E1D0D",
"Z  c #72200F",
"A  c #7E2A12",
"S  c #77582A",
"D  c #434B64",
"F  c #4C637F",
"G  c #132D84",
"H  c #153187",
"J  c #17378B",
"K  c #20529B",
"L  c #23599E",
"P  c #235A9E",
"I  c #2D619B",
"U  c #2869A3",
"Y  c #296BA4",
"T  c #2A6FA5",
"R  c #2F7DAA",
"E  c #3D76A8",
"W  c #597190",
"Q  c #388BB0",
"!  c #3F94B3",
"~  c #469BB5",
"^  c #4DA4B8",
"/  c #5FAEBC",
"(  c #7E929F",
")  c #64A7BA",
"_  c #64AFBD",
"`  c #73B4BF",
"'  c #78B5BF",
"]  c #8F3C18",
"[  c #903C18",
"{  c #93411B",
"}  c #85563B",
"|  c #995120",
" . c #A16126",
".. c #A26627",
"X. c #A46A29",
"o. c #A6712B",
"O. c #AA7D30",
"+. c #9B6147",
"@. c #8F7D64",
"#. c #917D61",
"$. c #9A7A60",
"%. c #9E7D63",
"&. c #AE8835",
"*. c #939E53",
"=. c #AF874E",
"-. c #B79E4A",
";. c #B39259",
":. c #A58564",
">. c #A48368",
",. c #B7A04B",
"<. c #B8A24E",
"1. c #BDAF63",
"2. c #BDB066",
"3. c #BDB067",
"4. c #C0B67C",
"5. c #8D8D8D",
"6. c #829FAB",
"7. c #8C9BA5",
"8. c #8E9CA6",
"9. c #8AAEBE",
"0. c #A2A9AB",
"q. c #ACACAC",
"w. c #B1AFA9",
"e. c #B2B1AD",
"r. c #B2B3B0",
"t. c #B4B4B0",
"y. c gray71",
"u. c #84B8C1",
"i. c #9ABDC3",
"p. c #9EBEC4",
"a. c #A0BFC4",
"s. c #A3BFC4",
"d. c #A9C1C5",
"f. c #ADC2C6",
"g. c #B8C4C6",
"h. c #C1B887",
"j. c #C3BB90",
"k. c #C6C2AE",
"l. c #C6C3B0",
"z. c #C6C3B1",
"x. c #C6C3B3",
"c. c #C6C5BA",
"v. c #C7C6BC",
"b. c #C7C6BE",
"n. c #C0C0C0",
"m. c #C0C6C7",
"M. c #C1C6C7",
"N. c #C7C6C1",
"B. c #C1C6C8",
"V. c #C5C7C8",
"C. c #C6C8C8",
"Z. c #C8C8C7",
"A. c #C8C8C8",
/* pixels */
"5.5.5.5.5.5.5.5.5.5.5.5.5.5.5.5.5.5.5.5.5.5.5.5.5.5.5.5.5.5.5.5.5.5.5.5.5.5.5.5.5.5.5.5.5.5.5.5.5.5.5.5.5.5.5.5.5.5.5.5.5.5.5.5.5.5.5.5.5.5.5.5.5.5.5.5.5.5.5.5.5.5.5.5.5.5.5.5.5.5.5.5.5.5.5.5.5.5.5.5.n.",
"5.A.A.A.A.A.A.A.A.A.A.A.A.A.A.A.A.A.A.A.A.A.A.A.A.A.A.A.A.A.A.A.A.A.A.A.A.A.A.A.A.A.A.A.A.A.A.A.A.A.A.A.A.A.A.A.A.A.A.A.A.A.A.A.A.A.A.A.A.A.A.A.A.A.A.A.A.A.A.A.A.A.A.A.A.A.A.A.A.A.A.A.A.A.A.A.A.A.A.A.n.",
"5.A.A.A.A.A.A.A.A.A.A.A.A.A.A.A.A.A.A.A.A.A.A.A.A.A.A.A.A.A.A.A.A.A.A.A.A.A.A.A.A.A.A.A.A.A.A.A.A.A.A.A.A.A.A.A.A.A.A.A.A.A.A.A.A.A.A.A.A.A.A.A.A.A.A.A.A.A.A.A.A.A.A.A.A.A.A.A.A.A.A.A.A.A.A.A.A.A.A.A.n.",
"5.A.A.A.A.A.A.A.A.A.A.A.A.A.A.A.A.A.A.A.A.A.A.A.A.A.A.A.A.A.A.A.A.A.A.A.A.A.A.A.A.A.A.A.A.A.A.A.A.A.A.A.A.A.A.A.A.A.A.A.A.A.A.A.A.A.A.A.A.A.A.A.A.A.A.A.A.A.A.A.A.A.A.A.A.A.A.A.A.A.A.A.A.A.A.A.A.A.A.A.n.",
"5.A.A.A.A.A.A.A.A.A.A.A.A.A.A.A.A.A.A.A.A.A.A.A.A.A.A.A.A.A.A.A.A.A.A.A.A.A.A.A.A.A.A.A.A.A.A.A.A.A.A.A.A.A.A.A.A.A.A.A.A.A.A.A.A.A.A.A.A.A.A.A.A.A.A.A.A.A.A.A.A.A.A.A.A.A.A.A.A.A.A.A.A.A.A.A.A.A.A.A.n.",
"5.A.A.A.A.A.A.A.A.A.A.A.A.A.A.A.A.A.A.A.A.A.A.A.A.A.A.A.A.A.A.A.A.A.A.A.A.A.A.A.A.A.A.A.A.A.A.A.A.A.A.A.A.A.A.A.A.A.A.A.A.A.A.A.A.A.A.A.A.A.A.A.A.A.A.A.A.A.A.A.A.A.A.A.A.A.A.A.A.A.A.A.A.A.A.A.A.A.A.A.n.",
"5.A.A.A.A.A.A.A.A.A.A.A.A.A.A.A.A.A.A.A.A.A.A.A.A.A.A.A.A.A.A.A.A.A.A.A.A.A.A.A.A.A.A.A.A.A.A.A.A.A.A.A.A.A.A.A.A.A.A.A.A.A.A.A.A.A.A.A.A.A.A.A.A.A.A.A.A.A.A.A.A.A.A.A.A.A.A.A.A.A.A.A.A.A.A.A.A.A.A.A.n.",
"5.A.A.A f A.A.A.A.]   T A.A.A.v.> U A.  A.A.A.A.A.A.A.  A.A.:.A.A.A.A.A.A.A.A.A.A.A.A.A.A.A.A.A.A.A.A.A.A.A.A.A.A.A.A.A.A.A.A.A.A.A.A.A.A.A.A.A.A.A.A.A.A.A.A.A.A.A.A.A.A.A.A.A.A.A.A.A.A.A.A.A.A.A.A.A.n.",
"5.A.A.&.O s.A.A.Z.y r z A.A.A.1.  ` A.  A.A.A.A.A.A.A.y.A.A.  A.A.A.A.A.A.A.A.A.A.A.A.A.A.A.A.A.A.A.A.A.A.A.A.A.A.A.A.A.A.A.A.A.A.A.A.A.A.A.A.A.A.A.A.A.A.A.A.A.A.A.A.A.A.A.A.A.A.A.A.A.A.A.A.A.A.A.A.A.n.",
"5.A.A.j.  ^ A.A.4.  *.o f.A.A...9 C.A.  A.A.A.A.A.A.A.A.A.A.  A.A.A.A.A.A.A.A.A.A.A.A.A.A.A.A.A.A.A.A.A.A.A.A.A.A.A.A.A.A.A.A.A.A.A.A.A.A.A.A.A.A.A.A.A.A.A.A.A.A.A.A.A.A.A.A.A.A.A.A.A.A.A.A.A.A.A.A.A.n.",
"5.A.A.A.s K A.A.o.j c.> ~ A.A.V H A.A.  %.u @ t 9.A.A.  A.        A.A.>.d @ e W A.A.A.A.A.A.A.A.A.A.A.A.A.A.A.A.A.A.A.A.A.A.A.A.A.A.A.A.A.A.A.A.A.A.A.A.A.A.A.A.A.A.A.A.A.A.A.A.A.A.A.A.A.A.A.A.A.A.A.A.n.",
"5.A.A.A.{ k A.A.B P A.Z J A.v.> ! A.A.  x 7.w.S l A.A.  A.y.  y.y.A.;.c 8.e.@.7 E A.A.A.A.A.A.A.A.A.A.A.A.A.A.A.A.A.A.A.A.A.A.A.A.A.A.A.A.A.A.A.A.A.A.A.A.A.A.A.A.A.A.A.A.A.A.A.A.A.A.A.A.A.A.A.A.A.A.A.n.",
"5.A.A.A.-.$ g.l.= _ A.O.0 C.3.  s.A.A.  u.A.A.x.% A.A.  A.A.  A.A.A.M i.A.A.A.| q A.A.A.A.A.A.A.A.A.A.A.A.A.A.A.A.A.A.A.A.A.A.A.A.A.A.A.A.A.A.A.A.A.A.A.A.A.A.A.A.A.A.A.A.A.A.A.A.A.A.A.A.A.A.A.A.A.A.A.n.",
"5.A.A.A.k.O / -.4 B.A.h.  ' X.j A.A.A.  C.A.A.A.  A.A.  A.A.  A.A.A.; < < < < -   B.A.A.A.A.A.A.A.A.A.A.A.A.A.A.A.A.A.A.A.A.A.A.A.A.A.A.A.A.A.A.A.A.A.A.A.A.A.A.A.A.A.A.A.A.A.A.A.A.A.A.A.A.A.A.A.A.A.A.n.",
"5.A.A.A.Z.N U [ n A.A.A.p R C P A.A.A.  A.A.A.A.  A.A.  A.A.  A.A.A.= 0.q.q.q.q.q.A.A.A.A.A.A.A.A.A.A.A.A.A.A.A.A.A.A.A.A.A.A.A.A.A.A.A.A.A.A.A.A.A.A.A.A.A.A.A.A.A.A.A.A.A.A.A.A.A.A.A.A.A.A.A.A.A.A.A.n.",
"5.A.A.A.Z. .b p Q A.A.A.{ G 7 _ A.A.A.  A.A.A.A.  A.A.  A.A.  C.A.A.m ) A.A.A.+.D A.A.A.A.A.A.A.A.A.A.A.A.A.A.A.A.A.A.A.A.A.A.A.A.A.A.A.A.A.A.A.A.A.A.A.A.A.A.A.A.A.A.A.A.A.A.A.A.A.A.A.A.A.A.A.A.A.A.A.n.",
"5.A.A.A.A.3.2   i.A.A.A.<.1 4 B.A.A.A.  A.A.A.A.  A.A.  A.A.7 6.e.C.=.w ( e.#.  I A.A.A.A.A.A.A.A.A.A.A.A.A.A.A.A.A.A.A.A.A.A.A.A.A.A.A.A.A.A.A.A.A.A.A.A.A.A.A.A.A.A.A.A.A.A.A.A.A.A.A.A.A.A.A.A.A.A.A.n.",
"5.A.A.A.A.N.8 g A.A.A.A.x.= b A.A.A.A.  A.A.A.A.  A.A.  A.A.} , & s.A.$.i   5 W C.A.A.A.A.A.A.A.A.A.A.A.A.A.A.A.A.A.A.A.A.A.A.A.A.A.A.A.A.A.A.A.A.A.A.A.A.A.A.A.A.A.A.A.A.A.A.A.A.A.A.A.A.A.A.A.A.A.A.A.n.",
"5.A.A.A.A.A.A.A.A.A.A.A.A.A.A.A.A.A.A.A.A.A.A.A.A.A.A.A.A.A.A.A.A.A.A.A.A.A.A.A.A.A.A.A.A.A.A.A.A.A.A.A.A.A.A.A.A.A.A.A.A.A.A.A.A.A.A.A.A.A.A.A.A.A.A.A.A.A.A.A.A.A.A.A.A.A.A.A.A.A.A.A.A.A.A.A.A.A.A.A.n.",
"5.A.A.A.A.A.A.A.A.A.A.A.A.A.A.A.A.A.A.A.A.A.A.A.A.A.A.A.A.A.A.A.A.A.A.A.A.A.A.A.A.A.A.A.A.A.A.A.A.A.A.A.A.A.A.A.A.A.A.A.A.A.A.A.A.A.A.A.A.A.A.A.A.A.A.A.A.A.A.A.A.A.A.A.A.A.A.A.A.A.A.A.A.A.A.A.A.A.A.A.n.",
"5.A.A.A.A.A.A.A.A.A.A.A.A.A.A.A.A.A.A.A.A.A.A.A.A.A.A.A.A.A.A.A.A.A.A.A.A.A.A.A.A.A.A.A.A.A.A.A.A.A.A.A.A.A.A.A.A.A.A.A.A.A.A.A.A.A.A.A.A.A.A.A.A.A.A.A.A.A.A.A.A.A.A.A.A.A.A.A.A.A.A.A.A.A.A.A.A.A.A.A.n.",
"5.A.A.A.A.A.A.A.A.A.A.A.A.A.A.A.A.A.A.A.A.A.A.A.A.A.A.A.A.A.A.A.A.A.A.A.A.A.A.A.A.A.A.A.A.A.A.A.A.A.A.A.A.A.A.A.A.A.A.A.A.A.A.A.A.A.A.A.A.A.A.A.A.A.A.A.A.A.A.A.A.A.A.A.A.A.A.A.A.A.A.A.A.A.A.A.A.A.A.A.n.",
"5.A.A.A.A.A.A.A.A.A.A.A.A.A.A.A.A.A.A.A.A.A.A.A.A.A.A.A.A.A.A.A.A.A.A.A.A.A.A.A.A.A.A.A.A.A.A.A.A.A.A.A.A.A.A.A.A.A.A.A.A.A.A.A.A.A.A.A.A.A.A.A.A.A.A.A.A.A.A.A.A.A.A.A.A.A.A.A.A.A.A.A.A.A.A.A.A.A.A.A.n.",
"5.A.A.A.A.A.A.A.A.A.A.A.A.A.A.A.A.A.A.A.A.A.A.A.A.A.A.A.A.A.A.A.A.A.A.A.A.A.A.A.A.A.A.A.A.A.A.A.A.A.A.A.A.A.A.A.A.A.A.A.A.A.A.A.A.A.A.A.A.A.A.A.A.A.A.A.A.A.A.A.A.A.A.A.A.A.A.A.A.A.A.A.A.A.A.A.A.A.A.A.n.",
"5.n.n.n.n.n.n.n.n.n.n.n.n.n.n.n.n.n.n.n.n.n.n.n.n.n.n.n.n.n.n.n.n.n.n.n.n.n.n.n.n.n.n.n.n.n.n.n.n.n.n.n.n.n.n.n.n.n.n.n.n.n.n.n.n.n.n.n.n.n.n.n.n.n.n.n.n.n.n.n.n.n.n.n.n.n.n.n.n.n.n.n.n.n.n.n.n.n.n.n.n."
};
