/* XPM */
static char *color_brightwhite[] = {
/* columns rows colors chars-per-pixel */
"101 25 247 2",
"   c black",
".  c #010101",
"X  c #010102",
"o  c #010103",
"O  c #030102",
"+  c #010305",
"@  c #010207",
"#  c #010306",
"$  c #050203",
"%  c #070201",
"&  c #040204",
"*  c #060406",
"=  c #010208",
"-  c #02030C",
";  c #03060B",
":  c #02040E",
">  c #02040F",
",  c #050408",
"<  c #0A0302",
"1  c #080406",
"2  c #0C0302",
"3  c #0A0803",
"4  c #0A0905",
"5  c #0B0B0B",
"6  c #020512",
"7  c #030617",
"8  c #030619",
"9  c #04071C",
"0  c #04071D",
"q  c #04081F",
"w  c #100402",
"e  c #110402",
"r  c #120502",
"t  c #130503",
"y  c #100705",
"u  c #150503",
"i  c #120A05",
"p  c #180603",
"a  c #1D0704",
"s  c #040821",
"d  c #050A28",
"f  c #050B2C",
"g  c #060C2F",
"h  c #0F1925",
"j  c #0F1926",
"k  c #0F182D",
"l  c #091033",
"z  c #0A1338",
"x  c #09153C",
"c  c #151E2A",
"v  c #161F2B",
"b  c #1D3312",
"n  c #15202F",
"m  c #162434",
"M  c #172434",
"N  c #2B0D08",
"B  c #2B1E13",
"V  c #380E07",
"C  c #341107",
"Z  c #332316",
"A  c #362619",
"S  c #372619",
"D  c #3A2A1C",
"F  c #3C2A1D",
"G  c #081147",
"H  c #091249",
"J  c #0A1557",
"K  c #0B165B",
"L  c #0C1965",
"P  c #0C1968",
"I  c #0D1C74",
"U  c #132F5B",
"Y  c #0F2172",
"T  c #0F207D",
"R  c #173861",
"E  c #24354C",
"W  c #1F4F7A",
"Q  c #431008",
"!  c #461108",
"~  c #481208",
"^  c #5C3515",
"/  c #65190C",
"(  c #721D0D",
")  c #751D0D",
"_  c #633716",
"`  c #6A3F19",
"'  c #77200F",
"]  c #7E2310",
"[  c #56607F",
"{  c #122A83",
"}  c #132999",
"|  c #16329E",
" . c #1734A1",
".. c #1839A8",
"X. c #1B3FAC",
"o. c #1D46B1",
"O. c #225384",
"+. c #265FB2",
"@. c #2B67B8",
"#. c #2968C6",
"$. c #2D72CA",
"%. c #2D73CA",
"&. c #3171C0",
"*. c #3272C4",
"=. c #397CC6",
"-. c #5C7492",
";. c #5C7798",
":. c #5F7999",
">. c #617EA2",
",. c #3386D0",
"<. c #3488D1",
"1. c #368ED3",
"2. c #3CA0D9",
"3. c #7190B7",
"4. c #4E96D6",
"5. c #48B1E0",
"6. c #50BDE4",
"7. c #7C9DC1",
"8. c #59C5E7",
"9. c #62D1EB",
"0. c #76CEEB",
"q. c #77D0EB",
"w. c #79DEF0",
"e. c #7FDFF1",
"r. c #812210",
"t. c #872310",
"y. c #8C2511",
"u. c #912913",
"i. c #A13517",
"p. c #8D622D",
"a. c #987036",
"s. c #9D7538",
"d. c #B64C1F",
"f. c #B74C1F",
"g. c #BB5322",
"h. c #BC5322",
"j. c #A96E4B",
"k. c #B3784E",
"l. c #C36729",
"z. c #CD7C30",
"x. c #C67C5B",
"c. c #A78365",
"v. c #B9A07C",
"b. c #BBCA6A",
"n. c #CF8232",
"m. c #D18734",
"M. c #D49037",
"N. c #D99F3D",
"B. c #C49B7B",
"V. c #C99F7E",
"C. c #DEAD44",
"Z. c #DFAC63",
"A. c #E4BA72",
"S. c #E9CA5E",
"D. c #E9CC5F",
"F. c #E7C562",
"G. c #E8C66D",
"H. c #EACE63",
"J. c #E7C37A",
"K. c #E8C57B",
"L. c #EBCF77",
"P. c #F1DF7E",
"I. c #8D8D8D",
"U. c #B69F80",
"Y. c #BFB4A5",
"T. c #82A6D2",
"R. c #98B3C5",
"E. c #9CB5C7",
"W. c #A1BACB",
"Q. c #80D5ED",
"!. c #80DFF1",
"~. c #93E5F3",
"^. c #99E7F4",
"/. c #A6CBDA",
"(. c #B2C6D2",
"). c #B5C7D4",
"_. c #B0DEF2",
"`. c #A7E2F3",
"'. c #A8EAF6",
"]. c #AEECF6",
"[. c #CDA380",
"{. c #C0AC91",
"}. c #C5B399",
"|. c #D1A785",
" X c #D3A980",
".X c #D1A885",
"XX c #CCBED2",
"oX c #CFC5B7",
"OX c #D2C7B6",
"+X c #EED3BB",
"@X c #F1E083",
"#X c #F1E182",
"$X c #F5E89E",
"%X c #F6EBAC",
"&X c #F8EEB8",
"*X c #F8EEB9",
"=X c #C0C0C0",
"-X c #C5D2DB",
";X c #CFD8DA",
":X c #D4DEDF",
">X c #D8D7D3",
",X c gray86",
"<X c #C4F1F9",
"1X c #C9F2FA",
"2X c #CCF3FA",
"3X c #D0F4FA",
"4X c #D7F6FB",
"5X c #DBF7FC",
"6X c #DDF7FC",
"7X c #E1DDD5",
"8X c #E2DFD7",
"9X c #E3E2DD",
"0X c #F4EADB",
"qX c #F9F2C6",
"wX c #F9F2C7",
"eX c #FCF7DE",
"rX c #E1E3E1",
"tX c #E3E4E1",
"yX c #E3E5E3",
"uX c #E5E3E0",
"iX c #E6E5E1",
"pX c #E6E7E5",
"aX c #E7E7E7",
"sX c #EBFAFD",
"dX c #EDFBFD",
"fX c #FCF8E0",
"gX c #FCF8E1",
"hX c #FCF8E2",
"jX c #FCF9E4",
"kX c #FDFBEC",
"lX c #FDFBED",
"zX c #FEFBEE",
"xX c #F0FCFE",
"cX c #F2FCFE",
"vX c #F5FDFE",
"bX c #F6FDFE",
"nX c #F6FDFF",
"mX c #FEFCF0",
"MX c #FEFCF2",
"NX c #FEFDF6",
"BX c #F9FEFF",
"VX c #FBFEFF",
"CX c #FCFFFF",
"ZX c #FDFFFF",
"AX c #FFFFFD",
"SX c #FFFFFE",
"DX c gray100",
/* pixels */
"I.I.I.I.I.I.I.I.I.I.I.I.I.I.I.I.I.I.I.I.I.I.I.I.I.I.I.I.I.I.I.I.I.I.I.I.I.I.I.I.I.I.I.I.I.I.I.I.I.I.I.I.I.I.I.I.I.I.I.I.I.I.I.I.I.I.I.I.I.I.I.I.I.I.I.I.I.I.I.I.I.I.I.I.I.I.I.I.I.I.I.I.I.I.I.I.I.I.I.I.=X",
"I.DXDXDXDXDXDXDXDXDXDXDXDXDXDXDXDXDXDXDXDXDXDXDXDXDXDXDXDXDXDXDXDXDXDXDXDXDXDXDXDXDXDXDXDXDXDXDXDXDXDXDXDXDXDXDXDXDXDXDXDXDXDXDXDXDXDXDXDXDXDXDXDXDXDXDXDXDXDXDXDXDXDXDXDXDXDXDXDXDXDXDXDXDXDXDXDXDXDXDX=X",
"I.DXDXDXDXDXDXDXDXDXDXDXDXDXDXDXDXDXDXDXDXDXDXDXDXDXDXDXDXDXDXDXDXDXDXDXDXDXDXDXDXDXDXDXDXDXDXDXDXDXDXDXDXDXDXDXDXDXDXDXDXDXDXDXDXDXDXDXDXDXDXDXDXDXDXDXDXDXDXDXDXDXDXDXDXDXDXDXDXDXDXDXDXDXDXDXDXDXDXDX=X",
"I.DXDXDXDXDXDXDXDXDXDXDXDXDXDXDXDXDXDXDXDXDXDXDXDXDXDXDXDXDXDXDXDXDXDXDXDXDXDXDXDXDXDXDXDXDXDXDXDXDXDXDXDXDXDXDXDXDXDXDXDXDXDXDXDXDXDXDXDXDXDXDXDXDXDXDXDXDXDXDXDXDXDXDXDXDXDXDXDXDXDXDXDXDXDXDXDXDXDXDX=X",
"I.DXDXDXDXDXDXDXDXDXDXDXDXDXDXDXDXDXDXDXDXDXDXDXDXDXDXDXDXDXDXDXDXDXDXDXDXDXDXDXDXDXDXDXDXDXDXDXDXDXDXDXDXDXDXDXDXDXDXDXDXDXDXDXDXDXDXDXDXDXDXDXDXDXDXDXDXDXDXDXDXDXDXDXDXDXDXDXDXDXDXDXDXDXDXDXDXDXDXDX=X",
"I.DXDXDXDXDXDXDXDXDXDXDXDXDXDXDXDXDXDXDXDXDXDXDXDXDXDXDXDXDXDXDXDXDXDXDXDXDXDXDXDXDXDXDXDXDXDXDXDXDXDXDXDXDXDXDXDXDXDXDXDXDXDXDXDXDXDXDXDXDXDXDXDXDXDXDXDXDXDXDXDXDXDXDXDXDXDXDXDXDXDXDXDXDXDXDXDXDXDXDX=X",
"I.DXDXDXDXDXDXDXDXDXDXDXDXDXDXDXDXDXDXDXDXDXDXDXDXDXDXDXDXDXDXDXDXDXDXDXDXDXDXDXDXDXDXDXDXDXDXDXDXDXDXDXDXDXDXDXDXDXDXDXDXDXDXDXDXDXDXDXDXDXDXDXDXDXDXDXDXDXDXDXDXDXDXDXDXDXDXDXDXDXDXDXDXDXDXDXDXDXDXDX=X",
"I.DXDXDX        + c :.bXDXDXDXDXDXDXDX  DXDXDXDXDXDXDXDXDXDX  DXDXDXDXDXDXDX XDXDXDXDXDXDXi.J DXDXDXDXd.  1.DXDXDXmXw <.DX  DXDXDXDXDXDXDX  DXDX XDXDXDXDXDXDXDXDXDXDXDXDXDXDXDXDXDXDXDXDXDXDXDXDXDXDXDX=X",
"I.DXDXDX  aXaXaXuXoX` &.DXDXDXDXDXDXDXaXDXDXDXDXDXDXDXDXDXDX  DXDXDXDXDXDXDX  DXDXDXDXDXDXC.  5XDXDXDXV b T DXDXDXP.  ~.DX  DXDXDXDXDXDXDXaXDXDX  DXDXDXDXDXDXDXDXDXDXDXDXDXDXDXDXDXDXDXDXDXDXDXDXDXDXDX=X",
"I.DXDXDX  DXDXDXDXDXqXd DXDXDXDXDXDXDXDXDXDXDXDXDXDXDXDXDXDX  DXDXDXDXDXDXDX  DXDXDXDXDXDX*X  9.DXDX$X  b.= 5XDXDXn.f DXDX  DXDXDXDXDXDXDXDXDXDX  DXDXDXDXDXDXDXDXDXDXDXDXDXDXDXDXDXDXDXDXDXDXDXDXDXDXDX=X",
"I.DXDXDX  DXDXDXDXDXfX9 DXDX  k.y k sX  DXDX.XF * m T.  DXDX  V.Z , E _.DX        DXDXDXDXDX~ #.DXDXM.L kXw 8.DXDXt.X.DXDX  V.Z , E _.DXDX  DX        DXDX|.D 1 n 3.DXDXDXDXDXDXDXDXDXDXDXDXDXDXDXDXDXDX=X",
"I.DXDXDX  DXDXDXDX0Xp.+.DXDX  O.:XXXDX  DXK.l R.rX{.N   DXDX  U (.7Xa.Y DXaX  aXaXDXDXDXDXDXh.I DXDXr.$.DXu.o.DXmXy 6.DXDX  U (.7Xa.Y DXDX  DXaX  aXaXDXA.R ).9XU.t 4.DXDXDXDXDXDXDXDXDXDXDXDXDXDXDXDXDX=X",
"I.DXDXDX  5 5 5 4   + `.DXDX  ].DXDXDX  DX] 0.DXDXDXG.  DXDX  '.DXDXfX6 DXDX  DXDXDXDXDXDXDXD.- sXfX< !.DXN.g DX@X  3XDXDX  '.DXDXfX6 DXDX  DXDX  DXDXDX( 1XDXDXDXl.H DXDXDXDXDXDXDXDXDXDXDXDXDXDXDXDXDX=X",
"I.DXDXDX  ,X,X,X>XY.^ { DXDX  BXDXDXDX  DXt cXDXDXDXkX  DXDX  BXDXDXDX  DXDX  DXDXDXDXDXDXDXeX% w.S.q bXDX%X  ^.m.P DXDXDX  BXDXDXDX  DXDX  DXDX  DXDXDXw 5 5 5 5 3   bXDXDXDXDXDXDXDXDXDXDXDXDXDXDXDXDX=X",
"I.DXDXDX  DXDXDXDXDXwX6 DXDX  DXDXDXDX  DXw dXDXDXDXkX  DXDX  DXDXDXDX  DXDX  DXDXDXDXDXDXDXDX) ,.d. .DXDXDXQ 2.y.%.DXDXDX  DXDXDXDX  DXDX  DXDX  DXDXDXw :X,X,X,X,X,XDXDXDXDXDXDXDXDXDXDXDXDXDXDXDXDXDX=X",
"I.DXDXDX  DXDXDXDXDXfXs DXDX  DXDXDXDX  DX' q.DXDXDXL.  DXDX  DXDXDXDX  DXDX  DXDXDXDXDXDXDXDXz.} ! 5.DXDXDXh...p e.DXDXDX  DXDXDXDX  DXDX  DXDX  DXDXDX/ q.DXDXDXx.[ DXDXDXDXDXDXDXDXDXDXDXDXDXDXDXDXDX=X",
"I.DXDXDX  aXaXaXaX7Xs.@.DXDX  DXDXDXDX  DXJ.z E.yX}.C   DXDX  DXDXDXDX  DXDXw /.yXDXDXDXDXDXDX@X8   <XDXDXDXH.7 9 bXDXDXDX  DXDXDXDX  DXDX  DXDXw /.iXDXZ.x W.rXv.2 =.DXDXDXDXDXDXDXDXDXDXDXDXDXDXDXDXDX=X",
"I.DXDXDX        + c -.cXDXDX  DXDXDXDX  DXDX[.S + m 7.- DXDX  DXDXDXDX  DXDXj.i , 2XDXDXDXDXDXNXa K DXDXDXDXjX2 | DXDXDXDX  DXDXDXDX  DXDX  DXDXj.i ; 2XDXB.S % j >.BXDXDXDXDXDXDXDXDXDXDXDXDXDXDXDXDXDX=X",
"I.DXDXDXDXDXDXDXDXDXDXDXDXDXDXDXDXDXDXDXDX+X5XDXDXDX*XG DXDXDXDXDXDXDXDXDXDXDXDXDXDXDXDXDXDXDXDXDXDXDXDXDXDXDXDXDXDXDXDXDXDXDXDXDXDXDXDXDXDXDXDXDXDXDXDXDXDXDXDXDXDXDXDXDXDXDXDXDXDXDXDXDXDXDXDXDXDXDXDX=X",
"I.DXDXDXDXDXDXDXDXDXDXDXDXDXDXDXDXDXDXDXDXF.W -XpXOX_ *.DXDXDXDXDXDXDXDXDXDXDXDXDXDXDXDXDXDXDXDXDXDXDXDXDXDXDXDXDXDXDXDXDXDXDXDXDXDXDXDXDXDXDXDXDXDXDXDXDXDXDXDXDXDXDXDXDXDXDXDXDXDXDXDXDXDXDXDXDXDXDXDX=X",
"I.DXDXDXDXDXDXDXDXDXDXDXDXDXDXDXDXDXDXDXDXDXc.B   j ;.bXDXDXDXDXDXDXDXDXDXDXDXDXDXDXDXDXDXDXDXDXDXDXDXDXDXDXDXDXDXDXDXDXDXDXDXDXDXDXDXDXDXDXDXDXDXDXDXDXDXDXDXDXDXDXDXDXDXDXDXDXDXDXDXDXDXDXDXDXDXDXDXDX=X",
"I.DXDXDXDXDXDXDXDXDXDXDXDXDXDXDXDXDXDXDXDXDXDXDXDXDXDXDXDXDXDXDXDXDXDXDXDXDXDXDXDXDXDXDXDXDXDXDXDXDXDXDXDXDXDXDXDXDXDXDXDXDXDXDXDXDXDXDXDXDXDXDXDXDXDXDXDXDXDXDXDXDXDXDXDXDXDXDXDXDXDXDXDXDXDXDXDXDXDXDX=X",
"I.DXDXDXDXDXDXDXDXDXDXDXDXDXDXDXDXDXDXDXDXDXDXDXDXDXDXDXDXDXDXDXDXDXDXDXDXDXDXDXDXDXDXDXDXDXDXDXDXDXDXDXDXDXDXDXDXDXDXDXDXDXDXDXDXDXDXDXDXDXDXDXDXDXDXDXDXDXDXDXDXDXDXDXDXDXDXDXDXDXDXDXDXDXDXDXDXDXDXDX=X",
"I.DXDXDXDXDXDXDXDXDXDXDXDXDXDXDXDXDXDXDXDXDXDXDXDXDXDXDXDXDXDXDXDXDXDXDXDXDXDXDXDXDXDXDXDXDXDXDXDXDXDXDXDXDXDXDXDXDXDXDXDXDXDXDXDXDXDXDXDXDXDXDXDXDXDXDXDXDXDXDXDXDXDXDXDXDXDXDXDXDXDXDXDXDXDXDXDXDXDXDX=X",
"I.=X=X=X=X=X=X=X=X=X=X=X=X=X=X=XoXW.oXXXY.(.oXW.oX=X=X=X=X=X=X=X=X=X=X=X=X=X=X=X=X=X=X=X=X=X=X=X=X=X=X=X=X=X=X=X=X=X=X=X=X=X=X=X=X=X=X=X=X=X=X=X=X=X=X=X=X=X=X=X=X=X=X=X=X=X=X=X=X=X=X=X=X=X=X=X=X=X=X=X=X"
};
