/* XPM */
static char *color_green[] = {
/* columns rows colors chars-per-pixel */
"101 25 120 2",
"   c #008000",
".  c #028000",
"X  c #048000",
"o  c #068000",
"O  c #01810E",
"+  c #098100",
"@  c #028216",
"#  c #03831F",
"$  c #148202",
"%  c #1C8D1E",
"&  c #1D8D1E",
"*  c #1E8E1F",
"=  c #098B38",
"-  c #1C8E22",
";  c #1C9028",
":  c #268A08",
">  c #2D8505",
",  c #2F8706",
"<  c #358605",
"1  c #368605",
"2  c #398908",
"3  c #249224",
"4  c #2B9020",
"5  c #309325",
"6  c #369627",
"7  c #39982A",
"8  c #33A02D",
"9  c #1E9E55",
"0  c #119474",
"q  c #129678",
"w  c #2B9A41",
"e  c #2F9B45",
"r  c #28A463",
"t  c #20A571",
"y  c #2EAC7A",
"u  c #4B9510",
"i  c #518909",
"p  c #598A09",
"a  c #55930F",
"s  c #499B29",
"d  c #4A9C2B",
"f  c #5EA234",
"g  c #60910E",
"h  c #7F9512",
"j  c #67A737",
"k  c #49B07F",
"l  c #109296",
"z  c #1BA28D",
"x  c #20A99C",
"c  c #3BB284",
"v  c #2AB3B6",
"b  c #39C1A4",
"n  c #3CCCD6",
"m  c #46AF83",
"M  c #44BEAC",
"N  c #48C1B5",
"B  c #4CC3B1",
"V  c #74C39E",
"C  c #6FC3A2",
"Z  c #5CE2E6",
"A  c #67C7C7",
"S  c #64E5E9",
"D  c #A8A21C",
"F  c #B2A921",
"G  c #B1B429",
"H  c #8EB748",
"J  c #88B75E",
"K  c #88BB64",
"L  c #9EC05D",
"P  c #C6C139",
"I  c #DDD67B",
"U  c #EBE871",
"Y  c #8D8D8D",
"T  c #92D2B8",
"R  c #A9CF80",
"E  c #B5D393",
"W  c #BFD8A2",
"Q  c #8DF1F2",
"!  c #9AF3F3",
"~  c #A3DAC4",
"^  c #DFDF9D",
"/  c #DEE49F",
"(  c #DBE4B4",
")  c #E8E39E",
"_  c #F2F194",
"`  c #F6F6B6",
"'  c #F6F6BF",
"]  c #C0C0C0",
"[  c #C5EAE3",
"{  c #C5EBE5",
"}  c #C9ECE6",
"|  c #CEF9F9",
" . c #DCF1E9",
".. c #D5FAFA",
"X. c #EAEFD0",
"o. c #ECF3DC",
"O. c #F6F5C3",
"+. c #F8F9CB",
"@. c #F0F3D2",
"#. c #F6F6D1",
"$. c #F0F3D9",
"%. c #F9F8D4",
"&. c #EEF4E1",
"*. c #E5F6F3",
"=. c #E5FCFB",
"-. c #EAFDFC",
";. c #EFFCFA",
":. c #EEFDFD",
">. c #F2FCEB",
",. c #F4FAF4",
"<. c #F3FEFD",
"1. c #F5FBFC",
"2. c #F7FDF9",
"3. c #F8FDF7",
"4. c #FDFEF3",
"5. c #FBFDF8",
"6. c #F8FEFE",
"7. c #FAFEFC",
"8. c #FEFFFD",
"9. c gray100",
/* pixels */
"Y Y Y Y Y Y Y Y Y Y Y Y Y Y Y Y Y Y Y Y Y Y Y Y Y Y Y Y Y Y Y Y Y Y Y Y Y Y Y Y Y Y Y Y Y Y Y Y Y Y Y Y Y Y Y Y Y Y Y Y Y Y Y Y Y Y Y Y Y Y Y Y Y Y Y Y Y Y Y Y Y Y Y Y Y Y Y Y Y Y Y Y Y Y Y Y Y Y Y Y ] ",
"Y                                                                                                                                                                                                       ] ",
"Y                                                                                                                                                                                                       ] ",
"Y                                                                                                                                                                                                       ] ",
"Y                                                                                                                                                                                                       ] ",
"Y                                                                                                                                                                                                       ] ",
"Y                                                                                                                                                                                                       ] ",
"Y           r ~ *.5.o.E u                                                                                                                                                                               ] ",
"Y       . M %.J 6 & w C >.g                                                                                                                                                                             ] ",
"Y       q +.2           v U                                                                                                                                                                             ] ",
"Y       Z F             O :     9.B ;.@.$   y [ 2.X.H         y [ 2.X.H       9.t { 5.( a                                                                                                               ] ",
"Y       | 1                     9.I 4 8   z ) d - k -.G     z ) d - k -.G     9./ s ; A _                                                                                                               ] ",
"Y       6.X       l ,.,.,.,.    9.i       Q <       n `     Q 1       n `     9.p     # 4.                                                                                                              ] ",
"Y       ..,       @ 3 3 3 9.    9.o       -.,.,.,.,.1.9.+   :.,.,.,.,.1.9.+   9.o       9.                                                                                                              ] ",
"Y       S D               9.    9.        6.; - 3 3 3 3     -.& 3 3 3 3 3 X . 9.        9.                                                                                                              ] ",
"Y       q ' ,           = 9.    9.        ! D . X @ b L     ! D       b L @ . 9.        9.                                                                                                              ] ",
"Y         M #.K 7 & e V =.^     9.        x O.f & m <.P +   x O.f & k 8.P     9.        9.                                                                                                              ] ",
"Y           9 T  .6.&.W j       9.          c } 7.$.K +       c } 8.$.K o     9.        9.                                                                                                              ] ",
"Y                                                                                                                                                                                                       ] ",
"Y                                                                                                                                                                                                       ] ",
"Y                                                                                                                                                                                                       ] ",
"Y                                                                                                                                                                                                       ] ",
"Y                                                                                                                                                                                                       ] ",
"Y                                                                                                                                                                                                       ] ",
"Y ] ] ] ] ] ] ] ] ] ] ] ] ] ] ] ] ] ] ] ] ] ] ] ] ] ] ] ] ] ] ] ] ] ] ] ] ] ] ] ] ] ] ] ] ] ] ] ] ] ] ] ] ] ] ] ] ] ] ] ] ] ] ] ] ] ] ] ] ] ] ] ] ] ] ] ] ] ] ] ] ] ] ] ] ] ] ] ] ] ] ] ] ] ] ] ] ] ] ] ] "
};
