/* XPM */
static char *color_red[] = {
/* columns rows colors chars-per-pixel */
"101 25 117 2",
"   c #800000",
".  c #810000",
"X  c #800002",
"o  c #820100",
"O  c #830100",
"+  c #840200",
"@  c #870301",
"#  c #80030D",
"$  c #880401",
"%  c #890402",
"&  c #810516",
"*  c #81061B",
"=  c #8C1818",
"-  c #8E1A1C",
";  c #8E1B1E",
":  c #8C1C1F",
">  c #8F1C1E",
",  c #980B05",
"<  c #9B0D05",
"1  c #9A0E06",
"2  c #820B30",
"3  c #830E3C",
"4  c #8E1D22",
"5  c #8C2537",
"6  c #922424",
"7  c #922629",
"8  c #982725",
"9  c #A31A0B",
"0  c #BF2A12",
"q  c #A5382B",
"w  c #851C49",
"e  c #8A3772",
"r  c #8B397F",
"t  c #AF4534",
"y  c #B14938",
"u  c #BC5327",
"i  c #B95029",
"p  c #B6513D",
"a  c #9B4354",
"s  c #9C4A64",
"d  c #934F72",
"f  c #9F516C",
"g  c #97587A",
"h  c #9A5C7E",
"j  c #A45C74",
"k  c #A4607F",
"l  c #C22D13",
"z  c #C73616",
"x  c #D86929",
"c  c #DC6C2B",
"v  c #C76F48",
"b  c #892C82",
"n  c #8B3892",
"m  c #8D458D",
"M  c #8D448E",
"N  c #90539C",
"B  c #9D6484",
"V  c #A35F83",
"C  c #E38339",
"Z  c #CF815D",
"A  c #D58F71",
"S  c #EA9D4B",
"D  c #EEAA5A",
"F  c #F6D379",
"G  c #8D8D8D",
"H  c #9C83A4",
"J  c #9E98D6",
"K  c #A597D4",
"L  c #D49F80",
"P  c #E5BAA4",
"I  c #C6B9E3",
"U  c #F4C79E",
"Y  c #F7D799",
"T  c #F0C7AA",
"R  c #FBEDB6",
"E  c #C0C0C0",
"W  c #C3DEF0",
"Q  c #D2CDEB",
"!  c #DFD2E1",
"~  c #C4E0F1",
"^  c #C6E2F2",
"/  c #CDE6F3",
"(  c #F3D8C4",
")  c #F4DBC9",
"_  c #F5DFD0",
"`  c #E2D5E3",
"'  c #E3D8E4",
"]  c #E4D9E6",
"[  c #FBEAC3",
"{  c #FBECC7",
"}  c #F5E2D8",
"|  c #F8E6D9",
" . c #FAF1D1",
".. c #FDF7DF",
"X. c #E3EBF0",
"o. c #E2F1F8",
"O. c #E8F0F8",
"+. c #E9F2F8",
"@. c #EBF5FA",
"#. c #FDF7E0",
"$. c #FEFAEB",
"%. c #F5FAFC",
"&. c #F6FAFD",
"*. c #F7FBFD",
"=. c #FAF4F4",
"-. c #FAF7FC",
";. c #FEF8F0",
":. c #FBFBF9",
">. c #FBFAFD",
",. c #F9FCFD",
"<. c #FEFBF8",
"1. c #FCFCFA",
"2. c #FDFCFB",
"3. c #FDFDFC",
"4. c #FDFDFE",
"5. c #FFFEFD",
"6. c gray100",
/* pixels */
"G G G G G G G G G G G G G G G G G G G G G G G G G G G G G G G G G G G G G G G G G G G G G G G G G G G G G G G G G G G G G G G G G G G G G G G G G G G G G G G G G G G G G G G G G G G G G G G G G G G G E ",
"G                                                                                                                                                                                                       E ",
"G                                                                                                                                                                                                       E ",
"G                                                                                                                                                                                                       E ",
"G                                                                                                                                                                                                       E ",
"G                                                                                                                                                                                                       E ",
"G                                                                                                                                                                                                       E ",
"G       6.6.6.6.6.<.} A @                                   6.                                                                                                                                          E ",
"G       6.= = = = : a Q S                                   6.                                                                                                                                          E ",
"G       6.            3 #.                                  6.                                                                                                                                          E ",
"G       6.            2 $.      g ' :.} v         h ] 1.( i 6.                                                                                                                                          E ",
"G       6.          5 I F     m U q : k %.x     m { y > f O.6.                                                                                                                                          E ",
"G       6.=.=.=.=.>.;.P 9     ^ 1       J R     ^ l       n 6.                                                                                                                                          E ",
"G       6.6 6 7 j O.T 1       *.=.=.=.=.-.6.    *.@       & 6.                                                                                                                                          E ",
"G       6.        w @.Y       ,.8 6 6 8 6 6     *.%       # 6.                                                                                                                                          E ",
"G       6.          e 6.c     / 0     # H A     W z       b 6.                                                                                                                                          E ",
"G       6.            K #.,   N [ t - V ,.C     r  .p - s X.6.                                                                                                                                          E ",
"G       6.            * o.D     B ] 6.| Z         d ! 1.) u 6.                                                                                                                                          E ",
"G                                                                                                                                                                                                       E ",
"G                                                                                                                                                                                                       E ",
"G                                                                                                                                                                                                       E ",
"G                                                                                                                                                                                                       E ",
"G                                                                                                                                                                                                       E ",
"G                                                                                                                                                                                                       E ",
"G E E E E E E E E E E E E E E E E E E E E E E E E E E E E E E E E E E E E E E E E E E E E E E E E E E E E E E E E E E E E E E E E E E E E E E E E E E E E E E E E E E E E E E E E E E E E E E E E E E E E "
};
