/* XPM */
static char *color_lightgreen[] = {
/* columns rows colors chars-per-pixel */
"101 25 127 2",
"   c black",
".  c #000100",
"X  c #000200",
"o  c #000300",
"O  c #000400",
"+  c #000500",
"@  c #000600",
"#  c #000700",
"$  c #000800",
"%  c #000A00",
"&  c #000B00",
"*  c #000C00",
"=  c #000D00",
"-  c #000E00",
";  c #001000",
":  c #001100",
">  c #001200",
",  c #001300",
"<  c #001500",
"1  c #001600",
"2  c #001800",
"3  c #001900",
"4  c #001C00",
"5  c #001D00",
"6  c #001E00",
"7  c #002000",
"8  c #002100",
"9  c #002300",
"0  c #002400",
"q  c #002600",
"w  c #002800",
"e  c #002A00",
"r  c #002E00",
"t  c #002F00",
"y  c #003400",
"u  c #003500",
"i  c #003600",
"p  c #003700",
"a  c #003800",
"s  c #003A00",
"d  c #004000",
"f  c #004B00",
"g  c #004E00",
"h  c #004F00",
"j  c #005300",
"k  c #005900",
"l  c #005A00",
"z  c #006000",
"x  c #006700",
"c  c #006E00",
"v  c #007000",
"b  c #007100",
"n  c #007200",
"m  c #007700",
"M  c #007800",
"N  c #007900",
"B  c #007C00",
"V  c #007D00",
"C  c #007E00",
"Z  c #008300",
"A  c #008900",
"S  c #009000",
"D  c #009600",
"F  c #009900",
"G  c #009B00",
"H  c #009D00",
"J  c #009F00",
"K  c #00A000",
"L  c #00A300",
"P  c #00A600",
"I  c #00A700",
"U  c #00A800",
"Y  c #00A900",
"T  c #00AC00",
"R  c #00AD00",
"E  c #00B000",
"W  c #00B300",
"Q  c #00B500",
"!  c #00B700",
"~  c #00BA00",
"^  c #00BE00",
"/  c #00C300",
"(  c #00C500",
")  c #00C600",
"_  c #00C700",
"`  c #00C800",
"'  c #00C900",
"]  c #00CA00",
"[  c #00CB00",
"{  c #00CE00",
"}  c #00CF00",
"|  c #00D000",
" . c #00D200",
".. c #00D300",
"X. c #00D400",
"o. c #00D500",
"O. c #00D700",
"+. c #00D800",
"@. c #00D900",
"#. c #00DB00",
"$. c #00DD00",
"%. c #00DE00",
"&. c #00DF00",
"*. c #00E200",
"=. c #00E300",
"-. c #00E400",
";. c #00E500",
":. c #00E700",
">. c #00E900",
",. c #00EA00",
"<. c #00EB00",
"1. c #00EC00",
"2. c #00EE00",
"3. c #00F100",
"4. c #00F200",
"5. c #00F300",
"6. c #00F400",
"7. c #00F700",
"8. c #00F800",
"9. c #00FA00",
"0. c #00FB00",
"q. c #00FC00",
"w. c #00FD00",
"e. c #00FE00",
"r. c green",
"t. c #8D8D8D",
"y. c #C0C0C0",
/* pixels */
"t.t.t.t.t.t.t.t.t.t.t.t.t.t.t.t.t.t.t.t.t.t.t.t.t.t.t.t.t.t.t.t.t.t.t.t.t.t.t.t.t.t.t.t.t.t.t.t.t.t.t.t.t.t.t.t.t.t.t.t.t.t.t.t.t.t.t.t.t.t.t.t.t.t.t.t.t.t.t.t.t.t.t.t.t.t.t.t.t.t.t.t.t.t.t.t.t.t.t.t.y.",
"t.r.r.r.r.r.r.r.r.r.r.r.r.r.r.r.r.r.r.r.r.r.r.r.r.r.r.r.r.r.r.r.r.r.r.r.r.r.r.r.r.r.r.r.r.r.r.r.r.r.r.r.r.r.r.r.r.r.r.r.r.r.r.r.r.r.r.r.r.r.r.r.r.r.r.r.r.r.r.r.r.r.r.r.r.r.r.r.r.r.r.r.r.r.r.r.r.r.r.r.y.",
"t.r.r.r.r.r.r.r.r.r.r.r.r.r.r.r.r.r.r.r.r.r.r.r.r.r.r.r.r.r.r.r.r.r.r.r.r.r.r.r.r.r.r.r.r.r.r.r.r.r.r.r.r.r.r.r.r.r.r.r.r.r.r.r.r.r.r.r.r.r.r.r.r.r.r.r.r.r.r.r.r.r.r.r.r.r.r.r.r.r.r.r.r.r.r.r.r.r.r.r.y.",
"t.r.r.r.r.r.r.r.r.r.r.r.r.r.r.r.r.r.r.r.r.r.r.r.r.r.r.r.r.r.r.r.r.r.r.r.r.r.r.r.r.r.r.r.r.r.r.r.r.r.r.r.r.r.r.r.r.r.r.r.r.r.r.r.r.r.r.r.r.r.r.r.r.r.r.r.r.r.r.r.r.r.r.r.r.r.r.r.r.r.r.r.r.r.r.r.r.r.r.r.y.",
"t.r.r.r.r.r.r.r.r.r.r.r.r.r.r.r.r.r.r.r.r.r.r.r.r.r.r.r.r.r.r.r.r.r.r.r.r.r.r.r.r.r.r.r.r.r.r.r.r.r.r.r.r.r.r.r.r.r.r.r.r.r.r.r.r.r.r.r.r.r.r.r.r.r.r.r.r.r.r.r.r.r.r.r.r.r.r.r.r.r.r.r.r.r.r.r.r.r.r.r.y.",
"t.r.r.r.r.r.r.r.r.r.r.r.r.r.r.r.r.r.r.r.r.r.r.r.r.r.r.r.r.r.r.r.r.r.r.r.r.r.r.r.r.r.r.r.r.r.r.r.r.r.r.r.r.r.r.r.r.r.r.r.r.r.r.r.r.r.r.r.r.r.r.r.r.r.r.r.r.r.r.r.r.r.r.r.r.r.r.r.r.r.r.r.r.r.r.r.r.r.r.r.y.",
"t.r.r.r.r.r.r.r.r.r.r.r.r.r.r.r.r.r.r.r.r.r.r.r.r.r.r.r.r.r.r.r.r.r.r.r.r.r.r.r.r.r.r.r.r.r.r.r.r.r.r.r.r.r.r.r.r.r.r.r.r.r.r.r.r.r.r.r.r.r.r.r.r.r.r.r.r.r.r.r.r.r.r.r.r.r.r.r.r.r.r.r.r.r.r.r.r.r.r.r.y.",
"t.r.r.r.  r.r.r.r.r.r.r.  r.r.r.r.r.r.r.r.r.r.  r.r.r.r.r.r.r.U r.r.r.r.r.r.r.r.r.! f ; + 1 k O.r.r.r.r.r.r.r.r.r.r.r.r.r.r.r.r.r.r.r.r.r.r.r.r.r.r.r.r.r.r.r.r.r.r.r.r.r.r.r.r.r.r.r.r.r.r.r.r.r.r.r.r.y.",
"t.r.r.r.  r.r.r.r.r.r.r.:.r.r.r.r.r.r.r.r.r.r.  r.r.r.r.r.r.r.  r.r.r.r.r.r.r.r.B - A O.=.' M + %.r.r.r.r.r.r.r.r.r.r.r.r.r.r.r.r.r.r.r.r.r.r.r.r.r.r.r.r.r.r.r.r.r.r.r.r.r.r.r.r.r.r.r.r.r.r.r.r.r.r.r.y.",
"t.r.r.r.  r.r.r.r.r.r.r.r.r.r.r.r.r.r.r.r.r.r.  r.r.r.r.r.r.r.  r.r.r.r.r.r.r.O.- 2.r.r.r.r.r.F t r.r.r.r.r.r.r.r.r.r.r.r.r.r.r.r.r.r.r.r.r.r.r.r.r.r.r.r.r.r.r.r.r.r.r.r.r.r.r.r.r.r.r.r.r.r.r.r.r.r.r.y.",
"t.r.r.r.  r.r.r.r.r.r.r.  r.r.U w + q I   r.r.  H 9 + p %.r.        r.r.r.r.r.s R r.r.r.r.r.r.r.<.r.r.  M + 1 7.r.U w   9 S r.r.r.r.U w + 9 A r.r.r.  ! q + p @.r.r.r.r.r.r.r.r.r.r.r.r.r.r.r.r.r.r.r.r.y.",
"t.r.r.r.  r.r.r.r.r.r.r.  r.( ; W :.U -   r.r.  t ( %.c 9 r.:.  :.:.r.r.r.r.r.- 5.r.r.r.r.r.r.r.r.r.r.  j %.^ r.! s ' =.H + D r.r.! s ' =.H + F r.r.  p ' =.n 6 r.r.r.r.r.r.r.r.r.r.r.r.r.r.r.r.r.r.r.r.y.",
"t.r.r.r.  r.r.r.r.r.r.r.  r.9 { r.r.r.(   r.r.  <.r.r.7.+ r.r.  r.r.r.r.r.r.r.  r.r.r.r.@.$ - $ $ r.r.  2.r.r.r.6 5.r.r.r.x ; r.r.6 5.r.r.r.x ; r.r.  <.r.r.7.  r.r.r.r.r.r.r.r.r.r.r.r.r.r.r.r.r.r.r.r.y.",
"t.r.r.r.  r.r.r.r.r.r.r.  r.  r.r.r.r.7.  r.r.  r.r.r.r.  r.r.  r.r.r.r.r.r.r.$ 7.r.r.r.7.%.@.@.  r.r.  r.r.r.r.  - $ - $ $   r.r.+ $ $ $ - $   r.r.  r.r.r.r.  r.r.r.r.r.r.r.r.r.r.r.r.r.r.r.r.r.r.r.r.y.",
"t.r.r.r.  r.r.r.r.r.r.r.  r.+ r.r.r.r.r.  r.r.  r.r.r.r.  r.r.  r.r.r.r.r.r.r.p ! r.r.r.r.r.r.r.  r.r.  r.r.r.r.  @.@.@.%.%.%.r.r.  @.@.%.@.%.%.r.r.  r.r.r.r.  r.r.r.r.r.r.r.r.r.r.r.r.r.r.r.r.r.r.r.r.y.",
"t.r.r.r.  r.r.r.r.r.r.r.  r.6 { r.r.r.{   r.r.  r.r.r.r.  r.r.  r.r.r.r.r.r.r...; 5.r.r.r.r.r.<.  r.r.  r.r.r.r.2 O.r.r.r.B l r.r.2 O.r.r.r.B l r.r.  r.r.r.r.  r.r.r.r.r.r.r.r.r.r.r.r.r.r.r.r.r.r.r.r.y.",
"t.r.r.r.  ! ! ! ! ! @.r.  r./ ; ! :.W ;   r.r.  r.r.r.r.  r.r.+ ' :.r.r.r.r.r.r.Z ; A { :.( m + d r.r.  r.r.r.r.R 1 ! :.L + B r.r.R 1 ! :.L   B r.r.  r.r.r.r.  r.r.r.r.r.r.r.r.r.r.r.r.r.r.r.r.r.r.r.r.y.",
"t.r.r.r.            M r.  r.r.L q   q H + r.r.  r.r.r.r.  r.r.c $ + 5.r.r.r.r.r.r./ k 6   1 h W r.r.r.  r.r.r.r.r.F q   2 B r.r.r.r.F q   1 B r.r.r.  r.r.r.r.  r.r.r.r.r.r.r.r.r.r.r.r.r.r.r.r.r.r.r.r.y.",
"t.r.r.r.r.r.r.r.r.r.r.r.r.r...7.r.r.r.2.; r.r.r.r.r.r.r.r.r.r.r.r.r.r.r.r.r.r.r.r.r.r.r.r.r.r.r.r.r.r.r.r.r.r.r.r.r.r.r.r.r.r.r.r.r.r.r.r.r.r.r.r.r.r.r.r.r.r.r.r.r.r.r.r.r.r.r.r.r.r.r.r.r.r.r.r.r.r.r.y.",
"t.r.r.r.r.r.r.r.r.r.r.r.r.r.( h ..:.( p n r.r.r.r.r.r.r.r.r.r.r.r.r.r.r.r.r.r.r.r.r.r.r.r.r.r.r.r.r.r.r.r.r.r.r.r.r.r.r.r.r.r.r.r.r.r.r.r.r.r.r.r.r.r.r.r.r.r.r.r.r.r.r.r.r.r.r.r.r.r.r.r.r.r.r.r.r.r.r.y.",
"t.r.r.r.r.r.r.r.r.r.r.r.r.r.r.Z 6   2 m r.r.r.r.r.r.r.r.r.r.r.r.r.r.r.r.r.r.r.r.r.r.r.r.r.r.r.r.r.r.r.r.r.r.r.r.r.r.r.r.r.r.r.r.r.r.r.r.r.r.r.r.r.r.r.r.r.r.r.r.r.r.r.r.r.r.r.r.r.r.r.r.r.r.r.r.r.r.r.r.y.",
"t.r.r.r.r.r.r.r.r.r.r.r.r.r.r.r.r.r.r.r.r.r.r.r.r.r.r.r.r.r.r.r.r.r.r.r.r.r.r.r.r.r.r.r.r.r.r.r.r.r.r.r.r.r.r.r.r.r.r.r.r.r.r.r.r.r.r.r.r.r.r.r.r.r.r.r.r.r.r.r.r.r.r.r.r.r.r.r.r.r.r.r.r.r.r.r.r.r.r.r.y.",
"t.r.r.r.r.r.r.r.r.r.r.r.r.r.r.r.r.r.r.r.r.r.r.r.r.r.r.r.r.r.r.r.r.r.r.r.r.r.r.r.r.r.r.r.r.r.r.r.r.r.r.r.r.r.r.r.r.r.r.r.r.r.r.r.r.r.r.r.r.r.r.r.r.r.r.r.r.r.r.r.r.r.r.r.r.r.r.r.r.r.r.r.r.r.r.r.r.r.r.r.y.",
"t.r.r.r.r.r.r.r.r.r.r.r.r.r.r.r.r.r.r.r.r.r.r.r.r.r.r.r.r.r.r.r.r.r.r.r.r.r.r.r.r.r.r.r.r.r.r.r.r.r.r.r.r.r.r.r.r.r.r.r.r.r.r.r.r.r.r.r.r.r.r.r.r.r.r.r.r.r.r.r.r.r.r.r.r.r.r.r.r.r.r.r.r.r.r.r.r.r.r.r.y.",
"t.y.y.y.y.y.y.y.y.y.y.y.y.y.y.y.y.y.y.y.y.y.y.y.y.y.y.y.y.y.y.y.y.y.y.y.y.y.y.y.y.y.y.y.y.y.y.y.y.y.y.y.y.y.y.y.y.y.y.y.y.y.y.y.y.y.y.y.y.y.y.y.y.y.y.y.y.y.y.y.y.y.y.y.y.y.y.y.y.y.y.y.y.y.y.y.y.y.y.y.y."
};
