/* XPM */
static char *color_lightmagenta[] = {
/* columns rows colors chars-per-pixel */
"101 25 223 2",
"   c black",
".  c #010001",
"X  c #010002",
"o  c #030002",
"O  c #010004",
"+  c #010005",
"@  c #050003",
"#  c #070002",
"$  c #040004",
"%  c #060006",
"&  c #010008",
"*  c #010009",
"=  c #03000B",
"-  c #02000C",
";  c #02000E",
":  c #02000F",
">  c #050008",
",  c #070008",
"<  c #05000E",
"1  c #080001",
"2  c #0A0003",
"3  c #0B0002",
"4  c #080006",
"5  c #0C0002",
"6  c #0E0002",
"7  c #0B000B",
"8  c #0B000E",
"9  c #090015",
"0  c #100002",
"q  c #110002",
"w  c #130003",
"e  c #120005",
"r  c #140003",
"t  c #150003",
"y  c #1D000B",
"u  c #0F0025",
"i  c #0F0026",
"p  c #07003A",
"a  c #07003B",
"s  c #090033",
"d  c #0A0038",
"f  c #09003C",
"g  c #0D003B",
"h  c #15002F",
"j  c #160034",
"k  c #170034",
"l  c #2B0008",
"z  c #2B0013",
"x  c #340007",
"c  c #330016",
"v  c #300019",
"b  c #360019",
"n  c #370019",
"m  c #390010",
"M  c #3A001A",
"N  c #3A001C",
"B  c #3C001D",
"V  c #080047",
"C  c #090049",
"Z  c #0A0054",
"A  c #13005B",
"S  c #0D006B",
"D  c #0F0072",
"F  c #170061",
"G  c #150064",
"H  c #1F007A",
"J  c #24004B",
"K  c #24004C",
"L  c #2C0050",
"P  c #210060",
"I  c #390061",
"U  c #440008",
"Y  c #4A0009",
"T  c #4B0009",
"R  c #4E0009",
"E  c #5D000B",
"W  c #4D0028",
"Q  c #430035",
"!  c #65000C",
"~  c #630016",
"^  c #72000D",
"/  c #77000F",
"(  c #7E0010",
")  c #5F0055",
"_  c #56007F",
"`  c #69007B",
"'  c #7B006E",
"]  c #15008D",
"[  c #170096",
"{  c #180099",
"}  c #2F00CC",
"|  c #3200C4",
" . c #3000CC",
".. c #3200CE",
"X. c #3900C6",
"o. c #3600D2",
"O. c #3900D3",
"+. c #5C0098",
"@. c #5800A8",
"#. c #6100A2",
"$. c #7100B7",
"%. c #4E00D6",
"&. c #7C00C0",
"*. c #7C00C1",
"=. c #6900E9",
"-. c #6D00EA",
";. c #7600EB",
":. c #7700EB",
">. c #7500EC",
",. c #7B00EF",
"<. c #9D0019",
"1. c #9E0019",
"2. c #980036",
"3. c #980038",
"4. c #A1001B",
"5. c #A2001B",
"6. c #B20033",
"7. c #930041",
"8. c #9B0063",
"9. c #A9004B",
"0. c #A70065",
"q. c #B9007C",
"w. c #C30029",
"e. c #C80035",
"r. c #D10036",
"t. c #D40039",
"y. c #C6005B",
"u. c #C4007B",
"i. c #C9007E",
"p. c #DF0063",
"a. c #E70062",
"s. c #E8006D",
"d. c #E40072",
"f. c #E7007A",
"g. c #EB0077",
"h. c #EC0076",
"j. c #E8007B",
"k. c #ED0079",
"l. c #EE007B",
"z. c #EE007D",
"x. c #8F009B",
"c. c #B60080",
"v. c #B6008F",
"b. c #B700B7",
"n. c #8200D2",
"m. c #9800C5",
"M. c #9C00C7",
"N. c #8000ED",
"B. c #A100CB",
"V. c #A600DA",
"C. c #B000C1",
"Z. c #B200D2",
"A. c #B500D4",
"S. c #B600D6",
"D. c #B900D3",
"F. c #A800EE",
"G. c #AD00E9",
"H. c #A600F6",
"J. c #AA00F0",
"K. c #A800F6",
"L. c #B000F2",
"P. c #BB00F8",
"I. c #BD00F8",
"U. c #C4008F",
"Y. c #CD0080",
"T. c #C00091",
"R. c #C50099",
"E. c #C7009C",
"W. c #D30080",
"Q. c #D10085",
"!. c #DF008E",
"~. c #D200B6",
"^. c #F2009A",
"/. c #EE00A9",
"(. c #EE00BB",
"). c #F800B9",
"_. c #C500DB",
"`. c #CF00DA",
"'. c #DC00CB",
"]. c #DB00DB",
"[. c #C500F1",
"{. c #C700F9",
"}. c #C900FA",
"|. c #CA00FA",
" X c #CC00FA",
".X c #D900E4",
"XX c #D400FB",
"oX c #DD00F0",
"OX c #DB00FC",
"+X c #E200D7",
"@X c #E300D7",
"#X c #E300D9",
"$X c #E300DD",
"%X c #FA00D0",
"&X c #FA00D1",
"*X c #E100E1",
"=X c #E300E1",
"-X c #E300E3",
";X c #E600E1",
":X c #E400E5",
">X c #E600E5",
",X c #E700E7",
"<X c #E400FC",
"1X c #ED00FD",
"2X c #FC00E0",
"3X c #FC00E2",
"4X c #FD00EC",
"5X c #FE00EE",
"6X c #F000FE",
"7X c #F500FE",
"8X c #F600FF",
"9X c #FE00F1",
"0X c #FE00F6",
"qX c #F900FF",
"wX c #FB00FF",
"eX c #FC00FF",
"rX c #FD00FF",
"tX c #FF00FC",
"yX c #FF00FD",
"uX c #FF00FE",
"iX c magenta",
"pX c #8D8D8D",
"aX c #C0C0C0",
/* pixels */
"pXpXpXpXpXpXpXpXpXpXpXpXpXpXpXpXpXpXpXpXpXpXpXpXpXpXpXpXpXpXpXpXpXpXpXpXpXpXpXpXpXpXpXpXpXpXpXpXpXpXpXpXpXpXpXpXpXpXpXpXpXpXpXpXpXpXpXpXpXpXpXpXpXpXpXpXpXpXpXpXpXpXpXpXpXpXpXpXpXpXpXpXpXpXpXpXpXpXpXpXaX",
"pXiXiXiXiXiXiXiXiXiXiXiXiXiXiXiXiXiXiXiXiXiXiXiXiXiXiXiXiXiXiXiXiXiXiXiXiXiXiXiXiXiXiXiXiXiXiXiXiXiXiXiXiXiXiXiXiXiXiXiXiXiXiXiXiXiXiXiXiXiXiXiXiXiXiXiXiXiXiXiXiXiXiXiXiXiXiXiXiXiXiXiXiXiXiXiXiXiXiXiXaX",
"pXiXiXiXiXiXiXiXiXiXiXiXiXiXiXiXiXiXiXiXiXiXiXiXiXiXiXiXiXiXiXiXiXiXiXiXiXiXiXiXiXiXiXiXiXiXiXiXiXiXiXiXiXiXiXiXiXiXiXiXiXiXiXiXiXiXiXiXiXiXiXiXiXiXiXiXiXiXiXiXiXiXiXiXiXiXiXiXiXiXiXiXiXiXiXiXiXiXiXiXaX",
"pXiXiXiXiXiXiXiXiXiXiXiXiXiXiXiXiXiXiXiXiXiXiXiXiXiXiXiXiXiXiXiXiXiXiXiXiXiXiXiXiXiXiXiXiXiXiXiXiXiXiXiXiXiXiXiXiXiXiXiXiXiXiXiXiXiXiXiXiXiXiXiXiXiXiXiXiXiXiXiXiXiXiXiXiXiXiXiXiXiXiXiXiXiXiXiXiXiXiXiXaX",
"pXiXiXiXiXiXiXiXiXiXiXiXiXiXiXiXiXiXiXiXiXiXiXiXiXiXiXiXiXiXiXiXiXiXiXiXiXiXiXiXiXiXiXiXiXiXiXiXiXiXiXiXiXiXiXiXiXiXiXiXiXiXiXiXiXiXiXiXiXiXiXiXiXiXiXiXiXiXiXiXiXiXiXiXiXiXiXiXiXiXiXiXiXiXiXiXiXiXiXiXaX",
"pXiXiXiXiXiXiXiXiXiXiXiXiXiXiXiXiXiXiXiXiXiXiXiXiXiXiXiXiXiXiXiXiXiXiXiXiXiXiXiXiXiXiXiXiXiXiXiXiXiXiXiXiXiXiXiXiXiXiXiXiXiXiXiXiXiXiXiXiXiXiXiXiXiXiXiXiXiXiXiXiXiXiXiXiXiXiXiXiXiXiXiXiXiXiXiXiXiXiXiXaX",
"pXiXiXiXiXiXiXiXiXiXiXiXiXiXiXiXiXiXiXiXiXiXiXiXiXiXiXiXiXiXiXiXiXiXiXiXiXiXiXiXiXiXiXiXiXiXiXiXiXiXiXiXiXiXiXiXiXiXiXiXiXiXiXiXiXiXiXiXiXiXiXiXiXiXiXiXiXiXiXiXiXiXiXiXiXiXiXiXiXiXiXiXiXiXiXiXiXiXiXiXaX",
"pXiXiXiX  iXiXiXiXiXiXiX  iXiXiXiXiXiXiXiXiXiX  iXiXiXiXiXiXiXi.iXiXiXiXiXiXiX    P.iXiXiXiXiXiXR   iXiXiXiXiXiXiXiXiXiXiXiXiXiXiXiXiXiXiXiXiXiXiXiXiXiXiXiXiXiXiXiXiXiXiXiXi.iXiXiXiXiXiXiXiXiXiXiXiXiXaX",
"pXiXiXiX  iXiXiXiXiXiXiX,XiXiXiXiXiXiXiXiXiXiX  iXiXiXiXiXiXiX  iXiXiXiXiXiXiX  6  .iXiXiXiXiXz.+   iXiXiXiXiXiXiXiXiXiXiXiXiXiXiXiXiXiXiXiXiXiXiXiXiXiXiXiXiXiXiXiXiXiXiXiX  iXiXiXiXiXiXiXiXiXiXiXiXiXaX",
"pXiXiXiX  iXiXiXiXiXiXiXiXiXiXiXiXiXiXiXiXiXiX  iXiXiXiXiXiXiX  iXiXiXiXiXiXiX  5.p wXiXiXiXiX5.]   iXiXiXiXiXiXiXiXiXiXiXiXiXiXiXiXiXiXiXiXiXiXiXiXiXiXiXiXiXiXiXiXiXiXiXiX  iXiXiXiXiXiXiXiXiXiXiXiXiXaX",
"pXiXiXiX  iXiXiXiXiXiXiX  iXiXQ.B 4 j n.  iXiX  i.c > K L.iX        iXiXiXiXiX  l.  -.iXiXiX&X6 =.  iXiX0X8.z 4 < L F.iXiXQ.B % j n.  iXiXiXQ.N 4 h $.iXiXiX  !.M > J J.iX        iX0X8.z @ < L F.iXiXiXaX",
"pXiXiXiX  iXiXiXiXiXiXiX  iXj.s m..XU.l   iXiX  A Z.+X2.D iX,X  ,X,XiXiXiXiXiX  iXY [ iXiXiXt.f wX  iXiXe.G D.,X'.7.Z iXj.s m.*XU.l   iXiXd.F A.$Xq.t %.iXiX@ F S.+X3.S iX,X  ,X,XiXe.G D.,X'.7.Z iXiXiXaX",
"pXiXiXiX  iXiXiXiXiXiXiX  iX( ;.iXiXiXs.  iXiX  K.iXiX3X; iXiX  iXiXiXiXiXiXiX  iXr.* }.iXiXY  .iX  iXiXU.P.iXiXiX9X+ iX( ;.iXiXiXs.  iXiX^ }.iXiXiXw.C iXiX  H.iXiX3X* iXiX  iXiXiXU.P.iXiXiX9X+ iXiXiXaX",
"pXiXiXiX  iXiXiXiXiXiXiX  iXt 6XiXiXiX5X  iXiX  wXiXiXiX  iXiX  iXiXiXiXiXiXiX  iX&X6 o.iXl.* {.iX  iXiXiXE.' ) Q y   iXt 6XiXiXiX5X  iXiX0 7 7 7 7 4   7XiX  wXiXiXiX  iXiX  iXiXiXiXE.' ) Q y   iXiXiXaX",
"pXiXiXiX  iXiXiXiXiXiXiX  iX0 1XiXiXiX5X  iXiX  iXiXiXiX  iXiX  iXiXiXiXiXiXiX  iXiX<.V iX5.{ iXiX  iXiX6.g ` x.C.oX  iX0 1XiXiXiX5X  iXiX6 `.].].].].].iXiX  iXiXiXiX  iXiX  iXiXiX6.g ` x.C.oX  iXiXiXaX",
"pXiXiXiX  iXiXiXiXiXiXiX  iX/ ;.iXiXiXg.  iXiX  iXiXiXiX  iXiX  iXiXiXiXiXiXiX  iXiXh.  $.6 >.iXiX  iXiX0 XXiXiXiX^.  iX/ ;.iXiXiXg.  iXiX! N.iXiXiXy._ iXiX  iXiXiXiX  iXiX  iXiXiXt XXiXiXiX^.  wXiXiXaX",
"pXiXiXiX  b.b.b.b.b.[.iX  iXj.d M.-XR.x   iXiX  iXiXiXiX  iXiX0 V.-XiXiXiXiXiX  iXiXiXU 8 V iXiXiX  iXiXY @..X#Xv.m 2 <Xf.d M.-XR.x   iXiXp.f B.*Xq.6 X.iXiX  iXiXiXiX  iXiX0 V.-XiXY @..X#Xv.m 2 <XiXiXaX",
"pXiXiXiX            } iX  iXiXi.n @ j &.; iXiX  iXiXiXiX  iXiX9.t *  XiXiXiXiX  iXiXiXr.  o.iXiXiX  iXiX/.W 2 9 I G.E ,.iXi.n % j *.; iXiXiXu.n @ u #.wXiXiX  iXiXiXiX  iXiX9.e >  X/.W 2 9 I G.E ,.iXiXaX",
"pXiXiXiXiXiXiXiXiXiXiXiXiXiX(.OXiXiXiX).V iXiXiXiXiXiXiXiXiXiXiXiXiXiXiXiXiXiXiXiXiXiXiXiXiXiXiXiXiXiXiXiXiXiXiXiXiXiXiX(.OXiXiXiX).V iXiXiXiXiXiXiXiXiXiXiXiXiXiXiXiXiXiXiXiXiXiXiXiXiXiXiXiXiXiXiXiXiXaX",
"pXiXiXiXiXiXiXiXiXiXiXiXiXiXa.H _.,X~.~ | iXiXiXiXiXiXiXiXiXiXiXiXiXiXiXiXiXiXiXiXiXiXiXiXiXiXiXiXiXiXiXiXiXiXiXiXiXiXiXa.H _.,X~.~ | iXiXiXiXiXiXiXiXiXiXiXiXiXiXiXiXiXiXiXiXiXiXiXiXiXiXiXiXiXiXiXiXiXaX",
"pXiXiXiXiXiXiXiXiXiXiXiXiXiXiX0.z   u +.7XiXiXiXiXiXiXiXiXiXiXiXiXiXiXiXiXiXiXiXiXiXiXiXiXiXiXiXiXiXiXiXiXiXiXiXiXiXiXiXtX0.z   u +.7XiXiXiXiXiXiXiXiXiXiXiXiXiXiXiXiXiXiXiXiXiXiXiXiXiXiXiXiXiXiXiXiXiXaX",
"pXiXiXiXiXiXiXiXiXiXiXiXiXiXiXiXiXiXiXiXiXiXiXiXiXiXiXiXiXiXiXiXiXiXiXiXiXiXiXiXiXiXiXiXiXiXiXiXiXiXiXiXiXiXiXiXiXiXiXiXiXiXiXiXiXiXiXiXiXiXiXiXiXiXiXiXiXiXiXiXiXiXiXiXiXiXiXiXiXiXiXiXiXiXiXiXiXiXiXiXaX",
"pXiXiXiXiXiXiXiXiXiXiXiXiXiXiXiXiXiXiXiXiXiXiXiXiXiXiXiXiXiXiXiXiXiXiXiXiXiXiXiXiXiXiXiXiXiXiXiXiXiXiXiXiXiXiXiXiXiXiXiXiXiXiXiXiXiXiXiXiXiXiXiXiXiXiXiXiXiXiXiXiXiXiXiXiXiXiXiXiXiXiXiXiXiXiXiXiXiXiXiXaX",
"pXiXiXiXiXiXiXiXiXiXiXiXiXiXiXiXiXiXiXiXiXiXiXiXiXiXiXiXiXiXiXiXiXiXiXiXiXiXiXiXiXiXiXiXiXiXiXiXiXiXiXiXiXiXiXiXiXiXiXiXiXiXiXiXiXiXiXiXiXiXiXiXiXiXiXiXiXiXiXiXiXiXiXiXiXiXiXiXiXiXiXiXiXiXiXiXiXiXiXiXaX",
"pXaXaXaXaXaXaXaXaXaXaXaXaXaXaXaXaXaXaXaXaXaXaXaXaXaXaXaXaXaXaXaXaXaXaXaXaXaXaXaXaXaXaXaXaXaXaXaXaXaXaXaXaXaXaXaXaXaXaXaXaXaXaXaXaXaXaXaXaXaXaXaXaXaXaXaXaXaXaXaXaXaXaXaXaXaXaXaXaXaXaXaXaXaXaXaXaXaXaXaXaX"
};
