/* XPM */
static char *color_lightcyan[] = {
/* columns rows colors chars-per-pixel */
"101 25 226 2",
"   c black",
".  c #000101",
"X  c #000102",
"o  c #000201",
"O  c #000302",
"+  c #000104",
"@  c #000204",
"#  c #000205",
"$  c #000207",
"%  c #000402",
"&  c #000503",
"*  c #000603",
"=  c #000406",
"-  c #00030C",
";  c #000408",
":  c #000508",
">  c #00060B",
",  c #00040E",
"<  c #00040F",
"1  c #000804",
"2  c #000904",
"3  c #000A05",
"4  c #000B05",
"5  c #000E07",
"6  c #00080D",
"7  c #00080E",
"8  c #00090E",
"9  c #000D08",
"0  c #00071A",
"q  c #000D15",
"w  c #00081E",
"e  c #001107",
"r  c #001009",
"t  c #001209",
"y  c #001309",
"u  c #00140B",
"i  c #00170B",
"p  c #001A0C",
"a  c #001710",
"s  c #001E13",
"d  c #000A28",
"f  c #000C32",
"g  c #000D34",
"h  c #001925",
"j  c #00192B",
"k  c #001033",
"l  c #001338",
"z  c #00200F",
"x  c #002310",
"c  c #002316",
"v  c #002611",
"b  c #002319",
"n  c #002619",
"m  c #002812",
"M  c #00281A",
"N  c #002A1D",
"B  c #003015",
"V  c #003716",
"C  c #002C21",
"Z  c #002434",
"A  c #00213B",
"S  c #003828",
"D  c #003D2E",
"F  c #003C35",
"G  c #001147",
"H  c #001554",
"J  c #001D6B",
"K  c #001E6F",
"L  c #002F5B",
"P  c #00364B",
"I  c #00354C",
"U  c #00384B",
"Y  c #003A4D",
"T  c #003C50",
"R  c #003D5D",
"E  c #003C5E",
"W  c #00286A",
"Q  c #00286C",
"!  c #002172",
"~  c #00207B",
"^  c #003364",
"/  c #003660",
"(  c #00431B",
")  c #00481D",
"_  c #004C1F",
"`  c #005123",
"'  c #005C25",
"]  c #005A33",
"[  c #006829",
"{  c #006031",
"}  c #00673E",
"|  c #006933",
" . c #006F3C",
".. c #007036",
"X. c #007138",
"o. c #007935",
"O. c #004754",
"+. c #005A55",
"@. c #004B61",
"#. c #004F7A",
"$. c #006E4B",
"%. c #007341",
"&. c #00756E",
"*. c #007C63",
"=. c #00737B",
"-. c #002B88",
";. c #003B9E",
":. c #007798",
">. c #0064C0",
",. c #0072C4",
"<. c #0078CC",
"1. c #007BCC",
"2. c #008365",
"3. c #008B71",
"4. c #009F7E",
"5. c #00B350",
"6. c #00B653",
"7. c #00BC67",
"8. c #00C562",
"9. c #00C46B",
"0. c #00C66D",
"q. c #00C37A",
"w. c #00C57B",
"e. c #00CF77",
"r. c #009E8F",
"t. c #00959B",
"y. c #0089A8",
"u. c #00A380",
"i. c #00A58E",
"p. c #00A58F",
"a. c #00A980",
"s. c #00A885",
"d. c #00AC91",
"f. c #00AE9C",
"g. c #00B58E",
"h. c #00B399",
"j. c #00B4B4",
"k. c #00B7B7",
"l. c #009DC1",
"z. c #009CD7",
"x. c #009DD6",
"c. c #00A6D2",
"v. c #00A3DB",
"b. c #00AEDF",
"n. c #00B3C5",
"m. c #00B5C7",
"M. c #00B7C5",
"N. c #00B8C1",
"B. c #00BAC7",
"V. c #00B0D3",
"C. c #00B3D6",
"Z. c #00DC84",
"A. c #00C7B6",
"S. c #00CBBD",
"D. c #00D4A9",
"F. c #00D3BB",
"G. c #00E09A",
"H. c #00E598",
"J. c #00E79D",
"K. c #00EBAA",
"L. c #00EEB9",
"P. c #00C6D2",
"I. c #00C8D3",
"U. c #00C9D6",
"Y. c #00CBDA",
"T. c #00CCD9",
"R. c #00D1C5",
"E. c #00D5CB",
"W. c #00D2DB",
"Q. c #00DFD7",
"!. c #00DFD9",
"~. c #00C0E5",
"^. c #00C5E9",
"/. c #00CCE9",
"(. c #00CDEA",
"). c #00CEEB",
"_. c #00D0EB",
"`. c #00D3EE",
"'. c #00DBEF",
"]. c #00D8F0",
"[. c #00D9F1",
"{. c #00DEF2",
"}. c #00EDC3",
"|. c #00F6DA",
" X c #00F8DF",
".X c #00E3E1",
"XX c #00E0E4",
"oX c #00E3E4",
"OX c #00E5E1",
"+X c #00E5E3",
"@X c #00E5E5",
"#X c #00E7E5",
"$X c #00E7E7",
"%X c #00E7F5",
"&X c #00E8F0",
"*X c #00E9F5",
"=X c #00EAF6",
"-X c #00EEF8",
";X c #00EFF8",
":X c #00F8E0",
">X c #00F8E2",
",X c #00F9E6",
"<X c #00FBEB",
"1X c #00FBEC",
"2X c #00FBEE",
"3X c #00F3FA",
"4X c #00F5FB",
"5X c #00F6FB",
"6X c #00F7FB",
"7X c #00F7FC",
"8X c #00FCF1",
"9X c #00FDF6",
"0X c #00FDF7",
"qX c #00F9FC",
"wX c #00F9FD",
"eX c #00FBFD",
"rX c #00FEF9",
"tX c #00FCFE",
"yX c #00FDFE",
"uX c #00FDFF",
"iX c #00FFFD",
"pX c #00FEFF",
"aX c #00FFFE",
"sX c cyan",
"dX c #8D8D8D",
"fX c #C0C0C0",
/* pixels */
"dXdXdXdXdXdXdXdXdXdXdXdXdXdXdXdXdXdXdXdXdXdXdXdXdXdXdXdXdXdXdXdXdXdXdXdXdXdXdXdXdXdXdXdXdXdXdXdXdXdXdXdXdXdXdXdXdXdXdXdXdXdXdXdXdXdXdXdXdXdXdXdXdXdXdXdXdXdXdXdXdXdXdXdXdXdXdXdXdXdXdXdXdXdXdXdXdXdXdXdXfX",
"dXsXsXsXsXsXsXsXsXsXsXsXsXsXsXsXsXsXsXsXsXsXsXsXsXsXsXsXsXsXsXsXsXsXsXsXsXsXsXsXsXsXsXsXsXsXsXsXsXsXsXsXsXsXsXsXsXsXsXsXsXsXsXsXsXsXsXsXsXsXsXsXsXsXsXsXsXsXsXsXsXsXsXsXsXsXsXsXsXsXsXsXsXsXsXsXsXsXsXsXfX",
"dXsXsXsXsXsXsXsXsXsXsXsXsXsXsXsXsXsXsXsXsXsXsXsXsXsXsXsXsXsXsXsXsXsXsXsXsXsXsXsXsXsXsXsXsXsXsXsXsXsXsXsXsXsXsXsXsXsXsXsXsXsXsXsXsXsXsXsXsXsXsXsXsXsXsXsXsXsXsXsXsXsXsXsXsXsXsXsXsXsXsXsXsXsXsXsXsXsXsXsXfX",
"dXsXsXsXsXsXsXsXsXsXsXsXsXsXsXsXsXsXsXsXsXsXsXsXsXsXsXsXsXsXsXsXsXsXsXsXsXsXsXsXsXsXsXsXsXsXsXsXsXsXsXsXsXsXsXsXsXsXsXsXsXsXsXsXsXsXsXsXsXsXsXsXsXsXsXsXsXsXsXsXsXsXsXsXsXsXsXsXsXsXsXsXsXsXsXsXsXsXsXsXfX",
"dXsXsXsXsXsXsXsXsXsXsXsXsXsXsXsXsXsXsXsXsXsXsXsXsXsXsXsXsXsXsXsXsXsXsXsXsXsXsXsXsXsXsXsXsXsXsXsXsXsXsXsXsXsXsXsXsXsXsXsXsXsXsXsXsXsXsXsXsXsXsXsXsXsXsXsXsXsXsXsXsXsXsXsXsXsXsXsXsXsXsXsXsXsXsXsXsXsXsXsXfX",
"dXsXsXsXsXsXsXsXsXsXsXsXsXsXsXsXsXsXsXsXsXsXsXsXsXsXsXsXsXsXsXsXsXsXsXsXsXsXsXsXsXsXsXsXsXsXsXsXsXsXsXsXsXsXsXsXsXsXsXsXsXsXsXsXsXsXsXsXsXsXsXsXsXsXsXsXsXsXsXsXsXsXsXsXsXsXsXsXsXsXsXsXsXsXsXsXsXsXsXsXfX",
"dXsXsXsXsXsXsXsXsXsXsXsXsXsXsXsXsXsXsXsXsXsXsXsXsXsXsXsXsXsXsXsXsXsXsXsXsXsXsXsXsXsXsXsXsXsXsXsXsXsXsXsXsXsXsXsXsXsXsXsXsXsXsXsXsXsXsXsXsXsXsXsXsXsXsXsXsXsXsXsXsXsXsXsXsXsXsXsXsXsXsXsXsXsXsXsXsXsXsXsXfX",
"dXsXsXsX  sXsXsXsXsXsXsX  sXsXsXsXsXsXsXsXsXsX  sXsXsXsXsXsXsXa.sXsXsXsXsXsXsXsXsXi.D r 8 U V.sXsXsXsXsXsXsXsXsXsXsXsXsXsXsXsXsXsXsXsXsXsXsXsXsXsXsXsXsXsXsXsXsXsXsXsXsXsXsXsXsXsXsXsXsXsXsXsXsXsXsXsXsXfX",
"dXsXsXsX  sXsXsXsXsXsXsX$XsXsXsXsXsXsXsXsXsXsX  sXsXsXsXsXsXsX  sXsXsXsXsXsXsXsX{ E B.oXR.}   z.sXsXsXsXsXsXsXsXsXsXsXsXsXsXsXsXsXsXsXsXsXsXsXsXsXsXsXsXsXsXsXsXsXsXsXsXsXsXsXsXsXsXsXsXsXsXsXsXsXsXsXsXfX",
"dXsXsXsX  sXsXsXsXsXsXsXsXsXsXsXsXsXsXsXsXsXsX  sXsXsXsXsXsXsX  sXsXsXsXsXsXsX7.W sXsXsXsXsX( w eXsXsXsXsXsXsXsXsXsXsXsXsXsXsXsXsXsXsXsXsXsXsXsXsXsXsXsXsXsXsXsXsXsXsXsXsXsXsXsXsXsXsXsXsXsXsXsXsXsXsXsXfX",
"dXsXsXsX  sXsXsXsXsXsXsX  sXsXs.N # Z c.  sXsX  4.c ; I {.sX        sXsXsXsXsXv ).sXsXsXsXsX}.Y.sX[ f sXsXsXsXr <.sX9X*.n   8 Y `.sXsX  g.M ; P [.sXsXsXsXsXsXsXsXsXsXsXsXsXsXsXsXsXsXsXsXsXsXsXsXsXsXsXfX",
"dXsXsXsX  sXsXsXsXsXsXsX  sXw.k n..Xd.5   sXsX  L P.Q...! sX$X  $X$XsXsXsXsXsX4 4XsXsXsXsXsXsXsXsXK.  ).sXsXZ.  ;XsXo.^ I.$XE.%.H sXsX  / I.!.X.J sXsXsXsXsXsXsXsXsXsXsXsXsXsXsXsXsXsXsXsXsXsXsXsXsXsXsXfX",
"dXsXsXsX  sXsXsXsXsXsXsX  sXx ).sXsXsX0.  sXsX  =XsXsX>X, sXsX  sXsXsXsXsXsXsX  sXsXsXsXsXsXsXsXsXsXx ;.sXsX_ -.sXsXr.-XsXsXsX8X# sXsX  =XsXsX>X- sXsXsXsXsXsXsXsXsXsXsXsXsXsXsXsXsXsXsXsXsXsXsXsXsXsXsXfX",
"dXsXsXsX  sXsXsXsXsXsXsX  sX  sXsXsXsX2X  sXsX  sXsXsXsX  sXsX  sXsXsXsXsXsXsX4 4XsXsXsXsXsXsXsXsXsX6., 4X,X& ~.sXsXsXf.&.+.F u   sXsX  sXsXsXsX  sXsXsXsXsXsXsXsXsXsXsXsXsXsXsXsXsXsXsXsXsXsXsXsXsXsXsXfX",
"dXsXsXsX  sXsXsXsXsXsXsX  sX& sXsXsXsX2X  sXsX  sXsXsXsX  sXsX  sXsXsXsXsXsXsXB ).sXsXsXsXsXH.O.%XsX<X* v.5.d sXsXsX| A =.t.N.&X  sXsX  sXsXsXsX  sXsXsXsXsXsXsXsXsXsXsXsXsXsXsXsXsXsXsXsXsXsXsXsXsXsXsXfX",
"dXsXsXsX  sXsXsXsXsXsXsX  sXp ).sXsXsXe.  sXsX  sXsXsXsX  sXsX  sXsXsXsXsXsXsX9.W eXsXsXsXsX) 0 6XsXsX' ~ v >.sXsXsX& 4XsXsXsXG.  sXsX  sXsXsXsX  sXsXsXsXsXsXsXsXsXsXsXsXsXsXsXsXsXsXsXsXsXsXsXsXsXsXsXfX",
"dXsXsXsX  k.k.k.k.k.[.sX  sXq.l m.$Xh.e   sXsX  sXsXsXsX  sXsX& T.OXsXsXsXsXsXsX` E M.$XS.]   z.sXsXsXJ.#   =XsXsXsXr y.oX!.i.a   sXsX  sXsXsXsX  sXsXsXsXsXsXsXsXsXsXsXsXsXsXsXsXsXsXsXsXsXsXsXsXsXsXsXfX",
"dXsXsXsX            <.sX  sXsXu.n   Z l., sXsX  sXsXsXsX  sXsX$.4 8 ;XsXsXsXsXsXrX3.N & 8 Y V.sXsXsXsXsXp K sXsXsXsXD.S & q @.).u '.sX  sXsXsXsX  sXsXsXsXsXsXsXsXsXsXsXsXsXsXsXsXsXsXsXsXsXsXsXsXsXsXsXfX",
"dXsXsXsXsXsXsXsXsXsXsXsXsXsXF.6XsXsXsXL.G sXsXsXsXsXsXsXsXsXsXsXsXsXsXsXsXsXsXsXsXsXsXsXsXsXsXsXsXsXsX9X5 b.sXsXsXsXsXsXsXsXsXsXsXsXsXsXsXsXsXsXsXsXsXsXsXsXsXsXsXsXsXsXsXsXsXsXsXsXsXsXsXsXsXsXsXsXsXsXfX",
"dXsXsXsXsXsXsXsXsXsXsXsXsXsX8.#.W.$XA.V ,.sXsXsXsXsXsXsXsXsXsXsXsXsXsXsXsXsXsXsXsXsXsXsXsXsXsXsXsX Xj. .g eXsXsXsXsXsXsXsXsXsXsXsXsXsXsXsXsXsXsXsXsXsXsXsXsXsXsXsXsXsXsXsXsXsXsXsXsXsXsXsXsXsXsXsXsXsXsXfX",
"dXsXsXsXsXsXsXsXsXsXsXsXsXsXsX2.s   h :.sXsXsXsXsXsXsXsXsXsXsXsXsXsXsXsXsXsXsXsXsXsXsXsXsXsXsXsXsX|.4 j ^.sXsXsXsXsXsXsXsXsXsXsXsXsXsXsXsXsXsXsXsXsXsXsXsXsXsXsXsXsXsXsXsXsXsXsXsXsXsXsXsXsXsXsXsXsXsXsXfX",
"dXsXsXsXsXsXsXsXsXsXsXsXsXsXsXsXsXsXsXsXsXsXsXsXsXsXsXsXsXsXsXsXsXsXsXsXsXsXsXsXsXsXsXsXsXsXsXsXsXsXsXsXsXsXsXsXsXsXsXsXsXsXsXsXsXsXsXsXsXsXsXsXsXsXsXsXsXsXsXsXsXsXsXsXsXsXsXsXsXsXsXsXsXsXsXsXsXsXsXsXfX",
"dXsXsXsXsXsXsXsXsXsXsXsXsXsXsXsXsXsXsXsXsXsXsXsXsXsXsXsXsXsXsXsXsXsXsXsXsXsXsXsXsXsXsXsXsXsXsXsXsXsXsXsXsXsXsXsXsXsXsXsXsXsXsXsXsXsXsXsXsXsXsXsXsXsXsXsXsXsXsXsXsXsXsXsXsXsXsXsXsXsXsXsXsXsXsXsXsXsXsXsXfX",
"dXsXsXsXsXsXsXsXsXsXsXsXsXsXsXsXsXsXsXsXsXsXsXsXsXsXsXsXsXsXsXsXsXsXsXsXsXsXsXsXsXsXsXsXsXsXsXsXsXsXsXsXsXsXsXsXsXsXsXsXsXsXsXsXsXsXsXsXsXsXsXsXsXsXsXsXsXsXsXsXsXsXsXsXsXsXsXsXsXsXsXsXsXsXsXsXsXsXsXsXfX",
"dXfXfXfXfXfXfXfXfXfXfXfXfXfXfXfXfXfXfXfXfXfXfXfXfXfXfXfXfXfXfXfXfXfXfXfXfXfXfXfXfXfXfXfXfXfXfXfXfXfXfXfXfXfXfXfXfXfXfXfXfXfXfXfXfXfXfXfXfXfXfXfXfXfXfXfXfXfXfXfXfXfXfXfXfXfXfXfXfXfXfXfXfXfXfXfXfXfXfXfXfX"
};
