/* XPM */
static char *lightblue[] = {
/* columns rows colors chars-per-pixel */
"127 27 182 2",
"   c blue",
".  c #0100FF",
"X  c #0103FF",
"o  c #0300FF",
"O  c #0104FF",
"+  c #0204FF",
"@  c #0205FF",
"#  c #0306FF",
"$  c #0307FF",
"%  c #0501FF",
"&  c #0407FF",
"*  c #040BFF",
"=  c #050BFF",
"-  c #060DFF",
";  c #060EFF",
":  c #070FFF",
">  c #0B02FF",
",  c #0904FF",
"<  c #0D03FF",
"1  c #0F03FF",
"2  c #0E06FF",
"3  c #0710FF",
"4  c #0A17FF",
"5  c #0B18FF",
"6  c #0B1BFF",
"7  c #1004FF",
"8  c #1D07FF",
"9  c #1C1CFF",
"0  c #1C1EFF",
"q  c #1E1FFF",
"w  c #112BFF",
"e  c #112DFF",
"r  c #1E21FF",
"t  c #1730FF",
"y  c #1932FF",
"u  c #183EFF",
"i  c #2108FF",
"p  c #2E0BFF",
"a  c #241FFF",
"s  c #3C0EFF",
"d  c #3412FF",
"f  c #381FFF",
"g  c #3F1CFF",
"h  c #2022FF",
"j  c #2721FF",
"k  c #2823FF",
"l  c #2A24FF",
"z  c #2D24FF",
"x  c #2E29FF",
"c  c #2C34FF",
"v  c #3227FF",
"b  c #3622FF",
"n  c #3028FF",
"m  c #3546FF",
"M  c #2F7AFF",
"N  c #4312FF",
"B  c #5715FF",
"V  c #5815FF",
"C  c #5C16FF",
"Z  c #422EFF",
"A  c #423DFF",
"S  c #572AFF",
"D  c #5A29FF",
"F  c #5837FF",
"G  c #6725FF",
"H  c #7831FF",
"J  c #7F39FF",
"K  c #4848FF",
"L  c #5B56FF",
"P  c #4B6CFF",
"I  c #4D73FF",
"U  c #4F7CFF",
"Y  c #5372FF",
"T  c #6646FF",
"R  c #6F4DFF",
"E  c #3588FF",
"W  c #3C87FF",
"Q  c #5680FF",
"!  c #5D84FF",
"~  c #41A1FF",
"^  c #45A0FF",
"/  c #46A7FF",
"(  c #638DFF",
")  c #669BFF",
"_  c #7592FF",
"`  c #7894FF",
"'  c #7D9BFF",
"]  c #9D7BFF",
"[  c #A547FF",
"{  c #A157FF",
"}  c #BE7CFF",
"|  c #C86FFF",
" . c #8D8D8D",
".. c #9A81FF",
"X. c #85AFFF",
"o. c #87BFFF",
"O. c #96B1FF",
"+. c #A48BFF",
"@. c #A3BBFF",
"#. c #BDAAFF",
"$. c #BEA8FF",
"%. c #8DC3FF",
"&. c #9CE7FF",
"*. c #9EE7FF",
"=. c #ADC3FF",
"-. c #A8D8FF",
";. c #B1C7FF",
":. c #B3D7FF",
">. c #ABEAFF",
",. c #B1E0FF",
"<. c #B2ECFF",
"1. c #B4EDFF",
"2. c #BFECFF",
"3. c #CF8EFF",
"4. c #C990FF",
"5. c #D099FF",
"6. c #D99FFF",
"7. c #C6B8FF",
"8. c #CBBCFF",
"9. c #D1A5FF",
"0. c #E1B4FF",
"q. c #E2B5FF",
"w. c #E3B9FF",
"e. c #E4BAFF",
"r. c #E5BEFF",
"t. c #C0C0C0",
"y. c #C1CEFF",
"u. c #CCDDFF",
"i. c #D4C7FF",
"p. c #C0EFFF",
"a. c #D5E2FF",
"s. c #D8E5FF",
"d. c #D6F5FF",
"f. c #DAF6FF",
"g. c #DEF7FF",
"h. c #E5C2FF",
"j. c #E2D2FF",
"k. c #E3D5FF",
"l. c #E6DBFF",
"z. c #E6DDFF",
"x. c #EBD2FF",
"c. c #ECD4FF",
"v. c #EDD6FF",
"b. c #E6EEFF",
"n. c #EEE7FF",
"m. c #EAFAFF",
"M. c #EFFBFF",
"N. c #F2E3FF",
"B. c #F3E5FF",
"V. c #F2EEFF",
"C. c #F4EDFF",
"Z. c #F6ECFF",
"A. c #F7EFFF",
"S. c #F0F5FF",
"D. c #F1F7FF",
"F. c #F5F0FF",
"G. c #F5F1FF",
"H. c #F0FBFF",
"J. c #F1FBFF",
"K. c #F3F8FF",
"L. c #F2FCFF",
"P. c #F3FCFF",
"I. c #F5FAFF",
"U. c #F8F0FF",
"Y. c #F8F1FF",
"T. c #F9F3FF",
"R. c #F9F4FF",
"E. c #FAF4FF",
"W. c #FAF5FF",
"Q. c #FBF6FF",
"!. c #F8FBFF",
"~. c #FAFAFF",
"^. c #FCFBFF",
"/. c #FDFAFF",
"(. c #FDFBFF",
"). c #FCFCFF",
"_. c #FCFDFF",
"`. c #FDFCFF",
"'. c #FDFEFF",
"]. c #FEFDFF",
"[. c #FEFEFF",
"{. c gray100",
/* pixels */
" . . . . . . . . . . . . . . . . . . . . . . . . . . . . . . . . . . . . . . . . . . . . . . . . . . . . . . . . . . . . . . . . . . . . . . . . . . . . . . . . . . . . . . . . . . . . . . . . . . . . . . . . . . . . . . . . . . . . . . . . . . . . . .t.",
" .                                                                                                                                                                                                                                                          t.",
" .                                                                                                                                                                                                                                                          t.",
" .                                                                                                                                                                                                                                                          t.",
" .                                                                                                                                                                                                                                                          t.",
" .                                                                                                                                                                                                                                                          t.",
" .      {.{.{.                {.{.{.                          {.{.{.                    y               {.{.{.{.{.{.C.i.R         {.{.{.                                                                                                                    t.",
" .      {.{.{.                {.{.{.                          {.{.{.                e O.{.              {.{.{.{.{.{.{.{.{.J       {.{.{.                                                                                                                    t.",
" .      {.{.{.                9 9 9                           {.{.{.                {.{.{.              {.{.{.9 9 r ! {.{.N.      {.{.{.                                                                                                                    t.",
" .      {.{.{.                                                {.{.{.                {.{.{.              {.{.{.      O {.{.{.      {.{.{.                                                                                                                    t.",
" .      {.{.{.                {.{.{.      w =.K.k.D {.{.{.    {.{.{.5 @.S.n.+.1   {.{.{.{.{.            {.{.{.      O {.{.T.      {.{.{.    {.{.{.      {.{.{.      O _ s.~.z...7                                                                           t.",
" .      {.{.{.                {.{.{.    3 g.{.{.{.Z.{.{.{.    {.{.{.2.{.{.{.{.3.  {.{.{.{.{.            {.{.{.    & U {.{.6.      {.{.{.    {.{.{.      {.{.{.    O -.{.{.{.{.{.r.                                                                          t.",
" .      {.{.{.                {.{.{.    / {.{.0.n o.{.{.{.    {.{.{.e.v I {.{.Z.  9 {.{.{.9             {.{.{.{.{.{.{.{.h.8       {.{.{.    {.{.{.      {.{.{.    M {.{.4.l ( {.{.[                                                                         t.",
" .      {.{.{.                {.{.{.    <.{.{.B   4 {.{.{.    {.{.{.C   O {.{.{.    {.{.{.              {.{.{.{.{.{.{.{.Q.]       {.{.{.    {.{.{.      {.{.{.    *.{.{.b 9 r {.{.v.                                                                        t.",
" .      {.{.{.                {.{.{.    M.{.{.>   O {.{.{.    {.{.{.1     {.{.{.    {.{.{.              {.{.{.9 9 9 c X.{.{.}     {.{.{.    {.{.{.      {.{.{.    m.{.{.{.{.{.{.{.T.                                                                        t.",
" .      {.{.{.                {.{.{.    L.{.{.>     {.{.{.    {.{.{.      {.{.{.    {.{.{.              {.{.{.        = {.{.T.    {.{.{.    {.{.{.%     {.{.{.    L.{.{.{.{.{.{.{.(.                                                                        t.",
" .      {.{.{.                {.{.{.    1.{.{.V   5 {.{.{.    {.{.{.      {.{.{.    {.{.{.              {.{.{.        ; {.{.(.    {.{.{.    P.{.{.8   ; {.{.{.    >.{.{.i     j ,                                                                           t.",
" .      {.{.{.K K K K K K f   {.{.{.    ~ {.{.0.z %.{.{.{.    {.{.{.      {.{.{.    M.{.{.Z             {.{.{.9 9 9 m :.{.{.v.    {.{.{.    p.{.{.{ O ) {.{.{.    E {.{.5.z Q {.{.9.                                                                        t.",
" .      {.{.{.{.{.{.{.{.{.|   {.{.{.    ; f.{.{.{.T.{.{.{.    {.{.{.      {.{.{.    &.{.{.{.p           {.{.{.{.{.{.{.{.{.(.G     {.{.{.    ^ {.{.{.{.B.{.{.{.    O ,.{.{.{.{.{.T.N                                                                         t.",
" .      {.{.{.{.{.{.{.{.{.|   {.{.{.      e ;.I.j.S {.{.(.    {.{.{.      {.{.{.    u u.{.l.s           {.{.{.{.{.{.{.V.7.F       {.{.{.    O ' b.T.#.d {.{.{.      = ` a.I.Z.#.g                                                                           t.",
" .                                      L A k 2   O {.{.T.                                                                                                                                                                                                  t.",
" .                                      d.{.{.w.a P {.{.x.                                                                                                                                                                                                  t.",
" .                                      W {.{.{.{.{.{.{.H                                                                                                                                                                                                   t.",
" .                                        Y y.S.{.C.8.T                                                                                                                                                                                                     t.",
" .                                                                                                                                                                                                                                                          t.",
" .                                                                                                                                                                                                                                                          t.",
" .t.t.t.t.t.t.t.t.t.t.t.t.t.t.t.t.t.t.t.t.t.t.t.t.t.t.t.t.t.t.t.t.t.t.t.t.t.t.t.t.t.t.t.t.t.t.t.t.t.t.t.t.t.t.t.t.t.t.t.t.t.t.t.t.t.t.t.t.t.t.t.t.t.t.t.t.t.t.t.t.t.t.t.t.t.t.t.t.t.t.t.t.t.t.t.t.t.t.t.t.t.t.t.t.t.t.t.t.t.t.t.t.t.t.t.t.t.t.t.t.t.t.t.t.t.t."
};
