/* XPM */
static char *magenta[] = {
/* columns rows colors chars-per-pixel */
"127 27 210 2",
"   c #800080",
".  c #800081",
"X  c #810080",
"o  c #800182",
"O  c #820180",
"+  c #800284",
"@  c #800386",
"#  c #850280",
"$  c #870380",
"%  c #840480",
"&  c #870681",
"*  c #800488",
"=  c #81058A",
"-  c #81068D",
";  c #81078E",
":  c #81078F",
">  c #880480",
",  c #8B0581",
"<  c #8E0781",
"1  c #820993",
"2  c #820B92",
"3  c #830E99",
"4  c #830E9D",
"5  c #8E1C8E",
"6  c #84169D",
"7  c #900881",
"8  c #970B82",
"9  c #910D8D",
"0  c #9E0E83",
"q  c #9F1C85",
"w  c #921F90",
"e  c #8310A0",
"r  c #8411A4",
"t  c #8414A6",
"y  c #8517B0",
"u  c #8518B2",
"i  c #8E2596",
"p  c #88279E",
"a  c #8F219A",
"s  c #93218D",
"d  c #94238F",
"f  c #9B228F",
"g  c #962491",
"h  c #952494",
"j  c #972999",
"k  c #992791",
"l  c #982899",
"z  c #8C2DA3",
"x  c #882BA8",
"c  c #882DAA",
"v  c #8B30A5",
"b  c #8C32A6",
"n  c #8C3BB0",
"m  c #8C3EB8",
"M  c #953EB7",
"N  c #A11284",
"B  c #A51284",
"V  c #A71384",
"C  c #AB1584",
"Z  c #AC1584",
"A  c #AE1685",
"S  c #AB2A88",
"D  c #AD2988",
"F  c #A12E9E",
"G  c #A13D9C",
"H  c #BC318A",
"J  c #8720C2",
"K  c #8D3ED8",
"L  c #B34691",
"P  c #BF4698",
"I  c #B2519E",
"U  c #AD56A8",
"Y  c #904EDD",
"T  c #9158C8",
"R  c #956DE3",
"E  c #9570E4",
"W  c #977AE4",
"Q  c #A56CD5",
"!  c #A972C5",
"~  c #A87CDE",
"^  c #AA7FE0",
"/  c #C11F87",
"(  c #CA529B",
")  c #D2478E",
"_  c #DA438E",
"`  c #DC498F",
"'  c #DB5190",
"]  c #C96C9E",
"[  c #E36B94",
"{  c #E47196",
"}  c #D047CA",
"|  c #8D8D8D",
" . c #9987E1",
".. c #9E87E2",
"X. c #9987E8",
"o. c #9A88E7",
"O. c #BB88CC",
"+. c #BA92D4",
"@. c #BC94D3",
"#. c #AB80E1",
"$. c #B18DE3",
"%. c #A0A1EC",
"&. c #A3A7ED",
"*. c #A0A9EE",
"=. c #A3B7F0",
"-. c #AECEF4",
";. c #B7C8F4",
":. c #B0D1F5",
">. c #CD81B1",
",. c #D591B9",
"<. c #EC9FA4",
"1. c #E490B3",
"2. c #E899B7",
"3. c #E8A5A5",
"4. c #EFB1A2",
"5. c #EFB3A2",
"6. c #F0B4BE",
"7. c #F1B5BF",
"8. c #F2BEB2",
"9. c #F1B9B9",
"0. c #D89BC0",
"q. c #DEAACA",
"w. c #CBB1E5",
"e. c #CFBBE8",
"r. c #C3BFF3",
"t. c #D0B9E7",
"y. c #E5BCD5",
"u. c #F2BEC3",
"i. c #F2BDC5",
"p. c #F0BCD1",
"a. c #F4CDAD",
"s. c #F5D2B1",
"d. c #F5D2B6",
"f. c #F6D4B4",
"g. c #F8DEBC",
"h. c #C0C0C0",
"j. c #C6C3F3",
"k. c #D7C1E8",
"l. c #D6C3EB",
"z. c #D8C7ED",
"x. c #D4D8F7",
"c. c #C0E0F8",
"v. c #CCE6F9",
"b. c #CEE7FA",
"n. c #CFE7FA",
"m. c #D4E3F9",
"M. c #D1E9FA",
"N. c #D5EAFA",
"B. c #D8E0F9",
"V. c #D9ECFB",
"C. c #DAEDFB",
"Z. c #F1D2DD",
"A. c #F1D5DF",
"S. c #E0CEEC",
"D. c #E2D3F1",
"F. c #E6DDF5",
"G. c #F3DBE6",
"H. c #F3DDE7",
"J. c #F9DDF9",
"K. c #FAE7CF",
"L. c #FAE9D1",
"P. c #FBECDB",
"I. c #EAE2F4",
"U. c #ECE5F6",
"Y. c #E2F1FC",
"T. c #E3F1FC",
"R. c #E9F4FD",
"E. c #EBF5FD",
"W. c #EDF6FD",
"Q. c #EFF7FD",
"!. c #F7E5EB",
"~. c #F6E6EE",
"^. c #F8EAEF",
"/. c #FAEDF2",
"(. c #FCF0E1",
"). c #FCF0E2",
"_. c #FCF1E3",
"`. c #FCF2E6",
"'. c #FCF3E7",
"]. c #FDF4EA",
"[. c #FDF5EC",
"{. c #FDF6ED",
"}. c #F7F4FB",
"|. c #F7F6FD",
" X c #F5FAFE",
".X c #F6FAFE",
"XX c #F7FBFE",
"oX c #FAF0F5",
"OX c #F8F5FC",
"+X c #FEF8F2",
"@X c #F9F8FC",
"#X c #F8FBFE",
"$X c #FAF9FD",
"%X c #FAFAFC",
"&X c #F9FCFE",
"*X c #FBFCFE",
"=X c #FBFDFF",
"-X c #FDFAFB",
";X c #FEFBF8",
":X c #FCFBFE",
">X c #FEFBFD",
",X c #FFFDFB",
"<X c #FDFDFF",
"1X c #FEFCFD",
"2X c #FFFDFC",
"3X c #FFFEFD",
"4X c #FEFEFF",
"5X c #FFFEFE",
"6X c #FFFEFF",
"7X c gray100",
/* pixels */
"| | | | | | | | | | | | | | | | | | | | | | | | | | | | | | | | | | | | | | | | | | | | | | | | | | | | | | | | | | | | | | | | | | | | | | | | | | | | | | | | | | | | | | | | | | | | | | | | | | | | | | | | | | | | | | | | | | | | | | | | | | | | | | h.",
"|                                                                                                                                                                                                                                                           h.",
"|                                                                                                                                                                                                                                                           h.",
"|                                                                                                                                                                                                                                                           h.",
"|                                                                                                                                                                                                                                                           h.",
"|                                                                                                                                                                                                                                                           h.",
"|       7X7X7X7X{       E 7X7X7X7X                                                                                              v                                                                                                                           h.",
"|       7X7X7X7Xs.      :.7X7X7X7X                                                                                          v w.7X                                                                                                                          h.",
"|       7X7X7X7X].      R.7X7X7X7X                                                                                          7X7X7X                                                                                                                          h.",
"|       7X7X7XY.7XV   r 7X).7X7X7X                                                                                          7X7X7X                                                                                                                          h.",
"|       7X7X7X-.7X_   K 7Xa.7X7X7X      n k.}.:X~.0.7       x l.$XA.D 7X7X7X      - +.U.-XH.>.$       7X7X7X6 t.|.^.,.$   7X7X7X7X7X    n k.}.:X~.,.<                                                                                                       h.",
"|       7X7X7XR 7X4.  *.7X[ 7X7X7X    t .X7X7X7X7X7X8.    e W.7X7X7XP.7X7X7X    = x.7X7X7X7X7Xu.      7X7X7Xm.7X7X7X7X<.  7X7X7X7X7X  t .X7X7X7X7X7X8.                                                                                                      h.",
"|       7X7X7XJ 7XL.  v.7X/ 7X7X7X     .7X7X( M 7X7X{.    &.7X7X6.j r.7X7X7X    W 7X7X1.h $.7X7X)     7X7X7Xi.g ^ 7X7X`.  5 7X7X7X5    .7X7X( M 7X7X{.                                                                                                      h.",
"|       7X7X7X= 7X7X9 *X7X, 7X7X7X        i   z 7X7X7X    C.7X7XC   y 7X7X7X    n.7X7Xf 5 a 7X7Xf.    7X7X7XC   1 7X7X,X    7X7X7X        i   z 7X7X7X                                                                                                      h.",
"|       7X7X7X  n.7X} 7XK.  7X7X7X      p O.D.7X7X7X7X    .X7X7X#   @ 7X7X7X    .X7X7X7X7X7X7X7X).    7X7X7X$     7X7X7X    7X7X7X      p O.D.7X7X7X7X                                                                                                      h.",
"|       7X7X7X  =.7XJ.7X4.  7X7X7X    T *X7Xp.I 7X7X7X    *X7X7X#   @ 7X7X7X    *X7X7X7X7X7X7X7X,X    7X7X7X      7X7X7X    7X7X7X    T *X7Xp.I 7X7X7X                                                                                                      h.",
"|       7X7X7X  Y 7X7X7X`   7X7X7X    Y.7X7X< - 7X7X7X    C.7X7XZ   u 7X7X7X    N.7X7X7   @ s         7X7X7X      7X7X7X    7X7X7X    T.7X7X< = 7X7X7X                                                                                                      h.",
"|       7X7X7X  u 7X7X7XA   7X7X7X    .X7X7XP ~ 7X7X7X>   %.7X7X6.j j.7X7X7X    o.7X7X2.d #.7X7X3.    7X7X7X      7X7X7X    $X7X7XF   .X7X7XP ~ 7X7X7X,                                                                                                     h.",
"|       7X7X7X     X7X+X    7X7X7X    ;.7X7X7X7XR.7X7XV   4 W.7X7X7X).7X7X7X    - x.7X7X7X7X7X[.N     7X7X7X      7X7X7X    n.7X7X7X8 ;.7X7X7X7XR.7X7XB                                                                                                     h.",
"|       7X7X7X    c.7Xg.    7X7X7X    3 e.$X!.] X.7X7X'     c z.%XZ.S 7X7X-X      2 +.I.7X/.q.q       7X7X7X      7X7X7X    m F.7XG.0 3 e.$X!.] o.7X7X'                                                                                                     h.",
"|                                                         U G d &   @ 7X7X'.                                                                                                                                                                                h.",
"|                                                         R.7X7X9.w Q 7X7Xf.                                                                                                                                                                                h.",
"|                                                         ..7X7X7X7X7X7X7XH                                                                                                                                                                                 h.",
"|                                                           ! S.}.7XoXy.L                                                                                                                                                                                   h.",
"|                                                                                                                                                                                                                                                           h.",
"|                                                                                                                                                                                                                                                           h.",
"| h.h.h.h.h.h.h.h.h.h.h.h.h.h.h.h.h.h.h.h.h.h.h.h.h.h.h.h.h.h.h.h.h.h.h.h.h.h.h.h.h.h.h.h.h.h.h.h.h.h.h.h.h.h.h.h.h.h.h.h.h.h.h.h.h.h.h.h.h.h.h.h.h.h.h.h.h.h.h.h.h.h.h.h.h.h.h.h.h.h.h.h.h.h.h.h.h.h.h.h.h.h.h.h.h.h.h.h.h.h.h.h.h.h.h.h.h.h.h.h.h.h.h.h.h.h."
};
