/* XPM */
static char *bold_color_lightred[] = {
/* columns rows colors chars-per-pixel */
"127 27 137 2",
"   c black",
".  c #010000",
"X  c #020000",
"o  c #030000",
"O  c #040000",
"+  c #050000",
"@  c #060000",
"#  c #070000",
"$  c #080000",
"%  c #090000",
"&  c #0A0000",
"*  c #0B0000",
"=  c #0C0000",
"-  c #0D0000",
";  c #0E0000",
":  c #0F0000",
">  c #100000",
",  c #110000",
"<  c #130000",
"1  c #140000",
"2  c #150000",
"3  c #170000",
"4  c #190000",
"5  c #1A0000",
"6  c #1B0000",
"7  c #1C0000",
"8  c #1D0000",
"9  c #1E0000",
"0  c #200000",
"q  c #210000",
"w  c #250000",
"e  c #270000",
"r  c #290000",
"t  c #2A0000",
"y  c #2D0000",
"u  c #2E0000",
"i  c #2F0000",
"p  c #300000",
"a  c #330000",
"s  c #340000",
"d  c #360000",
"f  c #370000",
"g  c #3C0000",
"h  c #3E0000",
"j  c #400000",
"k  c #420000",
"l  c #440000",
"z  c #4A0000",
"x  c #4B0000",
"c  c #4C0000",
"v  c #4D0000",
"b  c #4E0000",
"n  c #520000",
"m  c #540000",
"M  c #560000",
"N  c #570000",
"B  c #5A0000",
"V  c #5B0000",
"C  c #5C0000",
"Z  c #610000",
"A  c #630000",
"S  c #650000",
"D  c #690000",
"F  c #6E0000",
"G  c #720000",
"H  c #780000",
"J  c #7D0000",
"K  c #7E0000",
"L  c #870000",
"P  c #880000",
"I  c #8A0000",
"U  c #8D0000",
"Y  c #8E0000",
"T  c #960000",
"R  c #990000",
"E  c #9C0000",
"W  c #A00000",
"Q  c #A10000",
"!  c #A30000",
"~  c #A40000",
"^  c #A50000",
"/  c #A60000",
"(  c #A70000",
")  c #A80000",
"_  c #A90000",
"`  c #AB0000",
"'  c #AC0000",
"]  c #B10000",
"[  c #B20000",
"{  c #B40000",
"}  c #B70000",
"|  c #B90000",
" . c #BA0000",
".. c #BC0000",
"X. c #BD0000",
"o. c #BE0000",
"O. c #C00000",
"+. c #C30000",
"@. c #C70000",
"#. c #C90000",
"$. c #CA0000",
"%. c #CD0000",
"&. c #CF0000",
"*. c #D00000",
"=. c #D10000",
"-. c #D20000",
";. c #D30000",
":. c #D50000",
">. c #D70000",
",. c #D80000",
"<. c #DB0000",
"1. c #DE0000",
"2. c #E10000",
"3. c #E20000",
"4. c #E30000",
"5. c #E60000",
"6. c #E70000",
"7. c #E80000",
"8. c #EB0000",
"9. c #ED0000",
"0. c #EE0000",
"q. c #EF0000",
"w. c #F00000",
"e. c #F10000",
"r. c #F20000",
"t. c #F40000",
"y. c #F50000",
"u. c #F60000",
"i. c #F80000",
"p. c #F90000",
"a. c #FB0000",
"s. c #FC0000",
"d. c #FD0000",
"f. c #FE0000",
"g. c red",
"h. c #8D8D8D",
"j. c #C0C0C0",
/* pixels */
"h.h.h.h.h.h.h.h.h.h.h.h.h.h.h.h.h.h.h.h.h.h.h.h.h.h.h.h.h.h.h.h.h.h.h.h.h.h.h.h.h.h.h.h.h.h.h.h.h.h.h.h.h.h.h.h.h.h.h.h.h.h.h.h.h.h.h.h.h.h.h.h.h.h.h.h.h.h.h.h.h.h.h.h.h.h.h.h.h.h.h.h.h.h.h.h.h.h.h.h.h.h.h.h.h.h.h.h.h.h.h.h.h.h.h.h.h.h.h.h.h.h.h.h.h.h.j.",
"h.g.g.g.g.g.g.g.g.g.g.g.g.g.g.g.g.g.g.g.g.g.g.g.g.g.g.g.g.g.g.g.g.g.g.g.g.g.g.g.g.g.g.g.g.g.g.g.g.g.g.g.g.g.g.g.g.g.g.g.g.g.g.g.g.g.g.g.g.g.g.g.g.g.g.g.g.g.g.g.g.g.g.g.g.g.g.g.g.g.g.g.g.g.g.g.g.g.g.g.g.g.g.g.g.g.g.g.g.g.g.g.g.g.g.g.g.g.g.g.g.g.g.g.g.g.j.",
"h.g.g.g.g.g.g.g.g.g.g.g.g.g.g.g.g.g.g.g.g.g.g.g.g.g.g.g.g.g.g.g.g.g.g.g.g.g.g.g.g.g.g.g.g.g.g.g.g.g.g.g.g.g.g.g.g.g.g.g.g.g.g.g.g.g.g.g.g.g.g.g.g.g.g.g.g.g.g.g.g.g.g.g.g.g.g.g.g.g.g.g.g.g.g.g.g.g.g.g.g.g.g.g.g.g.g.g.g.g.g.g.g.g.g.g.g.g.g.g.g.g.g.g.g.g.j.",
"h.g.g.g.g.g.g.g.g.g.g.g.g.g.g.g.g.g.g.g.g.g.g.g.g.g.g.g.g.g.g.g.g.g.g.g.g.g.g.g.g.g.g.g.g.g.g.g.g.g.g.g.g.g.g.g.g.g.g.g.g.g.g.g.g.g.g.g.g.g.g.g.g.g.g.g.g.g.g.g.g.g.g.g.g.g.g.g.g.g.g.g.g.g.g.g.g.g.g.g.g.g.g.g.g.g.g.g.g.g.g.g.g.g.g.g.g.g.g.g.g.g.g.g.g.g.j.",
"h.g.g.g.g.g.g.g.g.g.g.g.g.g.g.g.g.g.g.g.g.g.g.g.g.g.g.g.g.g.g.g.g.g.g.g.g.g.g.g.g.g.g.g.g.g.g.g.g.g.g.g.g.g.g.g.g.g.g.g.g.g.g.g.g.g.g.g.g.g.g.g.g.g.g.g.g.g.g.g.g.g.g.g.g.g.g.g.g.g.g.g.g.g.g.g.g.g.g.g.g.g.g.g.g.g.g.g.g.g.g.g.g.g.g.g.g.g.g.g.g.g.g.g.g.g.j.",
"h.g.g.g.g.g.g.g.g.g.g.g.g.g.g.g.g.g.g.g.g.g.g.g.g.g.g.g.g.g.g.g.g.g.g.g.g.g.g.g.g.g.g.g.g.g.g.g.g.g.g.g.g.g.g.g.g.g.g.g.g.g.g.g.g.g.g.g.g.g.g.g.g.g.g.g.g.g.g.g.g.g.g.g.g.g.g.g.g.g.g.g.g.g.g.g.g.g.g.g.g.g.g.g.g.g.g.g.g.g.g.g.g.g.g.g.g.g.g.g.g.g.g.g.g.g.j.",
"h.g.g.g.      g.g.g.g.g.g.g.g.      g.g.g.g.g.g.g.g.g.g.g.g.g.      g.g.g.g.g.g.g.g.g.g.5.g.g.g.g.g.g.g.              3 g ! g.g.g.g.g.g.g.g.g.g.g.g.g.g.g.g.g.g.g.g.      g.g.g.g.g.g.g.g.g.g.g.g.g.g.g.g.g.g.g.g.g.g.g.g.g.g.g.g.g.g.g.g.g.g.g.g.g.g.g.g.g.j.",
"h.g.g.g.      g.g.g.g.g.g.g.g.      g.g.g.g.g.g.g.g.g.g.g.g.g.      g.g.g.g.g.g.g.g.7.D   g.g.g.g.g.g.g.                    U g.g.g.g.g.g.g.g.g.g.g.g.g.g.g.g.g.g.g.      g.g.g.g.g.g.g.g.g.g.g.g.g.g.g.g.g.g.g.g.g.g.g.g.g.g.g.g.g.g.g.g.g.g.g.g.g.g.g.g.g.j.",
"h.g.g.g.      g.g.g.g.g.g.g.g.4.4.4.g.g.g.g.g.g.g.g.g.g.g.g.g.      g.g.g.g.g.g.g.g.      g.g.g.g.g.g.g.      4.4.4.<.U     < g.g.g.g.g.g.g.g.g.g.g.g.g.g.g.g.g.g.g.      g.g.g.g.g.g.g.g.g.g.g.g.g.g.g.g.g.g.g.g.g.g.g.g.g.g.g.g.g.g.g.g.g.g.g.g.g.g.g.g.g.j.",
"h.g.g.g.      g.g.g.g.g.g.g.g.g.g.g.g.g.g.g.g.g.g.g.g.g.g.g.g.      g.g.g.g.g.g.g.g.      g.g.g.g.g.g.g.      g.g.g.g.g.      g.g.g.g.g.g.g.g.g.g.g.g.g.g.g.g.g.g.g.      g.g.g.g.g.g.g.g.g.g.g.g.g.g.g.g.g.g.g.g.g.g.g.g.g.g.g.g.g.g.g.g.g.g.g.g.g.g.g.g.g.j.",
"h.g.g.g.      g.g.g.g.g.g.g.g.      g.g.g.0.n : 9 (       g.g.      t.C : < C e.g.          g.g.g.g.g.g.      g.g.g.g.p.    O g.g.g.g.I w O 5 S 0.g.g.g.g.7.b & 9 (       g.g.g.g.g.g.g.g.g.g.g.g.g.g.g.g.g.g.g.g.g.g.g.g.g.g.g.g.g.g.g.g.g.g.g.g.g.g.g.g.g.j.",
"h.g.g.g.      g.g.g.g.g.g.g.g.      g.g.p.0       O       g.g.      j         i g.          g.g.g.g.g.g.      g.g.g.e.!     5 g.g.g.M           5 g.g.g.t.5       O       g.g.g.g.g.g.g.g.g.g.g.g.g.g.g.g.g.g.g.g.g.g.g.g.g.g.g.g.g.g.g.g.g.g.g.g.g.g.g.g.g.j.",
"h.g.g.g.      g.g.g.g.g.g.g.g.      g.g.|     9 -.H       g.g.      5 %.[     & g.4.      4.g.g.g.g.g.g.                  & o.g.g.-.    f >.E     B g.g.[     9 %.J       g.g.g.g.g.g.g.g.g.g.g.g.g.g.g.g.g.g.g.g.g.g.g.g.g.g.g.g.g.g.g.g.g.g.g.g.g.g.g.g.g.j.",
"h.g.g.g.      g.g.g.g.g.g.g.g.      g.g.b     ) g.t.      g.g.      ! g.g.      g.g.      g.g.g.g.g.g.g.              < F ,.g.g.g.C     @.4.5.    < g.g.k     ` g.t.      g.g.g.g.g.g.g.g.g.g.g.g.g.g.g.g.g.g.g.g.g.g.g.g.g.g.g.g.g.g.g.g.g.g.g.g.g.g.g.g.g.j.",
"h.g.g.g.      g.g.g.g.g.g.g.g.      g.g.:     t.g.g.      g.g.      e.g.g.      g.g.      g.g.g.g.g.g.g.      5.>.M     L g.g.g.g.3               O g.g.:     t.g.g.      g.g.g.g.g.g.g.g.g.g.g.g.g.g.g.g.g.g.g.g.g.g.g.g.g.g.g.g.g.g.g.g.g.g.g.g.g.g.g.g.g.j.",
"h.g.g.g.      g.g.g.g.g.g.g.g.      g.g.:     e.g.g.      g.g.      g.g.g.      g.g.      g.g.g.g.g.g.g.      g.g.t.9     T g.g.g.:                 g.g.<     7.g.g.      g.g.g.g.g.g.g.g.g.g.g.g.g.g.g.g.g.g.g.g.g.g.g.g.g.g.g.g.g.g.g.g.g.g.g.g.g.g.g.g.g.j.",
"h.g.g.g.      g.g.g.g.g.g.g.g.      g.g.x     ( g.t.      g.g.      g.g.g.      g.g.      g.g.g.g.g.g.g.      g.g.g.-.    & 5.g.g.n     <.g.g.,.t.g.g.g.b     ! g.t.      g.g.g.g.g.g.g.g.g.g.g.g.g.g.g.g.g.g.g.g.g.g.g.g.g.g.g.g.g.g.g.g.g.g.g.g.g.g.g.g.g.j.",
"h.g.g.g.      } } } } } } @.g.      g.g.o.    9 -.G       g.g.      g.g.g.      g.g.:     | g.g.g.g.g.g.      g.g.g.g.M     y g.g.#.    y -.)     i g.g.|     9 >.J       g.g.g.g.g.g.g.g.g.g.g.g.g.g.g.g.g.g.g.g.g.g.g.g.g.g.g.g.g.g.g.g.g.g.g.g.g.g.g.g.g.j.",
"h.g.g.g.                  f g.      g.g.p.w       O       g.g.      g.g.g.      g.g.A       -.g.g.g.g.g.      g.g.g.g.0.      ` g.g.b             o.g.g.t.0       O       g.g.g.g.g.g.g.g.g.g.g.g.g.g.g.g.g.g.g.g.g.g.g.g.g.g.g.g.g.g.g.g.g.g.g.g.g.g.g.g.g.j.",
"h.g.g.g.                  f g.      g.g.g.0.b & 9 )       g.g.      g.g.g.      g.g.5.f   5 +.g.g.g.g.g.      g.g.g.g.g.)     3 g.g.p.L y O : j +.g.g.g.g.0.x & 0 )       g.g.g.g.g.g.g.g.g.g.g.g.g.g.g.g.g.g.g.g.g.g.g.g.g.g.g.g.g.g.g.g.g.g.g.g.g.g.g.g.g.j.",
"h.g.g.g.g.g.g.g.g.g.g.g.g.g.g.g.g.g.g.g.( o.>.e.g.g.    O g.g.g.g.g.g.g.g.g.g.g.g.g.g.g.g.g.g.g.g.g.g.g.g.g.g.g.g.g.g.g.g.g.g.g.g.g.g.g.g.g.g.g.g.g.g.g.g.g.g.g.g.g.g.g.g.g.g.g.g.g.g.g.g.g.g.g.g.g.g.g.g.g.g.g.g.g.g.g.g.g.g.g.g.g.g.g.g.g.g.g.g.g.g.g.g.g.j.",
"h.g.g.g.g.g.g.g.g.g.g.g.g.g.g.g.g.g.g.g.w     9 ,.}     < g.g.g.g.g.g.g.g.g.g.g.g.g.g.g.g.g.g.g.g.g.g.g.g.g.g.g.g.g.g.g.g.g.g.g.g.g.g.g.g.g.g.g.g.g.g.g.g.g.g.g.g.g.g.g.g.g.g.g.g.g.g.g.g.g.g.g.g.g.g.g.g.g.g.g.g.g.g.g.g.g.g.g.g.g.g.g.g.g.g.g.g.g.g.g.g.g.j.",
"h.g.g.g.g.g.g.g.g.g.g.g.g.g.g.g.g.g.g.g.@.              L g.g.g.g.g.g.g.g.g.g.g.g.g.g.g.g.g.g.g.g.g.g.g.g.g.g.g.g.g.g.g.g.g.g.g.g.g.g.g.g.g.g.g.g.g.g.g.g.g.g.g.g.g.g.g.g.g.g.g.g.g.g.g.g.g.g.g.g.g.g.g.g.g.g.g.g.g.g.g.g.g.g.g.g.g.g.g.g.g.g.g.g.g.g.g.g.g.j.",
"h.g.g.g.g.g.g.g.g.g.g.g.g.g.g.g.g.g.g.g.g.` h :   & f R g.g.g.g.g.g.g.g.g.g.g.g.g.g.g.g.g.g.g.g.g.g.g.g.g.g.g.g.g.g.g.g.g.g.g.g.g.g.g.g.g.g.g.g.g.g.g.g.g.g.g.g.g.g.g.g.g.g.g.g.g.g.g.g.g.g.g.g.g.g.g.g.g.g.g.g.g.g.g.g.g.g.g.g.g.g.g.g.g.g.g.g.g.g.g.g.g.g.j.",
"h.g.g.g.g.g.g.g.g.g.g.g.g.g.g.g.g.g.g.g.g.g.g.g.g.g.g.g.g.g.g.g.g.g.g.g.g.g.g.g.g.g.g.g.g.g.g.g.g.g.g.g.g.g.g.g.g.g.g.g.g.g.g.g.g.g.g.g.g.g.g.g.g.g.g.g.g.g.g.g.g.g.g.g.g.g.g.g.g.g.g.g.g.g.g.g.g.g.g.g.g.g.g.g.g.g.g.g.g.g.g.g.g.g.g.g.g.g.g.g.g.g.g.g.g.g.j.",
"h.g.g.g.g.g.g.g.g.g.g.g.g.g.g.g.g.g.g.g.g.g.g.g.g.g.g.g.g.g.g.g.g.g.g.g.g.g.g.g.g.g.g.g.g.g.g.g.g.g.g.g.g.g.g.g.g.g.g.g.g.g.g.g.g.g.g.g.g.g.g.g.g.g.g.g.g.g.g.g.g.g.g.g.g.g.g.g.g.g.g.g.g.g.g.g.g.g.g.g.g.g.g.g.g.g.g.g.g.g.g.g.g.g.g.g.g.g.g.g.g.g.g.g.g.g.j.",
"h.j.j.j.j.j.j.j.j.j.j.j.j.j.j.j.j.j.j.j.j.j.j.j.j.j.j.j.j.j.j.j.j.j.j.j.j.j.j.j.j.j.j.j.j.j.j.j.j.j.j.j.j.j.j.j.j.j.j.j.j.j.j.j.j.j.j.j.j.j.j.j.j.j.j.j.j.j.j.j.j.j.j.j.j.j.j.j.j.j.j.j.j.j.j.j.j.j.j.j.j.j.j.j.j.j.j.j.j.j.j.j.j.j.j.j.j.j.j.j.j.j.j.j.j.j.j."
};
