/* XPM */
static char *grey[] = {
/* columns rows colors chars-per-pixel */
"127 27 170 2",
"   c #808080",
".  c #808081",
"X  c #818080",
"o  c #808082",
"O  c #808083",
"+  c #808184",
"@  c #808186",
"#  c #848180",
"$  c #848280",
"%  c #868180",
"&  c #818289",
"*  c #81828A",
"=  c #81828B",
"-  c #81828C",
";  c #81838E",
":  c #81838F",
">  c #888280",
",  c #8B8281",
"<  c #8D8883",
"1  c #8C8A89",
"2  c #8D8D8D",
"3  c #8E8E8E",
"4  c #818491",
"5  c #828592",
"6  c #828598",
"7  c #83879F",
"8  c #8F909A",
"9  c #908481",
"0  c #958582",
"q  c #958A84",
"w  c #9A8682",
"e  c #9F8E85",
"r  c #93908D",
"t  c #9B918F",
"y  c #909194",
"u  c #969291",
"i  c #959294",
"p  c #9B9492",
"a  c #868DB7",
"s  c #868FB9",
"d  c #868EBA",
"f  c #8894BF",
"g  c #939CAB",
"h  c #9DA6B3",
"j  c #A28883",
"k  c #A18984",
"l  c #A48883",
"z  c #A78984",
"x  c #AC8A84",
"c  c #AE8B85",
"v  c #A59C97",
"b  c #A69D97",
"n  c #B58D86",
"m  c #BA8E86",
"M  c #BF9087",
"N  c #BD9589",
"B  c #A6A19B",
"V  c #B2A595",
"C  c #A0ADB9",
"Z  c #A4ADB8",
"A  c #A5B3BF",
"S  c #BFBAB5",
"D  c #8996C6",
"F  c #8A99C6",
"G  c #8A98CC",
"H  c #8D9FD2",
"J  c #90A9C3",
"K  c #97BDE4",
"L  c #ACBACD",
"P  c #99C0E7",
"I  c #99C2E7",
"U  c #9AC4E7",
"Y  c #9AC6E9",
"T  c #BAC9D4",
"R  c #BCCAD3",
"E  c #A1C7E9",
"W  c #ABC0E1",
"Q  c #A0D0EC",
"!  c #A4D8EF",
"~  c #A7DCF1",
"^  c #A9DCF1",
"/  c #B1C6E3",
"(  c #BBDDF1",
")  c #ACE2F3",
"_  c #B4E6F4",
"`  c #C59E8C",
"'  c #CF9B8B",
"]  c #D19D8C",
"[  c #C4B39E",
"{  c #D2A38E",
"}  c #D8A48E",
"|  c #C3BCB3",
" . c #D0BFAB",
".. c #E3B795",
"X. c #E5BA96",
"o. c #E6BD97",
"O. c #CDC0B1",
"+. c #DCC2A6",
"@. c #E2CC9F",
"#. c #E8C49A",
"$. c #EAC89B",
"%. c #EACB9D",
"&. c #E4C8B3",
"*. c #E8CCB7",
"=. c #E8D2A5",
"-. c #F3E3AD",
";. c #F6EAB4",
":. c #C0C0C0",
">. c #DED5CA",
",. c #CADFF0",
"<. c #D5DDE4",
"1. c #C0E1F3",
"2. c #CEE3F3",
"3. c #CFF3FA",
"4. c #DAE2E8",
"5. c #D4ECF7",
"6. c #DFEEF8",
"7. c #D3F4FA",
"8. c #D5F5FA",
"9. c #D8F0F9",
"0. c #DAF6FB",
"q. c #DBF6FB",
"w. c #DFF7FB",
"e. c #EEDAC8",
"r. c #E1DAD1",
"t. c #E6DFD8",
"y. c #F2DFC3",
"u. c #F1DFCC",
"i. c #F4E4C9",
"p. c #F7ECCA",
"a. c #F8EFC6",
"s. c #F9F2C9",
"d. c #F9F2CC",
"f. c #F9F2D3",
"g. c #FAF5D3",
"h. c #FBF6D8",
"j. c #FBF6DA",
"k. c #E7F9FC",
"l. c #EAF1F4",
"z. c #ECF2F6",
"x. c #EEF5F9",
"c. c #E8FAFC",
"v. c #EFFBFD",
"b. c #F3EDE5",
"n. c #F3EEE7",
"m. c #FCF8E3",
"M. c #FCF9E5",
"N. c #FDFAEC",
"B. c #F7F5F0",
"V. c #F7F4F2",
"C. c #F2F6F9",
"Z. c #F3F7FA",
"A. c #F2FCFE",
"S. c #F5F9FB",
"D. c #F5FDFE",
"F. c #FAF6F2",
"G. c #FEFDF7",
"H. c #F8FDFE",
"J. c #F9FEFE",
"K. c #FBFEFF",
"L. c #FDFBF9",
"P. c #FDFDFB",
"I. c #FEFDF8",
"U. c #FCFDFE",
"Y. c #FDFEFD",
"T. c #FDFEFF",
"R. c #FEFEFC",
"E. c #FEFEFD",
"W. c #FFFFFD",
"Q. c gray100",
/* pixels */
"2 2 2 2 2 2 2 2 2 2 2 2 2 2 2 2 2 2 2 2 2 2 2 2 2 2 2 2 2 2 2 2 2 2 2 2 2 2 2 2 2 2 2 2 2 2 2 2 2 2 2 2 2 2 2 2 2 2 2 2 2 2 2 2 1 2 2 2 2 2 2 2 2 2 2 2 2 2 2 2 2 2 2 2 2 2 2 2 2 2 2 2 2 2 2 2 2 2 2 2 2 2 2 2 2 2 2 2 2 2 2 2 3 3 2 2 2 2 2 2 2 2 2 2 2 2 | ",
"2                                                                                                                                                                                                                                                           :.",
"2                                                                                                                                                                                                                                                       O O | ",
"2                                                                                                                                                                                                                                                       + + :.",
"2                                                                                                                                                                                                                                                           | ",
"2                                                                                                                                                                                                                                                           R ",
"2             A 4.S.Q.B.r.V                                                                                                                                                                                                                                 L ",
"2         4 2.Q.Q.Q.Q.Q.Q.Q.+.                                                                                                                                                                                                                              O.",
"2       # 1.Q.Q.e.v y L Q.Q.Q.N                                                                                                                                                                                                                           O :.",
"2       F Q.Q.p.#       Y Q.Q.-.                                                                                                                                                                                                                          + :.",
"2       ) Q.Q.'         7 S B <     Q.Q.Q.J x.L.@.    - T l.Q.b.O.,     _ Q.M.      * D.Q.%.                                                                                                                                                                :.",
"2     # q.Q.Q.w                     Q.Q.Q.A.Q.Q.]   * 5.Q.Q.Q.Q.Q.y.    H Q.Q.m   # G Q.Q.n                                                                                                                                                                 | ",
"2       D.Q.Q.#     2 2 2 2 2 2     Q.Q.Q.i.p h ,   K Q.Q.&.i / Q.Q.{   * A.Q.$.    ! Q.h.                                                                                                                                                                  R ",
"2       K.Q.Q.>     Q.Q.Q.Q.Q.Q.    Q.Q.Q.m         3.Q.Q.t 2 8 Q.Q.;.    ~ Q.h.    k.Q.#.                                                                                                                                                                  | ",
"2       0.Q.Q.j     K.Q.Q.Q.Q.Q.    Q.Q.Q.0         D.Q.Q.Q.Q.Q.Q.Q.m.    D Q.Q.x d Q.Q.x                                                                                                                                                                   :.",
"2       ~ Q.Q.}           Q.Q.Q.    Q.Q.Q.%         K.Q.Q.Q.Q.Q.Q.Q.G.    + c.Q.X.Y Q.g.                                                                                                                                                                  + :.",
"2       f Q.Q.f.>       * Q.Q.Q.    Q.Q.Q.          8.Q.Q.9 * & r #         Q Q.s.7.Q.o.                                                                                                                                                                    :.",
"2         ( Q.Q.u.v y Z 6.Q.Q.Q.    Q.Q.Q.          U Q.Q.*.i L Q.Q.=.    # d Q.Q.Q.Q.l                                                                                                                                                                     :.",
"2         4 ,.Q.Q.Q.Q.Q.Q.Q.G. .    Q.Q.Q.          - 9.Q.Q.Q.Q.Q.N.e         q.Q.Q.d.                                                                                                                                                                      | ",
"2           + h <.C.Q.V.t.| q       Q.Q.Q.          O 4 R l.Q.B.>.e           P Q.Q...                                                                                                                                                                      :.",
"2                                                                             P Q.Q.j                                                                                                                                                                   O + :.",
"2                                                                       * 1 g v.Q.a.                                                                                                                                                                    O + :.",
"2                                                                       a Q.Q.Q.Q.`                                                                                                                                                                         :.",
"2                                                                       6 C.Q.b.[                                                             #                                                                                                             | ",
"2                       O                               O O                                 # #                     # #                     # #         X X X X     # #                                                 O                                   R ",
"2                       O +               +             + +         + +           +         # ,       O       O     # >           +         # ,           X X #     # >           +         + +                         O +             + +             + + | ",
"3 | R | L O.| R :.| R | :.:.:.:.L | | R :.:.:.O.:.| R | :.:.:.:.S R | | :.:.L O.:.:.:.:.R | | L | :.R | L O.| | R | | L R | S R :.:.:.:.R | | L L O.R | S | O.R R | | L L | | R :.:.:.:.R | | :.R S R | R | | | :.:.L O.:.:.:.:.:.:.| :.:.:.:.:.L | R | :.:.O."
};
