/* XPM */
static char *bold_color_green[] = {
/* columns rows colors chars-per-pixel */
"127 27 141 2",
"   c #008000",
".  c #028000",
"X  c #038000",
"o  c #008004",
"O  c #008006",
"+  c #01810D",
"@  c #098100",
"#  c #098201",
"$  c #0C8101",
"%  c #0F8101",
"&  c #028214",
"*  c #028218",
"=  c #03831C",
"-  c #03831D",
";  c #03831E",
":  c #108201",
">  c #168202",
",  c #1A8806",
"<  c #1A8D1B",
"1  c #1C8E1C",
"2  c #038423",
"3  c #048524",
"4  c #048426",
"5  c #07873F",
"6  c #098B3A",
"7  c #1E9034",
"8  c #218403",
"9  c #2A8504",
"0  c #2B8A08",
"q  c #27901A",
"w  c #358605",
"e  c #3F8E0B",
"r  c #36911E",
"t  c #209128",
"y  c #209129",
"u  c #2D9223",
"i  c #2A9229",
"p  c #339323",
"a  c #379424",
"s  c #11947E",
"d  c #3AA667",
"f  c #438908",
"g  c #488807",
"h  c #588A09",
"j  c #4A9C2F",
"k  c #4C9D2F",
"l  c #4CA137",
"z  c #7F900F",
"x  c #7B9512",
"c  c #65A52A",
"v  c #41AD73",
"b  c #48AD70",
"n  c #4AB37E",
"m  c #7EBA6A",
"M  c #15998D",
"N  c #21A986",
"B  c #2FBDC9",
"V  c #35C4CF",
"C  c #58BA9A",
"Z  c #54BFC0",
"A  c #75C9A9",
"S  c #78CAA7",
"D  c #42C7D3",
"F  c #56C0C2",
"G  c #4EDCE2",
"H  c #58E2E6",
"J  c #63C6C6",
"K  c #76DDE3",
"L  c #9E9B17",
"P  c #A29D18",
"I  c #A5A31D",
"U  c #B0A41D",
"Y  c #87BC67",
"T  c #A1BF57",
"R  c #9AC062",
"E  c #B8C24C",
"W  c #AAC872",
"Q  c #C4CC3E",
"!  c #D8CF49",
"~  c #D1D24A",
"^  c #C9C866",
"/  c #D0CC6E",
"(  c #E7E35B",
")  c #ECEA69",
"_  c #8D8D8D",
"`  c #BDD594",
"'  c #94DFE1",
"]  c #81E1E7",
"[  c #9CE3E6",
"{  c #9EF3F4",
"}  c #A1DCCE",
"|  c #AADDC8",
" . c #B5E2D1",
".. c #A8ECEF",
"X. c #A9F1F3",
"o. c #ABF5F5",
"O. c #BEEEF1",
"+. c #B1F0F2",
"@. c #B4F6F6",
"#. c #BEF7F7",
"$. c #DDDA91",
"%. c #C2DAA3",
"&. c #CCDFB0",
"*. c #E5DF87",
"=. c #E5DE8A",
"-. c #E3DF99",
";. c #E9E492",
":. c #EFEC94",
">. c #F3F2A7",
",. c #C0C0C0",
"<. c #D5F1E9",
"1. c #D8F2ED",
"2. c #DCF5F3",
"3. c #E6EECE",
"4. c #F8F8C7",
"5. c #F9F9CC",
"6. c #F1F5DE",
"7. c #FAFAD8",
"8. c #EFF5E1",
"9. c #EEF4E5",
"0. c #E5F6F2",
"q. c #E5FCFC",
"w. c #EBF9F6",
"e. c #EAFDFC",
"r. c #EFFBFA",
"t. c #F4F6E4",
"y. c #FDFDEE",
"u. c #F1FDFD",
"i. c #F3FEFD",
"p. c #F7FEFE",
"a. c #FAFBF2",
"s. c #FAFDF7",
"d. c #FDFDF0",
"f. c #FEFEF7",
"g. c #FBFEFA",
"h. c #F8FDFC",
"j. c #FAFEFE",
"k. c #FCFEF9",
"l. c #FEFFFA",
"z. c #FEFFFE",
"x. c gray100",
/* pixels */
"_ _ _ _ _ _ _ _ _ _ _ _ _ _ _ _ _ _ _ _ _ _ _ _ _ _ _ _ _ _ _ _ _ _ _ _ _ _ _ _ _ _ _ _ _ _ _ _ _ _ _ _ _ _ _ _ _ _ _ _ _ _ _ _ _ _ _ _ _ _ _ _ _ _ _ _ _ _ _ _ _ _ _ _ _ _ _ _ _ _ _ _ _ _ _ _ _ _ _ _ _ _ _ _ _ _ _ _ _ _ _ _ _ _ _ _ _ _ _ _ _ _ _ _ _ _ ,.",
"_                                                                                                                                                                                                                                                           ,.",
"_                                                                                                                                                                                                                                                           ,.",
"_                                                                                                                                                                                                                                                           ,.",
"_                                                                                                                                                                                                                                                           ,.",
"_                                                                                                                                                                                                                                                           ,.",
"_           O n  .w.k.8.%.c                                                                                                                                                                                                                                 ,.",
"_         2 [ x.x.x.x.x.x.x.E                                                                                                                                                                                                                               ,.",
"_         ] x.x.$.j y C j.x.x.x                                                                                                                                                                                                                             ,.",
"_       M x.x.:.@       D x.x.(                                                                                                                                                                                                                             ,.",
"_       H x.x.L         5 m l ,     x.x.x.N 2.a.Q     - A 1.s.3.R :         - A 1.g.3.R :       x.x.x.6 } r.6.W :                                                                                                                                           ,.",
"_       #.x.x.w                     x.x.x.q.x.x.P   & ..x.x.x.x.x.*.      & ..x.x.x.x.x.*.      x.x.x.X.x.x.x.x.!                                                                                                                                           ,.",
"_       u.x.x.@     < 1 1 1 1 1     x.x.x.;.a d >   B x.x.^ i J x.x.I     B x.x.^ i J x.x.I     x.x.x.=.p Z x.x.5.                                                                                                                                          ,.",
"_       u.x.x.:     p.x.x.x.x.x.    x.x.x.z         { x.x.r 1 7 x.x.)     { x.x.r < 7 x.x.)     x.x.x.h   4 x.x.k.                                                                                                                                          ,.",
"_       @.x.x.g     p.x.x.x.x.x.    x.x.x.9         e.x.x.x.x.x.x.x.4.    e.x.x.x.x.x.x.x.4.    x.x.x.$     x.x.x.                                                                                                                                          ,.",
"_       G x.x.U           x.x.x.    x.x.x.$         u.x.x.x.x.x.x.x.d.    u.x.x.x.x.x.x.x.y.    x.x.x.      x.x.x.                                                                                                                                          ,.",
"_       s x.x.>.:       & x.x.x.    x.x.x.          o.x.x.8   + q @       o.x.x.8   + q @       x.x.x.      x.x.x.                                                                                                                                          ,.",
"_         K x.x.-.k y b O.x.x.x.    x.x.x.          V x.x./ u Z x.k.~     V x.x./ u Z x.k.~     x.x.x.      x.x.x.                                                                                                                                          ,.",
"_         = ' x.x.x.x.x.x.x.y.T     x.x.x.          - +.x.x.x.x.x.7.f     - +.x.x.x.x.x.7.f     x.x.x.      x.x.x.                                                                                                                                          ,.",
"_           O v | 0.g.9.&.Y 0       x.x.x.            3 S <.j.t.` e         3 S <.j.t.` f       x.x.x.      x.x.x.                                                                                                                                          ,.",
"_                                                                                                                                                                                                                                                           ,.",
"_                                                                                                                                                                                                                                                           ,.",
"_                                                                                                                                                                                                                                                           ,.",
"_                                                                                                                                                                                                                                                           ,.",
"_                                                                                                                                                                                                                                                           ,.",
"_                                                                                                                                                                                                                                                           ,.",
"_ ,.,.,.,.,.,.,.,.,.,.,.,.,.,.,.,.,.,.,.,.,.,.,.,.,.,.,.,.,.,.,.,.,.,.,.,.,.,.,.,.,.,.,.,.,.,.,.,.,.,.,.,.,.,.,.,.,.,.,.,.,.,.,.,.,.,.,.,.,.,.,.,.,.,.,.,.,.,.,.,.,.,.,.,.,.,.,.,.,.,.,.,.,.,.,.,.,.,.,.,.,.,.,.,.,.,.,.,.,.,.,.,.,.,.,.,.,.,.,.,.,.,.,.,.,.,."
};
