/* XPM */
static char *bold_color_yellow[] = {
/* columns rows colors chars-per-pixel */
"127 27 180 2",
"   c black",
".  c #010100",
"X  c #010200",
"o  c #010300",
"O  c #020400",
"+  c #020500",
"@  c #050500",
"#  c #070400",
"$  c #040800",
"%  c #040900",
"&  c #050900",
"*  c #050A00",
"=  c #060B00",
"-  c #070B00",
";  c #060D00",
":  c #070E00",
">  c #070F00",
",  c #0C0300",
"<  c #0E0400",
"1  c #0B1200",
"2  c #091400",
"3  c #0A1500",
"4  c #0B1800",
"5  c #0B1A00",
"6  c #0C1900",
"7  c #0C1A00",
"8  c #0C1C00",
"9  c #0D1C00",
"0  c #100400",
"q  c #130500",
"w  c #150500",
"e  c #140E00",
"r  c #150E00",
"t  c #0F2200",
"y  c #102300",
"u  c #132B00",
"i  c #192200",
"p  c #163100",
"a  c #183B00",
"s  c #1A3F00",
"d  c #280A00",
"f  c #280B00",
"g  c #271A00",
"h  c #2A1D00",
"j  c #390E00",
"k  c #3D0F00",
"l  c #293800",
"z  c #2A3800",
"x  c #194300",
"c  c #1A4100",
"v  c #1E4900",
"b  c #205100",
"n  c #245A00",
"m  c #2E5A00",
"M  c #305C00",
"N  c #335F00",
"B  c #276200",
"V  c #296700",
"C  c #2F6600",
"Z  c #2A6B00",
"A  c #2C6F00",
"S  c #366F00",
"D  c #307300",
"F  c #441A00",
"G  c #471C00",
"H  c #4E1F00",
"J  c #521400",
"K  c #541500",
"L  c #561900",
"P  c #5C1D00",
"I  c #4B3800",
"U  c #4C3A00",
"Y  c #572700",
"T  c #611800",
"R  c #6A1A00",
"E  c #6E1B00",
"W  c #761D00",
"Q  c #791D00",
"!  c #425500",
"~  c #774500",
"^  c #657E00",
"/  c #3B9900",
"(  c #428E00",
")  c #41A700",
"_  c #55A700",
"`  c #56A600",
"'  c #5BAE00",
"]  c #5DAE00",
"[  c #5AB800",
"{  c #56C100",
"}  c #58C800",
"|  c #68D400",
" . c #69D600",
".. c #78C600",
"X. c #7ED700",
"o. c #7EDD00",
"O. c #842100",
"+. c #942D00",
"@. c #A73A00",
"#. c #844F00",
"$. c #914100",
"%. c #924100",
"&. c #876B00",
"*. c #8A6D00",
"=. c #9C7200",
"-. c #BB5400",
";. c #A97F00",
":. c #C15C00",
">. c #C07300",
",. c #C47900",
"<. c #C67A00",
"1. c #CA7300",
"2. c #CA7700",
"3. c #85A000",
"4. c #85A100",
"5. c #B49900",
"6. c #B69A00",
"7. c #80D800",
"8. c #92D800",
"9. c #AFC200",
"0. c #B0C300",
"q. c #AFEC00",
"w. c #B0EC00",
"e. c #B4EB00",
"r. c #BCED00",
"t. c #CE8000",
"y. c #D08500",
"u. c #D28A00",
"i. c #D79700",
"p. c #D79900",
"a. c #DDA800",
"s. c #DDAA00",
"d. c #E1B200",
"f. c #E1B400",
"g. c #C9DD00",
"h. c #D1C300",
"j. c #D1C400",
"k. c #D2DB00",
"l. c #D5DB00",
"z. c #D8DE00",
"x. c #C0E300",
"c. c #DCF700",
"v. c #DEF700",
"b. c #DFF600",
"n. c #EBCE00",
"m. c #E1DE00",
"M. c #ECD000",
"N. c #ECD100",
"B. c #EED800",
"V. c #EFD900",
"C. c #EFDC00",
"Z. c #F1DF00",
"A. c #E3E300",
"S. c #E0F800",
"D. c #E5F900",
"F. c #EDFB00",
"G. c #EFFB00",
"H. c #F5E800",
"J. c #F7ED00",
"K. c #F7EE00",
"L. c #F3FC00",
"P. c #F6FB00",
"I. c #F7FD00",
"U. c #F9F000",
"Y. c #FBF400",
"T. c #FBFE00",
"R. c #FCF800",
"E. c #FDFA00",
"W. c #FDFB00",
"Q. c #FEFB00",
"!. c #FCFF00",
"~. c #FDFF00",
"^. c #FEFC00",
"/. c #FEFD00",
"(. c #FFFD00",
"). c #FEFF00",
"_. c #FFFE00",
"`. c yellow",
"'. c #8D8D8D",
"]. c #C0C0C0",
/* pixels */
"'.'.'.'.'.'.'.'.'.'.'.'.'.'.'.'.'.'.'.'.'.'.'.'.'.'.'.'.'.'.'.'.'.'.'.'.'.'.'.'.'.'.'.'.'.'.'.'.'.'.'.'.'.'.'.'.'.'.'.'.'.'.'.'.'.'.'.'.'.'.'.'.'.'.'.'.'.'.'.'.'.'.'.'.'.'.'.'.'.'.'.'.'.'.'.'.'.'.'.'.'.'.'.'.'.'.'.'.'.'.'.'.'.'.'.'.'.'.'.'.'.'.'.'.'.'.].",
"'.`.`.`.`.`.`.`.`.`.`.`.`.`.`.`.`.`.`.`.`.`.`.`.`.`.`.`.`.`.`.`.`.`.`.`.`.`.`.`.`.`.`.`.`.`.`.`.`.`.`.`.`.`.`.`.`.`.`.`.`.`.`.`.`.`.`.`.`.`.`.`.`.`.`.`.`.`.`.`.`.`.`.`.`.`.`.`.`.`.`.`.`.`.`.`.`.`.`.`.`.`.`.`.`.`.`.`.`.`.`.`.`.`.`.`.`.`.`.`.`.`.`.`.`.`.].",
"'.`.`.`.`.`.`.`.`.`.`.`.`.`.`.`.`.`.`.`.`.`.`.`.`.`.`.`.`.`.`.`.`.`.`.`.`.`.`.`.`.`.`.`.`.`.`.`.`.`.`.`.`.`.`.`.`.`.`.`.`.`.`.`.`.`.`.`.`.`.`.`.`.`.`.`.`.`.`.`.`.`.`.`.`.`.`.`.`.`.`.`.`.`.`.`.`.`.`.`.`.`.`.`.`.`.`.`.`.`.`.`.`.`.`.`.`.`.`.`.`.`.`.`.`.`.].",
"'.`.`.`.`.`.`.`.`.`.`.`.`.`.`.`.`.`.`.`.`.`.`.`.`.`.`.`.`.`.`.`.`.`.`.`.`.`.`.`.`.`.`.`.`.`.`.`.`.`.`.`.`.`.`.`.`.`.`.`.`.`.`.`.`.`.`.`.`.`.`.`.`.`.`.`.`.`.`.`.`.`.`.`.`.`.`.`.`.`.`.`.`.`.`.`.`.`.`.`.`.`.`.`.`.`.`.`.`.`.`.`.`.`.`.`.`.`.`.`.`.`.`.`.`.`.].",
"'.`.`.`.`.`.`.`.`.`.`.`.`.`.`.`.`.`.`.`.`.`.`.`.`.`.`.`.`.`.`.`.`.`.`.`.`.`.`.`.`.`.`.`.`.`.`.`.`.`.`.`.`.`.`.`.`.`.`.`.`.`.`.`.`.`.`.`.`.`.`.`.`.`.`.`.`.`.`.`.`.`.`.`.`.`.`.`.`.`.`.`.`.`.`.`.`.`.`.`.`.`.`.`.`.`.`.`.`.`.`.`.`.`.`.`.`.`.`.`.`.`.`.`.`.`.].",
"'.`.`.`.`.`.`.`.`.`.`.`.`.`.`.`.`.`.`.`.`.`.`.`.`.`.`.`.`.`.`.`.`.`.`.`.`.`.`.`.`.`.`.`.`.`.`.`.`.`.`.`.`.`.`.`.`.`.`.`.`.`.`.`.`.`.`.`.`.`.`.`.`.`.`.`.`.`.`.`.`.`.`.`.`.`.`.`.`.`.`.`.`.`.`.`.`.`.`.`.`.`.`.`.`.`.`.`.`.`.`.`.`.`.`.`.`.`.`.`.`.`.`.`.`.`.].",
"'.`.`.i.    b `.`.`.`.`.>.    ( `.`.`.`.`.`.`.`.`.`.`.`.      `.`.      `.`.`.`.`.`.`.`.`.`.`.`.`.`.`.`.`.`.`.`.`.`.`.`.`.`.`.`.`.`.`.`.`.`.`.`.`.`.`.`.`.`.`.`.`.`.`.`.`.`.`.`.`.`.`.`.`.`.`.`.`.`.`.`.`.`.`.`.`.`.`.`.`.`.`.`.`.`.`.`.`.`.`.`.`.`.`.`.`.`.].",
"'.`.`.`.L     8.`.`.`.J.<   3 L.`.`.`.`.`.`.`.`.`.`.`.`.      `.`.      `.`.`.`.`.`.`.`.`.`.`.`.`.`.`.`.`.`.`.`.`.`.`.`.`.`.`.`.`.`.`.`.`.`.`.`.`.`.`.`.`.`.`.`.`.`.`.`.`.`.`.`.`.`.`.`.`.`.`.`.`.`.`.`.`.`.`.`.`.`.`.`.`.`.`.`.`.`.`.`.`.`.`.`.`.`.`.`.`.`.].",
"'.`.`.`.n.    t T.`.`.%.    ..`.`.`.`.`.`.`.`.`.`.`.`.`.      `.`.      `.`.`.`.`.`.`.`.`.`.`.`.`.`.`.`.`.`.`.`.`.`.`.`.`.`.`.`.`.`.`.`.`.`.`.`.`.`.`.`.`.`.`.`.`.`.`.`.`.`.`.`.`.`.`.`.`.`.`.`.`.`.`.`.`.`.`.`.`.`.`.`.`.`.`.`.`.`.`.`.`.`.`.`.`.`.`.`.`.`.].",
"'.`.`.`.`.%.    ` `.M.    a `.`.`.`.`.`.`.`.`.`.`.`.`.`.      `.`.      `.`.`.`.`.`.`.`.`.`.`.`.`.`.`.`.`.`.`.`.`.`.`.`.`.`.`.`.`.`.`.`.`.`.`.`.`.`.`.`.`.`.`.`.`.`.`.`.`.`.`.`.`.`.`.`.`.`.`.`.`.`.`.`.`.`.`.`.`.`.`.`.`.`.`.`.`.`.`.`.`.`.`.`.`.`.`.`.`.`.].",
"'.`.`.`.`.J.0   = b.P   O e.`.`.`.`.E.*.g # i ^ G.`.`.`.      `.`.      `.`.`.`.6.I r = z 4.`.`.`.W   v `.`.B.    } `.`.:.  3 `.`.`.`.`.`.`.`.`.`.`.`.`.`.`.`.`.`.`.`.`.`.`.`.`.`.`.`.`.`.`.`.`.`.`.`.`.`.`.`.`.`.`.`.`.`.`.`.`.`.`.`.`.`.`.`.`.`.`.`.`.`.`.].",
"'.`.`.`.`.`.,.    x     D `.`.`.`.E.Y           x `.`.`.      `.`.      `.`.`.#.            m `.`.u.  ; `.`.2.    n `.`.J   V `.`.`.`.`.`.`.`.`.`.`.`.`.`.`.`.`.`.`.`.`.`.`.`.`.`.`.`.`.`.`.`.`.`.`.`.`.`.`.`.`.`.`.`.`.`.`.`.`.`.`.`.`.`.`.`.`.`.`.`.`.`.`.].",
"'.`.`.`.`.`.E.j       ; D.`.`.`.`.y.    S l.=.    [ `.`.      `.`.      `.`.a.    5 9.h.F     _ `.H.    q.`.Q     5 `.Y.    o.`.`.`.`.`.`.`.`.`.`.`.`.`.`.`.`.`.`.`.`.`.`.`.`.`.`.`.`.`.`.`.`.`.`.`.`.`.`.`.`.`.`.`.`.`.`.`.`.`.`.`.`.`.`.`.`.`.`.`.`.`.`.`.].",
"'.`.`.`.`.`.`.d.      ' `.`.`.`.`.T     g.A.A.    u `.`.      `.`.      `.`.E     X.`.`.B.    5 `.`.k   ) E.<   <   b.d.  % I.`.`.`.`.`.`.`.`.`.`.`.`.`.`.`.`.`.`.`.`.`.`.`.`.`.`.`.`.`.`.`.`.`.`.`.`.`.`.`.`.`.`.`.`.`.`.`.`.`.`.`.`.`.`.`.`.`.`.`.`.`.`.`.].",
"'.`.`.`.`.`.`.`.      `.`.`.`.`.`.w               ; `.`.      `.`.      `.`.<     G.`.`.E.    O `.`.-.  p C.  9 O.   .@.  s `.`.`.`.`.`.`.`.`.`.`.`.`.`.`.`.`.`.`.`.`.`.`.`.`.`.`.`.`.`.`.`.`.`.`.`.`.`.`.`.`.`.`.`.`.`.`.`.`.`.`.`.`.`.`.`.`.`.`.`.`.`.`.`.].",
"'.`.`.`.`.`.`.`.      `.`.`.`.`.`.<                 `.`.      `.`.      `.`.w     G.`.`.`.    O `.`.M.  = <.  A 2.  A d   { `.`.`.`.`.`.`.`.`.`.`.`.`.`.`.`.`.`.`.`.`.`.`.`.`.`.`.`.`.`.`.`.`.`.`.`.`.`.`.`.`.`.`.`.`.`.`.`.`.`.`.`.`.`.`.`.`.`.`.`.`.`.`.`.].",
"'.`.`.`.`.`.`.`.      `.`.`.`.`.`.K     b.`.`.z.P.`.`.`.      `.`.      `.`.R     X.`.`.B.    9 `.`.E.0   d    .Z.  ;     c.`.`.`.`.`.`.`.`.`.`.`.`.`.`.`.`.`.`.`.`.`.`.`.`.`.`.`.`.`.`.`.`.`.`.`.`.`.`.`.`.`.`.`.`.`.`.`.`.`.`.`.`.`.`.`.`.`.`.`.`.`.`.`.`.].",
"'.`.`.`.`.`.`.`.      `.`.`.`.`.`.2.    C k.;.    m `.`.      `.`.      `.`.i.    9 9.h.G     ' `.`.`.+.      S.`.0     y `.`.`.`.`.`.`.`.`.`.`.`.`.`.`.`.`.`.`.`.`.`.`.`.`.`.`.`.`.`.`.`.`.`.`.`.`.`.`.`.`.`.`.`.`.`.`.`.`.`.`.`.`.`.`.`.`.`.`.`.`.`.`.`.`.].",
"'.`.`.`.`.`.`.`.      `.`.`.`.`.`.E.H           # r.`.`.      `.`.      `.`.`.~             N `.`.`.`.a.    5 `.`.O.    / `.`.`.`.`.`.`.`.`.`.`.`.`.`.`.`.`.`.`.`.`.`.`.`.`.`.`.`.`.`.`.`.`.`.`.`.`.`.`.`.`.`.`.`.`.`.`.`.`.`.`.`.`.`.`.`.`.`.`.`.`.`.`.`.`.].",
"'.`.`.`.`.`.`.`.      `.`.`.`.`.`.`.Y.&.h # 1 ! r.`.`.`.      `.`.      `.`.`.`.6.U e = z 4.`.`.`.`.`.Y.    B `.`.2.    q.`.`.`.`.`.`.`.`.`.`.`.`.`.`.`.`.`.`.`.`.`.`.`.`.`.`.`.`.`.`.`.`.`.`.`.`.`.`.`.`.`.`.`.`.`.`.`.`.`.`.`.`.`.`.`.`.`.`.`.`.`.`.`.`.`.].",
"'.`.`.`.`.`.`.`.`.`.`.`.`.`.`.`.`.`.`.`.`.`.`.`.`.`.`.`.`.`.`.`.`.`.`.`.`.`.`.`.`.`.`.`.`.`.`.`.`.`.`.`.`.`.`.`.`.`.`.`.`.`.`.`.`.`.`.`.`.`.`.`.`.`.`.`.`.`.`.`.`.`.`.`.`.`.`.`.`.`.`.`.`.`.`.`.`.`.`.`.`.`.`.`.`.`.`.`.`.`.`.`.`.`.`.`.`.`.`.`.`.`.`.`.`.`.].",
"'.`.`.`.`.`.`.`.`.`.`.`.`.`.`.`.`.`.`.`.`.`.`.`.`.`.`.`.`.`.`.`.`.`.`.`.`.`.`.`.`.`.`.`.`.`.`.`.`.`.`.`.`.`.`.`.`.`.`.`.`.`.`.`.`.`.`.`.`.`.`.`.`.`.`.`.`.`.`.`.`.`.`.`.`.`.`.`.`.`.`.`.`.`.`.`.`.`.`.`.`.`.`.`.`.`.`.`.`.`.`.`.`.`.`.`.`.`.`.`.`.`.`.`.`.`.].",
"'.`.`.`.`.`.`.`.`.`.`.`.`.`.`.`.`.`.`.`.`.`.`.`.`.`.`.`.`.`.`.`.`.`.`.`.`.`.`.`.`.`.`.`.`.`.`.`.`.`.`.`.`.`.`.`.`.`.`.`.`.`.`.`.`.`.`.`.`.`.`.`.`.`.`.`.`.`.`.`.`.`.`.`.`.`.`.`.`.`.`.`.`.`.`.`.`.`.`.`.`.`.`.`.`.`.`.`.`.`.`.`.`.`.`.`.`.`.`.`.`.`.`.`.`.`.].",
"'.`.`.`.`.`.`.`.`.`.`.`.`.`.`.`.`.`.`.`.`.`.`.`.`.`.`.`.`.`.`.`.`.`.`.`.`.`.`.`.`.`.`.`.`.`.`.`.`.`.`.`.`.`.`.`.`.`.`.`.`.`.`.`.`.`.`.`.`.`.`.`.`.`.`.`.`.`.`.`.`.`.`.`.`.`.`.`.`.`.`.`.`.`.`.`.`.`.`.`.`.`.`.`.`.`.`.`.`.`.`.`.`.`.`.`.`.`.`.`.`.`.`.`.`.`.].",
"'.`.`.`.`.`.`.`.`.`.`.`.`.`.`.`.`.`.`.`.`.`.`.`.`.`.`.`.`.`.`.`.`.`.`.`.`.`.`.`.`.`.`.`.`.`.`.`.`.`.`.`.`.`.`.`.`.`.`.`.`.`.`.`.`.`.`.`.`.`.`.`.`.`.`.`.`.`.`.`.`.`.`.`.`.`.`.`.`.`.`.`.`.`.`.`.`.`.`.`.`.`.`.`.`.`.`.`.`.`.`.`.`.`.`.`.`.`.`.`.`.`.`.`.`.`.].",
"'.`.`.`.`.`.`.`.`.`.`.`.`.`.`.`.`.`.`.`.`.`.`.`.`.`.`.`.`.`.`.`.`.`.`.`.`.`.`.`.`.`.`.`.`.`.`.`.`.`.`.`.`.`.`.`.`.`.`.`.`.`.`.`.`.`.`.`.`.`.`.`.`.`.`.`.`.`.`.`.`.`.`.`.`.`.`.`.`.`.`.`.`.`.`.`.`.`.`.`.`.`.`.`.`.`.`.`.`.`.`.`.`.`.`.`.`.`.`.`.`.`.`.`.`.`.].",
"'.].].].].].].].].].].].].].].].].].].].].].].].].].].].].].].].].].].].].].].].].].].].].].].].].].].].].].].].].].].].].].].].].].].].].].].].].].].].].].].].].].].].].].].].].].].].].].].].].].].].].].].].].].].].].].].].].].].].].].].].].].].].].].]."
};
