/* XPM */
static char *bold_color_white[] = {
/* columns rows colors chars-per-pixel */
"127 27 173 2",
"   c black",
".  c #010101",
"X  c #010102",
"o  c #020101",
"O  c #010104",
"+  c #010204",
"@  c #010206",
"#  c #010207",
"$  c #020204",
"%  c #040101",
"&  c #050201",
"*  c #050302",
"=  c #040406",
"-  c #02020A",
";  c #02030C",
":  c #090202",
">  c #0B0302",
",  c #0B0604",
"<  c #0C0302",
"1  c #0D0302",
"2  c #020514",
"3  c #030517",
"4  c #04081F",
"5  c #090E15",
"6  c #081608",
"7  c #071319",
"8  c #0D131E",
"9  c #100402",
"0  c #130502",
"q  c #150502",
"w  c #190603",
"e  c #1F140E",
"r  c #040923",
"t  c #050B2C",
"y  c #060D34",
"u  c #070F3C",
"i  c #141B26",
"p  c #141C27",
"a  c #1F290F",
"s  c #211711",
"d  c #281B10",
"f  c #320F07",
"g  c #3F1007",
"h  c #3D180A",
"j  c #071040",
"k  c #081044",
"l  c #09124B",
"z  c #091450",
"x  c #0A1559",
"c  c #0D1B6B",
"v  c #14335E",
"b  c #15365E",
"n  c #0F2276",
"m  c #10257D",
"M  c #344354",
"N  c #255072",
"B  c #2A5778",
"V  c #421008",
"C  c #431008",
"Z  c #471109",
"A  c #441F0D",
"S  c #4C1309",
"D  c #4E1309",
"F  c #5C170A",
"G  c #483525",
"H  c #523D29",
"J  c #64190C",
"K  c #65180C",
"L  c #6B1B0D",
"P  c #701D0D",
"I  c #7A592D",
"U  c #475B74",
"Y  c #4F637B",
"T  c #6A5445",
"R  c #6C5543",
"E  c #15328C",
"W  c #15338C",
"Q  c #17358E",
"!  c #183990",
"~  c #1E4B99",
"^  c #24478E",
"/  c #21539C",
"(  c #265999",
")  c #245D9F",
"_  c #2B738E",
"`  c #2D76A8",
"'  c #4B9054",
"]  c #3181AC",
"[  c #3488AE",
"{  c #358BAF",
"}  c #3990B1",
"|  c #4790B1",
" . c #4BA2B8",
".. c #50A5B9",
"X. c #51A7BA",
"o. c #64B0BD",
"O. c #6AB1BE",
"+. c #6BB2BE",
"@. c #7AB6C0",
"#. c #7EB7C0",
"$. c #8C3416",
"%. c #923B18",
"&. c #94401A",
"*. c #98491D",
"=. c #9B4E1F",
"-. c #9D5622",
";. c #9E5D26",
":. c #856430",
">. c #8C6E3C",
",. c #A05F25",
"<. c #A16126",
"1. c #A3682A",
"2. c #928F39",
"3. c #AE8834",
"4. c #B08F38",
"5. c #B59B40",
"6. c #B49A42",
"7. c #B5976F",
"8. c #B7A048",
"9. c #BAA953",
"0. c #BAA854",
"q. c #BBAC5B",
"w. c #BFB57A",
"e. c #8D8D8D",
"r. c #94A499",
"t. c #9EADB0",
"y. c #97B2BF",
"u. c #B4A18C",
"i. c #B6A28E",
"p. c #B0AE9F",
"a. c #BFB396",
"s. c #A1A9AD",
"d. c #A7ACA8",
"f. c #A5ACAD",
"g. c #A9AEB4",
"h. c #B2B2B2",
"j. c #80B7C0",
"k. c #89B9C2",
"l. c #93BAC2",
"z. c #99BDC3",
"x. c #A4BFC4",
"c. c #B3C0B9",
"v. c #A7C0C5",
"b. c #A9C1C5",
"n. c #AEC2C6",
"m. c #B4C3C6",
"M. c #B8C5C6",
"N. c #BBC5C7",
"B. c #BCC6C7",
"V. c #BEC6C7",
"C. c #C1B882",
"Z. c #C1B885",
"A. c #C2B98B",
"S. c #C3BE9C",
"D. c #C5BFAC",
"F. c #C5C0A5",
"G. c #C5C1AA",
"H. c #C6C3B0",
"J. c #C6C3B1",
"K. c #C6C3B3",
"L. c #C6C4B7",
"P. c #C6C4B8",
"I. c #C7C6BE",
"U. c #C0C0C0",
"Y. c #C1C5C7",
"T. c #C3C7C8",
"R. c #C5C7C8",
"E. c #C6C8C8",
"W. c #C7C8C8",
"Q. c #C8C7C3",
"!. c #C8C7C5",
"~. c #C8C8C6",
"^. c #C8C8C8",
/* pixels */
"e.e.e.e.e.e.e.e.e.e.e.e.e.e.e.e.e.e.e.e.e.e.e.e.e.e.e.e.e.e.e.e.e.e.e.e.e.e.e.e.e.e.e.e.e.e.e.e.e.e.e.e.e.e.e.e.e.e.e.e.e.e.e.e.e.e.e.e.e.e.e.e.e.e.e.e.e.e.e.e.e.e.e.e.e.e.e.e.e.e.e.e.e.e.e.e.e.e.e.e.e.e.e.e.e.e.e.e.e.e.e.e.e.e.e.e.e.e.e.e.e.e.e.e.e.e.U.",
"e.^.^.^.^.^.^.^.^.^.^.^.^.^.^.^.^.^.^.^.^.^.^.^.^.^.^.^.^.^.^.^.^.^.^.^.^.^.^.^.^.^.^.^.^.^.^.^.^.^.^.^.^.^.^.^.^.^.^.^.^.^.^.^.^.^.^.^.^.^.^.^.^.^.^.^.^.^.^.^.^.^.^.^.^.^.^.^.^.^.^.^.^.^.^.^.^.^.^.^.^.^.^.^.^.^.^.^.^.^.^.^.^.^.^.^.^.^.^.^.^.^.^.^.^.^.U.",
"e.^.^.^.^.^.^.^.^.^.^.^.^.^.^.^.^.^.^.^.^.^.^.^.^.^.^.^.^.^.^.^.^.^.^.^.^.^.^.^.^.^.^.^.^.^.^.^.^.^.^.^.^.^.^.^.^.^.^.^.^.^.^.^.^.^.^.^.^.^.^.^.^.^.^.^.^.^.^.^.^.^.^.^.^.^.^.^.^.^.^.^.^.^.^.^.^.^.^.^.^.^.^.^.^.^.^.^.^.^.^.^.^.^.^.^.^.^.^.^.^.^.^.^.^.^.U.",
"e.^.^.^.^.^.^.^.^.^.^.^.^.^.^.^.^.^.^.^.^.^.^.^.^.^.^.^.^.^.^.^.^.^.^.^.^.^.^.^.^.^.^.^.^.^.^.^.^.^.^.^.^.^.^.^.^.^.^.^.^.^.^.^.^.^.^.^.^.^.^.^.^.^.^.^.^.^.^.^.^.^.^.^.^.^.^.^.^.^.^.^.^.^.^.^.^.^.^.^.^.^.^.^.^.^.^.^.^.^.^.^.^.^.^.^.^.^.^.^.^.^.^.^.^.^.U.",
"e.^.^.^.^.^.^.^.^.^.^.^.^.^.^.^.^.^.^.^.^.^.^.^.^.^.^.^.^.^.^.^.^.^.^.^.^.^.^.^.^.^.^.^.^.^.^.^.^.^.^.^.^.^.^.^.^.^.^.^.^.^.^.^.^.^.^.^.^.^.^.^.^.^.^.^.^.^.^.^.^.^.^.^.^.^.^.^.^.^.^.^.^.^.^.^.^.^.^.^.^.^.^.^.^.^.^.^.^.^.^.^.^.^.^.^.^.^.^.^.^.^.^.^.^.^.U.",
"e.^.^.^.^.^.^.^.^.^.^.^.^.^.^.^.^.^.^.^.^.^.^.^.^.^.^.^.^.^.^.^.^.^.^.^.^.^.^.^.^.^.^.^.^.^.^.^.^.^.^.^.^.^.^.^.^.^.^.^.^.^.^.^.^.^.^.^.^.^.^.^.^.^.^.^.^.^.^.^.^.^.^.^.^.^.^.^.^.^.^.^.^.^.^.^.^.^.^.^.^.^.^.^.^.^.^.^.^.^.^.^.^.^.^.^.^.^.^.^.^.^.^.^.^.^.U.",
"e.^.^.Z   l ^.^.^.S.      +.^.^.^.L   u ^.      ^.^.^.^.^.^.^.^.      ^.^.^.^.u.^.^.^.^.^.^.^.^.^.^.^.^.^.^.^.^.^.^.^.^.^.^.^.^.^.^.^.^.^.^.^.^.^.^.^.^.^.^.^.^.^.^.^.^.^.^.^.^.^.^.^.^.^.^.^.^.^.^.^.^.^.^.^.^.^.^.^.^.^.^.^.^.^.^.^.^.^.^.^.^.^.^.^.^.^.^.U.",
"e.^.^.%.  @ M.^.^.6.      ` ^.^.!.w   W ^.      ^.^.^.^.^.^.^.^.      ^.^.i.H   ^.^.^.^.^.^.^.^.^.^.^.^.^.^.^.^.^.^.^.^.^.^.^.^.^.^.^.^.^.^.^.^.^.^.^.^.^.^.^.^.^.^.^.^.^.^.^.^.^.^.^.^.^.^.^.^.^.^.^.^.^.^.^.^.^.^.^.^.^.^.^.^.^.^.^.^.^.^.^.^.^.^.^.^.^.^.U.",
"e.^.^.4.    +.^.^.&.      m ^.^.A.    { ^.      ^.^.^.^.^.^.^.^.h.h.h.^.^.      ^.^.^.^.^.^.^.^.^.^.^.^.^.^.^.^.^.^.^.^.^.^.^.^.^.^.^.^.^.^.^.^.^.^.^.^.^.^.^.^.^.^.^.^.^.^.^.^.^.^.^.^.^.^.^.^.^.^.^.^.^.^.^.^.^.^.^.^.^.^.^.^.^.^.^.^.^.^.^.^.^.^.^.^.^.^.U.",
"e.^.^.C.    ] ^.^.C   6   r ^.^.5.    @.^.      ^.^.^.^.^.^.^.^.^.^.^.^.^.      ^.^.^.^.^.^.^.^.^.^.^.^.^.^.^.^.^.^.^.^.^.^.^.^.^.^.^.^.^.^.^.^.^.^.^.^.^.^.^.^.^.^.^.^.^.^.^.^.^.^.^.^.^.^.^.^.^.^.^.^.^.^.^.^.^.^.^.^.^.^.^.^.^.^.^.^.^.^.^.^.^.^.^.^.^.^.U.",
"e.^.^.!.w   W ^.F.    '     k.^.=.  2 R.^.      S.G , 8 U V.^.^.      ^.          ^.^.K.R e = p Y B.^.^.^.^.^.^.^.^.^.^.^.^.^.^.^.^.^.^.^.^.^.^.^.^.^.^.^.^.^.^.^.^.^.^.^.^.^.^.^.^.^.^.^.^.^.^.^.^.^.^.^.^.^.^.^.^.^.^.^.^.^.^.^.^.^.^.^.^.^.^.^.^.^.^.^.^.U.",
"e.^.^.^.P   k ^.8.  @ c.1   } ^.J   c ^.^.      f         ( ^.^.      ^.          ^.P.A           v R.^.^.^.^.^.^.^.^.^.^.^.^.^.^.^.^.^.^.^.^.^.^.^.^.^.^.^.^.^.^.^.^.^.^.^.^.^.^.^.^.^.^.^.^.^.^.^.^.^.^.^.^.^.^.^.^.^.^.^.^.^.^.^.^.^.^.^.^.^.^.^.^.^.^.^.U.",
"e.^.^.^.<.  @ m.*.  x ^.J   ! !.q   ) ^.^.      v t.>.    y ^.^.      ^.h.      h.^.1.    B d.I     | ^.^.^.^.^.^.^.^.^.^.^.^.^.^.^.^.^.^.^.^.^.^.^.^.^.^.^.^.^.^.^.^.^.^.^.^.^.^.^.^.^.^.^.^.^.^.^.^.^.^.^.^.^.^.^.^.^.^.^.^.^.^.^.^.^.^.^.^.^.^.^.^.^.^.^.U.",
"e.^.^.^.9.    o.D   / ^.,.  j Z.    X.^.^.      y.B.K.    - ^.^.      ^.^.      ^.^.S     t.h.p.    n ^.^.^.^.^.^.^.^.^.^.^.^.^.^.^.^.^.^.^.^.^.^.^.^.^.^.^.^.^.^.^.^.^.^.^.^.^.^.^.^.^.^.^.^.^.^.^.^.^.^.^.^.^.^.^.^.^.^.^.^.^.^.^.^.^.^.^.^.^.^.^.^.^.^.^.U.",
"e.^.^.^.G.    _ %   ..^.q.    2.    v.^.^.      B.^.~.      ^.^.      ^.^.      ^.^.0               t ^.^.^.^.^.^.^.^.^.^.^.^.^.^.^.^.^.^.^.^.^.^.^.^.^.^.^.^.^.^.^.^.^.^.^.^.^.^.^.^.^.^.^.^.^.^.^.^.^.^.^.^.^.^.^.^.^.^.^.^.^.^.^.^.^.^.^.^.^.^.^.^.^.^.^.U.",
"e.^.^.^.^.g   7   @ n.^.P.>   a   j ^.^.^.      ^.^.^.      ^.^.      ^.^.      ^.^.<               ; ^.^.^.^.^.^.^.^.^.^.^.^.^.^.^.^.^.^.^.^.^.^.^.^.^.^.^.^.^.^.^.^.^.^.^.^.^.^.^.^.^.^.^.^.^.^.^.^.^.^.^.^.^.^.^.^.^.^.^.^.^.^.^.^.^.^.^.^.^.^.^.^.^.^.^.U.",
"e.^.^.^.^.$.      z ^.^.^.F       Q ^.^.^.      ^.^.^.      ^.^.      ^.^.      ^.^.C     n.^.I.g.Y.!.^.^.^.^.^.^.^.^.^.^.^.^.^.^.^.^.^.^.^.^.^.^.^.^.^.^.^.^.^.^.^.^.^.^.^.^.^.^.^.^.^.^.^.^.^.^.^.^.^.^.^.^.^.^.^.^.^.^.^.^.^.^.^.^.^.^.^.^.^.^.^.^.^.^.^.U.",
"e.^.^.^.^.3.      ~ ^.^.^.-.      { ^.^.^.      ^.^.^.      ^.^.      ^.^.1     r.R.;.    N f.:.  @ ^ ^.^.^.^.^.^.^.^.^.^.^.^.^.^.^.^.^.^.^.^.^.^.^.^.^.^.^.^.^.^.^.^.^.^.^.^.^.^.^.^.^.^.^.^.^.^.^.^.^.^.^.^.^.^.^.^.^.^.^.^.^.^.^.^.^.^.^.^.^.^.^.^.^.^.^.U.",
"e.^.^.^.^.w.       .^.^.^.9.      #.^.^.^.      ^.^.^.      ^.^.      ^.^.S       v.K.h           4 l.^.^.^.^.^.^.^.^.^.^.^.^.^.^.^.^.^.^.^.^.^.^.^.^.^.^.^.^.^.^.^.^.^.^.^.^.^.^.^.^.^.^.^.^.^.^.^.^.^.^.^.^.^.^.^.^.^.^.^.^.^.^.^.^.^.^.^.^.^.^.^.^.^.^.^.U.",
"e.^.^.^.^.Q.0     v.^.^.^.K.%   3 R.^.^.^.      ^.^.^.      ^.^.      ^.^.7.d @ p z.^.G.T s % 5 M y.^.^.^.^.^.^.^.^.^.^.^.^.^.^.^.^.^.^.^.^.^.^.^.^.^.^.^.^.^.^.^.^.^.^.^.^.^.^.^.^.^.^.^.^.^.^.^.^.^.^.^.^.^.^.^.^.^.^.^.^.^.^.^.^.^.^.^.^.^.^.^.^.^.^.^.^.U.",
"e.^.^.^.^.^.^.^.^.^.^.^.^.^.^.^.^.^.^.^.^.^.^.^.^.^.^.^.^.^.^.^.^.^.^.^.^.^.^.^.^.^.^.^.^.^.^.^.^.^.^.^.^.^.^.^.^.^.^.^.^.^.^.^.^.^.^.^.^.^.^.^.^.^.^.^.^.^.^.^.^.^.^.^.^.^.^.^.^.^.^.^.^.^.^.^.^.^.^.^.^.^.^.^.^.^.^.^.^.^.^.^.^.^.^.^.^.^.^.^.^.^.^.^.^.^.U.",
"e.^.^.^.^.^.^.^.^.^.^.^.^.^.^.^.^.^.^.^.^.^.^.^.^.^.^.^.^.^.^.^.^.^.^.^.^.^.^.^.^.^.^.^.^.^.^.^.^.^.^.^.^.^.^.^.^.^.^.^.^.^.^.^.^.^.^.^.^.^.^.^.^.^.^.^.^.^.^.^.^.^.^.^.^.^.^.^.^.^.^.^.^.^.^.^.^.^.^.^.^.^.^.^.^.^.^.^.^.^.^.^.^.^.^.^.^.^.^.^.^.^.^.^.^.^.U.",
"e.^.^.^.^.^.^.^.^.^.^.^.^.^.^.^.^.^.^.^.^.^.^.^.^.^.^.^.^.^.^.^.^.^.^.^.^.^.^.^.^.^.^.^.^.^.^.^.^.^.^.^.^.^.^.^.^.^.^.^.^.^.^.^.^.^.^.^.^.^.^.^.^.^.^.^.^.^.^.^.^.^.^.^.^.^.^.^.^.^.^.^.^.^.^.^.^.^.^.^.^.^.^.^.^.^.^.^.^.^.^.^.^.^.^.^.^.^.^.^.^.^.^.^.^.^.U.",
"e.^.^.^.^.^.^.^.^.^.^.^.^.^.^.^.^.^.^.^.^.^.^.^.^.^.^.^.^.^.^.^.^.^.^.^.^.^.^.^.^.^.^.^.^.^.^.^.^.^.^.^.^.^.^.^.^.^.^.^.^.^.^.^.^.^.^.^.^.^.^.^.^.^.^.^.^.^.^.^.^.^.^.^.^.^.^.^.^.^.^.^.^.^.^.^.^.^.^.^.^.^.^.^.^.^.^.^.^.^.^.^.^.^.^.^.^.^.^.^.^.^.^.^.^.^.U.",
"e.^.^.^.^.^.^.^.^.^.^.^.^.^.^.^.^.^.^.^.^.^.^.^.^.^.^.^.^.^.^.^.^.^.^.^.^.^.^.^.^.^.^.^.^.^.^.^.^.^.^.^.^.^.^.^.^.^.^.^.^.^.^.^.^.^.^.^.^.^.^.^.^.^.^.^.^.^.^.^.^.^.^.^.^.^.^.^.^.^.^.^.^.^.^.^.^.^.^.^.^.^.^.^.^.^.^.^.^.^.^.^.^.^.^.^.^.^.^.^.^.^.^.^.^.^.U.",
"e.^.^.^.^.^.^.^.^.^.^.^.^.^.^.^.^.^.^.^.^.^.^.^.^.^.^.^.^.^.^.^.^.^.^.^.^.^.^.^.^.^.^.^.^.^.^.^.^.^.^.^.^.^.^.^.^.^.^.^.^.^.^.^.^.^.^.^.^.^.^.^.^.^.^.^.^.^.^.^.^.^.^.^.^.^.^.^.^.^.^.^.^.^.^.^.^.^.^.^.^.^.^.^.^.^.^.^.^.^.^.^.^.^.^.^.^.^.^.^.^.^.^.^.^.^.U.",
"e.U.U.U.U.U.U.U.U.U.U.U.U.U.U.U.U.U.U.U.U.U.U.U.U.U.U.U.U.U.U.U.U.U.U.U.U.U.U.U.U.U.U.U.U.U.U.U.U.U.U.U.U.U.U.U.U.U.U.U.U.U.U.U.U.U.U.U.U.U.U.U.U.U.U.U.U.U.U.U.U.U.U.U.U.U.U.U.U.U.U.U.U.U.U.U.U.U.U.U.U.U.U.U.U.U.U.U.U.U.U.U.U.U.U.U.U.U.U.U.U.U.U.U.U.U.U."
};
