/* XPM */
static char *bold_color_lightgreen[] = {
/* columns rows colors chars-per-pixel */
"127 27 131 2",
"   c black",
".  c #000100",
"X  c #000200",
"o  c #000300",
"O  c #000400",
"+  c #000500",
"@  c #000700",
"#  c #000800",
"$  c #000900",
"%  c #000A00",
"&  c #000C00",
"*  c #000D00",
"=  c #000E00",
"-  c #000F00",
";  c #001000",
":  c #001200",
">  c #001300",
",  c #001500",
"<  c #001600",
"1  c #001800",
"2  c #001A00",
"3  c #001C00",
"4  c #001D00",
"5  c #001F00",
"6  c #002200",
"7  c #002400",
"8  c #002600",
"9  c #002700",
"0  c #002A00",
"q  c #002B00",
"w  c #002D00",
"e  c #003100",
"r  c #003600",
"t  c #003800",
"y  c #003A00",
"u  c #003B00",
"i  c #003C00",
"p  c #004000",
"a  c #004100",
"s  c #004200",
"d  c #004300",
"f  c #004400",
"g  c #004500",
"h  c #004600",
"j  c #004A00",
"k  c #004B00",
"l  c #004E00",
"z  c #005500",
"x  c #005800",
"c  c #005A00",
"v  c #005E00",
"b  c #006000",
"n  c #006600",
"m  c #006B00",
"M  c #006D00",
"N  c #006E00",
"B  c #006F00",
"V  c #007000",
"C  c #007100",
"Z  c #007200",
"A  c #007400",
"S  c #007700",
"D  c #007800",
"F  c #007A00",
"G  c #007E00",
"H  c #007F00",
"J  c #008000",
"K  c #008100",
"L  c #008500",
"P  c #008700",
"I  c #008B00",
"U  c #008C00",
"Y  c #008D00",
"T  c #009000",
"R  c #009300",
"E  c #009900",
"W  c #00A400",
"Q  c #00A900",
"!  c #00AD00",
"~  c #00B200",
"^  c #00B400",
"/  c #00B700",
"(  c #00B800",
")  c #00B900",
"_  c #00BD00",
"`  c #00C100",
"'  c #00C200",
"]  c #00C500",
"[  c #00C600",
"{  c #00C800",
"}  c #00CD00",
"|  c #00CE00",
" . c #00CF00",
".. c #00D100",
"X. c #00D200",
"o. c #00D400",
"O. c #00D500",
"+. c #00D600",
"@. c #00D700",
"#. c #00D800",
"$. c #00DB00",
"%. c #00DC00",
"&. c #00DD00",
"*. c #00DE00",
"=. c #00E000",
"-. c #00E300",
";. c #00E400",
":. c #00E700",
">. c #00E800",
",. c #00E900",
"<. c #00EA00",
"1. c #00ED00",
"2. c #00EE00",
"3. c #00EF00",
"4. c #00F000",
"5. c #00F100",
"6. c #00F300",
"7. c #00F400",
"8. c #00F500",
"9. c #00F600",
"0. c #00F700",
"q. c #00F800",
"w. c #00F900",
"e. c #00FA00",
"r. c #00FB00",
"t. c #00FC00",
"y. c #00FD00",
"u. c #00FE00",
"i. c green",
"p. c #8D8D8D",
"a. c #C0C0C0",
/* pixels */
"p.p.p.p.p.p.p.p.p.p.p.p.p.p.p.p.p.p.p.p.p.p.p.p.p.p.p.p.p.p.p.p.p.p.p.p.p.p.p.p.p.p.p.p.p.p.p.p.p.p.p.p.p.p.p.p.p.p.p.p.p.p.p.p.p.p.p.p.p.p.p.p.p.p.p.p.p.p.p.p.p.p.p.p.p.p.p.p.p.p.p.p.p.p.p.p.p.p.p.p.p.p.p.p.p.p.p.p.p.p.p.p.p.p.p.p.p.p.p.p.p.p.p.p.p.p.a.",
"p.i.i.i.i.i.i.i.i.i.i.i.i.i.i.i.i.i.i.i.i.i.i.i.i.i.i.i.i.i.i.i.i.i.i.i.i.i.i.i.i.i.i.i.i.i.i.i.i.i.i.i.i.i.i.i.i.i.i.i.i.i.i.i.i.i.i.i.i.i.i.i.i.i.i.i.i.i.i.i.i.i.i.i.i.i.i.i.i.i.i.i.i.i.i.i.i.i.i.i.i.i.i.i.i.i.i.i.i.i.i.i.i.i.i.i.i.i.i.i.i.i.i.i.i.i.a.",
"p.i.i.i.i.i.i.i.i.i.i.i.i.i.i.i.i.i.i.i.i.i.i.i.i.i.i.i.i.i.i.i.i.i.i.i.i.i.i.i.i.i.i.i.i.i.i.i.i.i.i.i.i.i.i.i.i.i.i.i.i.i.i.i.i.i.i.i.i.i.i.i.i.i.i.i.i.i.i.i.i.i.i.i.i.i.i.i.i.i.i.i.i.i.i.i.i.i.i.i.i.i.i.i.i.i.i.i.i.i.i.i.i.i.i.i.i.i.i.i.i.i.i.i.i.i.a.",
"p.i.i.i.i.i.i.i.i.i.i.i.i.i.i.i.i.i.i.i.i.i.i.i.i.i.i.i.i.i.i.i.i.i.i.i.i.i.i.i.i.i.i.i.i.i.i.i.i.i.i.i.i.i.i.i.i.i.i.i.i.i.i.i.i.i.i.i.i.i.i.i.i.i.i.i.i.i.i.i.i.i.i.i.i.i.i.i.i.i.i.i.i.i.i.i.i.i.i.i.i.i.i.i.i.i.i.i.i.i.i.i.i.i.i.i.i.i.i.i.i.i.i.i.i.i.a.",
"p.i.i.i.i.i.i.i.i.i.i.i.i.i.i.i.i.i.i.i.i.i.i.i.i.i.i.i.i.i.i.i.i.i.i.i.i.i.i.i.i.i.i.i.i.i.i.i.i.i.i.i.i.i.i.i.i.i.i.i.i.i.i.i.i.i.i.i.i.i.i.i.i.i.i.i.i.i.i.i.i.i.i.i.i.i.i.i.i.i.i.i.i.i.i.i.i.i.i.i.i.i.i.i.i.i.i.i.i.i.i.i.i.i.i.i.i.i.i.i.i.i.i.i.i.i.a.",
"p.i.i.i.i.i.i.i.i.i.i.i.i.i.i.i.i.i.i.i.i.i.i.i.i.i.i.i.i.i.i.i.i.i.i.i.i.i.i.i.i.i.i.i.i.i.i.i.i.i.i.i.i.i.i.i.i.i.i.i.i.i.i.i.i.i.i.i.i.i.i.i.i.i.i.i.i.i.i.i.i.i.i.i.i.i.i.i.i.i.i.i.i.i.i.i.i.i.i.i.i.i.i.i.i.i.i.i.i.i.i.i.i.i.i.i.i.i.i.i.i.i.i.i.i.i.a.",
"p.i.i.i.      i.i.i.i.i.i.i.i.      i.i.i.i.i.i.i.i.i.i.i.i.i.      i.i.i.i.i.i.i.i.i.i.| i.i.i.i.i.i.i.i.i.i.E t &   , k / i.i.i.i.i.i.i.i.i.i.i.i.i.i.i.i.i.i.i.i.i.i.i.i.i.i.i.i.i.i.i.i.i.i.i.i.i.i.i.i.i.i.i.i.i.i.i.i.i.i.i.i.i.i.i.i.i.i.i.i.i.i.i.i.a.",
"p.i.i.i.      i.i.i.i.i.i.i.i.      i.i.i.i.i.i.i.i.i.i.i.i.i.      i.i.i.i.i.i.i.i.| l   i.i.i.i.i.i.i.i.0.r               D i.i.i.i.i.i.i.i.i.i.i.i.i.i.i.i.i.i.i.i.i.i.i.i.i.i.i.i.i.i.i.i.i.i.i.i.i.i.i.i.i.i.i.i.i.i.i.i.i.i.i.i.i.i.i.i.i.i.i.i.i.i.i.a.",
"p.i.i.i.      i.i.i.i.i.i.i.i.-.-.-.i.i.i.i.i.i.i.i.i.i.i.i.i.      i.i.i.i.i.i.i.i.      i.i.i.i.i.i.i.i.i     k [ &.I       O.i.i.i.i.i.i.i.i.i.i.i.i.i.i.i.i.i.i.i.i.i.i.i.i.i.i.i.i.i.i.i.i.i.i.i.i.i.i.i.i.i.i.i.i.i.i.i.i.i.i.i.i.i.i.i.i.i.i.i.i.i.i.a.",
"p.i.i.i.      i.i.i.i.i.i.i.i.i.i.i.i.i.i.i.i.i.i.i.i.i.i.i.i.      i.i.i.i.i.i.i.i.      i.i.i.i.i.i.i.|     9 i.i.i.i.Z     t i.i.i.i.i.i.i.i.i.i.i.i.i.i.i.i.i.i.i.i.i.i.i.i.i.i.i.i.i.i.i.i.i.i.i.i.i.i.i.i.i.i.i.i.i.i.i.i.i.i.i.i.i.i.i.i.i.i.i.i.i.i.a.",
"p.i.i.i.      i.i.i.i.i.i.i.i.      i.i.i.O.t $ 0 O.      i.i.      ;.h + 2 Z i.i.          i.i.i.i.i.i.t     [ i.i.i.i.5.I _ 3.i.i.      ! , $ n i.i.w.B 2 + 6 G w.i.i.i.i.0.B 2 + 6 G w.i.i.i.      <.h $ , B w.i.i.i.i.i.i.i.i.i.i.i.i.i.i.i.i.i.i.i.i.i.a.",
"p.i.i.i.      i.i.i.i.i.i.i.i.      i.i.3.$       :       i.i.      :         Z i.          i.i.i.i.i.i.:     5.i.i.i.i.i.i.i.i.i.i.      +     [ i.w.9           d i.i.i.w.9           d i.i.i.      5         b i.i.i.i.i.i.i.i.i.i.i.i.i.i.i.i.i.i.i.i.i.a.",
"p.i.i.i.      i.i.i.i.i.i.i.i.      i.i.z     k @.i       i.i.      d O.Y     : i.-.      -.i.i.i.i.i.i.      i.i.i.;.;.-.-.-.-.i.i.      r O.~ w.i.P     B @.Z     ) i.i.P     B @.Z     ) i.i.      d O.K     & i.i.i.i.i.i.i.i.i.i.i.i.i.i.i.i.i.i.i.i.i.a.",
"p.i.i.i.      i.i.i.i.i.i.i.i.      i.i.,     <.i.<.      i.i.      <.i.w.      i.i.      i.i.i.i.i.i.i.+     i.i.i.            i.i.      &.i.i.i.i.,     &.;.-.    0 i.i.,     &.;.-.    0 i.i.      <.i.0.      i.i.i.i.i.i.i.i.i.i.i.i.i.i.i.i.i.i.i.i.i.a.",
"p.i.i.i.      i.i.i.i.i.i.i.i.      i.i.+     i.i.i.      i.i.      i.i.i.      i.i.      i.i.i.i.i.i.i.:     3.i.i.            i.i.      0.i.i.i.i.+               & i.i.+               : i.i.      i.i.i.      i.i.i.i.i.i.i.i.i.i.i.i.i.i.i.i.i.i.i.i.i.a.",
"p.i.i.i.      i.i.i.i.i.i.i.i.      i.i.      i.i.i.      i.i.      i.i.i.      i.i.      i.i.i.i.i.i.i.h     / i.i.i.i.i.      i.i.      i.i.i.i.i.+               + i.i.+                 i.i.      i.i.i.      i.i.i.i.i.i.i.i.i.i.i.i.i.i.i.i.i.i.i.i.i.a.",
"p.i.i.i.      i.i.i.i.i.i.i.i.      i.i.:     <.i.<.      i.i.      i.i.i.      i.i.      i.i.i.i.i.i.i.O.    2 i.i.i.i.w.      i.i.      i.i.i.i.i.,     0.i.i.&.i.i.i.i.,     w.i.i.&.i.i.i.i.      i.i.i.      i.i.i.i.i.i.i.i.i.i.i.i.i.i.i.i.i.i.i.i.i.a.",
"p.i.i.i.      / / / / / / -.i.      i.i.v     k @.i       i.i.      i.i.i.      i.i.+     | i.i.i.i.i.i.i.d     i [ &.W 6       i.i.      i.i.i.i.i.S     n @.K     z i.i.S     n @.G     z i.i.      i.i.i.      i.i.i.i.i.i.i.i.i.i.i.i.i.i.i.i.i.i.i.i.i.a.",
"p.i.i.i.                  Y i.      i.i.5.$       &       i.i.      i.i.i.      i.i.,       0.i.i.i.i.i.i.w.d               + K i.i.      i.i.i.i.i.w.5           $ 3.i.i.w.5           $ 3.i.i.      i.i.i.      i.i.i.i.i.i.i.i.i.i.i.i.i.i.i.i.i.i.i.i.i.a.",
"p.i.i.i.                  Y i.      i.i.i.X.t + w O.    + i.i.      i.i.i.      i.i.' 6   9 5.i.i.i.i.i.i.i.i.W h :   , d P <.i.i.i.      i.i.i.i.i.i.0.m 5 + & z ;.i.i.i.i.0.m 5   : z -.i.i.i.      i.i.i.      i.i.i.i.i.i.i.i.i.i.i.i.i.i.i.i.i.i.i.i.i.a.",
"p.i.i.i.i.i.i.i.i.i.i.i.i.i.i.i.i.i.i.i.Q ' &.w.i.i.    & i.i.i.i.i.i.i.i.i.i.i.i.i.i.i.i.i.i.i.i.i.i.i.i.i.i.i.i.i.i.i.i.i.i.i.i.i.i.i.i.i.i.i.i.i.i.i.i.i.i.i.i.i.i.i.i.i.i.i.i.i.i.i.i.i.i.i.i.i.i.i.i.i.i.i.i.i.i.i.i.i.i.i.i.i.i.i.i.i.i.i.i.i.i.i.i.i.a.",
"p.i.i.i.i.i.i.i.i.i.i.i.i.i.i.i.i.i.i.i.$     h -.R     w i.i.i.i.i.i.i.i.i.i.i.i.i.i.i.i.i.i.i.i.i.i.i.i.i.i.i.i.i.i.i.i.i.i.i.i.i.i.i.i.i.i.i.i.i.i.i.i.i.i.i.i.i.i.i.i.i.i.i.i.i.i.i.i.i.i.i.i.i.i.i.i.i.i.i.i.i.i.i.i.i.i.i.i.i.i.i.i.i.i.i.i.i.i.i.i.i.a.",
"p.i.i.i.i.i.i.i.i.i.i.i.i.i.i.i.i.i.i.i.D               | i.i.i.i.i.i.i.i.i.i.i.i.i.i.i.i.i.i.i.i.i.i.i.i.i.i.i.i.i.i.i.i.i.i.i.i.i.i.i.i.i.i.i.i.i.i.i.i.i.i.i.i.i.i.i.i.i.i.i.i.i.i.i.i.i.i.i.i.i.i.i.i.i.i.i.i.i.i.i.i.i.i.i.i.i.i.i.i.i.i.i.i.i.i.i.i.i.a.",
"p.i.i.i.i.i.i.i.i.i.i.i.i.i.i.i.i.i.i.i.i.Y e $   & d ) i.i.i.i.i.i.i.i.i.i.i.i.i.i.i.i.i.i.i.i.i.i.i.i.i.i.i.i.i.i.i.i.i.i.i.i.i.i.i.i.i.i.i.i.i.i.i.i.i.i.i.i.i.i.i.i.i.i.i.i.i.i.i.i.i.i.i.i.i.i.i.i.i.i.i.i.i.i.i.i.i.i.i.i.i.i.i.i.i.i.i.i.i.i.i.i.i.i.a.",
"p.i.i.i.i.i.i.i.i.i.i.i.i.i.i.i.i.i.i.i.i.i.i.i.i.i.i.i.i.i.i.i.i.i.i.i.i.i.i.i.i.i.i.i.i.i.i.i.i.i.i.i.i.i.i.i.i.i.i.i.i.i.i.i.i.i.i.i.i.i.i.i.i.i.i.i.i.i.i.i.i.i.i.i.i.i.i.i.i.i.i.i.i.i.i.i.i.i.i.i.i.i.i.i.i.i.i.i.i.i.i.i.i.i.i.i.i.i.i.i.i.i.i.i.i.i.a.",
"p.i.i.i.i.i.i.i.i.i.i.i.i.i.i.i.i.i.i.i.i.i.i.i.i.i.i.i.i.i.i.i.i.i.i.i.i.i.i.i.i.i.i.i.i.i.i.i.i.i.i.i.i.i.i.i.i.i.i.i.i.i.i.i.i.i.i.i.i.i.i.i.i.i.i.i.i.i.i.i.i.i.i.i.i.i.i.i.i.i.i.i.i.i.i.i.i.i.i.i.i.i.i.i.i.i.i.i.i.i.i.i.i.i.i.i.i.i.i.i.i.i.i.i.i.i.a.",
"p.a.a.a.a.a.a.a.a.a.a.a.a.a.a.a.a.a.a.a.a.a.a.a.a.a.a.a.a.a.a.a.a.a.a.a.a.a.a.a.a.a.a.a.a.a.a.a.a.a.a.a.a.a.a.a.a.a.a.a.a.a.a.a.a.a.a.a.a.a.a.a.a.a.a.a.a.a.a.a.a.a.a.a.a.a.a.a.a.a.a.a.a.a.a.a.a.a.a.a.a.a.a.a.a.a.a.a.a.a.a.a.a.a.a.a.a.a.a.a.a.a.a.a.a.a.a."
};
