/* XPM */
static char *brightwhite[] = {
/* columns rows colors chars-per-pixel */
"127 27 188 2",
"   c #000000",
".  c #02030B",
"X  c #05090D",
"o  c #0C0403",
"O  c #0E0805",
"+  c #020411",
"@  c #03071B",
"#  c #040918",
"$  c #0A0E14",
"%  c #0A1C0A",
"&  c #0C111A",
"*  c #110402",
"=  c #190603",
"-  c #050A27",
";  c #050B2D",
":  c #060C31",
">  c #070E3A",
",  c #091820",
"<  c #111826",
"1  c #192331",
"2  c #210804",
"3  c #290A05",
"4  c #23150C",
"5  c #271A12",
"6  c #2A1D16",
"7  c #273413",
"8  c #332215",
"9  c #3E3126",
"0  c #081042",
"q  c #09134A",
"w  c #091453",
"e  c #0B175F",
"r  c #0C1966",
"t  c #0D1C6D",
"y  c #0D1B71",
"u  c #1C2B42",
"i  c #16366D",
"p  c #1A3D65",
"a  c #2B3849",
"s  c #1A4378",
"d  c #344354",
"f  c #39475A",
"g  c #401309",
"h  c #4C1209",
"j  c #4E1F0D",
"k  c #531409",
"l  c #5B160B",
"z  c #4C2810",
"x  c #572710",
"c  c #4E3825",
"v  c #523C29",
"b  c #62180B",
"n  c #751D0D",
"m  c #723C18",
"M  c #5C442F",
"N  c #784019",
"B  c #694E34",
"V  c #7A5022",
"C  c #42556B",
"Z  c #102289",
"A  c #122984",
"S  c #132C94",
"D  c #152F9F",
"F  c #1C468D",
"G  c #1D4A82",
"H  c #1B41B3",
"J  c #1E49B7",
"K  c #2E5AB5",
"L  c #2F6691",
"P  c #366F99",
"I  c #2660B7",
"U  c #2660C3",
"Y  c #2A6AC7",
"T  c #2E77CB",
"R  c #3B66C1",
"E  c #3071C3",
"W  c #5B7494",
"Q  c #657E9D",
"!  c #60B86B",
"~  c #3793B5",
"^  c #3996D6",
"/  c #3EA4DB",
"(  c #6284AB",
")  c #4183CA",
"_  c #42ADDE",
"`  c #44B1DF",
"'  c #49B8E2",
"]  c #5AB8E2",
"[  c #5DC5E7",
"{  c #5FCEEA",
"}  c #66D4EC",
"|  c #7FE1F1",
" . c #811F0F",
".. c #80200F",
"X. c #8B2310",
"o. c #9C7239",
"O. c #B3421C",
"+. c #BA4B1F",
"@. c #BD5221",
"#. c #BB5B25",
"$. c #A27B3D",
"%. c #A97F3D",
"&. c #876B58",
"*. c #8A6D56",
"=. c #C25D25",
"-. c #C56428",
";. c #C86E2B",
":. c #CC792F",
">. c #C3783A",
",. c #CA7730",
"<. c #CD7C30",
"1. c #B08340",
"2. c #B28C4C",
"3. c #B49355",
"4. c #AC8D74",
"5. c #BAB649",
"6. c #D08536",
"7. c #DEAD42",
"8. c #DEAD79",
"9. c #E1B648",
"0. c #E6C553",
"q. c #E9CC5C",
"w. c #EDD66A",
"e. c #EFDB74",
"r. c #8D8D8D",
"t. c #A4A9AE",
"y. c #90B2D9",
"u. c #99B9DC",
"i. c #80C6E9",
"p. c SkyBlue",
"a. c #80DEF0",
"s. c #98DAF0",
"d. c #87E2F2",
"f. c #88E3F2",
"g. c #9CE8F5",
"h. c #BDC2C7",
"j. c #BDD1C3",
"k. c #A7C8E9",
"l. c #A5D6EF",
"z. c #A8D5EF",
"x. c #A3E9F5",
"c. c #ABEBF6",
"v. c #BCEDF7",
"b. c #C5B298",
"n. c #CAB9A4",
"m. c #E7C18E",
"M. c #E6CDB2",
"N. c #E8CFB5",
"B. c #EED3AC",
"V. c #F4E79B",
"C. c #F5E89F",
"Z. c #F6EAA6",
"A. c #F6EBA9",
"S. c #F4E4BF",
"D. c #F7ECB1",
"F. c #F8EFBF",
"G. c #C0C0C0",
"H. c #CFD7CD",
"J. c #C8D6DB",
"K. c #CDD8DC",
"L. c #D3CBC2",
"P. c #D1D6CC",
"I. c #D5DBD6",
"U. c #D2DBDC",
"Y. c #DFDDDA",
"T. c #C9DDE1",
"R. c #D7DCE1",
"E. c #D8DEE5",
"W. c #DBE0DF",
"Q. c #C0E3F4",
"!. c #C3F1F9",
"~. c #D3F4FA",
"^. c #DCF6FB",
"/. c #E1DECB",
"(. c #E2E0DE",
"). c #F9F1C6",
"_. c #FAF4D1",
"`. c #FBF5DA",
"'. c #FCF8DF",
"]. c gray89",
"[. c #E4F5EC",
"{. c #E4F8FC",
"}. c #EBFAFD",
"|. c #FCF8E2",
" X c #FDFAEB",
".X c #F2FBFD",
"XX c #FDFBF2",
"oX c #FEFEFE",
/* pixels */
"r.r.r.r.r.r.r.r.r.r.r.r.r.r.r.r.r.r.r.r.r.r.r.r.r.r.r.r.r.r.r.r.r.r.r.r.r.r.r.r.r.r.r.r.r.r.r.r.r.r.r.r.r.r.r.r.r.r.r.r.r.r.r.r.r.r.r.r.r.r.r.r.r.r.r.r.r.r.r.r.r.r.r.r.r.r.r.r.r.r.r.r.r.r.r.r.r.r.r.r.r.r.r.r.r.r.r.r.r.r.r.r.r.r.r.r.r.r.r.r.r.r.r.r.r.r.G.",
"r.oXoXoXoXoXoXoXoXoXoXoXoXoXoXoXoXoXoXoXoXoXoXoXoXoXoXoXoXoXoXoXoXoXoXoXoXoXoXoXoXoXoXoXoXoXoXoXoXoXoXoXoXoXoXoXoXoXoXoXoXoXoXoXoXoXoXoXoXoXoXoXoXoXoXoXoXoXoXoXoXoXoXoXoXoXoXoXoXoXoXoXoXoXoXoXoXoXoXoXoXoXoXoXoXoXoXoXoXoXoXoXoXoXoXoXoXoXoXoXoXoXoXoXoXoXG.",
"r.oXoXoXoXoXoXoXoXoXoXoXoXoXoXoXoXoXoXoXoXoXoXoXoXoXoXoXoXoXoXoXoXoXoXoXoXoXoXoXoXoXoXoXoXoXoXoXoXoXoXoXoXoXoXoXoXoXoXoXoXoXoXoXoXoXoXoXoXoXoXoXoXoXoXoXoXoXoXoXoXoXoXoXoXoXoXoXoXoXoXoXoXoXoXoXoXoXoXoXoXoXoXoXoXoXoXoXoXoXoXoXoXoXoXoXoXoXoXoXoXoXoXoXoXoXG.",
"r.oXoXoXoXoXoXoXoXoXoXoXoXoXoXoXoXoXoXoXoXoXoXoXoXoXoXoXoXoXoXoXoXoXoXoXoXoXoXoXoXoXoXoXoXoXoXoXoXoXoXoXoXoXoXoXoXoXoXoXoXoXoXoXoXoXoXoXoXoXoXoXoXoXoXoXoXoXoXoXoXoXoXoXoXoXoXoXoXoXoXoXoXoXoXoXoXoXoXoXoXoXoXoXoXoXoXoXoXoXoXoXoXoXoXoXoXoXoXoXoXoXoXoXoXoXG.",
"r.oXoXoXoXoXoXoXoXoXoXoXoXoXoXoXoXoXoXoXoXoXoXoXoXoXoXoXoXoXoXoXoXoXoXoXoXoXoXoXoXoXoXoXoXoXoXoXoXoXoXoXoXoXoXoXoXoXoXoXoXoXoXoXoXoXoXoXoXoXoXoXoXoXoXoXoXoXoXoXoXoXoXoXoXoXoXoXoXoXoXoXoXoXoXoXoXoXoXoXoXoXoXoXoXoXoXoXoXoXoXoXoXoXoXoXoXoXoXoXoXoXoXoXoXoXG.",
"r.oXoXoXoXoXoXoXoXoXoXoXoXoXoXoXoXoXoXoXoXoXoXoXoXoXoXoXoXoXoXoXoXoXoXoXoXoXoXoXoXoXoXoXoXoXoXoXoXoXoXoXoXoXoXoXoXoXoXoXoXoXoXoXoXoXoXoXoXoXoXoXoXoXoXoXoXoXoXoXoXoXoXoXoXoXoXoXoXoXoXoXoXoXoXoXoXoXoXoXoXoXoXoXoXoXoXoXoXoXoXoXoXoXoXoXoXoXoXoXoXoXoXoXoXoXG.",
"r.oXoXoX            $ a y.oXoXoXoXoXoXoXoXoXoXoXoX      oXoXoXoXoXoXoXoXoXoXoXoXoX      oXoXoXoXoXoXoXoXoXoXM.oXoXoXoXoXoXl   e oXoXoX).      f.oXoXoXX.  q oX      oXoXoXoXoXoXoXoX      oXoXoXoXM.oXoXoXoXoXoXoXoXoXoXoXoXoXoXoXoXoXoXoXoXoXoXoXoXoXoXoXoXG.",
"r.oXoXoX                  i.oXoXoXoXoXoXoXoXoXoXoX      oXoXoXoXoXoXoXoXoXoXoXoXoX      oXoXoXoXoXoXoXoXN.B   oXoXoXoXoXoX+.    }.oXoX0.      ^ oXoXoX=   H oX      oXoXoXoXoXoXoXoX      oXoXN.B   oXoXoXoXoXoXoXoXoXoXoXoXoXoXoXoXoXoXoXoXoXoXoXoXoXoXoXoXG.",
"r.oXoXoX      ].].Y.$.    t oXoXoXoXoXoXoXoXoXoXoX].].].oXoXoXoXoXoXoXoXoXoXoXoXoX      oXoXoXoXoXoXoXoX      oXoXoXoXoXoX9.    d.oXoX@.      D oXoXD.    _ oX      oXoXoXoXoXoXoXoX].].].oXoX      oXoXoXoXoXoXoXoXoXoXoXoXoXoXoXoXoXoXoXoXoXoXoXoXoXoXoXoXG.",
"r.oXoXoX      oXoXoX'.    . oXoXoXoXoXoXoXoXoXoXoXoXoXoXoXoXoXoXoXoXoXoXoXoXoXoXoX      oXXXoXoXoXoXoXoX      oXoXoXoXoXoXZ.    / oXoXk   %   ; oXoX0.    g.oX      oXoXoXoXoXoXoXoXoXoXoXoXoX      oXoXoXoXoXoXoXoXoXoXoXoXoXoXoXoXoXoXoXoXoXoXoXoXoXoXoXoXG.",
"r.oXoXoX      oXoXoX|.    ; oXoXoX      8.4 X R oX      oXoXoXB.v O u l.      oXoX      S.M O < W }.oX          oXoXoXoXoXoX2   H oX`.    !     c.oX-.o @ oXoX      S.M O < W }.oXoX      oX          oXoX|.*.5 . 1 Q .XoXoXoXoXoXoXoXoXoXoXoXoXoXoXoXoXoXoXG.",
"r.oXoXoX      oXoXXX1.    K oXoXoX      =     [ oX      oXoXF.2       q       oXoX      8         E oX          oXoXoXoXoXoXX.  w oXq.  . [.*   ' oXn   Z oXoX    o 8         E oXoX      oX          oX Xx           s oXoXoXoXoXoXoXoXoXoXoXoXoXoXoXoXoXoXG.",
"r.oXoXoX                p {.oXoXoX      i J.b.}.oX      oXoX#.    G H.N       oXoX      s K.2.    0 oX].      ].oXoXoXoXoXoX:.    {.=.  y oX..  J XX=   T oXoX      s K.2.    0 oXoX      oX].      ].oX6.    P I.o.    ] oXoXoXoXoXoXoXoXoXoXoXoXoXoXoXoXoXG.",
"r.oXoXoX                # ( oXoXoX      | oXoXoXoX      oXoXh     x.oXC.      oXoX      x.oX|.    . oXoX      oXoXoXoXoXoXoXw.    | b   Y oX<.  w A.    } oXoX      x.oX|.    . oXoX      oXoX      oXoXb     T.]./.    S oXoXoXoXoXoXoXoXoXoXoXoXoXoXoXoXoXG.",
"r.oXoXoX      ].].(.L.V     ^ XXoX      ~.oXoXoXoX      oXoX*     .XoXXX      oXoX      }.oXoX      oXoX      oXoXoXoXoXoXoX`.    ~ o   } oXe.    5.    ^.oXoX      }.oXoX      oXoX      oXoX      oXoX*               > oXoXoXoXoXoXoXoXoXoXoXoXoXoXoXoXoXG.",
"r.oXoXoX      oXoXoXoX_.    ; oXoX      .XoXoXoXoX      oXoXo     .XoXXX      oXoX      oXoXoX      oXoX      oXoXoXoXoXoXoXoXk   ,     ^.oX Xo   7   w oXoXoX      oXoXoX      oXoX      oXoX      oXoXo               . oXoXoXoXoXoXoXoXoXoXoXoXoXoXoXoXoXG.",
"r.oXoXoX      oXoXoXoX).    + oXoX      oXoXoXoXoX      oXoXh     x.oXC.      oXoX      oXoXoX      oXoX      oXoXoXoXoXoXoXoXO.      r oXoXoXn       H oXoXoX      oXoXoX      oXoX      oXoX      oXoXk     ^.oXXXE..XoXoXoXoXoXoXoXoXoXoXoXoXoXoXoXoXoXoXG.",
"r.oXoXoX      ].].].n.z     A oXoX      oXoXoXoXoX      oXoX#.    G P.m       oXoX      oXoXoX      oXoX*     j.oXoXoXoXoXoXoX7.      U oXoXoX;.      ` oXoXoX      oXoXoX      oXoX      oXoXo     j.oX,.    L U.%.    K oXoXoXoXoXoXoXoXoXoXoXoXoXoXoXoXoXG.",
"r.oXoXoX                  . s.oXoX      oXoXoXoXoX      oXoX).2       >       oXoX      oXoXoX      oXoXb       ~.oXoXoXoXoXoXV.      { oXoXoXw.      x.oXoXoX      oXoXoX      oXoX      oXoXb       ~.|.j           - v.oXoXoXoXoXoXoXoXoXoXoXoXoXoXoXoXoXG.",
"r.oXoXoX              & f k.oXoXoX      oXoXoXoXoX      oXoXoXB.c O u z.    . oXoX      oXoXoX      oXoXm.8   1 !.oXoXoXoXoXoXXX=     ~.oXoXoX|.o   @ oXoXoXoX      oXoXoX      oXoX      oXoXm.8   1 !.oX`.&.6 o & C Q.oXoXoXoXoXoXoXoXoXoXoXoXoXoXoXoXoXoXG.",
"r.oXoXoXoXoXoXoXoXoXoXoXoXoXoXoXoXoXoXoXoXoXoXoXoXoXoXoXoXoXt.h.R..XoX X    : oXoXoXoXoXoXoXoXoXoXoXoXoXoXoXoXoXoXoXoXoXoXoXoXoXoXoXoXoXoXoXoXoXoXoXoXoXoXoXoXoXoXoXoXoXoXoXoXoXoXoXoXoXoXoXoXoXoXoXoXoXoXoXoXoXoXoXoXoXoXoXoXoXoXoXoXoXoXoXoXoXoXoXoXoXoXoXG.",
"r.oXoXoXoXoXoXoXoXoXoXoXoXoXoXoXoXoXoXoXoXoXoXoXoXoXoXoXoXoX3     F R.3.    S oXoXoXoXoXoXoXoXoXoXoXoXoXoXoXoXoXoXoXoXoXoXoXoXoXoXoXoXoXoXoXoXoXoXoXoXoXoXoXoXoXoXoXoXoXoXoXoXoXoXoXoXoXoXoXoXoXoXoXoXoXoXoXoXoXoXoXoXoXoXoXoXoXoXoXoXoXoXoXoXoXoXoXoXoXoXoXG.",
"r.oXoXoXoXoXoXoXoXoXoXoXoXoXoXoXoXoXoXoXoXoXoXoXoXoXoXoXoXoX>.              p.oXoXoXoXoXoXoXoXoXoXoXoXoXoXoXoXoXoXoXoXoXoXoXoXoXoXoXoXoXoXoXoXoXoXoXoXoXoXoXoXoXoXoXoXoXoXoXoXoXoXoXoXoXoXoXoXoXoXoXoXoXoXoXoXoXoXoXoXoXoXoXoXoXoXoXoXoXoXoXoXoXoXoXoXoXoXoXG.",
"r.oXoXoXoXoXoXoXoXoXoXoXoXoXoXoXoXoXoXoXoXoXoXoXoXoXoXoXoXoXoX4.9 O   $ d u.oXoXoXoXoXoXoXoXoXoXoXoXoXoXoXoXoXoXoXoXoXoXoXoXoXoXoXoXoXoXoXoXoXoXoXoXoXoXoXoXoXoXoXoXoXoXoXoXoXoXoXoXoXoXoXoXoXoXoXoXoXoXoXoXoXoXoXoXoXoXoXoXoXoXoXoXoXoXoXoXoXoXoXoXoXoXoXoXG.",
"r.oXoXoXoXoXoXoXoXoXoXoXoXoXoXoXoXoXoXoXoXoXoXoXoXoXoXoXoXoXoXoXoXoXoXoXoXoXoXoXoXoXoXoXoXoXoXoXoXoXoXoXoXoXoXoXoXoXoXoXoXoXoXoXoXoXoXoXoXoXoXoXoXoXoXoXoXoXoXoXoXoXoXoXoXoXoXoXoXoXoXoXoXoXoXoXoXoXoXoXoXoXoXoXoXoXoXoXoXoXoXoXoXoXoXoXoXoXoXoXoXoXoXoXoXoXG.",
"r.oXoXoXoXoXoXoXoXoXoXoXoXoXoXoXoXoXoXoXoXoXoXoXoXoXoXoXoXoXoXoXoXoXoXoXoXoXoXoXoXoXoXoXoXoXoXoXoXoXoXoXoXoXoXoXoXoXoXoXoXoXoXoXoXoXoXoXoXoXoXoXoXoXoXoXoXoXoXoXoXoXoXoXoXoXoXoXoXoXoXoXoXoXoXoXoXoXoXoXoXoXoXoXoXoXoXoXoXoXoXoXoXoXoXoXoXoXoXoXoXoXoXoXoXoXG.",
"r.G.G.G.G.G.G.G.G.G.G.G.G.G.G.G.h.h.h.n.G.G.G.h.G.G.G.G.G.G.G.G.G.G.G.G.G.G.G.G.G.G.G.G.G.G.G.G.G.G.G.G.G.G.h.G.h.n.h.h.h.h.h.n.G.G.G.G.G.G.G.G.G.G.G.G.G.G.G.G.G.G.G.G.G.G.G.G.G.G.G.G.G.G.G.G.G.G.G.G.G.G.G.G.G.G.G.G.G.G.G.G.G.G.G.G.G.G.G.G.G.G.G.G.G.G.G."
};
