/* XPM */
static char *us3_GMP_icon_48x48[] = {
/* columns rows colors chars-per-pixel */
"48 48 54 1 ",
"  c #00041B",
". c #00091C",
"X c #000E23",
"o c #001126",
"O c #00152A",
"+ c #00192E",
"@ c #0B192E",
"# c #001D32",
"$ c #0C1C31",
"% c #002236",
"& c #0E2236",
"* c #002539",
"= c #002A3D",
"- c #112337",
"; c #132639",
": c #162A3D",
"> c #002E41",
", c #003245",
"< c #003649",
"1 c #003A4D",
"2 c #003E51",
"3 c #233446",
"4 c #24394A",
"5 c #004355",
"6 c #324655",
"7 c #364A59",
"8 c #3C4E5D",
"9 c #405361",
"0 c #5E717C",
"q c #62747E",
"w c #667882",
"e c #6A7B85",
"r c #76888F",
"t c #809197",
"y c #85969C",
"u c #97A8AB",
"i c #9AABAD",
"p c #A7B7BA",
"a c #B6C6C5",
"s c #B8C8C7",
"d c #B9C7C8",
"f c #BAC8C9",
"g c #C1CFCE",
"h c #C4D2D1",
"j c #D2E1DC",
"k c #D6E5E0",
"l c #DAE9E3",
"z c #E0EEE8",
"x c #E6F2EB",
"c c #E9F7EF",
"v c #ECF8F0",
"b c #F2FFF6",
"n c #F7FFFA",
"m c #FEFFFF",
/* pixels */
"................................................",
"................................................",
"................................................",
"................................................",
"................................................",
"................................................",
"..........XXoooooOOOOOOOOOOOOOOoooooXX..........",
".........ooooooOOOOOOOOOOOOOOOOOOoooooo.........",
"........oooooOOOOOO++++++++++OOOOOOooooo........",
".......XooooOOOOO++##########++OOOOOooooX.......",
".......oooOOOOO++####%%%%%%####++OOOOoooo.......",
"......XooOOOOO+###%%********%%##++OOOOoooX......",
"......XooOOO++##%%**==>==>==**%%##++OOOooX......",
"......XOOOOO+##%%*==>=+oo+=>==*%%##+OOOOOX......",
"......XOOOO+##%**==,=o XX o=,==**%##+OOOOX......",
"......XOOO+##%**=>,<+ 9hg8 +,,>=**%##+OOOX......",
"......XOO++#%%*=>,<<X$kmmj@X,<,>=**%#++OOX......",
"......XOO+##%*=>,,1<.:ccvc:.<1,,>=*%##+OOX......",
"......oOO+#%*=>,<15>XXymmtXX,51<,>=*%#+OOX......",
"......oO+##%*=><,,>OXXX76XXXO>,,<>=*%##+OX......",
"......oO+#%*==,%X  oooo  oooo  X%,>=*%#+Oo......",
"......oO+#%*=,%.O96XoooooooXX79X.%,=*%#+Oo......",
"......o++#%*=>oXimne oooooo rmmuXo>=*%#++o......",
"......o++#%*== 4bxbk+XooooX#lvxb4 =>*%#++o......",
"......o++#%*=>X;zmmsXooooooXammz;X>=*%#++o......",
"......o++#%*=>+ 9fp3.oooooo.3pd9 +,=*%#++o......",
"......o++#%*=>=O . XoooXXoooX . o=>=*%#+Oo......",
"......oO+#%%*=,,%#+ooo.:; ooo+#%,,>=*%#+Oo......",
"......oO+##%*=>,112%o.wxxq o%211,>=*%##+Oo......",
"......oO++#%**=>,<1<X;xbbz;X<1<,>>=*%##+OX......",
"......oOO+##%*==>,<<X-zbbx;X<<,,>=*%##+OOX......",
"......XOO++##%*==>,<+ 0zlq +<,>>=**%##+OOX......",
"......XOOO++#%%*==>,=X && X=,>==**%##+OOOX......",
"......XOOOO+##%%*===,*OXXO*,>==**%##+OOOOX......",
"......XoOOOO+###%**==>>==>>==**%%##+OOOOoX......",
"......XooOOOO++##%%****==****%%###+OOOOooX......",
".......oooOOOO++###%%%%%%%%%%###++OOOOooo.......",
".......XoooOOOOO++############++OOOOOoooX.......",
"........oooooOOOOO++######++++OOOOOOoooo........",
".........ooooooOOOOOOOOOOOOOOOOOOOooooo.........",
"..........XoooooOOOOOOOOOOOOOOOOoooooX..........",
"................................................",
"................................................",
"................................................",
"................................................",
"................................................",
"................................................",
"................................................"
};
