/* XPM */
static char *us3_icon_32x32[] = {
/* columns rows colors chars-per-pixel */
"32 32 51 1 ",
"  c #00000E",
". c #000014",
"X c #000518",
"o c #010B1F",
"O c #010D20",
"+ c #011225",
"@ c #011729",
"# c #00182B",
"$ c #101527",
"% c #1A1F2F",
"& c #001E30",
"* c #002636",
"= c #002837",
"- c #002838",
"; c #172031",
": c #192233",
"> c #00313F",
", c #252F3E",
"< c #003643",
"1 c #003945",
"2 c #003E49",
"3 c #2E3846",
"4 c #01434E",
"5 c #004751",
"6 c #004851",
"7 c #014F59",
"8 c #005159",
"9 c #00585F",
"0 c #3B434F",
"q c #3D4551",
"w c #025760",
"e c #025860",
"r c #016166",
"t c #00646A",
"y c #00696E",
"u c #01777A",
"i c #4D5661",
"p c #525A64",
"a c #606972",
"s c #677178",
"d c #687179",
"f c #9CA3A5",
"g c #A3ACAC",
"h c #ABB0B4",
"j c #BAC0BF",
"k c #BAC1C0",
"l c #E6E9E8",
"z c #F1F5EE",
"x c #F3F7F0",
"c c #F4F9F1",
"v c white",
/* pixels */
"OOOOOOOOOOOOOOOOOOOOOOOOOOOOOOOO",
"OOOOOOOOOOOOOOOOOOOOOOOOOOOOOOOO",
"OOOOOOOOOOOOOoOooOOoOOOOOOOOOOOO",
"OOOOOOOoOOOOO++++++OOOOOoOOOOOOO",
"OOOOOo+#**---->>>>>---**#+OOOOOO",
"OOOOo+**---<<111111<<>--**+oOOOO",
"OOOOO**--><1246666421<<--**OOOOO",
"OOOo#*--<<14684--485411<--*#oOOO",
"OOOO&--><24694XXXX496421>--#OOOO",
"OOOO*--<1468r+:kk%+r8642<--*OOOO",
"OOOO*-<1468tt.avva.tt8641<-*OOOO",
"OOOO*-<258tueX:jj:Xwut852<-*OOOO",
"OOOO*><467<-+oooooo+-<6641>*OOOO",
"OOOO*<145OX$.OOOOOOX$XO541<*OOOO",
"OOOO*<16*ogli.OOOO.ilgo*61<*OOOO",
"OOOO*<16#:cvf.+OO+.fvx;#61<*OOOO",
"OOOO*<16-.sh,XOOOOo,ha.-61<*OOOO",
"OOOO*<146*. .OOXXOO. .*641<*OOOO",
"OOOO*><25866*oX33Xo*66862<>*OOOO",
"OOOO*-<1468te.0zzq.eye641<-*OOOO",
"OOOO*-><14588.pvvp.e8642<>-*OOOO",
"OOOO&--><1458*XddX*86421<--*OOOO",
"OOOO&*--><1254#..#46421<--*#OOOO",
"OOOo#**--><1144214421<<--**#oOOO",
"OOOo+***---<<<12211<<>--***+oOOO",
"OOOOO#****--->>>>>>----***#OOOOO",
"OOOOOO@****----------=***@OOOOOO",
"OOOOOOoO+@@@@#######@@@+OoOOOOOO",
"OOOOOOOOooooooooooooooooOOOOOOOO",
"OOOOOOOOOOOOOOOOOOOOOOOOOOOOOOOO",
"OOOOOOOOOOOOOOOOOOOOOOOOOOOOOOOO",
"OOOOOOOOOOOOOOOOOOOOOOOOOOOOOOOO"
};
