/* XPM */
static char * us3_icon_32x32_xpm[] = {
"32 32 444 2",
"  	c None",
". 	c #000502",
"+ 	c #000A05",
"@ 	c #00110A",
"# 	c #00160D",
"$ 	c #001C11",
"% 	c #002015",
"& 	c #002618",
"* 	c #002A1A",
"= 	c #002F1E",
"- 	c #003220",
"; 	c #003622",
"> 	c #003924",
", 	c #003C26",
"' 	c #003D27",
") 	c #003F29",
"! 	c #00402A",
"~ 	c #00412A",
"{ 	c #003E29",
"] 	c #003C28",
"^ 	c #003925",
"/ 	c #003723",
"( 	c #003321",
"_ 	c #00301F",
": 	c #002B1C",
"< 	c #002719",
"[ 	c #002216",
"} 	c #001E13",
"| 	c #00180F",
"1 	c #00130B",
"2 	c #001009",
"3 	c #00170E",
"4 	c #002215",
"5 	c #002D1D",
"6 	c #00311F",
"7 	c #003623",
"8 	c #003D28",
"9 	c #004029",
"0 	c #00432B",
"a 	c #00452D",
"b 	c #00472E",
"c 	c #00482F",
"d 	c #004930",
"e 	c #004A30",
"f 	c #00492F",
"g 	c #00442C",
"h 	c #003E28",
"i 	c #003A26",
"j 	c #002E1D",
"k 	c #00291A",
"l 	c #002417",
"m 	c #00190F",
"n 	c #002A1B",
"o 	c #002E1E",
"p 	c #003522",
"q 	c #00422B",
"r 	c #00462E",
"s 	c #004E33",
"t 	c #005235",
"u 	c #005437",
"v 	c #005638",
"w 	c #005739",
"x 	c #005538",
"y 	c #005236",
"z 	c #004F34",
"A 	c #004C31",
"B 	c #00472F",
"C 	c #00432C",
"D 	c #003B26",
"E 	c #002C1C",
"F 	c #002517",
"G 	c #002014",
"H 	c #002317",
"I 	c #003422",
"J 	c #00593A",
"K 	c #005D3D",
"L 	c #005F3F",
"M 	c #006140",
"N 	c #006240",
"O 	c #00603F",
"P 	c #005A3B",
"Q 	c #005135",
"R 	c #004B31",
"S 	c #003624",
"T 	c #003120",
"U 	c #002518",
"V 	c #001C12",
"W 	c #003C27",
"X 	c #005C3C",
"Y 	c #006643",
"Z 	c #006A45",
"` 	c #006D48",
" .	c #00704A",
"..	c #006E48",
"+.	c #006B46",
"@.	c #006744",
"#.	c #006341",
"$.	c #005E3D",
"%.	c #005839",
"&.	c #00442D",
"*.	c #002115",
"=.	c #005034",
"-.	c #005F3E",
";.	c #00744D",
">.	c #002619",
",.	c #000D08",
"'.	c #000000",
").	c #00271A",
"!.	c #00764E",
"~.	c #00724C",
"{.	c #006844",
"].	c #005B3B",
"^.	c #005336",
"/.	c #003724",
"(.	c #005337",
"_.	c #006342",
":.	c #006A46",
"<.	c #00734B",
"[.	c #00784F",
"}.	c #006F49",
"|.	c #393939",
"1.	c #FFFFFF",
"2.	c #8E8E8E",
"3.	c #006542",
"4.	c #007F54",
"5.	c #007A50",
"6.	c #004C32",
"7.	c #00462D",
"8.	c #002B1B",
"9.	c #003A25",
"0.	c #005134",
"a.	c #006C47",
"b.	c #00744C",
"c.	c #007C51",
"d.	c #008155",
"e.	c #E3E3E3",
"f.	c #717171",
"g.	c #002F1F",
"h.	c #008A5B",
"i.	c #008457",
"j.	c #007E53",
"k.	c #005D3E",
"l.	c #006441",
"m.	c #006D47",
"n.	c #00774E",
"o.	c #008759",
"p.	c #008D5E",
"q.	c #006243",
"r.	c #008F5F",
"s.	c #007049",
"t.	c #004A31",
"u.	c #007E54",
"v.	c #008659",
"w.	c #003121",
"x.	c #002217",
"y.	c #005238",
"z.	c #009262",
"A.	c #008A5A",
"B.	c #008255",
"C.	c #006E49",
"D.	c #004D33",
"E.	c #00734C",
"F.	c #007C52",
"G.	c #001F14",
"H.	c #00714B",
"I.	c #008B5C",
"J.	c #008054",
"K.	c #005537",
"L.	c #004B30",
"M.	c #007950",
"N.	c #008356",
"O.	c #001E14",
"P.	c #00100B",
"Q.	c #006F4A",
"R.	c #007D52",
"S.	c #004F33",
"T.	c #006845",
"U.	c #006946",
"V.	c #00422D",
"W.	c #008D5D",
"X.	c #008357",
"Y.	c #005E3E",
"Z.	c #009161",
"`.	c #007A51",
" +	c #006241",
".+	c #008859",
"++	c #009465",
"@+	c #008C5D",
"#+	c #005B3C",
"$+	c #008A5C",
"%+	c #00734E",
"&+	c #004733",
"*+	c #009668",
"=+	c #008E5E",
"-+	c #00754D",
";+	c #006543",
">+	c #009566",
",+	c #002319",
"'+	c #00120E",
")+	c #007D5B",
"!+	c #00986A",
"~+	c #008F60",
"{+	c #008256",
"]+	c #00774F",
"^+	c #007F53",
"/+	c #009667",
"(+	c #008D65",
"_+	c #00241B",
":+	c #008464",
"<+	c #00A277",
"[+	c #009060",
"}+	c #009F72",
"|+	c #00A77C",
"1+	c #008869",
"2+	c #003D30",
"3+	c #002B23",
"4+	c #006752",
"5+	c #00B38C",
"6+	c #00AA80",
"7+	c #00A276",
"8+	c #009869",
"9+	c #006945",
"0+	c #00583A",
"a+	c #009364",
"b+	c #009D71",
"c+	c #00A57A",
"d+	c #00AF86",
"e+	c #00B68F",
"f+	c #008168",
"g+	c #00B993",
"h+	c #00B18A",
"i+	c #00A87D",
"j+	c #00A074",
"k+	c #008E5F",
"l+	c #005C3D",
"m+	c #009061",
"n+	c #009B6D",
"o+	c #00AB81",
"p+	c #00B28A",
"q+	c #007B62",
"r+	c #004034",
"s+	c #00BD98",
"t+	c #00B48E",
"u+	c #00AE85",
"v+	c #00A579",
"w+	c #009D70",
"x+	c #009769",
"y+	c #009E72",
"z+	c #00A87C",
"A+	c #00AE84",
"B+	c #00A17E",
"C+	c #002920",
"D+	c #009276",
"E+	c #00B892",
"F+	c #00B088",
"G+	c #00A175",
"H+	c #009A6C",
"I+	c #00593B",
"J+	c #00714A",
"K+	c #00885A",
"L+	c #009363",
"M+	c #00A176",
"N+	c #00B38D",
"O+	c #003D2F",
"P+	c #001410",
"Q+	c #003E31",
"R+	c #009073",
"S+	c #00B68E",
"T+	c #00B188",
"U+	c #00A478",
"V+	c #009C6F",
"W+	c #00794F",
"X+	c #00A97F",
"Y+	c #00AD85",
"Z+	c #008B6D",
"`+	c #00785E",
" @	c #00795E",
".@	c #00B58E",
"+@	c #00B38B",
"@@	c #00A479",
"#@	c #008658",
"$@	c #838383",
"%@	c #8A8989",
"&@	c #929292",
"*@	c #979897",
"=@	c #9D9D9D",
"-@	c #A2A1A1",
";@	c #6F706F",
">@	c #939493",
",@	c #B9B9B9",
"'@	c #979797",
")@	c #D3D3D3",
"!@	c #CECECD",
"~@	c #AAAAAA",
"{@	c #A7A7A7",
"]@	c #B7B7B6",
"^@	c #E4E4E4",
"/@	c #E9E9E9",
"(@	c #DEDDDE",
"_@	c #D4D4D5",
":@	c #CACACA",
"<@	c #BFBFC0",
"[@	c #868686",
"}@	c #777776",
"|@	c #757575",
"1@	c #8A8A8A",
"2@	c #9C9C9C",
"3@	c #919191",
"4@	c #8C8D8D",
"5@	c #878787",
"6@	c #828282",
"7@	c #8A8A89",
"8@	c #989898",
"9@	c #A1A1A1",
"0@	c #5F5F5F",
"a@	c #3F3F3F",
"b@	c #CACBCB",
"c@	c #515151",
"d@	c #1B1B1B",
"e@	c #434343",
"f@	c #303030",
"g@	c #B5B6B6",
"h@	c #DDDDDE",
"i@	c #D4D5D5",
"j@	c #B6B6B6",
"k@	c #292929",
"l@	c #131313",
"m@	c #1F1F1F",
"n@	c #979796",
"o@	c #8D8C8D",
"p@	c #828383",
"q@	c #929392",
"r@	c #979898",
"s@	c #A2A2A2",
"t@	c #CBCBCB",
"u@	c #080808",
"v@	c #545454",
"w@	c #EBEBEB",
"x@	c #EBECEC",
"y@	c #E8E9E9",
"z@	c #DDDDDD",
"A@	c #D4D5D4",
"B@	c #C2C2C2",
"C@	c #ACADAC",
"D@	c #8F8E8E",
"E@	c #4C4C4C",
"F@	c #141414",
"G@	c #949494",
"H@	c #8D8C8C",
"I@	c #878786",
"J@	c #89898A",
"K@	c #989897",
"L@	c #535353",
"M@	c #090909",
"N@	c #262626",
"O@	c #454645",
"P@	c #C8C8C8",
"Q@	c #848484",
"R@	c #969696",
"S@	c #1C1C1C",
"T@	c #0A0A0A",
"U@	c #424141",
"V@	c #8C8C8C",
"W@	c #050505",
"X@	c #565656",
"Y@	c #B4B4B4",
"Z@	c #3A3A3A",
"`@	c #3D3D3D",
" #	c #CFCFCF",
".#	c #D7D7D7",
"+#	c #D1D1D1",
"@#	c #1D1D1D",
"##	c #5A5A5A",
"$#	c #E9E8E9",
"%#	c #4A4A4A",
"&#	c #474747",
"*#	c #6F6F6F",
"=#	c #BFC0BF",
"-#	c #B8B7B7",
";#	c #ABABAB",
">#	c #4F4F4F",
",#	c #020202",
"'#	c #8C8C8D",
")#	c #9E9D9E",
"!#	c #191919",
"~#	c #4E4E4F",
"{#	c #626262",
"]#	c #484848",
"^#	c #7E7E7E",
"/#	c #7E7F7F",
"(#	c #E8E9E8",
"_#	c #DEDDDD",
":#	c #D4D4D4",
"<#	c #C9C9C9",
"[#	c #959594",
"}#	c #5B5B5B",
"|#	c #686868",
"1#	c #2B2B2B",
"2#	c #959695",
"3#	c #838483",
"4#	c #939293",
"5#	c #555555",
"6#	c #424242",
"7#	c #666666",
"8#	c #D9D9D9",
"9#	c #5E5E5E",
"0#	c #585858",
"a#	c #E8E8E8",
"b#	c #A6A6A6",
"c#	c #4E4E4E",
"d#	c #4C4D4C",
"e#	c #828382",
"f#	c #2C3934",
"g#	c #2E4039",
"h#	c #31473F",
"i#	c #334D43",
"j#	c #345348",
"k#	c #36584C",
"l#	c #385E50",
"m#	c #3A6354",
"n#	c #3E6B5B",
"o#	c #417060",
"p#	c #457866",
"q#	c #487E6B",
"r#	c #4C8571",
"s#	c #4F8A75",
"t#	c #53907B",
"u#	c #54927D",
"v#	c #508F7A",
"w#	c #4D8D77",
"x#	c #4A8872",
"y#	c #47846F",
"z#	c #437F6A",
"A#	c #407A67",
"B#	c #3D7461",
"C#	c #3A6E5C",
"D#	c #386857",
"E#	c #366453",
"F#	c #345E4F",
"G#	c #32594C",
"H#	c #305347",
"I#	c #2F4F44",
"J#	c #2D483E",
"K#	c #2B433A",
". + @ # $ % & * = - ; > , ' ) ! ! ~ ! ) { ] ^ / ( _ : < [ } | 1 ",
"+ 2 3 $ 4 < 5 6 7 ^ 8 9 0 a b c d e f c a g ~ h i / - j k l } m ",
"@ 3 } l n o p ^ { q r e s t u v w w v x y z A B C 9 D 7 6 E F G ",
"# $ H k _ I D ) a e z u J K L M N N M O K P v Q R r ~ 8 S T : U ",
"V [ n _ / W q c z x X M Y Z ` x d d  ...+.@.#.$.%.t e &.h ^ - E ",
"*.< = p W q f =.J -.Y +. .;.>.,.'.'.).K !.~.` {.M ].^.A g h /.T ",
"& 5 p , C d (.]._.:.<.[.}.V '.|.1.2.'.'.3.4.5.;.` Y K v 6.7.h /.",
"8.- 9.9 c 0.].#.a.b.c.d.P '.|.e.1.1.f.'.g.h.i.j.!.}.Y k.u R q , ",
"g.7 ) 7.=.J l.m.n.j.o.p.'.'.|.e.1.1.f.'.'.q.r.h.d.5.s.@.X ^.f q ",
"( 9.0 t.v L +.b.u.v.}.w.'.'.'.|.1.2.'.'.'.x.y.z.A.B.n.C.#.P D.7.",
"/ h c Q K @.E.F.[.G.'.'.'.'.'.'.'.'.'.'.'.'.'.'.H.I.J.n.+.M K.L.",
"i ~ A v N m.M.N.O.'.'.'.'.'.'.'.'.'.'.'.'.'.'.'.P.Q.v.R. .Y P S.",
"8 &.=.].T.~.4.U.'.|.1.2.'.'.'.'.'.'.'.'.'.|.1.2.'.V.W.X.!.a.-.u ",
") r (.Y.a.!.i.o |.e.1.1.f.'.'.'.'.'.'.'.|.e.1.1.f.'.Z.o.`.s. +w ",
"~ e w N Q.`..+g.|.e.1.1.f.'.'.'.'.'.'.'.|.e.1.1.f.'.++@+u.E.Y #+",
"q R J l.H.F.$+%+'.|.1.2.'.'.'.'.'.'.'.'.'.|.1.2.'.&+*+=+d.-+{.K ",
"0 A P ;+E.j.@+>+,+'.'.'.'.'.'.'.'.'.'.'.'.'.'.'.'+)+!+~+{+]+Z Y.",
"C 6.P ;+b.^+@+/+(+_+'.'.'.'.'.'.'.'.'.'.'.'.'.'.:+<+!+[+N.[.:.Y.",
"0 A P 3.E.j.I.>+}+|+1+2+'.'.'.|.1.2.'.'.'.3+4+5+6+7+8+~+{+]+9+k.",
"q L.0+l.H.F.h.a+b+c+d+e+'.'.|.e.1.1.f.'.'.f+g+h+i+j+*+k+d.-+@.l+",
"! f v M }.M.o.m+n+7+o+p+q+'.|.e.1.1.f.'.r+s+t+u+v+w+++I.j.E.3.P ",
"{ r ^.Y.a.!.N.p.x+y+z+A+B+C+'.|.1.2.'.'.D+E+F+6+G+H+Z..+`.}. +w ",
"W g z I+@.J+j.K+L+H+M+i+d+N+O+P+'.'.Q+R+S+T+6+U+V+>+I.B.-+:.$.^.",
"9.~ R x N a.W+N.=+>+V+7+X+Y+p+Z+`+ @.@+@d+6+@@}+x+m+#@F. .;+J S.",
"$@%@&@*@=@-@;@>@,@'@=@)@!@~@{@]@^@/@(@_@:@<@[@}@|@1@2@'@3@4@5@6@",
"$@7@&@8@=@9@'.0@,@a@|.b@c@d@e@f@g@/@h@i@:@j@k@f@l@m@n@'@3@o@5@p@",
"$@1@q@r@=@s@'.0@,@a@|.t@u@v@t@w@x@y@z@A@:@B@C@D@E@F@G@'@3@H@I@6@",
"$@J@q@K@=@9@'.0@,@a@|.t@L@M@N@O@P@/@1@Q@R@B@5@S@T@U@2@n@3@V@5@6@",
"$@7@&@8@=@s@W@X@Y@Z@`@ #.#+#2.@###$#%#&#*#=#-#;#>#,#&@'@3@'#I@6@",
"$@1@q@8@)#s@k@!#~#l@{#.#]#^#/#S@f.(#_#:#<#[#}#|#1#T@2#'@3@V@I@6@",
"3#1@4#8@=@s@&@5#6#7#:@8#6@9#0#6@/@a#z@:#<#b#c#`@d#e#2@'@3@'#5@6@",
"f#g#h#i#j#k#l#m#n#o#p#q#r#s#t#u#v#w#x#y#z#A#B#C#D#E#F#G#H#I#J#K#"};
