/* XPM */
static char *us3_icon_48x48[] = {
/* columns rows colors chars-per-pixel */
"48 48 60 1 ",
"  c #000216",
". c #010519",
"X c #010A1E",
"o c #010D20",
"O c #011124",
"+ c #081224",
"@ c #011629",
"# c #011B2C",
"$ c #0D192A",
"% c #111A2C",
"& c #001F30",
"* c #121F30",
"= c #002738",
"- c #002C3B",
"; c #132030",
": c #1A2636",
"> c #1E2A3A",
", c #00313F",
"< c #003542",
"1 c #003A45",
"2 c #003E49",
"3 c #00424D",
"4 c #004650",
"5 c #004B55",
"6 c #004F58",
"7 c #00545C",
"8 c #00585F",
"9 c #3F4753",
"0 c #005A61",
"q c #006066",
"w c #00676C",
"e c #00686C",
"r c #006F73",
"t c #00777B",
"y c #00787B",
"u c #434C57",
"i c #474E59",
"p c #4B525C",
"a c #4E5761",
"s c #515862",
"d c #686F76",
"f c #697077",
"g c #6D737A",
"h c #72787F",
"j c #8F9598",
"k c #979D9F",
"l c #C3C8C6",
"z c #CACFCC",
"x c #CCD0CD",
"c c #D3D7D4",
"v c #D3D8D4",
"b c #DBDFDB",
"n c #DDE1DC",
"m c #E7EBE5",
"M c #E9EEE8",
"N c #ECF0E9",
"B c #F1F5ED",
"V c #F7FCF4",
"C c #FAFEF6",
"Z c #FFFFFD",
/* pixels */
"oooooooooooooooooooooooooooooooooooooooooooooooo",
"oooooooooooooooooooooooooooooooooooooooooooooooo",
"oooooooooooooooooooooooooooooooooooXoooooooooooo",
"oooooooooooooooooooooooooooooooooooXoooooooooooo",
"ooooooooXXXooooooooooooooooooooooXXXXXXooooooooo",
"ooooooooXoXXoooOOOOOOOOOOOOOOOOOoooXXXoooooooooo",
"oooooooooXO#====-----,,,,,,------===#OXooooooooo",
"ooooooooo@===----,,<<<<111<<<<,----===@Xoooooooo",
"oooooooo#===----,<<1112222111<<<,---===#oooooooo",
"ooooooX@===---,<<11233333333211<<,---===@Xoooooo",
"ooooooo===---,<<12334575575433211<,---===ooooooo",
"oooooX@==---<<12335574=##=47553311<<---==OXooooo",
"oooooX#==--,<12345603XX  XX30654321<,--==#Xooooo",
"oooooX#=--,<12345707OXoaaoXO70754321<,--=#oooooo",
"oooooX#---<<134570e2X.kZZk.X2w875432<<---&oooooo",
"oooooX&--,<123570qr< >BMMB> <rq075331<,--&oooooo",
"ooXXoX=--<<235770wt<.$bZZn% <tw0775321<--=Xooooo",
"oooooX=--<12457wryr@o.9ll9.oOrtrq75421<--=Xooooo",
"ooXooX=-,<13570533#Xoo XX ooX#33507531<,-=Xooooo",
"ooXXoX=-,<1356=X  oooooooooooo  X#55321,-=Xooooo",
"oooooX=-<1236#. *$ oooooooooo $*..#5421<-=XoXXoo",
"oooooX=-<1251X.fmnp oooooooo pnmd.X1521<,=XooXoo",
"oooooX=,<125- :NBCvOXoooooooocCBM: -521<,=Xooooo",
"oooooX=,<125- >NBVv+XooooooXocCBN: -521<,=XooXoo",
"oooooX=,<125<X.hNms oooooooo smNg.X<521<,=Xooooo",
"oooooX=-<1235#..:; oooooooooo *:..#5321<-=Xooooo",
"oooooX=-,<1355#X  oooooooooooo  X#5532<,-=Xooooo",
"oooooX=-,<12357311@Xoo XX ooX@11377431<,-=Xooooo",
"oooooX&--<113450wr0Oo uzxi oOqrw075321<--=oooooo",
"oooooo&--,<1235570e-.%nZZn%.,r0775331<,--=Xooooo",
"oooooX&--,<<123557q, >NMMB> ,w7754321<---#Xooooo",
"oooooX#---,<11235501X.jZZj.X10554321<,---#oooooo",
"oooooo#=---,<<123455OXXuuXXO5553321<,--==#oooXoo",
"oooooo#==---,<<123352oX  Xo2543321<<--===#oooooo",
"oooooX#===---,<<112353=##=3533211<<,-====#Xooooo",
"oooooX@====---,<<<1123333332211<<,--=====@Xooooo",
"ooooooo=====----,<<<111111111<<<,---=====ooooooo",
"ooooooX@=====----,,<<<<<<<<<<<,----=====@Xoooooo",
"oooooooo#======------,,,,,,,------=====#oooooooo",
"ooooooooX@=======---------------======#Xoooooooo",
"ooooooooXXO#&=======---------======&#Ooooooooooo",
"ooooooooXXXXoOOOOOOOOOOOOOOOOOOOOOooXooooooooooo",
"ooooooooXXXXoooooooooooooooooooooooooooooooooooo",
"ooooooooXXXXoooooooooooooooooooooooooooooooooooo",
"oooooooooooooXoooooooooooooooooooooooooooooooooo",
"ooooooooooooXXoooooooooooooooooooooXoooooooooooo",
"oooooooooooooooooooooooooooooooooooXoooooooooooo",
"oooooooooooooooooooooooooooooooooooooooooooooooo"
};
