/* XPM */
static char *us3_GMP_icon_32x32[] = {
/* columns rows colors chars-per-pixel */
"32 32 39 1 ",
"  c #00051C",
". c #00091C",
"X c #000D22",
"o c #001127",
"O c #001429",
"+ c #00182D",
"@ c #001E33",
"# c #002236",
"$ c #002439",
"% c #00283C",
"& c #152235",
"* c #1A2437",
"= c #1B2B3E",
"- c #002D40",
"; c #003246",
": c #013649",
"> c #043C4F",
", c #043E51",
"< c #253545",
"1 c #044052",
"2 c #394B5A",
"3 c #3D505E",
"4 c #404F5D",
"5 c #41515F",
"6 c #435461",
"7 c #455865",
"8 c #576772",
"9 c #576873",
"0 c #596974",
"q c #5C6D78",
"w c #687780",
"e c #6B7A82",
"r c #A7B6B8",
"t c #AABABB",
"y c #B7C7C6",
"u c #BACAC9",
"i c #DEECE6",
"p c #EFFAF6",
"a c white",
/* pixels */
"................................",
"................................",
"................................",
"................................",
"......XXoooOOOOOOOOOOoooXX......",
".....XoooOOOO++++++OOOOoooX.....",
".....oooOOO+@@@@@@@++OOOooo.....",
"....XooOO++@##$%%$##@++OOooX....",
"....XOOO+@@#$%-#$-%$#@@+OOOX....",
"....XOO+@@$%--XXXo-%$$@@+OOX....",
"....oOO@@$%-:+*uy*+:-%$@@OOo....",
"....oO+@#%-;1X0aa8X,;-%#@+Oo....",
"....o+@#$%:,>o&tr&o>,:%$#@Oo....",
"....o+@#%;#. oXX.XX .#;%#@+o....",
"....o+@$-#Xe9XooooXqwX#-$@+o....",
"....o+@$;.0aa2 OO 3aa0.;$@+o....",
"....o+@$;X2pi<.OO.<ip2X;$@+o....",
"....o+@#%%X<=.o  o.=<.%-$@+o....",
"....o+@#$--@+oX76XoO@-;%#@+o....",
"....o+@#$%;>1X6aa5X1>;-$#@+o....",
"....oO+@#$%->o4aa5o>;-%#@+Oo....",
"....oOO+@#$%;%.22.%;%%$@@+Oo....",
"....XOO+@@#$%-$XX$-%$#@@+OOX....",
"....XoOO++@##$%--%$$#@@+OOoX....",
"....XooOOO+@@######@@+OOOooX....",
".....XooOOOO++@@@@++OOOOooX.....",
"......XooOOOOOOOOOOOOOOooX......",
"........XXXXXXXXXXXXXXXX........",
"................................",
"................................",
"................................",
"................................"
};
