/* XPM */
static char * us3_icon_48x48_xpm[] = {
"48 48 628 2",
"  	c None",
". 	c #000200",
"+ 	c #000602",
"@ 	c #000A05",
"# 	c #000E08",
"$ 	c #00120A",
"% 	c #00150D",
"& 	c #00190F",
"* 	c #001D12",
"= 	c #001F14",
"- 	c #002316",
"; 	c #002618",
"> 	c #00291A",
", 	c #002C1C",
"' 	c #002E1E",
") 	c #00311F",
"! 	c #003321",
"~ 	c #003622",
"{ 	c #003723",
"] 	c #003925",
"^ 	c #003B25",
"/ 	c #003C27",
"( 	c #003D28",
"_ 	c #003E28",
": 	c #003F29",
"< 	c #003E29",
"[ 	c #003B27",
"} 	c #003A26",
"| 	c #003824",
"1 	c #003422",
"2 	c #003220",
"3 	c #00301F",
"4 	c #002D1D",
"5 	c #002B1C",
"6 	c #002719",
"7 	c #002418",
"8 	c #002215",
"9 	c #001E13",
"0 	c #001B11",
"a 	c #00180F",
"b 	c #00140C",
"c 	c #00100A",
"d 	c #000603",
"e 	c #000A06",
"f 	c #00120B",
"g 	c #00160E",
"h 	c #001A10",
"i 	c #002518",
"j 	c #00281A",
"k 	c #002E1D",
"l 	c #003421",
"m 	c #003623",
"n 	c #003924",
"o 	c #003B26",
"p 	c #003D27",
"q 	c #004029",
"r 	c #00412A",
"s 	c #00422B",
"t 	c #00442C",
"u 	c #00442D",
"v 	c #00452C",
"w 	c #00452D",
"x 	c #00432C",
"y 	c #00402A",
"z 	c #003A25",
"A 	c #003724",
"B 	c #002F1F",
"C 	c #002A1A",
"D 	c #002317",
"E 	c #002014",
"F 	c #001C12",
"G 	c #00150C",
"H 	c #000F08",
"I 	c #00170E",
"J 	c #001B10",
"K 	c #001F13",
"L 	c #003C26",
"M 	c #00462E",
"N 	c #00472E",
"O 	c #00482F",
"P 	c #004A30",
"Q 	c #004B31",
"R 	c #004B32",
"S 	c #004C31",
"T 	c #004B30",
"U 	c #00412B",
"V 	c #003522",
"W 	c #002819",
"X 	c #002517",
"Y 	c #002015",
"Z 	c #00130B",
"` 	c #002B1B",
" .	c #00492F",
"..	c #004D32",
"+.	c #005034",
"@.	c #005135",
"#.	c #005236",
"$.	c #005336",
"%.	c #005437",
"&.	c #005436",
"*.	c #005035",
"=.	c #004E33",
"-.	c #004C32",
";.	c #00472F",
">.	c #002417",
",.	c #002114",
"'.	c #00170D",
").	c #002F1E",
"!.	c #005538",
"~.	c #005839",
"{.	c #00593B",
"].	c #005B3C",
"^.	c #005C3C",
"/.	c #005D3D",
"(.	c #005A3B",
"_.	c #00593A",
":.	c #005638",
"<.	c #003825",
"[.	c #003120",
"}.	c #002115",
"|.	c #00160D",
"1.	c #001A11",
"2.	c #00271A",
"3.	c #00462D",
"4.	c #00573A",
"5.	c #005E3E",
"6.	c #00603F",
"7.	c #006140",
"8.	c #006241",
"9.	c #006442",
"0.	c #006542",
"a.	c #006341",
"b.	c #006240",
"c.	c #00613F",
"d.	c #005639",
"e.	c #004F33",
"f.	c #004A31",
"g.	c #003926",
"h.	c #001910",
"i.	c #002216",
"j.	c #003F2A",
"k.	c #005C3D",
"l.	c #006643",
"m.	c #006844",
"n.	c #006A46",
"o.	c #006B46",
"p.	c #006C47",
"q.	c #006D48",
"r.	c #006E48",
"s.	c #006945",
"t.	c #005E3D",
"u.	c #005738",
"v.	c #001D13",
"w.	c #00301E",
"x.	c #005739",
"y.	c #00603E",
"z.	c #006743",
"A.	c #006D47",
"B.	c #00704A",
"C.	c #00724B",
"D.	c #00734C",
"E.	c #000000",
"F.	c #00764E",
"G.	c #00744D",
"H.	c #00714A",
"I.	c #006F48",
"J.	c #006543",
"K.	c #005D3E",
"L.	c #005537",
"M.	c #002A1B",
"N.	c #004E34",
"O.	c #006744",
"P.	c #006F49",
"Q.	c #00754D",
"R.	c #00784F",
"S.	c #007B51",
"T.	c #007950",
"U.	c #00774F",
"V.	c #003523",
"W.	c #004F34",
"X.	c #005F3F",
"Y.	c #006946",
"Z.	c #00734B",
"`.	c #00774E",
" +	c #007D53",
".+	c #FFFFFF",
"++	c #008255",
"@+	c #007E53",
"#+	c #00794F",
"$+	c #005235",
"%+	c #00432B",
"&+	c #004830",
"*+	c #005438",
"=+	c #006644",
"-+	c #00764D",
";+	c #007951",
">+	c #008155",
",+	c #008658",
"'+	c #008457",
")+	c #008054",
"!+	c #007C51",
"~+	c #006441",
"{+	c #00583A",
"]+	c #005136",
"^+	c #00422A",
"/+	c #005B3B",
"(+	c #007D52",
"_+	c #008558",
":+	c #00895B",
"<+	c #008F5E",
"[+	c #008B5C",
"}+	c #008859",
"|+	c #008357",
"1+	c #007F53",
"2+	c #007A51",
"3+	c #006F4A",
"4+	c #003221",
"5+	c #00885A",
"6+	c #008D5D",
"7+	c #009262",
"8+	c #008B5B",
"9+	c #008659",
"0+	c #006A45",
"a+	c #004930",
"b+	c #005F3E",
"c+	c #007850",
"d+	c #007F54",
"e+	c #008458",
"f+	c #008A5B",
"g+	c #008F5F",
"h+	c #009363",
"i+	c #009769",
"j+	c #009465",
"k+	c #009160",
"l+	c #008759",
"m+	c #008256",
"n+	c #007C52",
"o+	c #006845",
"p+	c #006342",
"q+	c #007E54",
"r+	c #009060",
"s+	c #009667",
"t+	c #008E5D",
"u+	c #006040",
"v+	c #00875A",
"w+	c #007A50",
"x+	c #006B47",
"y+	c #00895A",
"z+	c #008C5C",
"A+	c #006944",
"B+	c #008356",
"C+	c #005D3C",
"D+	c #006C48",
"E+	c #008A5C",
"F+	c #009261",
"G+	c #009364",
"H+	c #008E5E",
"I+	c #005337",
"J+	c #008D5C",
"K+	c #008055",
"L+	c #006E49",
"M+	c #009162",
"N+	c #004D33",
"O+	c #009F72",
"P+	c #00996B",
"Q+	c #006745",
"R+	c #008A5A",
"S+	c #009161",
"T+	c #009768",
"U+	c #009F74",
"V+	c #009A6C",
"W+	c #007C53",
"X+	c #009869",
"Y+	c #009D70",
"Z+	c #00A67C",
"`+	c #00A074",
" @	c #009A6D",
".@	c #007E52",
"+@	c #009E70",
"@@	c #00A378",
"#@	c #00AC83",
"$@	c #00A175",
"%@	c #00A97F",
"&@	c #00AF87",
"*@	c #00B892",
"=@	c #00B18A",
"-@	c #00A67B",
";@	c #00472D",
">@	c #004E32",
",@	c #00784E",
"'@	c #009668",
")@	c #009C6F",
"!@	c #00A277",
"~@	c #00A87E",
"{@	c #00AE85",
"]@	c #00B38C",
"^@	c #00B993",
"/@	c #00C39E",
"(@	c #00BD97",
"_@	c #00B68F",
":@	c #00B089",
"<@	c #00AB81",
"[@	c #00A57A",
"}@	c #009F73",
"|@	c #008C5D",
"1@	c #009566",
"2@	c #009B6E",
"3@	c #00A075",
"4@	c #00B28A",
"5@	c #00B791",
"6@	c #00C09B",
"7@	c #00BA95",
"8@	c #00B58E",
"9@	c #00AA7F",
"0@	c #009D71",
"a@	c #00976A",
"b@	c #009263",
"c@	c #00996C",
"d@	c #00A479",
"e@	c #00AA80",
"f@	c #00BA94",
"g@	c #00C19E",
"h@	c #00B28B",
"i@	c #00AD83",
"j@	c #00A77D",
"k@	c #00A276",
"l@	c #00714B",
"m@	c #009868",
"n@	c #00A87D",
"o@	c #00AD84",
"p@	c #00B289",
"q@	c #00B790",
"r@	c #00BE99",
"s@	c #00B48D",
"t@	c #00A579",
"u@	c #008E5F",
"v@	c #009466",
"w@	c #00AF85",
"x@	c #00B38B",
"y@	c #00BD99",
"z@	c #00B994",
"A@	c #00B189",
"B@	c #00AC82",
"C@	c #00744C",
"D@	c #003A27",
"E@	c #009D6F",
"F@	c #00AB80",
"G@	c #00AF86",
"H@	c #00B690",
"I@	c #00BB96",
"J@	c #00B58D",
"K@	c #009565",
"L@	c #008154",
"M@	c #00623F",
"N@	c #005A3C",
"O@	c #009464",
"P@	c #00AA81",
"Q@	c #00B891",
"R@	c #00B48C",
"S@	c #00B088",
"T@	c #00A97E",
"U@	c #00A073",
"V@	c #00482E",
"W@	c #008456",
"X@	c #009E71",
"Y@	c #00AC84",
"Z@	c #008D5E",
"`@	c #818181",
" #	c #868686",
".#	c #8B8B8B",
"+#	c #909090",
"@#	c #959595",
"##	c #999998",
"$#	c #9C9C9C",
"%#	c #9F9F9F",
"&#	c #A3A2A3",
"*#	c #A6A6A6",
"=#	c #A9AAA9",
"-#	c #AFB0AF",
";#	c #B7B7B7",
">#	c #BEBDBD",
",#	c #C5C5C5",
"'#	c #CCCCCC",
")#	c #D3D3D3",
"!#	c #DADADA",
"~#	c #E1E1E1",
"{#	c #E8E8E7",
"]#	c #EEEEEE",
"^#	c #F5F5F5",
"/#	c #FCFCFB",
"(#	c #F4F5F5",
"_#	c #E6E7E7",
":#	c #E0E0E0",
"<#	c #D9D9D9",
"[#	c #D2D2D3",
"}#	c #CCCCCD",
"|#	c #C6C6C6",
"1#	c #C0C0C1",
"2#	c #BABABA",
"3#	c #B3B4B3",
"4#	c #AEADAD",
"5#	c #A8A9A8",
"6#	c #A5A5A5",
"7#	c #A1A1A1",
"8#	c #9D9D9E",
"9#	c #9A9A9A",
"0#	c #969696",
"a#	c #929293",
"b#	c #8F8F8F",
"c#	c #8B8C8C",
"d#	c #888888",
"e#	c #858485",
"f#	c #8C8B8B",
"g#	c #909190",
"h#	c #959695",
"i#	c #989899",
"j#	c #A09F9F",
"k#	c #A2A2A2",
"l#	c #8E8E8E",
"m#	c #B7B6B7",
"n#	c #BEBEBE",
"o#	c #ACABAC",
"p#	c #CCCCCB",
"q#	c #505050",
"r#	c #101010",
"s#	c #020202",
"t#	c #121212",
"u#	c #393939",
"v#	c #B4B4B4",
"w#	c #EDEEEE",
"x#	c #E6E6E6",
"y#	c #E0DFE0",
"z#	c #CCCDCC",
"A#	c #B3B3B3",
"B#	c #2C2C2C",
"C#	c #0D0D0D",
"D#	c #010101",
"E#	c #070707",
"F#	c #252525",
"G#	c #737373",
"H#	c #9D9E9D",
"I#	c #9A999A",
"J#	c #959696",
"K#	c #939292",
"L#	c #8B8B8C",
"M#	c #858585",
"N#	c #8C8C8B",
"O#	c #919091",
"P#	c #969595",
"Q#	c #999999",
"R#	c #9B9C9B",
"S#	c #A2A3A2",
"T#	c #B7B7B6",
"U#	c #ABACAC",
"V#	c #DADADB",
"W#	c #3D3D3D",
"X#	c #212121",
"Y#	c #646464",
"Z#	c #595959",
"`#	c #1F1F1F",
" $	c #8C8D8D",
".$	c #EEEEED",
"+$	c #E7E6E7",
"@$	c #D8D9D9",
"#$	c #D2D3D3",
"$$	c #ABABAB",
"%$	c #222222",
"&$	c #434343",
"*$	c #474747",
"=$	c #1D1D1D",
"-$	c #030303",
";$	c #919291",
">$	c #9A9999",
",$	c #929392",
"'$	c #848584",
")$	c #818282",
"!$	c #878686",
"~$	c #989999",
"{$	c #9FA09F",
"]$	c #A3A3A3",
"^$	c #ACACAC",
"/$	c #DBDADB",
"($	c #050505",
"_$	c #B3B2B3",
":$	c #F5F6F6",
"<$	c #FCFCFC",
"[$	c #FCFBFB",
"}$	c #E6E7E6",
"|$	c #EDEDEE",
"1$	c #E0DFDF",
"2$	c #D8D8D9",
"3$	c #D2D3D2",
"4$	c #C5C6C6",
"5$	c #C0C0C0",
"6$	c #B9BAB9",
"7$	c #AEADAE",
"8$	c #8B8C8B",
"9$	c #929292",
"0$	c #858584",
"a$	c #868786",
"b$	c #919191",
"c$	c #989998",
"d$	c #BFBFBE",
"e$	c #ABABAC",
"f$	c #DADBDB",
"g$	c #1C1C1C",
"h$	c #161616",
"i$	c #5E5E5E",
"j$	c #E2E3E2",
"k$	c #EDEEED",
"l$	c #D2D2D2",
"m$	c #545454",
"n$	c #494948",
"o$	c #1E1E1E",
"p$	c #090909",
"q$	c #969695",
"r$	c #8E8F8F",
"s$	c #888887",
"t$	c #DBDBDB",
"u$	c #141414",
"v$	c #E6E6E7",
"w$	c #616161",
"x$	c #5B5B5B",
"y$	c #585858",
"z$	c #B9B9BA",
"A$	c #0A0A0A",
"B$	c #636262",
"C$	c #999A99",
"D$	c #8F8F8E",
"E$	c #848585",
"F$	c #828181",
"G$	c #969596",
"H$	c #8C8C8C",
"I$	c #B8B8B7",
"J$	c #BBBBBB",
"K$	c #B0B0AF",
"L$	c #E1E2E2",
"M$	c #E3E3E3",
"N$	c #828282",
"O$	c #262626",
"P$	c #151515",
"Q$	c #EEEDED",
"R$	c #C5C6C5",
"S$	c #BFC0C0",
"T$	c #BAB9B9",
"U$	c #A4A4A4",
"V$	c #040404",
"W$	c #939393",
"X$	c #999A9A",
"Y$	c #848484",
"Z$	c #919190",
"`$	c #959596",
" %	c #A09FA0",
".%	c #A3A3A2",
"+%	c #696A69",
"@%	c #B7B7B8",
"#%	c #949393",
"$%	c #C7C7C7",
"%%	c #E9E8E8",
"&%	c #EEEEEF",
"*%	c #BCBCBC",
"=%	c #EDEDED",
"-%	c #CBCBCC",
";%	c #C6C5C5",
">%	c #B6B6B6",
",%	c #B9B9B9",
"'%	c #B4B3B3",
")%	c #ADADAD",
"!%	c #9A9A99",
"~%	c #8F8E8F",
"{%	c #909191",
"]%	c #9D9D9D",
"^%	c #525252",
"/%	c #2B2B2B",
"(%	c #404040",
"_%	c #D4D4D4",
":%	c #636464",
"<%	c #202020",
"[%	c #494949",
"}%	c #D9D9D8",
"|%	c #D2D1D2",
"1%	c #CBCBCB",
"2%	c #60605F",
"3%	c #464646",
"4%	c #444444",
"5%	c #171717",
"6%	c #9B9B9B",
"7%	c #8C8B8C",
"8%	c #9F9FA0",
"9%	c #515251",
"0%	c #0F0F0F",
"a%	c #4C4B4C",
"b%	c #D5D4D5",
"c%	c #646363",
"d%	c #0C0C0C",
"e%	c #5D5D5D",
"f%	c #DFDFE0",
"g%	c #D8D8D8",
"h%	c #828383",
"i%	c #111111",
"j%	c #3B3C3B",
"k%	c #8E8E8D",
"l%	c #818081",
"m%	c #878687",
"n%	c #AAAAA9",
"o%	c #B0B0B0",
"p%	c #B7B8B7",
"q%	c #BFBFBF",
"r%	c #C6C5C6",
"s%	c #CDCDCD",
"t%	c #E2E2E1",
"u%	c #E8E9E8",
"v%	c #EFEFEF",
"w%	c #F6F5F5",
"x%	c #FCFCFD",
"y%	c #FBFAFB",
"z%	c #F3F4F4",
"A%	c #EDEDEC",
"B%	c #ADACAD",
"C%	c #A8A8A8",
"D%	c #A5A5A4",
"E%	c #A1A1A0",
"F%	c #8F8E8E",
"G%	c #888788",
"H%	c #002919",
"I%	c #002D1C",
"J%	c #003F28",
"K%	c #00442B",
". + @ # $ % & * = - ; > , ' ) ! ~ { ] ^ / ( _ : _ < : _ _ ( ( [ } | { 1 2 3 4 5 6 7 8 9 0 a b c ",
"d e # f g h * 8 i j , k 2 l m n o p : q r s t u v w w u t x s r y ( / z A m 2 B 4 C 6 D E F a G ",
"@ H f I J K - ; C 4 ) ! m ] L < y s t M N O P Q R S S S T P O M w t U q ( } | V 2 ' 5 W X Y * & ",
"# Z I 0 E D 6 ` ' 2 V | [ < r x M  .Q ..+.@.#.$.%.%.%.&.$.#.*.=.-.P ;.u s q p z A l ) 4 > >.,.* ",
"f '.0 K >.W 5 ).2 { z ( r t N  ...*.$.!.~.{.].^.^././.^.].(._.:.%.#.=.Q ;.w s : / <.1 [.4 > ; }.",
"|.1.K D 2., 3 l A o : s 3. ...@.%.4.(.5.6.7.8.9.0.0.0.9.a.b.c.5.^._.d.$.e.f.N t r ( g.V 2 ' > i ",
"h.K i.6 5 3 l <./ j.t N Q *.%.~.k.6.8.l.m.n.o.p.q.r.r.q.p.n.s.l.9.7.t.(.u.$.=. .w U _ z m 2 k > ",
"v.i.; ` w.! n p r t O ..$.x.^.y.a.z.n.A.B.C.D.E.E.E.E.F.G.D.H.I.p.s.J.7.K.(.L.+.f.3.x _ } m 2 4 ",
"Y i M.' ! | / y w  .N.&._.5.a.O.o.P.C.Q.R.E.E.E.E.E.E.E.E.S.T.U.G.H.q.s.0.6.^.x.@.-.N s _ z V.[.",
"- > 4 ! { / y u  .W.!.(.X.J.Y.P.Z.`.S. +E.E.E.E..+.+E.E.E.E.++@+S.#+G.H.p.O.8./.4.$+-.N %+_ ] V ",
"6 , [.~ } q t &+e.*+].c.=+p.B.-+;+@+>+E.E.E.E..+.+.+.+E.E.E.E.,+'+)+!+R.D.r.s.~+K.{+]+-.3.^+p | ",
"M.w.l ] _ %+O =.L./+c.O.p.C.R.(+>+_+:+E.E.E..+.+.+.+.+.+E.E.E.<+[+}+|+1+2+Q.3+n.9.K.~.@.T w q L ",
"4 4+{ / ^+M -.$.(.c.z.q.Z.R.@+|+5+6+E.E.E.E..+.+.+.+.+.+E.E.E.E.7+<+8+9+>+S.F.B.0+~+/.:.+.a+t : ",
"B 1 z : u P @.4.b+0.p.Z.c+d+e+f+g+h+E.E.E.E.E..+.+.+.+E.E.E.E.E.i+j+k+6+l+m+n+Q.P.o+b.].%...;.^+",
"2 | p s N =.!.^.p+n.C.R.q+_+f+r+E.E.E.E.E.E.E.E..+.+E.E.E.E.E.E.E.E.s+7+t+}+>+!+G.r.O.6._.@.P w ",
"1 z : w Q $+_.u+m.P.F. +'+f+E.E.E.E.E.E.E.E.E.E.E.E.E.E.E.E.E.E.E.E.E.E.7+t+v+)+w+D.x+0./.:.=.N ",
"{ p r ;.=.!.K.0.p.G.S.++y+E.E.E.E.E.E.E.E.E.E.E.E.E.E.E.E.E.E.E.E.E.E.E.E.7+z+9+@+`.B.s.7.(.$.P ",
"] : t P $+(.c.A+H.R.)+l+E.E.E.E.E.E.E.E.E.E.E.E.E.E.E.E.E.E.E.E.E.E.E.E.E.E.r+f+B+!+G.q.0.t.:...",
"} y M -.L.C+0.D+G.n+B+E+E.E.E..+.+E.E.E.E.E.E.E.E.E.E.E.E.E.E.E.E..+.+E.E.E.j+<+v+d+R.B.m.6._.*.",
"/ s N +.x.X.m.P.`.d+l+E.E.E..+.+.+.+E.E.E.E.E.E.E.E.E.E.E.E.E.E..+.+.+.+E.E.E.F+f+m+S.Z.x+a.].$.",
"_ x a+@.{.b.n.C.w+m+f+E.E..+.+.+.+.+.+E.E.E.E.E.E.E.E.E.E.E.E..+.+.+.+.+.+E.E.G+H+,+@+F.r.l.5.!.",
"_ w Q I+^.9.p.G.n+'+J+E.E..+.+.+.+.+.+E.E.E.E.E.E.E.E.E.E.E.E..+.+.+.+.+.+E.E.s+r+y+K+R.B.m.6.4.",
": M ..L./.0.L+F.@+9+g+E.E.E..+.+.+.+E.E.E.E.E.E.E.E.E.E.E.E.E.E..+.+.+.+E.E.E.i+M+E+|+2+C.Y.7._.",
"r M N+d.b+z.P.U.)+5+r+s+E.E.E..+.+E.E.E.E.E.E.E.E.E.E.E.E.E.E.E.E..+.+E.E.E.O+P+G+J+'+S.Z.o.a./+",
"r M =.x.y.Q+B.#+K+R+S+T+E.E.E.E.E.E.E.E.E.E.E.E.E.E.E.E.E.E.E.E.E.E.E.E.E.E.U+V+G+6+_+W+G.p.~+^.",
"r N e.~.6.o+H.T.>+f+S+X+Y+E.E.E.E.E.E.E.E.E.E.E.E.E.E.E.E.E.E.E.E.E.E.E.E.Z+`+ @j+H+,+.@Q.A.~+].",
"r ;.W.4.6.m.H.T.++f+M+X++@@@E.E.E.E.E.E.E.E.E.E.E.E.E.E.E.E.E.E.E.E.E.E.#@Z+$@V+j+H+,+(+Q.D+9.].",
"r N e.x.y.m.H.T.>+y+S+i+Y+@@%@&@E.E.E.E.E.E.E.E..+.+E.E.E.E.E.E.E.E.*@=@#@-@`+V+j+H+_+ +G.p.p+].",
"y ;@>@d.5.z.P.,@K+5+r+'@)@!@~@{@]@^@E.E.E.E.E..+.+.+.+E.E.E.E.E./@(@_@:@<@[@}@P+h+|@'+n+D.o.a.(.",
"q 3...L.t.l.L+F.q+l+<+1@2@3@Z+#@4@5@E.E.E.E..+.+.+.+.+.+E.E.E.E.6@7@8@&@9@@@0@a@b@[+B+S.C.n.7.{.",
": u S %.^.9.A.Q. +_+t+G+c@O+d@e@&@8@f@E.E.E..+.+.+.+.+.+E.E.E.g@(@5@h@i@j@k@)@T+r+y+>+T.l@m.6.~.",
"( x a+#.(.8.o.Z.2+B+f+M+m@Y+k@n@o@p@q@E.E.E.E..+.+.+.+E.E.E.E.r@^@s@&@e@t@O+V+j+u@l+d+U.L+O.b+:.",
"/ s O +.~.6.m.B.U.d+}+g+v@V+}@t@9@w@x@5@E.E.E.E..+.+E.E.E.E.y@z@8@A@B@j@k@Y+i+7+z+'+n+C@p.9.^.%.",
"D@r 3.=.!./.J.A.Q.(+e+[+7+i+E@$@-@F@G@]@H@E.E.E.E.E.E.E.E.I@*@J@A@i@~@@@O+c@K@g+5+L@#+l@s.M@_.$+",
"] < t f.$+N@b.n.l@#+K+5+g+O@P+0@k@Z+P@{@=@J@5@E.E.E.E.z@Q@_@R@S@#@T@d@U@2@'@M+[+'+n+Q.q.J.5.d.e.",
"{ ( %+V@W.x.b+l.q.Q.n+W@f+k+1@c@X@k@-@e@Y@&@4@]@s@8@J@]@h@S@{@<@n@@@`+)@i+h+Z@9+)+#+l@Y.b./+$.S ",
"`@ #.#+#@###$#%#&#*#=#-#;#>#,#'#)#!#~#{#]#^#/#/#(#]#_#:#<#[#}#|#1#2#3#4#5#6#7#8#9#0#a#b#c#d#e#`@",
"`@ #f#g#h#i#$#j#k#E.E.l#m#n#E.E.o#!#p#q#r#s#t#u#v#w#x#y#<#[#z#|#A#B#C#D#E#F#G#H#I#J#K#b#L#d#M#`@",
"`@ #N#O#P#Q#R#j#S#E.E.l#T#n#E.E.U#V#W#E.X#Y#Z#`# $.$+$:#@$#$'#|#$$%$&$*$=$E.-$;$>$0#,$b#f#d#'$)$",
"`@!$c#g#0#~$$#{$]$E.E.l#;#n#E.E.^$/$($E._$:$<$[$}$|$_#1$2$3$'#4$5$6$3#7$9#E.E.8$>$0#9$b#f#d#0$`@",
"`@a$L#b$J#c$$#%#]$E.E.l#;#d$E.E.e$f$g$E.h$i$Q#j$(#k$}$y#<#l$'#4$5$6$m$n$o$p$m$H#I#q$K#r$f#s$'$`@",
"`@ #L#g#0###$#{$k#E.E.l#;#n#E.E.^$t$]$u$E.E.E.($0#]#v$w$i$x$y$,#5$z$A$E.E.p$B$8#C$q$,$D$.#d#E$`@",
"F$a$8$+#G$##$#%#]$D#E.H$I$J$E.E.K$t$L$M$v#N$O$E.P$Q$v$E.E.E.E.R$S$T$A#U$Y#E.V$W$X$0#9$b#.#d#Y$`@",
"F$!$N#Z$`$Q#$# %.%P$E.+%@%#%E.E.$%/$^$%%&%^#*%E.E#=%x#y#2$l$-%;%>%,%'%)%9#E.E.Y$!%J#9$~%c#s$Y$`@",
"`@!$H${%J###]% %]$^%E.V$/%A$E.(%_%t$E.%$Z#:%<%E.[%=%}$y#}%|%1%,#2%X#3%4%u$E.5%6%C$0#9$D$.#d#'$`@",
"N$a$7%b$G$Q#$#8%]$]$9%u$s#0%a%5$b%t$c%B#d%D#P$e%:#=%x#f%g%l$1%,#h%%$E#s#i%j%k%]%I#G$9$r$L#d#0$l%",
"N$m%H$O#J#Q#$#{$]$*#n%o%p%q%r%s%_%t$t%u%v%w%x%y%z%A%x#1$}%l$-%4$q%T$A#B%C%D%E%]%C$J#9$F%L#G%'$`@",
"Z I F E >.H%I%3 1 | L J%^+w O Q e.@.*+x._.]././.5.b+b+t./.k.(._.d.$.+...P M K%q ( ] m 4+).` ; - "};
