/* XPM */
static char *cyan[] = {
/* columns rows colors chars-per-pixel */
"127 27 185 2",
"   c #008080",
".  c #008081",
"X  c #018080",
"o  c #008082",
"O  c #008083",
"+  c #028080",
"@  c #038080",
"#  c #008184",
"$  c #018184",
"%  c #048080",
"&  c #018288",
"*  c #028289",
"=  c #02828A",
"-  c #02828B",
";  c #03838D",
":  c #098180",
">  c #0B8180",
",  c #0D8180",
"<  c #0F8180",
"1  c #038490",
"2  c #048493",
"3  c #048593",
"4  c #058598",
"5  c #068799",
"6  c #098B9D",
"7  c #108280",
"8  c #1D8381",
"9  c #198A89",
"0  c #10939E",
"q  c #1D9296",
"w  c #098AA6",
"e  c #0889A8",
"r  c #0C8DB7",
"t  c #0D8FB9",
"y  c #0D8EBA",
"u  c #1896A3",
"i  c #189DB0",
"p  c #218481",
"a  c #248582",
"s  c #278482",
"d  c #218A84",
"f  c #229498",
"g  c #23959A",
"h  c #328682",
"j  c #398683",
"k  c #339391",
"l  c #269CAB",
"z  c #2B9FB7",
"x  c #1396C6",
"c  c #1498CC",
"v  c #189DCB",
"b  c #1A9FD2",
"n  c #1DA4D3",
"m  c #23ACC8",
"M  c #2DB6DE",
"N  c #33C3E1",
"B  c #32C0E7",
"V  c #32C2E7",
"C  c #33C3E8",
"Z  c #35C6E9",
"A  c #458883",
"S  c #478B84",
"D  c #4B8984",
"F  c #4F8984",
"G  c #479588",
"H  c #499487",
"J  c #429994",
"K  c #449A95",
"L  c #588A84",
"P  c #5D8B85",
"I  c #6B8D86",
"U  c #748E86",
"Y  c #65A89E",
"T  c #7FA398",
"R  c #64ABA4",
"E  c #4BB3C0",
"W  c #5ABBC6",
"Q  c #5BBBCB",
"!  c #50BEDE",
"~  c #54BFE0",
"^  c #49CBEB",
"/  c #41D0EC",
"(  c #49D8EF",
")  c #53DCF1",
"_  c #5CE4F4",
"`  c #66C3D4",
"'  c #76C4CC",
"]  c #69E6F4",
"[  c #6FE4F4",
"{  c #6AE9F6",
"}  c #8D8D8D",
"|  c #8F9789",
" . c #8A9E8C",
".. c #96978A",
"X. c #9B998A",
"o. c #8AAA91",
"O. c #88B39E",
"+. c #94A99B",
"@. c #92B69E",
"#. c #A5A18D",
"$. c #B7A890",
"%. c #9EC4B9",
"&. c #AAC8B9",
"*. c #9FDDE8",
"=. c #8DE6F5",
"-. c #9FE5F5",
";. c #9DECF7",
":. c #ACCDC3",
">. c #B1CDC0",
",. c #B2D1C6",
"<. c #A1DCE7",
"1. c #AFE0E8",
"2. c #AEECF7",
"3. c #A7F4FA",
"4. c #A9F1F9",
"5. c #B2E1E8",
"6. c #BEE6ED",
"7. c #B7F6FB",
"8. c #BEF7FB",
"9. c #C7B795",
"0. c #CABA96",
"q. c #CCBD97",
"w. c #D1C49A",
"e. c #D4C89B",
"r. c #D5CB9D",
"t. c #D8CFA4",
"y. c #E4DFB2",
"u. c #C0C0C0",
"i. c #D2D4C3",
"p. c #D3D5C4",
"a. c #C4E9F1",
"s. c #C7F8FC",
"d. c #CCF9FC",
"f. c #CEF9FC",
"g. c #D1FAFC",
"h. c #D3FAFD",
"j. c #DFFBFD",
"k. c #E5DEC5",
"l. c #E0DED1",
"z. c #EAE6C1",
"x. c #EBE7C2",
"c. c #F1EFC6",
"v. c #F0EECE",
"b. c #F3F2C9",
"n. c #F3F2CC",
"m. c #F5F5D3",
"M. c #F6F6D8",
"N. c #F6F6DA",
"B. c #E2EBE6",
"V. c #E6EDE5",
"C. c #E9F1EB",
"Z. c #EFF2EB",
"A. c #EDF3EE",
"S. c #E7F7FA",
"D. c #E5FCFE",
"F. c #E9F7F9",
"G. c #EAFDFE",
"H. c #EEFAFB",
"J. c #EFFAFC",
"K. c #EFFBFD",
"L. c #ECFDFE",
"P. c #EDFDFE",
"I. c #F7F6E4",
"U. c #F1F5EF",
"Y. c #F9F9E5",
"T. c #F9F9E6",
"R. c #F9F8EF",
"E. c #FBFBED",
"W. c #F3FEFE",
"Q. c #F4FCFD",
"!. c #F7FEFE",
"~. c #F7FEFF",
"^. c #FCFCF2",
"/. c #FBFDFB",
"(. c #F8FEFF",
"). c #FDFDF8",
"_. c #FCFCFA",
"`. c #FEFEFB",
"'. c #FDFDFD",
"]. c #FDFEFD",
"[. c #FCFFFF",
"{. c #FEFFFD",
"}. c #FEFFFE",
"|. c #FEFFFF",
" X c gray100",
/* pixels */
"} } } } } } } } } } } } } } } } } } } } } } } } } } } } } } } } } } } } } } } } } } } } } } } } } } } } } } } } } } } } } } } } } } } } } } } } } } } } } } } } } } } } } } } } } } } } } } } } } } } } } } } } } } } } } } } } } } } } } } } } } } } } } } u.",
"}                                                                                                                                                                                                                                                           u.",
"}                                                                                                                                                                                                                                                           u.",
"}                                                                                                                                                                                                                                                           u.",
"}                                                                                                                                                                                                                                                           u.",
"}                                                                                                                                                                                                                                                           u.",
"}           # E 5.F./.C.,.G                                                                                                                                                                                                                                 u.",
"}         3 -. X X X X X X).o.                                                                                                                                                                                                                              u.",
"}         =. X Xp.K f Q W. X^.s                                                                                                                                                                                                                             u.",
"}       v  X Xz.        M  X X#.                                                                                                                                                                                                                            u.",
"}       _  X X..        ; R d   ]  XY.      & G. Xr.    i <.H. XA.>.p      X X X6 <.J.U.&.<                                                                                                                                                                 u.",
"}       8. X Xh                 b  X XU     c  X XI   w K. X X X X Xy.     X X X4. X X X Xt.                                                                                                                                                                u.",
"}       W. X X:                 & D. Xw.    (  XN.    N (. X+.z  X XE.     X X Xk.k ~  X XY.                                                                                                                                                                u.",
"}       (. X X,                 + )  XN.    d. Xw.      # q % u  X X X     X X XL   3  X X X                                                                                                                                                                u.",
"}       d. X Xj           :     + x  X XL t  X XP       0 ' a. X X X X     X X X<      X X X                                                                                                                                                                u.",
"}       ]  X XX.        e ^.:.H + # g. X0.Z  Xm.      m W. Xl.Y  X X X     X X X       X X X                                                                                                                                                                u.",
"}       n  X Xz.+ + + + ^  X X|     /  Xb.3. Xq.+ + + s. X X8 -  X X X     X X X       X X X                                                                                                                                                                u.",
"}         ;. X Xp.J f ` (. Xv.      t  X X X XF + + + G. X XT !  X X X<    X X X       X X X                                                                                                                                                                u.",
"}         5 2. X X X X X XI.S         7. X Xn.  + + + [  X X X Xg. X XD    X X X       X X X                                                                                                                                                                u.",
"}           & W 6.J.).B.%.s           V  X X9.  + + + 5 *.Q.Z.@.V  X X$.   X X X       X X X                                                                                                                                                                u.",
"}                                     V  X XA   + + + + + + + +                                                                                                                                                                                             u.",
"}                               & 9 l j. Xc.    + + + + + + + +                                                                                                                                                                                             u.",
"}                               r  X X X X .    + + + + + + + +                                                                                                                                                                                             u.",
"}                               4 F. XV.O.      + + + + + + + +                                                                                                                                                                                             u.",
"}                               + + + + + + + + + + + + + + + +                                                                                                                                                                                             u.",
"}                               + + + + + + + + + + + + + + + +                                                                                                                                                                                             u.",
"} u.u.u.u.u.u.u.u.u.u.u.u.u.u.u.u.u.u.u.u.u.u.u.u.u.u.u.u.u.u.u.u.u.u.u.u.u.u.u.u.u.u.u.u.u.u.u.u.u.u.u.u.u.u.u.u.u.u.u.u.u.u.u.u.u.u.u.u.u.u.u.u.u.u.u.u.u.u.u.u.u.u.u.u.u.u.u.u.u.u.u.u.u.u.u.u.u.u.u.u.u.u.u.u.u.u.u.u.u.u.u.u.u.u.u.u.u.u.u.u.u.u.u.u.u.u."
};
