/* XPM */
static char *red[] = {
/* columns rows colors chars-per-pixel */
"127 27 128 2",
"   c #800000",
".  c #810000",
"X  c #800203",
"o  c #840200",
"O  c #840401",
"+  c #80020A",
"@  c #80020B",
"#  c #80030D",
"$  c #880401",
"%  c #8A0402",
"&  c #8C0502",
"*  c #810514",
"=  c #81071D",
"-  c #81071E",
";  c #86131B",
":  c #8E1C1C",
">  c #8E1D1D",
",  c #8E1C1E",
"<  c #900803",
"1  c #920C05",
"2  c #9F1C0B",
"3  c #810821",
"4  c #820B24",
"5  c #820928",
"6  c #830F3F",
"7  c #83103D",
"8  c #93211A",
"9  c #9B221E",
"0  c #8F2134",
"q  c #962423",
"w  c #90252D",
"e  c #952429",
"r  c #95252E",
"t  c #982830",
"y  c #A11208",
"u  c #A11408",
"i  c #AA1409",
"p  c #AF170A",
"a  c #AA190B",
"s  c #AB2C11",
"d  c #AD2F12",
"f  c #AF3E1C",
"g  c #B42D12",
"h  c #B92F13",
"j  c #84164C",
"k  c #85165B",
"l  c #85165C",
"z  c #893057",
"x  c #8A355A",
"c  c #963749",
"v  c #892C72",
"b  c #BB491F",
"n  c #D2471D",
"m  c #C87E6B",
"M  c #966FBB",
"N  c #977AC9",
"B  c #CD8162",
"V  c #E99245",
"C  c #E49066",
"Z  c #E8996E",
"A  c #E8A54A",
"S  c #F0B37C",
"D  c #F3C466",
"F  c #F6D469",
"G  c #8D8D8D",
"H  c #BC94A7",
"J  c #BA92A9",
"K  c #9A88CF",
"L  c #AB80C2",
"P  c #AF8AC7",
"I  c #B18DC6",
"U  c #B89DD3",
"Y  c #A2A5DB",
"T  c #ACA8DC",
"R  c #A7B2DF",
"E  c #DEAA94",
"W  c #F1B780",
"Q  c #F2BE87",
"!  c #E1B5A5",
"~  c #C0B8E3",
"^  c #C1BAE4",
"/  c #F5CF86",
"(  c #F7DA80",
")  c #EFCCB8",
"_  c #F1D2BC",
"`  c #F7D6BF",
"'  c #FBECBD",
"]  c #FBEEBD",
"[  c #C0C0C0",
"{  c #D9C7D8",
"}  c #DACBDE",
"|  c #D4D7EF",
" . c #D4D8EF",
".. c #CFE7F4",
"X. c #D4E5F3",
"o. c #D5EAF5",
"O. c #D8E0F2",
"+. c #D9ECF6",
"@. c #DDEEF7",
"#. c #F3DDCE",
"$. c #FBEDCC",
"%. c #F5E7DF",
"&. c #FCF1C7",
"*. c #FDF4D4",
"=. c #FDF5D8",
"-. c #EAE2E9",
";. c #ECE5ED",
":. c #EFF7FB",
">. c #FAEDE4",
",. c #FDF7E1",
"<. c #FDF8E1",
"1. c #FEFAED",
"2. c #F2F8FC",
"3. c #F4F9FC",
"4. c #F5FAFC",
"5. c #F7FBFD",
"6. c #FBFAF7",
"7. c #FEFBF0",
"8. c #FDF9F7",
"9. c #FDFAF7",
"0. c #FEFCF2",
"q. c #FEFCF5",
"w. c #FAF9F8",
"e. c #F8FBFD",
"r. c #FCFBFC",
"t. c #FFFEFA",
"y. c #FEFEFE",
"u. c gray100",
/* pixels */
"G G G G G G G G G G G G G G G G G G G G G G G G G G G G G G G G G G G G G G G G G G G G G G G G G G G G G G G G G G G G G G G G G G G G G G G G G G G G G G G G G G G G G G G G G G G G G G G G G G G G G G G G G G G G G G G G G G G G G G G G G G G G G G [ ",
"G                                                                                                                                                                                                                                                           [ ",
"G                                                                                                                                                                                                                                                           [ ",
"G                                                                                                                                                                                                                                                           [ ",
"G                                                                                                                                                                                                                                                           [ ",
"G                                                                                                                                                                                                                                                           [ ",
"G       u.u.u.u.u.u.8.%.! f                                         u.u.u.                                                                                                                                                                                  [ ",
"G       u.u.u.u.u.u.u.u.u.q.h                                       u.u.u.                                                                                                                                                                                  [ ",
"G       u.u.u.: : : w U u.u.(                                       u.u.u.                                                                                                                                                                                  [ ",
"G       u.u.u.        5 u.u.1.                                      u.u.u.                                                                                                                                                                                  [ ",
"G       u.u.u.        4 u.u.<.      = J ;.9.#.B &         x { w._ d u.u.u.                                                                                                                                                                                  [ ",
"G       u.u.u.      ; P u.u.D     *  .u.u.u.u.u.Q       j 3.u.u.u.*.u.u.u.                                                                                                                                                                                  [ ",
"G       u.u.u.u.u.u.u.u.u.$.u     N u.u.C e P u.u.n     R u.u.S t ~ u.u.u.                                                                                                                                                                                  [ ",
"G       u.u.u.u.u.u.u.` m 1       ..u.u.9 > 0 u.u.F     @.u.u.i   k u.u.u.                                                                                                                                                                                  [ ",
"G       u.u.u.: c | u.,.b         3.u.u.u.u.u.u.u.&.    e.u.u.    # u.u.u.                                                                                                                                                                                  [ ",
"G       u.u.u.    7 2.u.0.g       e.u.u.u.u.u.u.u.7.    5.u.u.&   @ u.u.u.                                                                                                                                                                                  [ ",
"G       u.u.u.      M u.u.' &     o.u.u.&   # 8 O       +.u.u.p   l u.u.u.                                                                                                                                                                                  [ ",
"G       u.u.u.      + X.u.u.V     K u.u.Z q L u.u.V     Y u.u.S r ^ u.u.u.                                                                                                                                                                                  [ ",
"G       u.u.u.        v u.u.q.a   = O.u.u.u.u.u.=.2     6 :.u.u.u.' u.u.u.                                                                                                                                                                                  [ ",
"G       u.u.u.          T u.u./     4 H -.u.>.E 2         z } 6.) s u.u.u.                                                                                                                                                                                  [ ",
"G                                                                                                                                                                                                                                                           [ ",
"G                                                                                                                                                                                                                                                           [ ",
"G                                                                                                                                                                                                                                                           [ ",
"G                                                                                                                                                                                                                                                           [ ",
"G                                                                                                                                                                                                                                                           [ ",
"G                                                                                                                                                                                                                                                           [ ",
"G [ [ [ [ [ [ [ [ [ [ [ [ [ [ [ [ [ [ [ [ [ [ [ [ [ [ [ [ [ [ [ [ [ [ [ [ [ [ [ [ [ [ [ [ [ [ [ [ [ [ [ [ [ [ [ [ [ [ [ [ [ [ [ [ [ [ [ [ [ [ [ [ [ [ [ [ [ [ [ [ [ [ [ [ [ [ [ [ [ [ [ [ [ [ [ [ [ [ [ [ [ [ [ [ [ [ [ [ [ [ [ [ [ [ [ [ [ [ [ [ [ [ [ [ [ [ "
};
