/* XPM */
static char * ultra_xpm[] = {
"44 44 37 1",
" 	c None",
".	c #000000",
"+	c #00FEA8",
"@	c #01FEBA",
"#	c #FBFBFF",
"$	c #F7F7FF",
"%	c #EFEFFF",
"&	c #04FEC6",
"*	c #EBEBFF",
"=	c #E7E7FF",
"-	c #0CFEDD",
";	c #E3E3FF",
">	c #DBDBFF",
",	c #D7D7FF",
"'	c #00FFFF",
")	c #D3D3FF",
"!	c #CFCFFF",
"~	c #C7C7FF",
"{	c #C3C3FF",
"]	c #BEBEFF",
"^	c #B6B6FF",
"/	c #B2B2FF",
"(	c #AEAEFF",
"_	c #FFFFFF",
":	c #AAAAFF",
"<	c #9E9EFF",
"[	c #A2A2FF",
"}	c #9292FF",
"|	c #9A9AFF",
"1	c #8E8EFF",
"2	c #8A8AFF",
"3	c #8686FF",
"4	c #7979FF",
"5	c #7D7DFF",
"6	c #7575FF",
"7	c #6969FF",
"8	c #010101",
"............................................",
".++++++++++++++++++++++++++++++++++++++++++.",
".+@@@@@@@@@@@@@@##$$%%%%%$$##@@@@@@@@@@@@@+.",
".+@&&&&&&&&&&&#$%**=======**%$#&&&&&&&&&&@+.",
".+@&--------#%*==;>>>,,,>>>;==*%#-------&@+.",
".+@&-''''''$*=;>,,))!!!!!)),,>;=*$'''''-&@+.",
".+@&-'''''%*;>,)!~~{{{{{{{~~!),>;*%''''-&@+.",
".+@&-''''%=;,)!~{]^^....^^^]{~!),;=%'''-&@+.",
".+@&-'''%=>,!~{]^/........(/^]{~!,>=%''-&@+.",
".+@&-''%=>,!~]^/(....__....:(/^]~!,>=%'-&@+.",
".+@&-'%=>,!{]/(:....____....<:(/]{!,>=%-&@+.",
".+@&-$*;,!{]/:[<...______...}<[:/]{!,;*$&@+.",
".+@&#*;,!~]/:[|....______....}|[:/]~!,;*#@+.",
".+@_%=>)~]/:[|1.....____.....21|[:/]~)>=%@+.",
".+@#*;,!{^([|........__........1|[(^{!,;*#+.",
".+_$=>)~]/:......................<:/]~)>=$+.",
".+#%=,!{^(........................<(^{!,=%+.",
".+#*;,~]/..........................:/]~,;*+.",
".+$*>)~^(...__................__...[(^~)>*+.",
".+$=>){^...____..............____...(^{)>=+.",
".+%=>!{^..______............______..:^{!>=+.",
".+%=,!{/..______............______..:/{!,=+.",
".+%=,!{/...____..............____...:/{!,=+.",
".+%=,!{/:...__................__...<:/{!,=+.",
".+%=>!{^:..........................<:^{!>=+.",
".+$=>){^(<........................}<(^{)>=+.",
"._$*>)~^([|......................2|[(^~)>*$.",
"._#*;,~]/:|13........__........431|:/]~,;*#.",
"._#%=,!{^(<}256.....____.....7652}<(^{!,=%#.",
".__$=>)~]/:<}25....______....652}<:/]~)>=$_.",
".__#*;,!{^([|135...______...6531|[(^{!,;*#_.",
".___%=>)~]/:[|12....____....521|[:/]~)>=%__.",
".___#*;,!~]/:[|}2....__....32}|[:/]~!,;*#__.",
".____$*;,!{]/:[<}1........21}<[:/]{!,;*$___.",
".____#%=>,!{]/(:<||}....1}||<:(/]{!,>=%#___.",
"._____#%=>,!~]^/(:[<<<|<<<[:(/^]~!,>=%#____.",
".___.__$.=.,!.{]^/((:::..../^]{~!,>=%$_____.",
".___.___.%.;....{^...//.^^^]...)...%....___.",
".___.___.#.*;.,...~{.{{....~.),>;*.#.__.___.",
".___.___._.$*.;.,,...!!!!).,.>;=..._.__.___.",
".___.___._._#.*.=;._.,,,>>.;.=*%._._.__.___.",
".___8...8_.__.#.%*....=....*..._.....__.___.",
"._______________##$$%%%%%$$##______________.",
"............................................"};
